G04 Layer_Color=8421504*
%FSLAX44Y44*%
%MOMM*%
G71*
G01*
G75*
%ADD10R,0.3000X1.4000*%
%ADD11R,0.5500X0.5500*%
%ADD12C,0.2540*%
%ADD14C,0.1524*%
D10*
X1248885Y792705D02*
D03*
X1243885D02*
D03*
X1238885D02*
D03*
X1233885D02*
D03*
X1228885D02*
D03*
Y836705D02*
D03*
X1233885D02*
D03*
X1238885D02*
D03*
X1243885D02*
D03*
X1248885D02*
D03*
D11*
X1252982Y775335D02*
D03*
X1241298D02*
D03*
D12*
X1687195Y1310005D02*
X1692275D01*
X1687195Y659765D02*
X1692275D01*
X1689735Y1310005D02*
X1694815Y1294765D01*
X1684655D02*
X1689735Y1310005D01*
Y659765D02*
X1694815Y675005D01*
X1684655D02*
X1689735Y659765D01*
Y1065124D02*
Y1310005D01*
Y659765D02*
Y904646D01*
X1674262Y1322705D02*
Y1327785D01*
X1060852Y1322705D02*
Y1327785D01*
X1659022Y1320165D02*
X1674262Y1325245D01*
X1659022Y1330325D02*
X1674262Y1325245D01*
X1060852D02*
X1076092Y1320165D01*
X1060852Y1325245D02*
X1076092Y1330325D01*
X1445258Y1325245D02*
X1674262D01*
X1060852D02*
X1289857D01*
D14*
X1683642Y917342D02*
X1686181Y912264D01*
X1691259Y907186D01*
X1696337D01*
X1698876Y909725D01*
Y914803D01*
X1696337Y917342D01*
X1693798D01*
X1691259Y914803D01*
Y907186D01*
X1683642Y932577D02*
Y922421D01*
X1691259D01*
X1688720Y927499D01*
Y930038D01*
X1691259Y932577D01*
X1696337D01*
X1698876Y930038D01*
Y924960D01*
X1696337Y922421D01*
X1698876Y937656D02*
X1696337D01*
Y940195D01*
X1698876D01*
Y937656D01*
X1686181Y950352D02*
X1683642Y952891D01*
Y957969D01*
X1686181Y960508D01*
X1696337D01*
X1698876Y957969D01*
Y952891D01*
X1696337Y950352D01*
X1686181D01*
X1698876Y975743D02*
Y965587D01*
X1688720Y975743D01*
X1686181D01*
X1683642Y973204D01*
Y968126D01*
X1686181Y965587D01*
X1698876Y988439D02*
X1683642D01*
X1691259Y980822D01*
Y990978D01*
X1698876Y1016370D02*
X1693798Y1011292D01*
X1688720D01*
X1683642Y1016370D01*
X1698876Y1023988D02*
X1688720D01*
Y1026527D01*
X1691259Y1029066D01*
X1698876D01*
X1691259D01*
X1688720Y1031605D01*
X1691259Y1034145D01*
X1698876D01*
Y1039223D02*
X1688720D01*
Y1041762D01*
X1691259Y1044301D01*
X1698876D01*
X1691259D01*
X1688720Y1046841D01*
X1691259Y1049380D01*
X1698876D01*
Y1054458D02*
X1693798Y1059536D01*
X1688720D01*
X1683642Y1054458D01*
X1302554Y1331339D02*
X1297475Y1328799D01*
X1292397Y1323721D01*
Y1318643D01*
X1294936Y1316104D01*
X1300015D01*
X1302554Y1318643D01*
Y1321182D01*
X1300015Y1323721D01*
X1292397D01*
X1307632Y1316104D02*
X1312711D01*
X1310171D01*
Y1331339D01*
X1307632Y1328799D01*
X1320328Y1316104D02*
Y1318643D01*
X1322867D01*
Y1316104D01*
X1320328D01*
X1333024Y1328799D02*
X1335563Y1331339D01*
X1340642D01*
X1343181Y1328799D01*
Y1326260D01*
X1340642Y1323721D01*
X1338102D01*
X1340642D01*
X1343181Y1321182D01*
Y1318643D01*
X1340642Y1316104D01*
X1335563D01*
X1333024Y1318643D01*
X1355877Y1316104D02*
Y1331339D01*
X1348259Y1323721D01*
X1358416D01*
X1363494Y1316104D02*
X1368573D01*
X1366033D01*
Y1331339D01*
X1363494Y1328799D01*
X1396503Y1316104D02*
X1391425Y1321182D01*
Y1326260D01*
X1396503Y1331339D01*
X1404121Y1316104D02*
Y1326260D01*
X1406660D01*
X1409199Y1323721D01*
Y1316104D01*
Y1323721D01*
X1411739Y1326260D01*
X1414278Y1323721D01*
Y1316104D01*
X1419356D02*
Y1326260D01*
X1421895D01*
X1424434Y1323721D01*
Y1316104D01*
Y1323721D01*
X1426974Y1326260D01*
X1429513Y1323721D01*
Y1316104D01*
X1434591D02*
X1439669Y1321182D01*
Y1326260D01*
X1434591Y1331339D01*
M02*
