G04 Layer_Physical_Order=2*
G04 Layer_Color=16711680*
%FSLAX44Y44*%
%MOMM*%
G71*
G01*
G75*
%ADD12C,0.2540*%
%ADD13C,0.5080*%
%ADD14C,0.1524*%
%ADD15C,6.0000*%
%ADD16R,1.5000X1.5000*%
%ADD17C,1.5000*%
%ADD18C,0.3810*%
G36*
X1674495Y659765D02*
X1061085D01*
Y1310005D01*
X1674495D01*
Y659765D01*
D02*
G37*
%LPC*%
G36*
X1471295Y855144D02*
X1469944Y854967D01*
X1467502Y853955D01*
X1465404Y852346D01*
X1463795Y850248D01*
X1462783Y847806D01*
X1462606Y846455D01*
X1471295D01*
Y855144D01*
D02*
G37*
G36*
X1420495D02*
X1419144Y854967D01*
X1416702Y853955D01*
X1414604Y852346D01*
X1412995Y850248D01*
X1411983Y847806D01*
X1411806Y846455D01*
X1420495D01*
Y855144D01*
D02*
G37*
G36*
X1423035D02*
Y846455D01*
X1431724D01*
X1431547Y847806D01*
X1430535Y850248D01*
X1428926Y852346D01*
X1426828Y853955D01*
X1424386Y854967D01*
X1423035Y855144D01*
D02*
G37*
G36*
X1396365Y879431D02*
X1394076Y879129D01*
X1391942Y878246D01*
X1390110Y876840D01*
X1388704Y875008D01*
X1387945Y873175D01*
X1142365D01*
X1141374Y872978D01*
X1140534Y872416D01*
X1127957Y859840D01*
X1100893D01*
X1094270Y866462D01*
X1095029Y868296D01*
X1095331Y870585D01*
X1095029Y872874D01*
X1094146Y875008D01*
X1092740Y876840D01*
X1090908Y878246D01*
X1088774Y879129D01*
X1086485Y879431D01*
X1084196Y879129D01*
X1082062Y878246D01*
X1080230Y876840D01*
X1078824Y875008D01*
X1077941Y872874D01*
X1077639Y870585D01*
X1077941Y868296D01*
X1078824Y866162D01*
X1080230Y864330D01*
X1082062Y862924D01*
X1084196Y862041D01*
X1086485Y861739D01*
X1088774Y862041D01*
X1090608Y862800D01*
X1097989Y855419D01*
X1098829Y854857D01*
X1099820Y854660D01*
X1105655D01*
X1106086Y853390D01*
X1104724Y852346D01*
X1103115Y850248D01*
X1102103Y847806D01*
X1101926Y846455D01*
X1111885D01*
X1121844D01*
X1121667Y847806D01*
X1120655Y850248D01*
X1119046Y852346D01*
X1117684Y853390D01*
X1118115Y854660D01*
X1129030D01*
X1130021Y854857D01*
X1130861Y855419D01*
X1143438Y867995D01*
X1387945D01*
X1388704Y866162D01*
X1390110Y864330D01*
X1391942Y862924D01*
X1394076Y862041D01*
X1396365Y861739D01*
X1398654Y862041D01*
X1400788Y862924D01*
X1402620Y864330D01*
X1404026Y866162D01*
X1404909Y868296D01*
X1405211Y870585D01*
X1404909Y872874D01*
X1404026Y875008D01*
X1402620Y876840D01*
X1400788Y878246D01*
X1398654Y879129D01*
X1396365Y879431D01*
D02*
G37*
G36*
X1473835Y855144D02*
Y846455D01*
X1482524D01*
X1482347Y847806D01*
X1481335Y850248D01*
X1479726Y852346D01*
X1477628Y853955D01*
X1475186Y854967D01*
X1473835Y855144D01*
D02*
G37*
G36*
X1482524Y843915D02*
X1473835D01*
Y835226D01*
X1475186Y835403D01*
X1477628Y836415D01*
X1479726Y838024D01*
X1481335Y840122D01*
X1482347Y842564D01*
X1482524Y843915D01*
D02*
G37*
G36*
X1431724D02*
X1423035D01*
Y835226D01*
X1424386Y835403D01*
X1426828Y836415D01*
X1428926Y838024D01*
X1430535Y840122D01*
X1431547Y842564D01*
X1431724Y843915D01*
D02*
G37*
G36*
X1086485Y854031D02*
X1084196Y853729D01*
X1082062Y852846D01*
X1080230Y851440D01*
X1078824Y849608D01*
X1077941Y847474D01*
X1077639Y845185D01*
X1077941Y842896D01*
X1078824Y840762D01*
X1080230Y838930D01*
X1082062Y837524D01*
X1084196Y836641D01*
X1086485Y836339D01*
X1088774Y836641D01*
X1090908Y837524D01*
X1092740Y838930D01*
X1094146Y840762D01*
X1095029Y842896D01*
X1095331Y845185D01*
X1095029Y847474D01*
X1094146Y849608D01*
X1092740Y851440D01*
X1090908Y852846D01*
X1088774Y853729D01*
X1086485Y854031D01*
D02*
G37*
G36*
X1447165D02*
X1444876Y853729D01*
X1442742Y852846D01*
X1440910Y851440D01*
X1439504Y849608D01*
X1438621Y847474D01*
X1438319Y845185D01*
X1438621Y842896D01*
X1439504Y840762D01*
X1440910Y838930D01*
X1442742Y837524D01*
X1444876Y836641D01*
X1447165Y836339D01*
X1449454Y836641D01*
X1451588Y837524D01*
X1453420Y838930D01*
X1454826Y840762D01*
X1455709Y842896D01*
X1456011Y845185D01*
X1455709Y847474D01*
X1454826Y849608D01*
X1453420Y851440D01*
X1451588Y852846D01*
X1449454Y853729D01*
X1447165Y854031D01*
D02*
G37*
G36*
X1396365D02*
X1394076Y853729D01*
X1391942Y852846D01*
X1390110Y851440D01*
X1388704Y849608D01*
X1387821Y847474D01*
X1387519Y845185D01*
X1387821Y842896D01*
X1388704Y840762D01*
X1390110Y838930D01*
X1391942Y837524D01*
X1394076Y836641D01*
X1396365Y836339D01*
X1398654Y836641D01*
X1400788Y837524D01*
X1402620Y838930D01*
X1404026Y840762D01*
X1404909Y842896D01*
X1405211Y845185D01*
X1404909Y847474D01*
X1404026Y849608D01*
X1402620Y851440D01*
X1400788Y852846D01*
X1398654Y853729D01*
X1396365Y854031D01*
D02*
G37*
G36*
X1406324Y970915D02*
X1396365D01*
X1386406D01*
X1386583Y969564D01*
X1387595Y967122D01*
X1389204Y965024D01*
X1391302Y963415D01*
X1391472Y963345D01*
X1391219Y962075D01*
X1142365D01*
X1141374Y961878D01*
X1140534Y961316D01*
X1128592Y949375D01*
X1120305D01*
X1119546Y951208D01*
X1118140Y953040D01*
X1116308Y954446D01*
X1114174Y955329D01*
X1111885Y955631D01*
X1109596Y955329D01*
X1107462Y954446D01*
X1105630Y953040D01*
X1104224Y951208D01*
X1103341Y949074D01*
X1103039Y946785D01*
X1103341Y944496D01*
X1104224Y942362D01*
X1105630Y940530D01*
X1107462Y939124D01*
X1109596Y938241D01*
X1111885Y937939D01*
X1114174Y938241D01*
X1116308Y939124D01*
X1118140Y940530D01*
X1119546Y942362D01*
X1120305Y944195D01*
X1129665D01*
X1130656Y944392D01*
X1131496Y944954D01*
X1143438Y956895D01*
X1407992D01*
X1413980Y950908D01*
X1413221Y949074D01*
X1412919Y946785D01*
X1413221Y944496D01*
X1414104Y942362D01*
X1415510Y940530D01*
X1417342Y939124D01*
X1419476Y938241D01*
X1421765Y937939D01*
X1424054Y938241D01*
X1424593Y938464D01*
X1431718Y931338D01*
X1432978Y930496D01*
X1434465Y930200D01*
X1442238D01*
X1442561Y929459D01*
X1442592Y928930D01*
X1440910Y927640D01*
X1439504Y925808D01*
X1438621Y923674D01*
X1438319Y921385D01*
X1438621Y919096D01*
X1439504Y916962D01*
X1440910Y915130D01*
X1442742Y913724D01*
X1444057Y913180D01*
X1443804Y911910D01*
X1434903D01*
X1429550Y917262D01*
X1430309Y919096D01*
X1430611Y921385D01*
X1430309Y923674D01*
X1429426Y925808D01*
X1428020Y927640D01*
X1426188Y929046D01*
X1424054Y929929D01*
X1421765Y930231D01*
X1419476Y929929D01*
X1417643Y929170D01*
X1410896Y935916D01*
X1410056Y936478D01*
X1409065Y936675D01*
X1142365D01*
X1141374Y936478D01*
X1140534Y935916D01*
X1128592Y923975D01*
X1120305D01*
X1119546Y925808D01*
X1118140Y927640D01*
X1116308Y929046D01*
X1114993Y929590D01*
X1115246Y930860D01*
X1129030D01*
X1130021Y931057D01*
X1130861Y931619D01*
X1143438Y944195D01*
X1387945D01*
X1388704Y942362D01*
X1390110Y940530D01*
X1391942Y939124D01*
X1394076Y938241D01*
X1396365Y937939D01*
X1398654Y938241D01*
X1400788Y939124D01*
X1402620Y940530D01*
X1404026Y942362D01*
X1404909Y944496D01*
X1405211Y946785D01*
X1404909Y949074D01*
X1404026Y951208D01*
X1402620Y953040D01*
X1400788Y954446D01*
X1398654Y955329D01*
X1396365Y955631D01*
X1394076Y955329D01*
X1391942Y954446D01*
X1390110Y953040D01*
X1388704Y951208D01*
X1387945Y949375D01*
X1142365D01*
X1141374Y949178D01*
X1140534Y948616D01*
X1127957Y936040D01*
X1100893D01*
X1094270Y942663D01*
X1095029Y944496D01*
X1095331Y946785D01*
X1095029Y949074D01*
X1094146Y951208D01*
X1092740Y953040D01*
X1090908Y954446D01*
X1088774Y955329D01*
X1086485Y955631D01*
X1084196Y955329D01*
X1082062Y954446D01*
X1080230Y953040D01*
X1078824Y951208D01*
X1077941Y949074D01*
X1077639Y946785D01*
X1077941Y944496D01*
X1078824Y942362D01*
X1080230Y940530D01*
X1082062Y939124D01*
X1084196Y938241D01*
X1086485Y937939D01*
X1088774Y938241D01*
X1090608Y939000D01*
X1097989Y931619D01*
X1098829Y931057D01*
X1099820Y930860D01*
X1108524D01*
X1108777Y929590D01*
X1107462Y929046D01*
X1105630Y927640D01*
X1104224Y925808D01*
X1103341Y923674D01*
X1103039Y921385D01*
X1103341Y919096D01*
X1104224Y916962D01*
X1105630Y915130D01*
X1107462Y913724D01*
X1109596Y912841D01*
X1111885Y912539D01*
X1114174Y912841D01*
X1116308Y913724D01*
X1118140Y915130D01*
X1119546Y916962D01*
X1120305Y918795D01*
X1129665D01*
X1130656Y918992D01*
X1131496Y919554D01*
X1143438Y931495D01*
X1407992D01*
X1413980Y925508D01*
X1413221Y923674D01*
X1412919Y921385D01*
X1413221Y919096D01*
X1414104Y916962D01*
X1415510Y915130D01*
X1417342Y913724D01*
X1419476Y912841D01*
X1421765Y912539D01*
X1424054Y912841D01*
X1425887Y913600D01*
X1431999Y907489D01*
X1432839Y906927D01*
X1433830Y906730D01*
X1443552D01*
X1443804Y905460D01*
X1442102Y904755D01*
X1440004Y903146D01*
X1438395Y901048D01*
X1437383Y898606D01*
X1437206Y897255D01*
X1447165D01*
X1457124D01*
X1456947Y898606D01*
X1455935Y901048D01*
X1454326Y903146D01*
X1452228Y904755D01*
X1450526Y905460D01*
X1450778Y906730D01*
X1460500D01*
X1461491Y906927D01*
X1462331Y907489D01*
X1468443Y913600D01*
X1470276Y912841D01*
X1472565Y912539D01*
X1474854Y912841D01*
X1476988Y913724D01*
X1478820Y915130D01*
X1480226Y916962D01*
X1481109Y919096D01*
X1481411Y921385D01*
X1481109Y923674D01*
X1480226Y925808D01*
X1478820Y927640D01*
X1476988Y929046D01*
X1474854Y929929D01*
X1472565Y930231D01*
X1470276Y929929D01*
X1468142Y929046D01*
X1466310Y927640D01*
X1464904Y925808D01*
X1464021Y923674D01*
X1463719Y921385D01*
X1464021Y919096D01*
X1464780Y917262D01*
X1459427Y911910D01*
X1450526D01*
X1450273Y913180D01*
X1451588Y913724D01*
X1453420Y915130D01*
X1454826Y916962D01*
X1455709Y919096D01*
X1456011Y921385D01*
X1455709Y923674D01*
X1454826Y925808D01*
X1453420Y927640D01*
X1451738Y928930D01*
X1451769Y929459D01*
X1452092Y930200D01*
X1459865D01*
X1461352Y930496D01*
X1462612Y931338D01*
X1469737Y938464D01*
X1470276Y938241D01*
X1472565Y937939D01*
X1474854Y938241D01*
X1476988Y939124D01*
X1478820Y940530D01*
X1480226Y942362D01*
X1481109Y944496D01*
X1481411Y946785D01*
X1481109Y949074D01*
X1480226Y951208D01*
X1478820Y953040D01*
X1476988Y954446D01*
X1474854Y955329D01*
X1472565Y955631D01*
X1470276Y955329D01*
X1468142Y954446D01*
X1466310Y953040D01*
X1464904Y951208D01*
X1464021Y949074D01*
X1463719Y946785D01*
X1464021Y944496D01*
X1464244Y943957D01*
X1458256Y937970D01*
X1452092D01*
X1451769Y938711D01*
X1451738Y939240D01*
X1453420Y940530D01*
X1454826Y942362D01*
X1455709Y944496D01*
X1456011Y946785D01*
X1455709Y949074D01*
X1454826Y951208D01*
X1453420Y953040D01*
X1451588Y954446D01*
X1449454Y955329D01*
X1447165Y955631D01*
X1444876Y955329D01*
X1442742Y954446D01*
X1440910Y953040D01*
X1439504Y951208D01*
X1438621Y949074D01*
X1438319Y946785D01*
X1438621Y944496D01*
X1439504Y942362D01*
X1440910Y940530D01*
X1442592Y939240D01*
X1442561Y938711D01*
X1442238Y937970D01*
X1436074D01*
X1430086Y943957D01*
X1430309Y944496D01*
X1430611Y946785D01*
X1430309Y949074D01*
X1429426Y951208D01*
X1428020Y953040D01*
X1426188Y954446D01*
X1424054Y955329D01*
X1421765Y955631D01*
X1419476Y955329D01*
X1417643Y954570D01*
X1410896Y961316D01*
X1410056Y961878D01*
X1409065Y962075D01*
X1401511D01*
X1401259Y963345D01*
X1401428Y963415D01*
X1403526Y965024D01*
X1405135Y967122D01*
X1406147Y969564D01*
X1406324Y970915D01*
D02*
G37*
G36*
X1396365Y930231D02*
X1394076Y929929D01*
X1391942Y929046D01*
X1390110Y927640D01*
X1388704Y925808D01*
X1387945Y923975D01*
X1142365D01*
X1141374Y923778D01*
X1140534Y923216D01*
X1127957Y910640D01*
X1100893D01*
X1094270Y917262D01*
X1095029Y919096D01*
X1095331Y921385D01*
X1095029Y923674D01*
X1094146Y925808D01*
X1092740Y927640D01*
X1090908Y929046D01*
X1088774Y929929D01*
X1086485Y930231D01*
X1084196Y929929D01*
X1082062Y929046D01*
X1080230Y927640D01*
X1078824Y925808D01*
X1077941Y923674D01*
X1077639Y921385D01*
X1077941Y919096D01*
X1078824Y916962D01*
X1080230Y915130D01*
X1082062Y913724D01*
X1084196Y912841D01*
X1086485Y912539D01*
X1088774Y912841D01*
X1090608Y913600D01*
X1097989Y906219D01*
X1098829Y905657D01*
X1099820Y905460D01*
X1108524D01*
X1108777Y904190D01*
X1107462Y903646D01*
X1105630Y902240D01*
X1104224Y900408D01*
X1103341Y898274D01*
X1103039Y895985D01*
X1103341Y893696D01*
X1104224Y891562D01*
X1105630Y889730D01*
X1107462Y888324D01*
X1109596Y887441D01*
X1111885Y887139D01*
X1114174Y887441D01*
X1116308Y888324D01*
X1118140Y889730D01*
X1119546Y891562D01*
X1120305Y893395D01*
X1129665D01*
X1130656Y893592D01*
X1131496Y894154D01*
X1143438Y906095D01*
X1391219D01*
X1391472Y904825D01*
X1391302Y904755D01*
X1389204Y903146D01*
X1387595Y901048D01*
X1386583Y898606D01*
X1386406Y897255D01*
X1396365D01*
X1406324D01*
X1406147Y898606D01*
X1405135Y901048D01*
X1403526Y903146D01*
X1401428Y904755D01*
X1401259Y904825D01*
X1401511Y906095D01*
X1407992D01*
X1413980Y900107D01*
X1413221Y898274D01*
X1412919Y895985D01*
X1413221Y893696D01*
X1414104Y891562D01*
X1415510Y889730D01*
X1417342Y888324D01*
X1419476Y887441D01*
X1421765Y887139D01*
X1424054Y887441D01*
X1425887Y888200D01*
X1431999Y882089D01*
X1432839Y881527D01*
X1433830Y881330D01*
X1460500D01*
X1461491Y881527D01*
X1462331Y882089D01*
X1468443Y888200D01*
X1470276Y887441D01*
X1472565Y887139D01*
X1474854Y887441D01*
X1476988Y888324D01*
X1478820Y889730D01*
X1480226Y891562D01*
X1481109Y893696D01*
X1481411Y895985D01*
X1481109Y898274D01*
X1480226Y900408D01*
X1478820Y902240D01*
X1476988Y903646D01*
X1474854Y904529D01*
X1472565Y904831D01*
X1470276Y904529D01*
X1468142Y903646D01*
X1466310Y902240D01*
X1464904Y900408D01*
X1464021Y898274D01*
X1463719Y895985D01*
X1464021Y893696D01*
X1464780Y891862D01*
X1459427Y886510D01*
X1453395D01*
X1452964Y887780D01*
X1454326Y888824D01*
X1455935Y890922D01*
X1456947Y893364D01*
X1457124Y894715D01*
X1447165D01*
X1437206D01*
X1437383Y893364D01*
X1438395Y890922D01*
X1440004Y888824D01*
X1441366Y887780D01*
X1440935Y886510D01*
X1434903D01*
X1429550Y891862D01*
X1430309Y893696D01*
X1430611Y895985D01*
X1430309Y898274D01*
X1429426Y900408D01*
X1428020Y902240D01*
X1426188Y903646D01*
X1424054Y904529D01*
X1421765Y904831D01*
X1419476Y904529D01*
X1417643Y903770D01*
X1410896Y910516D01*
X1410056Y911078D01*
X1409065Y911275D01*
X1142365D01*
X1141374Y911078D01*
X1140534Y910516D01*
X1128592Y898575D01*
X1120305D01*
X1119546Y900408D01*
X1118140Y902240D01*
X1116308Y903646D01*
X1114993Y904190D01*
X1115246Y905460D01*
X1129030D01*
X1130021Y905657D01*
X1130861Y906219D01*
X1143438Y918795D01*
X1387945D01*
X1388704Y916962D01*
X1390110Y915130D01*
X1391942Y913724D01*
X1394076Y912841D01*
X1396365Y912539D01*
X1398654Y912841D01*
X1400788Y913724D01*
X1402620Y915130D01*
X1404026Y916962D01*
X1404909Y919096D01*
X1405211Y921385D01*
X1404909Y923674D01*
X1404026Y925808D01*
X1402620Y927640D01*
X1400788Y929046D01*
X1398654Y929929D01*
X1396365Y930231D01*
D02*
G37*
G36*
X1085215Y970915D02*
X1076526D01*
X1076703Y969564D01*
X1077715Y967122D01*
X1079324Y965024D01*
X1081422Y963415D01*
X1083864Y962403D01*
X1085215Y962226D01*
Y970915D01*
D02*
G37*
G36*
Y982144D02*
X1083864Y981967D01*
X1081422Y980955D01*
X1079324Y979346D01*
X1077715Y977248D01*
X1076703Y974806D01*
X1076526Y973455D01*
X1085215D01*
Y982144D01*
D02*
G37*
G36*
X1096444Y970915D02*
X1087755D01*
Y962226D01*
X1089106Y962403D01*
X1091548Y963415D01*
X1093646Y965024D01*
X1095255Y967122D01*
X1096267Y969564D01*
X1096444Y970915D01*
D02*
G37*
G36*
X1085215Y894715D02*
X1076526D01*
X1076703Y893364D01*
X1077715Y890922D01*
X1079324Y888824D01*
X1081422Y887215D01*
X1083864Y886203D01*
X1085215Y886026D01*
Y894715D01*
D02*
G37*
G36*
X1406324D02*
X1396365D01*
X1386406D01*
X1386583Y893364D01*
X1387595Y890922D01*
X1389204Y888824D01*
X1391302Y887215D01*
X1391472Y887145D01*
X1391219Y885875D01*
X1142365D01*
X1141374Y885678D01*
X1140534Y885116D01*
X1128592Y873175D01*
X1120305D01*
X1119546Y875008D01*
X1118140Y876840D01*
X1116308Y878246D01*
X1114174Y879129D01*
X1111885Y879431D01*
X1109596Y879129D01*
X1107462Y878246D01*
X1105630Y876840D01*
X1104224Y875008D01*
X1103341Y872874D01*
X1103039Y870585D01*
X1103341Y868296D01*
X1104224Y866162D01*
X1105630Y864330D01*
X1107462Y862924D01*
X1109596Y862041D01*
X1111885Y861739D01*
X1114174Y862041D01*
X1116308Y862924D01*
X1118140Y864330D01*
X1119546Y866162D01*
X1120305Y867995D01*
X1129665D01*
X1130656Y868192D01*
X1131496Y868754D01*
X1143438Y880695D01*
X1407992D01*
X1413980Y874707D01*
X1413221Y872874D01*
X1412919Y870585D01*
X1413221Y868296D01*
X1414104Y866162D01*
X1415510Y864330D01*
X1417342Y862924D01*
X1419476Y862041D01*
X1421765Y861739D01*
X1424054Y862041D01*
X1425887Y862800D01*
X1431999Y856689D01*
X1432839Y856127D01*
X1433830Y855930D01*
X1460500D01*
X1461491Y856127D01*
X1462331Y856689D01*
X1468443Y862800D01*
X1470276Y862041D01*
X1472565Y861739D01*
X1474854Y862041D01*
X1476988Y862924D01*
X1478820Y864330D01*
X1480226Y866162D01*
X1481109Y868296D01*
X1481411Y870585D01*
X1481109Y872874D01*
X1480226Y875008D01*
X1478820Y876840D01*
X1476988Y878246D01*
X1474854Y879129D01*
X1472565Y879431D01*
X1470276Y879129D01*
X1468142Y878246D01*
X1466310Y876840D01*
X1464904Y875008D01*
X1464021Y872874D01*
X1463719Y870585D01*
X1464021Y868296D01*
X1464780Y866462D01*
X1459427Y861110D01*
X1450526D01*
X1450273Y862380D01*
X1451588Y862924D01*
X1453420Y864330D01*
X1454826Y866162D01*
X1455709Y868296D01*
X1456011Y870585D01*
X1455709Y872874D01*
X1454826Y875008D01*
X1453420Y876840D01*
X1451588Y878246D01*
X1449454Y879129D01*
X1447165Y879431D01*
X1444876Y879129D01*
X1442742Y878246D01*
X1440910Y876840D01*
X1439504Y875008D01*
X1438621Y872874D01*
X1438319Y870585D01*
X1438621Y868296D01*
X1439504Y866162D01*
X1440910Y864330D01*
X1442742Y862924D01*
X1444057Y862380D01*
X1443804Y861110D01*
X1434903D01*
X1429550Y866462D01*
X1430309Y868296D01*
X1430611Y870585D01*
X1430309Y872874D01*
X1429426Y875008D01*
X1428020Y876840D01*
X1426188Y878246D01*
X1424054Y879129D01*
X1421765Y879431D01*
X1419476Y879129D01*
X1417643Y878370D01*
X1410896Y885116D01*
X1410056Y885678D01*
X1409065Y885875D01*
X1401511D01*
X1401259Y887145D01*
X1401428Y887215D01*
X1403526Y888824D01*
X1405135Y890922D01*
X1406147Y893364D01*
X1406324Y894715D01*
D02*
G37*
G36*
X1096444D02*
X1087755D01*
Y886026D01*
X1089106Y886203D01*
X1091548Y887215D01*
X1093646Y888824D01*
X1095255Y890922D01*
X1096267Y893364D01*
X1096444Y894715D01*
D02*
G37*
G36*
X1087755Y905944D02*
Y897255D01*
X1096444D01*
X1096267Y898606D01*
X1095255Y901048D01*
X1093646Y903146D01*
X1091548Y904755D01*
X1089106Y905767D01*
X1087755Y905944D01*
D02*
G37*
G36*
X1085215D02*
X1083864Y905767D01*
X1081422Y904755D01*
X1079324Y903146D01*
X1077715Y901048D01*
X1076703Y898606D01*
X1076526Y897255D01*
X1085215D01*
Y905944D01*
D02*
G37*
G36*
X1121844Y843915D02*
X1113155D01*
Y835226D01*
X1114506Y835403D01*
X1116948Y836415D01*
X1119046Y838024D01*
X1120655Y840122D01*
X1121667Y842564D01*
X1121844Y843915D01*
D02*
G37*
G36*
X1406324Y793115D02*
X1396365D01*
X1386406D01*
X1386583Y791764D01*
X1387595Y789322D01*
X1389204Y787224D01*
X1391302Y785615D01*
X1391472Y785545D01*
X1391219Y784275D01*
X1142365D01*
X1141374Y784078D01*
X1140534Y783516D01*
X1128592Y771575D01*
X1120305D01*
X1119546Y773408D01*
X1118140Y775240D01*
X1116308Y776646D01*
X1114174Y777529D01*
X1111885Y777831D01*
X1109596Y777529D01*
X1107462Y776646D01*
X1105630Y775240D01*
X1104224Y773408D01*
X1103341Y771274D01*
X1103039Y768985D01*
X1103341Y766696D01*
X1104224Y764562D01*
X1105630Y762730D01*
X1107462Y761324D01*
X1108747Y760792D01*
X1108494Y759522D01*
X1100526D01*
X1094538Y765510D01*
X1095029Y766696D01*
X1095331Y768985D01*
X1095029Y771274D01*
X1094146Y773408D01*
X1092740Y775240D01*
X1090908Y776646D01*
X1088774Y777529D01*
X1086485Y777831D01*
X1084196Y777529D01*
X1082062Y776646D01*
X1080230Y775240D01*
X1078824Y773408D01*
X1077941Y771274D01*
X1077639Y768985D01*
X1077941Y766696D01*
X1078824Y764562D01*
X1080230Y762730D01*
X1082062Y761324D01*
X1084196Y760441D01*
X1086485Y760139D01*
X1088774Y760441D01*
X1089960Y760932D01*
X1096896Y753996D01*
X1097946Y753294D01*
X1099185Y753048D01*
X1102744D01*
X1103297Y751778D01*
X1103010Y751085D01*
Y736085D01*
X1103297Y735392D01*
X1102744Y734122D01*
X1100526D01*
X1094538Y740110D01*
X1095029Y741296D01*
X1095331Y743585D01*
X1095029Y745874D01*
X1094146Y748008D01*
X1092740Y749840D01*
X1090908Y751246D01*
X1088774Y752129D01*
X1086485Y752431D01*
X1084196Y752129D01*
X1082062Y751246D01*
X1080230Y749840D01*
X1078824Y748008D01*
X1077941Y745874D01*
X1077639Y743585D01*
X1077941Y741296D01*
X1078824Y739162D01*
X1080230Y737330D01*
X1082062Y735924D01*
X1084196Y735041D01*
X1086485Y734739D01*
X1088774Y735041D01*
X1089960Y735532D01*
X1096896Y728596D01*
X1097946Y727894D01*
X1099185Y727648D01*
X1129665D01*
X1130904Y727894D01*
X1131954Y728596D01*
X1143706Y740348D01*
X1388213D01*
X1388704Y739162D01*
X1390110Y737330D01*
X1391942Y735924D01*
X1394076Y735041D01*
X1396365Y734739D01*
X1398654Y735041D01*
X1400788Y735924D01*
X1402620Y737330D01*
X1404026Y739162D01*
X1404909Y741296D01*
X1405211Y743585D01*
X1404909Y745874D01*
X1404026Y748008D01*
X1402620Y749840D01*
X1400788Y751246D01*
X1398654Y752129D01*
X1396365Y752431D01*
X1394076Y752129D01*
X1391942Y751246D01*
X1390110Y749840D01*
X1388704Y748008D01*
X1388213Y746822D01*
X1142365D01*
X1141126Y746576D01*
X1140076Y745874D01*
X1128324Y734122D01*
X1121026D01*
X1120473Y735392D01*
X1120760Y736085D01*
Y740995D01*
X1129665D01*
X1130656Y741192D01*
X1131496Y741754D01*
X1143438Y753695D01*
X1407992D01*
X1412890Y748797D01*
Y736085D01*
X1413293Y735113D01*
X1414265Y734710D01*
X1429265D01*
X1430237Y735113D01*
X1430640Y736085D01*
Y751085D01*
X1430237Y752057D01*
X1429265Y752460D01*
X1416553D01*
X1410896Y758116D01*
X1410056Y758678D01*
X1409065Y758875D01*
X1142365D01*
X1141374Y758678D01*
X1140534Y758116D01*
X1128592Y746175D01*
X1120760D01*
Y751085D01*
X1120473Y751778D01*
X1121026Y753048D01*
X1129665D01*
X1130904Y753294D01*
X1131954Y753996D01*
X1143706Y765748D01*
X1388213D01*
X1388704Y764562D01*
X1390110Y762730D01*
X1391942Y761324D01*
X1394076Y760441D01*
X1396365Y760139D01*
X1398654Y760441D01*
X1400788Y761324D01*
X1402620Y762730D01*
X1404026Y764562D01*
X1404909Y766696D01*
X1405211Y768985D01*
X1404909Y771274D01*
X1404026Y773408D01*
X1402620Y775240D01*
X1400788Y776646D01*
X1398654Y777529D01*
X1396365Y777831D01*
X1394076Y777529D01*
X1391942Y776646D01*
X1390110Y775240D01*
X1388704Y773408D01*
X1388213Y772222D01*
X1142365D01*
X1141126Y771976D01*
X1140076Y771274D01*
X1128324Y759522D01*
X1115275D01*
X1115023Y760792D01*
X1116308Y761324D01*
X1118140Y762730D01*
X1119546Y764562D01*
X1120305Y766395D01*
X1129665D01*
X1130656Y766592D01*
X1131496Y767154D01*
X1143438Y779095D01*
X1407992D01*
X1413980Y773108D01*
X1413221Y771274D01*
X1412919Y768985D01*
X1413221Y766696D01*
X1414104Y764562D01*
X1415510Y762730D01*
X1417342Y761324D01*
X1419476Y760441D01*
X1421765Y760139D01*
X1424054Y760441D01*
X1425887Y761200D01*
X1431999Y755089D01*
X1432839Y754527D01*
X1433830Y754330D01*
X1460500D01*
X1461491Y754527D01*
X1462331Y755089D01*
X1468443Y761200D01*
X1470276Y760441D01*
X1472565Y760139D01*
X1474854Y760441D01*
X1476988Y761324D01*
X1478820Y762730D01*
X1480226Y764562D01*
X1481109Y766696D01*
X1481411Y768985D01*
X1481109Y771274D01*
X1480226Y773408D01*
X1478820Y775240D01*
X1476988Y776646D01*
X1474854Y777529D01*
X1472565Y777831D01*
X1470276Y777529D01*
X1468142Y776646D01*
X1466310Y775240D01*
X1464904Y773408D01*
X1464021Y771274D01*
X1463719Y768985D01*
X1464021Y766696D01*
X1464780Y764863D01*
X1459427Y759510D01*
X1450526D01*
X1450273Y760780D01*
X1451588Y761324D01*
X1453420Y762730D01*
X1454826Y764562D01*
X1455709Y766696D01*
X1456011Y768985D01*
X1455709Y771274D01*
X1454826Y773408D01*
X1453420Y775240D01*
X1451588Y776646D01*
X1449454Y777529D01*
X1447165Y777831D01*
X1444876Y777529D01*
X1442742Y776646D01*
X1440910Y775240D01*
X1439504Y773408D01*
X1438621Y771274D01*
X1438319Y768985D01*
X1438621Y766696D01*
X1439504Y764562D01*
X1440910Y762730D01*
X1442742Y761324D01*
X1444057Y760780D01*
X1443804Y759510D01*
X1434903D01*
X1429550Y764863D01*
X1430309Y766696D01*
X1430611Y768985D01*
X1430309Y771274D01*
X1429426Y773408D01*
X1428020Y775240D01*
X1426188Y776646D01*
X1424054Y777529D01*
X1421765Y777831D01*
X1419476Y777529D01*
X1417643Y776770D01*
X1410896Y783516D01*
X1410056Y784078D01*
X1409065Y784275D01*
X1401511D01*
X1401259Y785545D01*
X1401428Y785615D01*
X1403526Y787224D01*
X1405135Y789322D01*
X1406147Y791764D01*
X1406324Y793115D01*
D02*
G37*
G36*
X1447165Y752431D02*
X1444876Y752129D01*
X1442742Y751246D01*
X1440910Y749840D01*
X1439504Y748008D01*
X1438621Y745874D01*
X1438319Y743585D01*
X1438621Y741296D01*
X1439504Y739162D01*
X1440910Y737330D01*
X1442742Y735924D01*
X1444876Y735041D01*
X1447165Y734739D01*
X1449454Y735041D01*
X1451588Y735924D01*
X1453420Y737330D01*
X1454826Y739162D01*
X1455709Y741296D01*
X1456011Y743585D01*
X1455709Y745874D01*
X1454826Y748008D01*
X1453420Y749840D01*
X1451588Y751246D01*
X1449454Y752129D01*
X1447165Y752431D01*
D02*
G37*
G36*
X1085215Y793115D02*
X1076526D01*
X1076703Y791764D01*
X1077715Y789322D01*
X1079324Y787224D01*
X1081422Y785615D01*
X1083864Y784603D01*
X1085215Y784426D01*
Y793115D01*
D02*
G37*
G36*
X1409065Y809675D02*
X1142365D01*
X1141374Y809478D01*
X1140534Y808916D01*
X1128592Y796975D01*
X1120305D01*
X1119546Y798808D01*
X1118140Y800640D01*
X1116308Y802046D01*
X1114174Y802929D01*
X1111885Y803231D01*
X1109596Y802929D01*
X1107462Y802046D01*
X1105630Y800640D01*
X1104224Y798808D01*
X1103341Y796674D01*
X1103039Y794385D01*
X1103341Y792096D01*
X1104224Y789962D01*
X1105630Y788130D01*
X1107462Y786724D01*
X1109596Y785841D01*
X1111885Y785539D01*
X1114174Y785841D01*
X1116308Y786724D01*
X1118140Y788130D01*
X1119546Y789962D01*
X1120305Y791795D01*
X1129665D01*
X1130656Y791992D01*
X1131496Y792554D01*
X1143438Y804495D01*
X1391219D01*
X1391472Y803225D01*
X1391302Y803155D01*
X1389204Y801546D01*
X1387595Y799448D01*
X1386583Y797006D01*
X1386406Y795655D01*
X1396365D01*
X1406324D01*
X1406147Y797006D01*
X1405135Y799448D01*
X1403526Y801546D01*
X1401428Y803155D01*
X1401259Y803225D01*
X1401511Y804495D01*
X1407992D01*
X1413980Y798508D01*
X1413221Y796674D01*
X1412919Y794385D01*
X1413221Y792096D01*
X1414104Y789962D01*
X1415510Y788130D01*
X1417342Y786724D01*
X1419476Y785841D01*
X1421765Y785539D01*
X1424054Y785841D01*
X1425887Y786600D01*
X1431999Y780489D01*
X1432839Y779927D01*
X1433830Y779730D01*
X1460500D01*
X1461491Y779927D01*
X1462331Y780489D01*
X1468443Y786600D01*
X1470276Y785841D01*
X1472565Y785539D01*
X1474854Y785841D01*
X1476988Y786724D01*
X1478820Y788130D01*
X1480226Y789962D01*
X1481109Y792096D01*
X1481411Y794385D01*
X1481109Y796674D01*
X1480226Y798808D01*
X1478820Y800640D01*
X1476988Y802046D01*
X1474854Y802929D01*
X1472565Y803231D01*
X1470276Y802929D01*
X1468142Y802046D01*
X1466310Y800640D01*
X1464904Y798808D01*
X1464021Y796674D01*
X1463719Y794385D01*
X1464021Y792096D01*
X1464780Y790263D01*
X1459427Y784910D01*
X1453395D01*
X1452964Y786180D01*
X1454326Y787224D01*
X1455935Y789322D01*
X1456947Y791764D01*
X1457124Y793115D01*
X1447165D01*
X1437206D01*
X1437383Y791764D01*
X1438395Y789322D01*
X1440004Y787224D01*
X1441366Y786180D01*
X1440935Y784910D01*
X1434903D01*
X1429550Y790263D01*
X1430309Y792096D01*
X1430611Y794385D01*
X1430309Y796674D01*
X1429426Y798808D01*
X1428020Y800640D01*
X1426188Y802046D01*
X1424054Y802929D01*
X1421765Y803231D01*
X1419476Y802929D01*
X1417643Y802170D01*
X1410896Y808916D01*
X1410056Y809478D01*
X1409065Y809675D01*
D02*
G37*
G36*
X1096444Y793115D02*
X1087755D01*
Y784426D01*
X1089106Y784603D01*
X1091548Y785615D01*
X1093646Y787224D01*
X1095255Y789322D01*
X1096267Y791764D01*
X1096444Y793115D01*
D02*
G37*
G36*
X1303784Y726312D02*
X1298878Y725926D01*
X1294092Y724777D01*
X1289544Y722893D01*
X1285348Y720321D01*
X1281605Y717125D01*
X1278408Y713382D01*
X1275837Y709185D01*
X1273953Y704638D01*
X1272804Y699852D01*
X1272418Y694945D01*
X1272804Y690038D01*
X1273953Y685252D01*
X1275837Y680705D01*
X1278408Y676508D01*
X1281605Y672766D01*
X1285348Y669569D01*
X1289544Y666997D01*
X1294092Y665114D01*
X1298878Y663965D01*
X1303784Y663578D01*
X1308691Y663965D01*
X1313477Y665114D01*
X1318025Y666997D01*
X1322221Y669569D01*
X1325964Y672766D01*
X1329161Y676508D01*
X1331732Y680705D01*
X1333616Y685252D01*
X1334765Y690038D01*
X1335151Y694945D01*
X1334765Y699852D01*
X1333616Y704638D01*
X1331732Y709185D01*
X1329161Y713382D01*
X1325964Y717125D01*
X1322221Y720321D01*
X1318025Y722893D01*
X1313477Y724777D01*
X1308691Y725926D01*
X1303784Y726312D01*
D02*
G37*
G36*
X1099185D02*
X1094278Y725926D01*
X1089492Y724777D01*
X1084945Y722893D01*
X1080748Y720321D01*
X1077005Y717125D01*
X1073809Y713382D01*
X1071237Y709185D01*
X1069354Y704638D01*
X1068204Y699852D01*
X1067818Y694945D01*
X1068204Y690038D01*
X1069354Y685252D01*
X1071237Y680705D01*
X1073809Y676508D01*
X1077005Y672766D01*
X1080748Y669569D01*
X1084945Y666997D01*
X1089492Y665114D01*
X1094278Y663965D01*
X1099185Y663578D01*
X1104092Y663965D01*
X1108878Y665114D01*
X1113425Y666997D01*
X1117622Y669569D01*
X1121365Y672766D01*
X1124561Y676508D01*
X1127133Y680705D01*
X1129016Y685252D01*
X1130165Y690038D01*
X1130552Y694945D01*
X1130165Y699852D01*
X1129016Y704638D01*
X1127133Y709185D01*
X1124561Y713382D01*
X1121365Y717125D01*
X1117622Y720321D01*
X1113425Y722893D01*
X1108878Y724777D01*
X1104092Y725926D01*
X1099185Y726312D01*
D02*
G37*
G36*
X1409065D02*
X1404158Y725926D01*
X1399372Y724777D01*
X1394825Y722893D01*
X1390628Y720321D01*
X1386885Y717125D01*
X1383689Y713382D01*
X1381117Y709185D01*
X1379234Y704638D01*
X1378085Y699852D01*
X1377698Y694945D01*
X1378085Y690038D01*
X1379234Y685252D01*
X1381117Y680705D01*
X1383689Y676508D01*
X1386885Y672766D01*
X1390628Y669569D01*
X1394825Y666997D01*
X1399372Y665114D01*
X1404158Y663965D01*
X1409065Y663578D01*
X1413972Y663965D01*
X1418758Y665114D01*
X1423305Y666997D01*
X1427502Y669569D01*
X1431245Y672766D01*
X1434441Y676508D01*
X1437013Y680705D01*
X1438896Y685252D01*
X1440045Y690038D01*
X1440432Y694945D01*
X1440045Y699852D01*
X1438896Y704638D01*
X1437013Y709185D01*
X1434441Y713382D01*
X1431245Y717125D01*
X1427502Y720321D01*
X1423305Y722893D01*
X1418758Y724777D01*
X1413972Y725926D01*
X1409065Y726312D01*
D02*
G37*
G36*
X1480065Y752460D02*
X1465065D01*
X1464093Y752057D01*
X1463690Y751085D01*
Y736085D01*
X1464093Y735113D01*
X1465065Y734710D01*
X1480065D01*
X1481037Y735113D01*
X1481440Y736085D01*
Y751085D01*
X1481037Y752057D01*
X1480065Y752460D01*
D02*
G37*
G36*
X1639064Y726312D02*
X1634158Y725926D01*
X1629372Y724777D01*
X1624824Y722893D01*
X1620628Y720321D01*
X1616885Y717125D01*
X1613688Y713382D01*
X1611117Y709185D01*
X1609233Y704638D01*
X1608084Y699852D01*
X1607698Y694945D01*
X1608084Y690038D01*
X1609233Y685252D01*
X1611117Y680705D01*
X1613688Y676508D01*
X1616885Y672766D01*
X1620628Y669569D01*
X1624824Y666997D01*
X1629372Y665114D01*
X1634158Y663965D01*
X1639064Y663578D01*
X1643971Y663965D01*
X1648757Y665114D01*
X1653305Y666997D01*
X1657501Y669569D01*
X1661244Y672766D01*
X1664441Y676508D01*
X1667012Y680705D01*
X1668896Y685252D01*
X1670045Y690038D01*
X1670431Y694945D01*
X1670045Y699852D01*
X1668896Y704638D01*
X1667012Y709185D01*
X1664441Y713382D01*
X1661244Y717125D01*
X1657501Y720321D01*
X1653305Y722893D01*
X1648757Y724777D01*
X1643971Y725926D01*
X1639064Y726312D01*
D02*
G37*
G36*
X1409065Y835075D02*
X1142365D01*
X1141374Y834878D01*
X1140534Y834316D01*
X1128592Y822375D01*
X1120305D01*
X1119546Y824208D01*
X1118140Y826040D01*
X1116308Y827446D01*
X1114174Y828329D01*
X1111885Y828631D01*
X1109596Y828329D01*
X1107462Y827446D01*
X1105630Y826040D01*
X1104224Y824208D01*
X1103341Y822074D01*
X1103039Y819785D01*
X1103341Y817496D01*
X1104224Y815362D01*
X1105630Y813530D01*
X1107462Y812124D01*
X1109596Y811241D01*
X1111885Y810939D01*
X1114174Y811241D01*
X1116308Y812124D01*
X1118140Y813530D01*
X1119546Y815362D01*
X1120305Y817195D01*
X1129665D01*
X1130656Y817392D01*
X1131496Y817954D01*
X1143438Y829895D01*
X1407992D01*
X1413980Y823907D01*
X1413221Y822074D01*
X1412919Y819785D01*
X1413221Y817496D01*
X1414104Y815362D01*
X1415510Y813530D01*
X1417342Y812124D01*
X1419476Y811241D01*
X1421765Y810939D01*
X1424054Y811241D01*
X1426188Y812124D01*
X1428020Y813530D01*
X1429426Y815362D01*
X1430309Y817496D01*
X1430611Y819785D01*
X1430309Y822074D01*
X1429550Y823907D01*
X1434903Y829260D01*
X1443804D01*
X1444057Y827990D01*
X1442742Y827446D01*
X1440910Y826040D01*
X1439504Y824208D01*
X1438621Y822074D01*
X1438319Y819785D01*
X1438621Y817496D01*
X1439504Y815362D01*
X1440910Y813530D01*
X1442742Y812124D01*
X1444876Y811241D01*
X1447165Y810939D01*
X1449454Y811241D01*
X1451588Y812124D01*
X1453420Y813530D01*
X1454826Y815362D01*
X1455709Y817496D01*
X1456011Y819785D01*
X1455709Y822074D01*
X1454826Y824208D01*
X1453420Y826040D01*
X1451588Y827446D01*
X1450273Y827990D01*
X1450526Y829260D01*
X1459427D01*
X1464780Y823907D01*
X1464021Y822074D01*
X1463719Y819785D01*
X1464021Y817496D01*
X1464904Y815362D01*
X1466310Y813530D01*
X1468142Y812124D01*
X1470276Y811241D01*
X1472565Y810939D01*
X1474854Y811241D01*
X1476988Y812124D01*
X1478820Y813530D01*
X1480226Y815362D01*
X1481109Y817496D01*
X1481411Y819785D01*
X1481109Y822074D01*
X1480226Y824208D01*
X1478820Y826040D01*
X1476988Y827446D01*
X1474854Y828329D01*
X1472565Y828631D01*
X1470276Y828329D01*
X1468443Y827570D01*
X1462331Y833681D01*
X1461491Y834243D01*
X1460500Y834440D01*
X1433830D01*
X1432839Y834243D01*
X1431999Y833681D01*
X1425887Y827570D01*
X1424054Y828329D01*
X1421765Y828631D01*
X1419476Y828329D01*
X1417643Y827570D01*
X1410896Y834316D01*
X1410056Y834878D01*
X1409065Y835075D01*
D02*
G37*
G36*
X1396365Y828631D02*
X1394076Y828329D01*
X1391942Y827446D01*
X1390110Y826040D01*
X1388704Y824208D01*
X1387821Y822074D01*
X1387519Y819785D01*
X1387821Y817496D01*
X1388704Y815362D01*
X1390110Y813530D01*
X1391942Y812124D01*
X1394076Y811241D01*
X1396365Y810939D01*
X1398654Y811241D01*
X1400788Y812124D01*
X1402620Y813530D01*
X1404026Y815362D01*
X1404909Y817496D01*
X1405211Y819785D01*
X1404909Y822074D01*
X1404026Y824208D01*
X1402620Y826040D01*
X1400788Y827446D01*
X1398654Y828329D01*
X1396365Y828631D01*
D02*
G37*
G36*
X1420495Y843915D02*
X1411806D01*
X1411983Y842564D01*
X1412995Y840122D01*
X1414604Y838024D01*
X1416702Y836415D01*
X1419144Y835403D01*
X1420495Y835226D01*
Y843915D01*
D02*
G37*
G36*
X1471295D02*
X1462606D01*
X1462783Y842564D01*
X1463795Y840122D01*
X1465404Y838024D01*
X1467502Y836415D01*
X1469944Y835403D01*
X1471295Y835226D01*
Y843915D01*
D02*
G37*
G36*
X1110615D02*
X1101926D01*
X1102103Y842564D01*
X1103115Y840122D01*
X1104724Y838024D01*
X1106822Y836415D01*
X1109264Y835403D01*
X1110615Y835226D01*
Y843915D01*
D02*
G37*
G36*
X1445895Y804344D02*
X1444544Y804167D01*
X1442102Y803155D01*
X1440004Y801546D01*
X1438395Y799448D01*
X1437383Y797006D01*
X1437206Y795655D01*
X1445895D01*
Y804344D01*
D02*
G37*
G36*
X1085215D02*
X1083864Y804167D01*
X1081422Y803155D01*
X1079324Y801546D01*
X1077715Y799448D01*
X1076703Y797006D01*
X1076526Y795655D01*
X1085215D01*
Y804344D01*
D02*
G37*
G36*
X1087755D02*
Y795655D01*
X1096444D01*
X1096267Y797006D01*
X1095255Y799448D01*
X1093646Y801546D01*
X1091548Y803155D01*
X1089106Y804167D01*
X1087755Y804344D01*
D02*
G37*
G36*
X1086485Y828631D02*
X1084196Y828329D01*
X1082062Y827446D01*
X1080230Y826040D01*
X1078824Y824208D01*
X1077941Y822074D01*
X1077639Y819785D01*
X1077941Y817496D01*
X1078824Y815362D01*
X1080230Y813530D01*
X1082062Y812124D01*
X1084196Y811241D01*
X1086485Y810939D01*
X1088774Y811241D01*
X1090908Y812124D01*
X1092740Y813530D01*
X1094146Y815362D01*
X1095029Y817496D01*
X1095331Y819785D01*
X1095029Y822074D01*
X1094146Y824208D01*
X1092740Y826040D01*
X1090908Y827446D01*
X1088774Y828329D01*
X1086485Y828631D01*
D02*
G37*
G36*
X1448435Y804344D02*
Y795655D01*
X1457124D01*
X1456947Y797006D01*
X1455935Y799448D01*
X1454326Y801546D01*
X1452228Y803155D01*
X1449786Y804167D01*
X1448435Y804344D01*
D02*
G37*
G36*
X1087755Y982144D02*
Y973455D01*
X1096444D01*
X1096267Y974806D01*
X1095255Y977248D01*
X1093646Y979346D01*
X1091548Y980955D01*
X1089106Y981967D01*
X1087755Y982144D01*
D02*
G37*
G36*
X1420495Y1224915D02*
X1411806D01*
X1411983Y1223564D01*
X1412995Y1221122D01*
X1414604Y1219024D01*
X1416702Y1217415D01*
X1419144Y1216403D01*
X1420495Y1216226D01*
Y1224915D01*
D02*
G37*
G36*
X1396365Y1235031D02*
X1394076Y1234729D01*
X1391942Y1233846D01*
X1390110Y1232440D01*
X1388704Y1230608D01*
X1387945Y1228775D01*
X1142365D01*
X1141374Y1228578D01*
X1140534Y1228016D01*
X1127957Y1215440D01*
X1115498D01*
X1115246Y1216710D01*
X1116948Y1217415D01*
X1119046Y1219024D01*
X1120655Y1221122D01*
X1121667Y1223564D01*
X1121844Y1224915D01*
X1111885D01*
X1101926D01*
X1102103Y1223564D01*
X1103115Y1221122D01*
X1104724Y1219024D01*
X1106822Y1217415D01*
X1108524Y1216710D01*
X1108272Y1215440D01*
X1100893D01*
X1094270Y1222063D01*
X1095029Y1223896D01*
X1095331Y1226185D01*
X1095029Y1228474D01*
X1094146Y1230608D01*
X1092740Y1232440D01*
X1090908Y1233846D01*
X1088774Y1234729D01*
X1086485Y1235031D01*
X1084196Y1234729D01*
X1082062Y1233846D01*
X1080230Y1232440D01*
X1078824Y1230608D01*
X1077941Y1228474D01*
X1077639Y1226185D01*
X1077941Y1223896D01*
X1078824Y1221762D01*
X1080230Y1219930D01*
X1082062Y1218524D01*
X1084196Y1217641D01*
X1086485Y1217339D01*
X1088774Y1217641D01*
X1090608Y1218400D01*
X1097989Y1211019D01*
X1098829Y1210457D01*
X1099820Y1210260D01*
X1108524D01*
X1108777Y1208990D01*
X1107462Y1208446D01*
X1105630Y1207040D01*
X1104224Y1205208D01*
X1103341Y1203074D01*
X1103039Y1200785D01*
X1103341Y1198496D01*
X1104224Y1196362D01*
X1105630Y1194530D01*
X1107462Y1193124D01*
X1109596Y1192241D01*
X1111885Y1191939D01*
X1114174Y1192241D01*
X1116308Y1193124D01*
X1118140Y1194530D01*
X1119546Y1196362D01*
X1120305Y1198195D01*
X1129665D01*
X1130656Y1198392D01*
X1131496Y1198954D01*
X1143438Y1210895D01*
X1407992D01*
X1413980Y1204908D01*
X1413221Y1203074D01*
X1412919Y1200785D01*
X1413221Y1198496D01*
X1414104Y1196362D01*
X1415510Y1194530D01*
X1417342Y1193124D01*
X1419476Y1192241D01*
X1421765Y1191939D01*
X1424054Y1192241D01*
X1425887Y1193000D01*
X1431999Y1186889D01*
X1432839Y1186327D01*
X1433830Y1186130D01*
X1460500D01*
X1461491Y1186327D01*
X1462331Y1186889D01*
X1468443Y1193000D01*
X1470276Y1192241D01*
X1472565Y1191939D01*
X1474854Y1192241D01*
X1476988Y1193124D01*
X1478820Y1194530D01*
X1480226Y1196362D01*
X1481109Y1198496D01*
X1481411Y1200785D01*
X1481109Y1203074D01*
X1480226Y1205208D01*
X1478820Y1207040D01*
X1476988Y1208446D01*
X1474854Y1209329D01*
X1472565Y1209631D01*
X1470276Y1209329D01*
X1468142Y1208446D01*
X1466310Y1207040D01*
X1464904Y1205208D01*
X1464021Y1203074D01*
X1463719Y1200785D01*
X1464021Y1198496D01*
X1464780Y1196663D01*
X1459427Y1191310D01*
X1450526D01*
X1450273Y1192580D01*
X1451588Y1193124D01*
X1453420Y1194530D01*
X1454826Y1196362D01*
X1455709Y1198496D01*
X1456011Y1200785D01*
X1455709Y1203074D01*
X1454826Y1205208D01*
X1453420Y1207040D01*
X1451588Y1208446D01*
X1449454Y1209329D01*
X1447165Y1209631D01*
X1444876Y1209329D01*
X1442742Y1208446D01*
X1440910Y1207040D01*
X1439504Y1205208D01*
X1438621Y1203074D01*
X1438319Y1200785D01*
X1438621Y1198496D01*
X1439504Y1196362D01*
X1440910Y1194530D01*
X1442742Y1193124D01*
X1444057Y1192580D01*
X1443804Y1191310D01*
X1434903D01*
X1429550Y1196663D01*
X1430309Y1198496D01*
X1430611Y1200785D01*
X1430309Y1203074D01*
X1429426Y1205208D01*
X1428020Y1207040D01*
X1426188Y1208446D01*
X1424054Y1209329D01*
X1421765Y1209631D01*
X1419476Y1209329D01*
X1417643Y1208570D01*
X1410896Y1215316D01*
X1410056Y1215878D01*
X1409065Y1216075D01*
X1142365D01*
X1141374Y1215878D01*
X1140534Y1215316D01*
X1128592Y1203375D01*
X1120305D01*
X1119546Y1205208D01*
X1118140Y1207040D01*
X1116308Y1208446D01*
X1114993Y1208990D01*
X1115246Y1210260D01*
X1129030D01*
X1130021Y1210457D01*
X1130861Y1211019D01*
X1143438Y1223595D01*
X1387945D01*
X1388704Y1221762D01*
X1390110Y1219930D01*
X1391942Y1218524D01*
X1394076Y1217641D01*
X1396365Y1217339D01*
X1398654Y1217641D01*
X1400788Y1218524D01*
X1402620Y1219930D01*
X1404026Y1221762D01*
X1404909Y1223896D01*
X1405211Y1226185D01*
X1404909Y1228474D01*
X1404026Y1230608D01*
X1402620Y1232440D01*
X1400788Y1233846D01*
X1398654Y1234729D01*
X1396365Y1235031D01*
D02*
G37*
G36*
X1471295Y1224915D02*
X1462606D01*
X1462783Y1223564D01*
X1463795Y1221122D01*
X1465404Y1219024D01*
X1467502Y1217415D01*
X1469944Y1216403D01*
X1471295Y1216226D01*
Y1224915D01*
D02*
G37*
G36*
X1482524D02*
X1473835D01*
Y1216226D01*
X1475186Y1216403D01*
X1477628Y1217415D01*
X1479726Y1219024D01*
X1481335Y1221122D01*
X1482347Y1223564D01*
X1482524Y1224915D01*
D02*
G37*
G36*
X1431724D02*
X1423035D01*
Y1216226D01*
X1424386Y1216403D01*
X1426828Y1217415D01*
X1428926Y1219024D01*
X1430535Y1221122D01*
X1431547Y1223564D01*
X1431724Y1224915D01*
D02*
G37*
G36*
X1085215Y1159944D02*
X1083864Y1159767D01*
X1081422Y1158755D01*
X1079324Y1157146D01*
X1077715Y1155048D01*
X1076703Y1152606D01*
X1076526Y1151255D01*
X1085215D01*
Y1159944D01*
D02*
G37*
G36*
X1096444Y1148715D02*
X1087755D01*
Y1140026D01*
X1089106Y1140203D01*
X1091548Y1141215D01*
X1093646Y1142824D01*
X1095255Y1144922D01*
X1096267Y1147364D01*
X1096444Y1148715D01*
D02*
G37*
G36*
X1087755Y1159944D02*
Y1151255D01*
X1096444D01*
X1096267Y1152606D01*
X1095255Y1155048D01*
X1093646Y1157146D01*
X1091548Y1158755D01*
X1089106Y1159767D01*
X1087755Y1159944D01*
D02*
G37*
G36*
X1396365Y1209631D02*
X1394076Y1209329D01*
X1391942Y1208446D01*
X1390110Y1207040D01*
X1388704Y1205208D01*
X1387945Y1203375D01*
X1142365D01*
X1141374Y1203178D01*
X1140534Y1202616D01*
X1127957Y1190040D01*
X1100893D01*
X1094270Y1196663D01*
X1095029Y1198496D01*
X1095331Y1200785D01*
X1095029Y1203074D01*
X1094146Y1205208D01*
X1092740Y1207040D01*
X1090908Y1208446D01*
X1088774Y1209329D01*
X1086485Y1209631D01*
X1084196Y1209329D01*
X1082062Y1208446D01*
X1080230Y1207040D01*
X1078824Y1205208D01*
X1077941Y1203074D01*
X1077639Y1200785D01*
X1077941Y1198496D01*
X1078824Y1196362D01*
X1080230Y1194530D01*
X1082062Y1193124D01*
X1084196Y1192241D01*
X1086485Y1191939D01*
X1088774Y1192241D01*
X1090608Y1193000D01*
X1097989Y1185619D01*
X1098829Y1185057D01*
X1099820Y1184860D01*
X1108524D01*
X1108777Y1183590D01*
X1107462Y1183046D01*
X1105630Y1181640D01*
X1104224Y1179808D01*
X1103341Y1177674D01*
X1103039Y1175385D01*
X1103341Y1173096D01*
X1104224Y1170962D01*
X1105630Y1169130D01*
X1107462Y1167724D01*
X1109596Y1166841D01*
X1111885Y1166539D01*
X1114174Y1166841D01*
X1116308Y1167724D01*
X1118140Y1169130D01*
X1119546Y1170962D01*
X1120305Y1172795D01*
X1129665D01*
X1130656Y1172992D01*
X1131496Y1173554D01*
X1143438Y1185495D01*
X1407992D01*
X1413980Y1179508D01*
X1413221Y1177674D01*
X1412919Y1175385D01*
X1413221Y1173096D01*
X1414104Y1170962D01*
X1415510Y1169130D01*
X1417342Y1167724D01*
X1419476Y1166841D01*
X1421765Y1166539D01*
X1424054Y1166841D01*
X1425887Y1167600D01*
X1431999Y1161489D01*
X1432839Y1160927D01*
X1433830Y1160730D01*
X1443552D01*
X1443804Y1159460D01*
X1442102Y1158755D01*
X1440004Y1157146D01*
X1438395Y1155048D01*
X1437383Y1152606D01*
X1437206Y1151255D01*
X1447165D01*
X1457124D01*
X1456947Y1152606D01*
X1455935Y1155048D01*
X1454326Y1157146D01*
X1452228Y1158755D01*
X1450526Y1159460D01*
X1450778Y1160730D01*
X1460500D01*
X1461491Y1160927D01*
X1462331Y1161489D01*
X1468443Y1167600D01*
X1470276Y1166841D01*
X1472565Y1166539D01*
X1474854Y1166841D01*
X1476988Y1167724D01*
X1478820Y1169130D01*
X1480226Y1170962D01*
X1481109Y1173096D01*
X1481411Y1175385D01*
X1481109Y1177674D01*
X1480226Y1179808D01*
X1478820Y1181640D01*
X1476988Y1183046D01*
X1474854Y1183929D01*
X1472565Y1184231D01*
X1470276Y1183929D01*
X1468142Y1183046D01*
X1466310Y1181640D01*
X1464904Y1179808D01*
X1464021Y1177674D01*
X1463719Y1175385D01*
X1464021Y1173096D01*
X1464780Y1171263D01*
X1459427Y1165910D01*
X1450526D01*
X1450273Y1167180D01*
X1451588Y1167724D01*
X1453420Y1169130D01*
X1454826Y1170962D01*
X1455709Y1173096D01*
X1456011Y1175385D01*
X1455709Y1177674D01*
X1454826Y1179808D01*
X1453420Y1181640D01*
X1451588Y1183046D01*
X1449454Y1183929D01*
X1447165Y1184231D01*
X1444876Y1183929D01*
X1442742Y1183046D01*
X1440910Y1181640D01*
X1439504Y1179808D01*
X1438621Y1177674D01*
X1438319Y1175385D01*
X1438621Y1173096D01*
X1439504Y1170962D01*
X1440910Y1169130D01*
X1442742Y1167724D01*
X1444057Y1167180D01*
X1443804Y1165910D01*
X1434903D01*
X1429550Y1171263D01*
X1430309Y1173096D01*
X1430611Y1175385D01*
X1430309Y1177674D01*
X1429426Y1179808D01*
X1428020Y1181640D01*
X1426188Y1183046D01*
X1424054Y1183929D01*
X1421765Y1184231D01*
X1419476Y1183929D01*
X1417643Y1183170D01*
X1410896Y1189916D01*
X1410056Y1190478D01*
X1409065Y1190675D01*
X1142365D01*
X1141374Y1190478D01*
X1140534Y1189916D01*
X1128592Y1177975D01*
X1120305D01*
X1119546Y1179808D01*
X1118140Y1181640D01*
X1116308Y1183046D01*
X1114993Y1183590D01*
X1115246Y1184860D01*
X1129030D01*
X1130021Y1185057D01*
X1130861Y1185619D01*
X1143438Y1198195D01*
X1387945D01*
X1388704Y1196362D01*
X1390110Y1194530D01*
X1391942Y1193124D01*
X1394076Y1192241D01*
X1396365Y1191939D01*
X1398654Y1192241D01*
X1400788Y1193124D01*
X1402620Y1194530D01*
X1404026Y1196362D01*
X1404909Y1198496D01*
X1405211Y1200785D01*
X1404909Y1203074D01*
X1404026Y1205208D01*
X1402620Y1207040D01*
X1400788Y1208446D01*
X1398654Y1209329D01*
X1396365Y1209631D01*
D02*
G37*
G36*
Y1184231D02*
X1394076Y1183929D01*
X1391942Y1183046D01*
X1390110Y1181640D01*
X1388704Y1179808D01*
X1387945Y1177975D01*
X1142365D01*
X1141374Y1177778D01*
X1140534Y1177216D01*
X1127957Y1164640D01*
X1100893D01*
X1094270Y1171263D01*
X1095029Y1173096D01*
X1095331Y1175385D01*
X1095029Y1177674D01*
X1094146Y1179808D01*
X1092740Y1181640D01*
X1090908Y1183046D01*
X1088774Y1183929D01*
X1086485Y1184231D01*
X1084196Y1183929D01*
X1082062Y1183046D01*
X1080230Y1181640D01*
X1078824Y1179808D01*
X1077941Y1177674D01*
X1077639Y1175385D01*
X1077941Y1173096D01*
X1078824Y1170962D01*
X1080230Y1169130D01*
X1082062Y1167724D01*
X1084196Y1166841D01*
X1086485Y1166539D01*
X1088774Y1166841D01*
X1090608Y1167600D01*
X1097989Y1160219D01*
X1098829Y1159657D01*
X1099820Y1159460D01*
X1108524D01*
X1108777Y1158190D01*
X1107462Y1157646D01*
X1105630Y1156240D01*
X1104224Y1154408D01*
X1103341Y1152274D01*
X1103039Y1149985D01*
X1103341Y1147696D01*
X1104224Y1145562D01*
X1105630Y1143730D01*
X1107462Y1142324D01*
X1109596Y1141441D01*
X1111885Y1141139D01*
X1114174Y1141441D01*
X1116308Y1142324D01*
X1118140Y1143730D01*
X1119546Y1145562D01*
X1120305Y1147395D01*
X1129665D01*
X1130656Y1147592D01*
X1131496Y1148154D01*
X1143438Y1160095D01*
X1391219D01*
X1391472Y1158825D01*
X1391302Y1158755D01*
X1389204Y1157146D01*
X1387595Y1155048D01*
X1386583Y1152606D01*
X1386406Y1151255D01*
X1396365D01*
X1406324D01*
X1406147Y1152606D01*
X1405135Y1155048D01*
X1403526Y1157146D01*
X1401428Y1158755D01*
X1401259Y1158825D01*
X1401511Y1160095D01*
X1407992D01*
X1413980Y1154108D01*
X1413221Y1152274D01*
X1412919Y1149985D01*
X1413221Y1147696D01*
X1414104Y1145562D01*
X1415510Y1143730D01*
X1417342Y1142324D01*
X1419476Y1141441D01*
X1421765Y1141139D01*
X1424054Y1141441D01*
X1425887Y1142200D01*
X1431999Y1136089D01*
X1432839Y1135527D01*
X1433830Y1135330D01*
X1460500D01*
X1461491Y1135527D01*
X1462331Y1136089D01*
X1468443Y1142200D01*
X1470276Y1141441D01*
X1472565Y1141139D01*
X1474854Y1141441D01*
X1476988Y1142324D01*
X1478820Y1143730D01*
X1480226Y1145562D01*
X1481109Y1147696D01*
X1481411Y1149985D01*
X1481109Y1152274D01*
X1480226Y1154408D01*
X1478820Y1156240D01*
X1476988Y1157646D01*
X1474854Y1158529D01*
X1472565Y1158831D01*
X1470276Y1158529D01*
X1468142Y1157646D01*
X1466310Y1156240D01*
X1464904Y1154408D01*
X1464021Y1152274D01*
X1463719Y1149985D01*
X1464021Y1147696D01*
X1464780Y1145863D01*
X1459427Y1140510D01*
X1453395D01*
X1452964Y1141780D01*
X1454326Y1142824D01*
X1455935Y1144922D01*
X1456947Y1147364D01*
X1457124Y1148715D01*
X1447165D01*
X1437206D01*
X1437383Y1147364D01*
X1438395Y1144922D01*
X1440004Y1142824D01*
X1441366Y1141780D01*
X1440935Y1140510D01*
X1434903D01*
X1429550Y1145863D01*
X1430309Y1147696D01*
X1430611Y1149985D01*
X1430309Y1152274D01*
X1429426Y1154408D01*
X1428020Y1156240D01*
X1426188Y1157646D01*
X1424054Y1158529D01*
X1421765Y1158831D01*
X1419476Y1158529D01*
X1417643Y1157770D01*
X1410896Y1164516D01*
X1410056Y1165078D01*
X1409065Y1165275D01*
X1142365D01*
X1141374Y1165078D01*
X1140534Y1164516D01*
X1128592Y1152575D01*
X1120305D01*
X1119546Y1154408D01*
X1118140Y1156240D01*
X1116308Y1157646D01*
X1114993Y1158190D01*
X1115246Y1159460D01*
X1129030D01*
X1130021Y1159657D01*
X1130861Y1160219D01*
X1143438Y1172795D01*
X1387945D01*
X1388704Y1170962D01*
X1390110Y1169130D01*
X1391942Y1167724D01*
X1394076Y1166841D01*
X1396365Y1166539D01*
X1398654Y1166841D01*
X1400788Y1167724D01*
X1402620Y1169130D01*
X1404026Y1170962D01*
X1404909Y1173096D01*
X1405211Y1175385D01*
X1404909Y1177674D01*
X1404026Y1179808D01*
X1402620Y1181640D01*
X1400788Y1183046D01*
X1398654Y1183929D01*
X1396365Y1184231D01*
D02*
G37*
G36*
X1447165Y1235031D02*
X1444876Y1234729D01*
X1442742Y1233846D01*
X1440910Y1232440D01*
X1439504Y1230608D01*
X1438621Y1228474D01*
X1438319Y1226185D01*
X1438621Y1223896D01*
X1439504Y1221762D01*
X1440910Y1219930D01*
X1442742Y1218524D01*
X1444876Y1217641D01*
X1447165Y1217339D01*
X1449454Y1217641D01*
X1451588Y1218524D01*
X1453420Y1219930D01*
X1454826Y1221762D01*
X1455709Y1223896D01*
X1456011Y1226185D01*
X1455709Y1228474D01*
X1454826Y1230608D01*
X1453420Y1232440D01*
X1451588Y1233846D01*
X1449454Y1234729D01*
X1447165Y1235031D01*
D02*
G37*
G36*
X1099185Y1306272D02*
X1094278Y1305885D01*
X1089492Y1304736D01*
X1084945Y1302853D01*
X1080748Y1300281D01*
X1077005Y1297085D01*
X1073809Y1293342D01*
X1071237Y1289145D01*
X1069354Y1284598D01*
X1068204Y1279812D01*
X1067818Y1274905D01*
X1068204Y1269998D01*
X1069354Y1265212D01*
X1071237Y1260665D01*
X1073809Y1256468D01*
X1077005Y1252725D01*
X1080748Y1249529D01*
X1084945Y1246957D01*
X1089492Y1245074D01*
X1094278Y1243924D01*
X1099185Y1243538D01*
X1104092Y1243924D01*
X1108878Y1245074D01*
X1113425Y1246957D01*
X1117622Y1249529D01*
X1121365Y1252725D01*
X1124561Y1256468D01*
X1127133Y1260665D01*
X1129016Y1265212D01*
X1130165Y1269998D01*
X1130552Y1274905D01*
X1130165Y1279812D01*
X1129016Y1284598D01*
X1127133Y1289145D01*
X1124561Y1293342D01*
X1121365Y1297085D01*
X1117622Y1300281D01*
X1113425Y1302853D01*
X1108878Y1304736D01*
X1104092Y1305885D01*
X1099185Y1306272D01*
D02*
G37*
G36*
X1473835Y1236144D02*
Y1227455D01*
X1482524D01*
X1482347Y1228806D01*
X1481335Y1231248D01*
X1479726Y1233346D01*
X1477628Y1234955D01*
X1475186Y1235967D01*
X1473835Y1236144D01*
D02*
G37*
G36*
X1303784Y1306272D02*
X1298878Y1305885D01*
X1294092Y1304736D01*
X1289544Y1302853D01*
X1285348Y1300281D01*
X1281605Y1297085D01*
X1278408Y1293342D01*
X1275837Y1289145D01*
X1273953Y1284598D01*
X1272804Y1279812D01*
X1272418Y1274905D01*
X1272804Y1269998D01*
X1273953Y1265212D01*
X1275837Y1260665D01*
X1278408Y1256468D01*
X1281605Y1252725D01*
X1285348Y1249529D01*
X1289544Y1246957D01*
X1294092Y1245074D01*
X1298878Y1243924D01*
X1303784Y1243538D01*
X1308691Y1243924D01*
X1313477Y1245074D01*
X1318025Y1246957D01*
X1322221Y1249529D01*
X1325964Y1252725D01*
X1329161Y1256468D01*
X1331732Y1260665D01*
X1333616Y1265212D01*
X1334765Y1269998D01*
X1335151Y1274905D01*
X1334765Y1279812D01*
X1333616Y1284598D01*
X1331732Y1289145D01*
X1329161Y1293342D01*
X1325964Y1297085D01*
X1322221Y1300281D01*
X1318025Y1302853D01*
X1313477Y1304736D01*
X1308691Y1305885D01*
X1303784Y1306272D01*
D02*
G37*
G36*
X1639064D02*
X1634158Y1305885D01*
X1629372Y1304736D01*
X1624824Y1302853D01*
X1620628Y1300281D01*
X1616885Y1297085D01*
X1613688Y1293342D01*
X1611117Y1289145D01*
X1609233Y1284598D01*
X1608084Y1279812D01*
X1607698Y1274905D01*
X1608084Y1269998D01*
X1609233Y1265212D01*
X1611117Y1260665D01*
X1613688Y1256468D01*
X1616885Y1252725D01*
X1620628Y1249529D01*
X1624824Y1246957D01*
X1629372Y1245074D01*
X1634158Y1243924D01*
X1639064Y1243538D01*
X1643971Y1243924D01*
X1648757Y1245074D01*
X1653305Y1246957D01*
X1657501Y1249529D01*
X1661244Y1252725D01*
X1664441Y1256468D01*
X1667012Y1260665D01*
X1668896Y1265212D01*
X1670045Y1269998D01*
X1670431Y1274905D01*
X1670045Y1279812D01*
X1668896Y1284598D01*
X1667012Y1289145D01*
X1664441Y1293342D01*
X1661244Y1297085D01*
X1657501Y1300281D01*
X1653305Y1302853D01*
X1648757Y1304736D01*
X1643971Y1305885D01*
X1639064Y1306272D01*
D02*
G37*
G36*
X1409065D02*
X1404158Y1305885D01*
X1399372Y1304736D01*
X1394825Y1302853D01*
X1390628Y1300281D01*
X1386885Y1297085D01*
X1383689Y1293342D01*
X1381117Y1289145D01*
X1379234Y1284598D01*
X1378085Y1279812D01*
X1377698Y1274905D01*
X1378085Y1269998D01*
X1379234Y1265212D01*
X1381117Y1260665D01*
X1383689Y1256468D01*
X1386885Y1252725D01*
X1390628Y1249529D01*
X1394825Y1246957D01*
X1399372Y1245074D01*
X1404158Y1243924D01*
X1409065Y1243538D01*
X1413972Y1243924D01*
X1418758Y1245074D01*
X1423305Y1246957D01*
X1427502Y1249529D01*
X1431245Y1252725D01*
X1434441Y1256468D01*
X1437013Y1260665D01*
X1438896Y1265212D01*
X1440045Y1269998D01*
X1440432Y1274905D01*
X1440045Y1279812D01*
X1438896Y1284598D01*
X1437013Y1289145D01*
X1434441Y1293342D01*
X1431245Y1297085D01*
X1427502Y1300281D01*
X1423305Y1302853D01*
X1418758Y1304736D01*
X1413972Y1305885D01*
X1409065Y1306272D01*
D02*
G37*
G36*
X1420495Y1236144D02*
X1419144Y1235967D01*
X1416702Y1234955D01*
X1414604Y1233346D01*
X1412995Y1231248D01*
X1411983Y1228806D01*
X1411806Y1227455D01*
X1420495D01*
Y1236144D01*
D02*
G37*
G36*
X1110615D02*
X1109264Y1235967D01*
X1106822Y1234955D01*
X1104724Y1233346D01*
X1103115Y1231248D01*
X1102103Y1228806D01*
X1101926Y1227455D01*
X1110615D01*
Y1236144D01*
D02*
G37*
G36*
X1471295D02*
X1469944Y1235967D01*
X1467502Y1234955D01*
X1465404Y1233346D01*
X1463795Y1231248D01*
X1462783Y1228806D01*
X1462606Y1227455D01*
X1471295D01*
Y1236144D01*
D02*
G37*
G36*
X1423035D02*
Y1227455D01*
X1431724D01*
X1431547Y1228806D01*
X1430535Y1231248D01*
X1428926Y1233346D01*
X1426828Y1234955D01*
X1424386Y1235967D01*
X1423035Y1236144D01*
D02*
G37*
G36*
X1113155D02*
Y1227455D01*
X1121844D01*
X1121667Y1228806D01*
X1120655Y1231248D01*
X1119046Y1233346D01*
X1116948Y1234955D01*
X1114506Y1235967D01*
X1113155Y1236144D01*
D02*
G37*
G36*
X1482524Y1047115D02*
X1473835D01*
Y1038426D01*
X1475186Y1038603D01*
X1477628Y1039615D01*
X1479726Y1041224D01*
X1481335Y1043322D01*
X1482347Y1045764D01*
X1482524Y1047115D01*
D02*
G37*
G36*
X1431724D02*
X1423035D01*
Y1038426D01*
X1424386Y1038603D01*
X1426828Y1039615D01*
X1428926Y1041224D01*
X1430535Y1043322D01*
X1431547Y1045764D01*
X1431724Y1047115D01*
D02*
G37*
G36*
X1447165Y1057231D02*
X1444876Y1056929D01*
X1442742Y1056046D01*
X1440910Y1054640D01*
X1439504Y1052808D01*
X1438621Y1050674D01*
X1438319Y1048385D01*
X1438621Y1046096D01*
X1439504Y1043962D01*
X1440910Y1042130D01*
X1442742Y1040724D01*
X1444876Y1039841D01*
X1447165Y1039539D01*
X1449454Y1039841D01*
X1451588Y1040724D01*
X1453420Y1042130D01*
X1454826Y1043962D01*
X1455709Y1046096D01*
X1456011Y1048385D01*
X1455709Y1050674D01*
X1454826Y1052808D01*
X1453420Y1054640D01*
X1451588Y1056046D01*
X1449454Y1056929D01*
X1447165Y1057231D01*
D02*
G37*
G36*
X1471295Y1058344D02*
X1469944Y1058167D01*
X1467502Y1057155D01*
X1465404Y1055546D01*
X1463795Y1053448D01*
X1462783Y1051006D01*
X1462606Y1049655D01*
X1471295D01*
Y1058344D01*
D02*
G37*
G36*
X1420495D02*
X1419144Y1058167D01*
X1416702Y1057155D01*
X1414604Y1055546D01*
X1412995Y1053448D01*
X1411983Y1051006D01*
X1411806Y1049655D01*
X1420495D01*
Y1058344D01*
D02*
G37*
G36*
X1396365Y1031831D02*
X1394076Y1031529D01*
X1391942Y1030646D01*
X1390110Y1029240D01*
X1388704Y1027408D01*
X1387945Y1025575D01*
X1142365D01*
X1141374Y1025378D01*
X1140534Y1024816D01*
X1127957Y1012240D01*
X1100893D01*
X1094270Y1018863D01*
X1095029Y1020696D01*
X1095331Y1022985D01*
X1095029Y1025274D01*
X1094146Y1027408D01*
X1092740Y1029240D01*
X1090908Y1030646D01*
X1088774Y1031529D01*
X1086485Y1031831D01*
X1084196Y1031529D01*
X1082062Y1030646D01*
X1080230Y1029240D01*
X1078824Y1027408D01*
X1077941Y1025274D01*
X1077639Y1022985D01*
X1077941Y1020696D01*
X1078824Y1018562D01*
X1080230Y1016730D01*
X1082062Y1015324D01*
X1084196Y1014441D01*
X1086485Y1014139D01*
X1088774Y1014441D01*
X1090608Y1015200D01*
X1097989Y1007819D01*
X1098829Y1007257D01*
X1099820Y1007060D01*
X1108524D01*
X1108777Y1005790D01*
X1107462Y1005246D01*
X1105630Y1003840D01*
X1104224Y1002008D01*
X1103341Y999874D01*
X1103039Y997585D01*
X1103341Y995296D01*
X1104224Y993162D01*
X1105630Y991330D01*
X1107462Y989924D01*
X1109596Y989041D01*
X1111885Y988739D01*
X1114174Y989041D01*
X1116308Y989924D01*
X1118140Y991330D01*
X1119546Y993162D01*
X1120305Y994995D01*
X1129665D01*
X1130656Y995192D01*
X1131496Y995754D01*
X1143438Y1007695D01*
X1407992D01*
X1413980Y1001708D01*
X1413221Y999874D01*
X1412919Y997585D01*
X1413221Y995296D01*
X1414104Y993162D01*
X1415510Y991330D01*
X1417342Y989924D01*
X1419476Y989041D01*
X1421765Y988739D01*
X1424054Y989041D01*
X1425887Y989800D01*
X1431999Y983689D01*
X1432839Y983127D01*
X1433830Y982930D01*
X1443552D01*
X1443804Y981660D01*
X1442102Y980955D01*
X1440004Y979346D01*
X1438395Y977248D01*
X1437383Y974806D01*
X1437206Y973455D01*
X1447165D01*
X1457124D01*
X1456947Y974806D01*
X1455935Y977248D01*
X1454326Y979346D01*
X1452228Y980955D01*
X1450526Y981660D01*
X1450778Y982930D01*
X1460500D01*
X1461491Y983127D01*
X1462331Y983689D01*
X1468443Y989800D01*
X1470276Y989041D01*
X1472565Y988739D01*
X1474854Y989041D01*
X1476988Y989924D01*
X1478820Y991330D01*
X1480226Y993162D01*
X1481109Y995296D01*
X1481411Y997585D01*
X1481109Y999874D01*
X1480226Y1002008D01*
X1478820Y1003840D01*
X1476988Y1005246D01*
X1474854Y1006129D01*
X1472565Y1006431D01*
X1470276Y1006129D01*
X1468142Y1005246D01*
X1466310Y1003840D01*
X1464904Y1002008D01*
X1464021Y999874D01*
X1463719Y997585D01*
X1464021Y995296D01*
X1464780Y993463D01*
X1459427Y988110D01*
X1450526D01*
X1450273Y989380D01*
X1451588Y989924D01*
X1453420Y991330D01*
X1454826Y993162D01*
X1455709Y995296D01*
X1456011Y997585D01*
X1455709Y999874D01*
X1454826Y1002008D01*
X1453420Y1003840D01*
X1451588Y1005246D01*
X1449454Y1006129D01*
X1447165Y1006431D01*
X1444876Y1006129D01*
X1442742Y1005246D01*
X1440910Y1003840D01*
X1439504Y1002008D01*
X1438621Y999874D01*
X1438319Y997585D01*
X1438621Y995296D01*
X1439504Y993162D01*
X1440910Y991330D01*
X1442742Y989924D01*
X1444057Y989380D01*
X1443804Y988110D01*
X1434903D01*
X1429550Y993463D01*
X1430309Y995296D01*
X1430611Y997585D01*
X1430309Y999874D01*
X1429426Y1002008D01*
X1428020Y1003840D01*
X1426188Y1005246D01*
X1424054Y1006129D01*
X1421765Y1006431D01*
X1419476Y1006129D01*
X1417643Y1005370D01*
X1410896Y1012116D01*
X1410056Y1012678D01*
X1409065Y1012875D01*
X1142365D01*
X1141374Y1012678D01*
X1140534Y1012116D01*
X1128592Y1000175D01*
X1120305D01*
X1119546Y1002008D01*
X1118140Y1003840D01*
X1116308Y1005246D01*
X1114993Y1005790D01*
X1115246Y1007060D01*
X1129030D01*
X1130021Y1007257D01*
X1130861Y1007819D01*
X1143438Y1020395D01*
X1387945D01*
X1388704Y1018562D01*
X1390110Y1016730D01*
X1391942Y1015324D01*
X1394076Y1014441D01*
X1396365Y1014139D01*
X1398654Y1014441D01*
X1400788Y1015324D01*
X1402620Y1016730D01*
X1404026Y1018562D01*
X1404909Y1020696D01*
X1405211Y1022985D01*
X1404909Y1025274D01*
X1404026Y1027408D01*
X1402620Y1029240D01*
X1400788Y1030646D01*
X1398654Y1031529D01*
X1396365Y1031831D01*
D02*
G37*
G36*
Y1006431D02*
X1394076Y1006129D01*
X1391942Y1005246D01*
X1390110Y1003840D01*
X1388704Y1002008D01*
X1387945Y1000175D01*
X1142365D01*
X1141374Y999978D01*
X1140534Y999416D01*
X1127957Y986840D01*
X1100893D01*
X1094270Y993463D01*
X1095029Y995296D01*
X1095331Y997585D01*
X1095029Y999874D01*
X1094146Y1002008D01*
X1092740Y1003840D01*
X1090908Y1005246D01*
X1088774Y1006129D01*
X1086485Y1006431D01*
X1084196Y1006129D01*
X1082062Y1005246D01*
X1080230Y1003840D01*
X1078824Y1002008D01*
X1077941Y999874D01*
X1077639Y997585D01*
X1077941Y995296D01*
X1078824Y993162D01*
X1080230Y991330D01*
X1082062Y989924D01*
X1084196Y989041D01*
X1086485Y988739D01*
X1088774Y989041D01*
X1090608Y989800D01*
X1097989Y982419D01*
X1098829Y981857D01*
X1099820Y981660D01*
X1108524D01*
X1108777Y980390D01*
X1107462Y979846D01*
X1105630Y978440D01*
X1104224Y976608D01*
X1103341Y974474D01*
X1103039Y972185D01*
X1103341Y969896D01*
X1104224Y967762D01*
X1105630Y965930D01*
X1107462Y964524D01*
X1109596Y963641D01*
X1111885Y963339D01*
X1114174Y963641D01*
X1116308Y964524D01*
X1118140Y965930D01*
X1119546Y967762D01*
X1120305Y969595D01*
X1129665D01*
X1130656Y969792D01*
X1131496Y970354D01*
X1143438Y982295D01*
X1391219D01*
X1391472Y981025D01*
X1391302Y980955D01*
X1389204Y979346D01*
X1387595Y977248D01*
X1386583Y974806D01*
X1386406Y973455D01*
X1396365D01*
X1406324D01*
X1406147Y974806D01*
X1405135Y977248D01*
X1403526Y979346D01*
X1401428Y980955D01*
X1401259Y981025D01*
X1401511Y982295D01*
X1407992D01*
X1413980Y976308D01*
X1413221Y974474D01*
X1412919Y972185D01*
X1413221Y969896D01*
X1414104Y967762D01*
X1415510Y965930D01*
X1417342Y964524D01*
X1419476Y963641D01*
X1421765Y963339D01*
X1424054Y963641D01*
X1425887Y964400D01*
X1431999Y958289D01*
X1432839Y957727D01*
X1433830Y957530D01*
X1460500D01*
X1461491Y957727D01*
X1462331Y958289D01*
X1468443Y964400D01*
X1470276Y963641D01*
X1472565Y963339D01*
X1474854Y963641D01*
X1476988Y964524D01*
X1478820Y965930D01*
X1480226Y967762D01*
X1481109Y969896D01*
X1481411Y972185D01*
X1481109Y974474D01*
X1480226Y976608D01*
X1478820Y978440D01*
X1476988Y979846D01*
X1474854Y980729D01*
X1472565Y981031D01*
X1470276Y980729D01*
X1468142Y979846D01*
X1466310Y978440D01*
X1464904Y976608D01*
X1464021Y974474D01*
X1463719Y972185D01*
X1464021Y969896D01*
X1464780Y968063D01*
X1459427Y962710D01*
X1453395D01*
X1452964Y963980D01*
X1454326Y965024D01*
X1455935Y967122D01*
X1456947Y969564D01*
X1457124Y970915D01*
X1447165D01*
X1437206D01*
X1437383Y969564D01*
X1438395Y967122D01*
X1440004Y965024D01*
X1441366Y963980D01*
X1440935Y962710D01*
X1434903D01*
X1429550Y968063D01*
X1430309Y969896D01*
X1430611Y972185D01*
X1430309Y974474D01*
X1429426Y976608D01*
X1428020Y978440D01*
X1426188Y979846D01*
X1424054Y980729D01*
X1421765Y981031D01*
X1419476Y980729D01*
X1417643Y979970D01*
X1410896Y986716D01*
X1410056Y987278D01*
X1409065Y987475D01*
X1142365D01*
X1141374Y987278D01*
X1140534Y986716D01*
X1128592Y974775D01*
X1120305D01*
X1119546Y976608D01*
X1118140Y978440D01*
X1116308Y979846D01*
X1114993Y980390D01*
X1115246Y981660D01*
X1129030D01*
X1130021Y981857D01*
X1130861Y982419D01*
X1143438Y994995D01*
X1387945D01*
X1388704Y993162D01*
X1390110Y991330D01*
X1391942Y989924D01*
X1394076Y989041D01*
X1396365Y988739D01*
X1398654Y989041D01*
X1400788Y989924D01*
X1402620Y991330D01*
X1404026Y993162D01*
X1404909Y995296D01*
X1405211Y997585D01*
X1404909Y999874D01*
X1404026Y1002008D01*
X1402620Y1003840D01*
X1400788Y1005246D01*
X1398654Y1006129D01*
X1396365Y1006431D01*
D02*
G37*
G36*
Y1057231D02*
X1394076Y1056929D01*
X1391942Y1056046D01*
X1390110Y1054640D01*
X1388704Y1052808D01*
X1387945Y1050975D01*
X1142365D01*
X1141374Y1050778D01*
X1140534Y1050216D01*
X1127957Y1037640D01*
X1115498D01*
X1115246Y1038910D01*
X1116948Y1039615D01*
X1119046Y1041224D01*
X1120655Y1043322D01*
X1121667Y1045764D01*
X1121844Y1047115D01*
X1111885D01*
X1101926D01*
X1102103Y1045764D01*
X1103115Y1043322D01*
X1104724Y1041224D01*
X1106822Y1039615D01*
X1108524Y1038910D01*
X1108272Y1037640D01*
X1100893D01*
X1094270Y1044262D01*
X1095029Y1046096D01*
X1095331Y1048385D01*
X1095029Y1050674D01*
X1094146Y1052808D01*
X1092740Y1054640D01*
X1090908Y1056046D01*
X1088774Y1056929D01*
X1086485Y1057231D01*
X1084196Y1056929D01*
X1082062Y1056046D01*
X1080230Y1054640D01*
X1078824Y1052808D01*
X1077941Y1050674D01*
X1077639Y1048385D01*
X1077941Y1046096D01*
X1078824Y1043962D01*
X1080230Y1042130D01*
X1082062Y1040724D01*
X1084196Y1039841D01*
X1086485Y1039539D01*
X1088774Y1039841D01*
X1090608Y1040600D01*
X1097989Y1033219D01*
X1098829Y1032657D01*
X1099820Y1032460D01*
X1108524D01*
X1108777Y1031190D01*
X1107462Y1030646D01*
X1105630Y1029240D01*
X1104224Y1027408D01*
X1103341Y1025274D01*
X1103039Y1022985D01*
X1103341Y1020696D01*
X1104224Y1018562D01*
X1105630Y1016730D01*
X1107462Y1015324D01*
X1109596Y1014441D01*
X1111885Y1014139D01*
X1114174Y1014441D01*
X1116308Y1015324D01*
X1118140Y1016730D01*
X1119546Y1018562D01*
X1120305Y1020395D01*
X1129665D01*
X1130656Y1020592D01*
X1131496Y1021154D01*
X1143438Y1033095D01*
X1407992D01*
X1413980Y1027107D01*
X1413221Y1025274D01*
X1412919Y1022985D01*
X1413221Y1020696D01*
X1414104Y1018562D01*
X1415510Y1016730D01*
X1417342Y1015324D01*
X1419476Y1014441D01*
X1421765Y1014139D01*
X1424054Y1014441D01*
X1425887Y1015200D01*
X1431999Y1009089D01*
X1432839Y1008527D01*
X1433830Y1008330D01*
X1460500D01*
X1461491Y1008527D01*
X1462331Y1009089D01*
X1468443Y1015200D01*
X1470276Y1014441D01*
X1472565Y1014139D01*
X1474854Y1014441D01*
X1476988Y1015324D01*
X1478820Y1016730D01*
X1480226Y1018562D01*
X1481109Y1020696D01*
X1481411Y1022985D01*
X1481109Y1025274D01*
X1480226Y1027408D01*
X1478820Y1029240D01*
X1476988Y1030646D01*
X1474854Y1031529D01*
X1472565Y1031831D01*
X1470276Y1031529D01*
X1468142Y1030646D01*
X1466310Y1029240D01*
X1464904Y1027408D01*
X1464021Y1025274D01*
X1463719Y1022985D01*
X1464021Y1020696D01*
X1464780Y1018863D01*
X1459427Y1013510D01*
X1450526D01*
X1450273Y1014780D01*
X1451588Y1015324D01*
X1453420Y1016730D01*
X1454826Y1018562D01*
X1455709Y1020696D01*
X1456011Y1022985D01*
X1455709Y1025274D01*
X1454826Y1027408D01*
X1453420Y1029240D01*
X1451588Y1030646D01*
X1449454Y1031529D01*
X1447165Y1031831D01*
X1444876Y1031529D01*
X1442742Y1030646D01*
X1440910Y1029240D01*
X1439504Y1027408D01*
X1438621Y1025274D01*
X1438319Y1022985D01*
X1438621Y1020696D01*
X1439504Y1018562D01*
X1440910Y1016730D01*
X1442742Y1015324D01*
X1444057Y1014780D01*
X1443804Y1013510D01*
X1434903D01*
X1429550Y1018863D01*
X1430309Y1020696D01*
X1430611Y1022985D01*
X1430309Y1025274D01*
X1429426Y1027408D01*
X1428020Y1029240D01*
X1426188Y1030646D01*
X1424054Y1031529D01*
X1421765Y1031831D01*
X1419476Y1031529D01*
X1417643Y1030770D01*
X1410896Y1037516D01*
X1410056Y1038078D01*
X1409065Y1038275D01*
X1142365D01*
X1141374Y1038078D01*
X1140534Y1037516D01*
X1128592Y1025575D01*
X1120305D01*
X1119546Y1027408D01*
X1118140Y1029240D01*
X1116308Y1030646D01*
X1114993Y1031190D01*
X1115246Y1032460D01*
X1129030D01*
X1130021Y1032657D01*
X1130861Y1033219D01*
X1143438Y1045795D01*
X1387945D01*
X1388704Y1043962D01*
X1390110Y1042130D01*
X1391942Y1040724D01*
X1394076Y1039841D01*
X1396365Y1039539D01*
X1398654Y1039841D01*
X1400788Y1040724D01*
X1402620Y1042130D01*
X1404026Y1043962D01*
X1404909Y1046096D01*
X1405211Y1048385D01*
X1404909Y1050674D01*
X1404026Y1052808D01*
X1402620Y1054640D01*
X1400788Y1056046D01*
X1398654Y1056929D01*
X1396365Y1057231D01*
D02*
G37*
G36*
X1471295Y1047115D02*
X1462606D01*
X1462783Y1045764D01*
X1463795Y1043322D01*
X1465404Y1041224D01*
X1467502Y1039615D01*
X1469944Y1038603D01*
X1471295Y1038426D01*
Y1047115D01*
D02*
G37*
G36*
X1420495D02*
X1411806D01*
X1411983Y1045764D01*
X1412995Y1043322D01*
X1414604Y1041224D01*
X1416702Y1039615D01*
X1419144Y1038603D01*
X1420495Y1038426D01*
Y1047115D01*
D02*
G37*
G36*
X1423035Y1058344D02*
Y1049655D01*
X1431724D01*
X1431547Y1051006D01*
X1430535Y1053448D01*
X1428926Y1055546D01*
X1426828Y1057155D01*
X1424386Y1058167D01*
X1423035Y1058344D01*
D02*
G37*
G36*
X1087755Y1109144D02*
Y1100455D01*
X1096444D01*
X1096267Y1101806D01*
X1095255Y1104248D01*
X1093646Y1106346D01*
X1091548Y1107955D01*
X1089106Y1108967D01*
X1087755Y1109144D01*
D02*
G37*
G36*
X1085215D02*
X1083864Y1108967D01*
X1081422Y1107955D01*
X1079324Y1106346D01*
X1077715Y1104248D01*
X1076703Y1101806D01*
X1076526Y1100455D01*
X1085215D01*
Y1109144D01*
D02*
G37*
G36*
X1396365Y1133431D02*
X1394076Y1133129D01*
X1391942Y1132246D01*
X1390110Y1130840D01*
X1388704Y1129008D01*
X1387945Y1127175D01*
X1142365D01*
X1141374Y1126978D01*
X1140534Y1126416D01*
X1127957Y1113840D01*
X1100893D01*
X1094270Y1120462D01*
X1095029Y1122296D01*
X1095331Y1124585D01*
X1095029Y1126874D01*
X1094146Y1129008D01*
X1092740Y1130840D01*
X1090908Y1132246D01*
X1088774Y1133129D01*
X1086485Y1133431D01*
X1084196Y1133129D01*
X1082062Y1132246D01*
X1080230Y1130840D01*
X1078824Y1129008D01*
X1077941Y1126874D01*
X1077639Y1124585D01*
X1077941Y1122296D01*
X1078824Y1120162D01*
X1080230Y1118330D01*
X1082062Y1116924D01*
X1084196Y1116041D01*
X1086485Y1115739D01*
X1088774Y1116041D01*
X1090608Y1116800D01*
X1097989Y1109419D01*
X1098829Y1108857D01*
X1099820Y1108660D01*
X1108524D01*
X1108777Y1107390D01*
X1107462Y1106846D01*
X1105630Y1105440D01*
X1104224Y1103608D01*
X1103341Y1101474D01*
X1103039Y1099185D01*
X1103341Y1096896D01*
X1104224Y1094762D01*
X1105630Y1092930D01*
X1107462Y1091524D01*
X1109596Y1090641D01*
X1111885Y1090339D01*
X1114174Y1090641D01*
X1116308Y1091524D01*
X1118140Y1092930D01*
X1119546Y1094762D01*
X1120305Y1096595D01*
X1129665D01*
X1130656Y1096792D01*
X1131496Y1097354D01*
X1143438Y1109295D01*
X1391219D01*
X1391472Y1108025D01*
X1391302Y1107955D01*
X1389204Y1106346D01*
X1387595Y1104248D01*
X1386583Y1101806D01*
X1386406Y1100455D01*
X1396365D01*
X1406324D01*
X1406147Y1101806D01*
X1405135Y1104248D01*
X1403526Y1106346D01*
X1401428Y1107955D01*
X1401259Y1108025D01*
X1401511Y1109295D01*
X1407992D01*
X1413980Y1103307D01*
X1413221Y1101474D01*
X1412919Y1099185D01*
X1413221Y1096896D01*
X1414104Y1094762D01*
X1415510Y1092930D01*
X1417342Y1091524D01*
X1419476Y1090641D01*
X1421765Y1090339D01*
X1424054Y1090641D01*
X1425887Y1091400D01*
X1431999Y1085289D01*
X1432839Y1084727D01*
X1433830Y1084530D01*
X1460500D01*
X1461491Y1084727D01*
X1462331Y1085289D01*
X1468443Y1091400D01*
X1470276Y1090641D01*
X1472565Y1090339D01*
X1474854Y1090641D01*
X1476988Y1091524D01*
X1478820Y1092930D01*
X1480226Y1094762D01*
X1481109Y1096896D01*
X1481411Y1099185D01*
X1481109Y1101474D01*
X1480226Y1103608D01*
X1478820Y1105440D01*
X1476988Y1106846D01*
X1474854Y1107729D01*
X1472565Y1108031D01*
X1470276Y1107729D01*
X1468142Y1106846D01*
X1466310Y1105440D01*
X1464904Y1103608D01*
X1464021Y1101474D01*
X1463719Y1099185D01*
X1464021Y1096896D01*
X1464780Y1095062D01*
X1459427Y1089710D01*
X1453395D01*
X1452964Y1090980D01*
X1454326Y1092024D01*
X1455935Y1094122D01*
X1456947Y1096564D01*
X1457124Y1097915D01*
X1447165D01*
X1437206D01*
X1437383Y1096564D01*
X1438395Y1094122D01*
X1440004Y1092024D01*
X1441366Y1090980D01*
X1440935Y1089710D01*
X1434903D01*
X1429550Y1095062D01*
X1430309Y1096896D01*
X1430611Y1099185D01*
X1430309Y1101474D01*
X1429426Y1103608D01*
X1428020Y1105440D01*
X1426188Y1106846D01*
X1424054Y1107729D01*
X1421765Y1108031D01*
X1419476Y1107729D01*
X1417643Y1106970D01*
X1410896Y1113716D01*
X1410056Y1114278D01*
X1409065Y1114475D01*
X1142365D01*
X1141374Y1114278D01*
X1140534Y1113716D01*
X1128592Y1101775D01*
X1120305D01*
X1119546Y1103608D01*
X1118140Y1105440D01*
X1116308Y1106846D01*
X1114993Y1107390D01*
X1115246Y1108660D01*
X1129030D01*
X1130021Y1108857D01*
X1130861Y1109419D01*
X1143438Y1121995D01*
X1387945D01*
X1388704Y1120162D01*
X1390110Y1118330D01*
X1391942Y1116924D01*
X1394076Y1116041D01*
X1396365Y1115739D01*
X1398654Y1116041D01*
X1400788Y1116924D01*
X1402620Y1118330D01*
X1404026Y1120162D01*
X1404909Y1122296D01*
X1405211Y1124585D01*
X1404909Y1126874D01*
X1404026Y1129008D01*
X1402620Y1130840D01*
X1400788Y1132246D01*
X1398654Y1133129D01*
X1396365Y1133431D01*
D02*
G37*
G36*
X1085215Y1148715D02*
X1076526D01*
X1076703Y1147364D01*
X1077715Y1144922D01*
X1079324Y1142824D01*
X1081422Y1141215D01*
X1083864Y1140203D01*
X1085215Y1140026D01*
Y1148715D01*
D02*
G37*
G36*
X1406324D02*
X1396365D01*
X1386406D01*
X1386583Y1147364D01*
X1387595Y1144922D01*
X1389204Y1142824D01*
X1391302Y1141215D01*
X1391472Y1141145D01*
X1391219Y1139875D01*
X1142365D01*
X1141374Y1139678D01*
X1140534Y1139116D01*
X1128592Y1127175D01*
X1120305D01*
X1119546Y1129008D01*
X1118140Y1130840D01*
X1116308Y1132246D01*
X1114174Y1133129D01*
X1111885Y1133431D01*
X1109596Y1133129D01*
X1107462Y1132246D01*
X1105630Y1130840D01*
X1104224Y1129008D01*
X1103341Y1126874D01*
X1103039Y1124585D01*
X1103341Y1122296D01*
X1104224Y1120162D01*
X1105630Y1118330D01*
X1107462Y1116924D01*
X1109596Y1116041D01*
X1111885Y1115739D01*
X1114174Y1116041D01*
X1116308Y1116924D01*
X1118140Y1118330D01*
X1119546Y1120162D01*
X1120305Y1121995D01*
X1129665D01*
X1130656Y1122192D01*
X1131496Y1122754D01*
X1143438Y1134695D01*
X1407992D01*
X1413980Y1128708D01*
X1413221Y1126874D01*
X1412919Y1124585D01*
X1413221Y1122296D01*
X1414104Y1120162D01*
X1415510Y1118330D01*
X1417342Y1116924D01*
X1419476Y1116041D01*
X1421765Y1115739D01*
X1424054Y1116041D01*
X1425887Y1116800D01*
X1431999Y1110689D01*
X1432839Y1110127D01*
X1433830Y1109930D01*
X1443552D01*
X1443804Y1108660D01*
X1442102Y1107955D01*
X1440004Y1106346D01*
X1438395Y1104248D01*
X1437383Y1101806D01*
X1437206Y1100455D01*
X1447165D01*
X1457124D01*
X1456947Y1101806D01*
X1455935Y1104248D01*
X1454326Y1106346D01*
X1452228Y1107955D01*
X1450526Y1108660D01*
X1450778Y1109930D01*
X1460500D01*
X1461491Y1110127D01*
X1462331Y1110689D01*
X1468443Y1116800D01*
X1470276Y1116041D01*
X1472565Y1115739D01*
X1474854Y1116041D01*
X1476988Y1116924D01*
X1478820Y1118330D01*
X1480226Y1120162D01*
X1481109Y1122296D01*
X1481411Y1124585D01*
X1481109Y1126874D01*
X1480226Y1129008D01*
X1478820Y1130840D01*
X1476988Y1132246D01*
X1474854Y1133129D01*
X1472565Y1133431D01*
X1470276Y1133129D01*
X1468142Y1132246D01*
X1466310Y1130840D01*
X1464904Y1129008D01*
X1464021Y1126874D01*
X1463719Y1124585D01*
X1464021Y1122296D01*
X1464780Y1120462D01*
X1459427Y1115110D01*
X1450526D01*
X1450273Y1116380D01*
X1451588Y1116924D01*
X1453420Y1118330D01*
X1454826Y1120162D01*
X1455709Y1122296D01*
X1456011Y1124585D01*
X1455709Y1126874D01*
X1454826Y1129008D01*
X1453420Y1130840D01*
X1451588Y1132246D01*
X1449454Y1133129D01*
X1447165Y1133431D01*
X1444876Y1133129D01*
X1442742Y1132246D01*
X1440910Y1130840D01*
X1439504Y1129008D01*
X1438621Y1126874D01*
X1438319Y1124585D01*
X1438621Y1122296D01*
X1439504Y1120162D01*
X1440910Y1118330D01*
X1442742Y1116924D01*
X1444057Y1116380D01*
X1443804Y1115110D01*
X1434903D01*
X1429550Y1120462D01*
X1430309Y1122296D01*
X1430611Y1124585D01*
X1430309Y1126874D01*
X1429426Y1129008D01*
X1428020Y1130840D01*
X1426188Y1132246D01*
X1424054Y1133129D01*
X1421765Y1133431D01*
X1419476Y1133129D01*
X1417643Y1132370D01*
X1410896Y1139116D01*
X1410056Y1139678D01*
X1409065Y1139875D01*
X1401511D01*
X1401259Y1141145D01*
X1401428Y1141215D01*
X1403526Y1142824D01*
X1405135Y1144922D01*
X1406147Y1147364D01*
X1406324Y1148715D01*
D02*
G37*
G36*
X1396365Y1082631D02*
X1394076Y1082329D01*
X1391942Y1081446D01*
X1390110Y1080040D01*
X1388704Y1078208D01*
X1387945Y1076375D01*
X1142365D01*
X1141374Y1076178D01*
X1140534Y1075616D01*
X1127957Y1063040D01*
X1100893D01*
X1094270Y1069662D01*
X1095029Y1071496D01*
X1095331Y1073785D01*
X1095029Y1076074D01*
X1094146Y1078208D01*
X1092740Y1080040D01*
X1090908Y1081446D01*
X1088774Y1082329D01*
X1086485Y1082631D01*
X1084196Y1082329D01*
X1082062Y1081446D01*
X1080230Y1080040D01*
X1078824Y1078208D01*
X1077941Y1076074D01*
X1077639Y1073785D01*
X1077941Y1071496D01*
X1078824Y1069362D01*
X1080230Y1067530D01*
X1082062Y1066124D01*
X1084196Y1065241D01*
X1086485Y1064939D01*
X1088774Y1065241D01*
X1090608Y1066000D01*
X1097989Y1058619D01*
X1098829Y1058057D01*
X1099820Y1057860D01*
X1105655D01*
X1106086Y1056590D01*
X1104724Y1055546D01*
X1103115Y1053448D01*
X1102103Y1051006D01*
X1101926Y1049655D01*
X1111885D01*
X1121844D01*
X1121667Y1051006D01*
X1120655Y1053448D01*
X1119046Y1055546D01*
X1117684Y1056590D01*
X1118115Y1057860D01*
X1129030D01*
X1130021Y1058057D01*
X1130861Y1058619D01*
X1143438Y1071195D01*
X1387945D01*
X1388704Y1069362D01*
X1390110Y1067530D01*
X1391942Y1066124D01*
X1394076Y1065241D01*
X1396365Y1064939D01*
X1398654Y1065241D01*
X1400788Y1066124D01*
X1402620Y1067530D01*
X1404026Y1069362D01*
X1404909Y1071496D01*
X1405211Y1073785D01*
X1404909Y1076074D01*
X1404026Y1078208D01*
X1402620Y1080040D01*
X1400788Y1081446D01*
X1398654Y1082329D01*
X1396365Y1082631D01*
D02*
G37*
G36*
X1473835Y1058344D02*
Y1049655D01*
X1482524D01*
X1482347Y1051006D01*
X1481335Y1053448D01*
X1479726Y1055546D01*
X1477628Y1057155D01*
X1475186Y1058167D01*
X1473835Y1058344D01*
D02*
G37*
G36*
X1406324Y1097915D02*
X1396365D01*
X1386406D01*
X1386583Y1096564D01*
X1387595Y1094122D01*
X1389204Y1092024D01*
X1391302Y1090415D01*
X1391472Y1090345D01*
X1391219Y1089075D01*
X1142365D01*
X1141374Y1088878D01*
X1140534Y1088316D01*
X1128592Y1076375D01*
X1120305D01*
X1119546Y1078208D01*
X1118140Y1080040D01*
X1116308Y1081446D01*
X1114174Y1082329D01*
X1111885Y1082631D01*
X1109596Y1082329D01*
X1107462Y1081446D01*
X1105630Y1080040D01*
X1104224Y1078208D01*
X1103341Y1076074D01*
X1103039Y1073785D01*
X1103341Y1071496D01*
X1104224Y1069362D01*
X1105630Y1067530D01*
X1107462Y1066124D01*
X1109596Y1065241D01*
X1111885Y1064939D01*
X1114174Y1065241D01*
X1116308Y1066124D01*
X1118140Y1067530D01*
X1119546Y1069362D01*
X1120305Y1071195D01*
X1129665D01*
X1130656Y1071392D01*
X1131496Y1071954D01*
X1143438Y1083895D01*
X1407992D01*
X1413980Y1077907D01*
X1413221Y1076074D01*
X1412919Y1073785D01*
X1413221Y1071496D01*
X1414104Y1069362D01*
X1415510Y1067530D01*
X1417342Y1066124D01*
X1419476Y1065241D01*
X1421765Y1064939D01*
X1424054Y1065241D01*
X1425887Y1066000D01*
X1431999Y1059889D01*
X1432839Y1059327D01*
X1433830Y1059130D01*
X1460500D01*
X1461491Y1059327D01*
X1462331Y1059889D01*
X1468443Y1066000D01*
X1470276Y1065241D01*
X1472565Y1064939D01*
X1474854Y1065241D01*
X1476988Y1066124D01*
X1478820Y1067530D01*
X1480226Y1069362D01*
X1481109Y1071496D01*
X1481411Y1073785D01*
X1481109Y1076074D01*
X1480226Y1078208D01*
X1478820Y1080040D01*
X1476988Y1081446D01*
X1474854Y1082329D01*
X1472565Y1082631D01*
X1470276Y1082329D01*
X1468142Y1081446D01*
X1466310Y1080040D01*
X1464904Y1078208D01*
X1464021Y1076074D01*
X1463719Y1073785D01*
X1464021Y1071496D01*
X1464780Y1069662D01*
X1459427Y1064310D01*
X1450526D01*
X1450273Y1065580D01*
X1451588Y1066124D01*
X1453420Y1067530D01*
X1454826Y1069362D01*
X1455709Y1071496D01*
X1456011Y1073785D01*
X1455709Y1076074D01*
X1454826Y1078208D01*
X1453420Y1080040D01*
X1451588Y1081446D01*
X1449454Y1082329D01*
X1447165Y1082631D01*
X1444876Y1082329D01*
X1442742Y1081446D01*
X1440910Y1080040D01*
X1439504Y1078208D01*
X1438621Y1076074D01*
X1438319Y1073785D01*
X1438621Y1071496D01*
X1439504Y1069362D01*
X1440910Y1067530D01*
X1442742Y1066124D01*
X1444057Y1065580D01*
X1443804Y1064310D01*
X1434903D01*
X1429550Y1069662D01*
X1430309Y1071496D01*
X1430611Y1073785D01*
X1430309Y1076074D01*
X1429426Y1078208D01*
X1428020Y1080040D01*
X1426188Y1081446D01*
X1424054Y1082329D01*
X1421765Y1082631D01*
X1419476Y1082329D01*
X1417643Y1081570D01*
X1410896Y1088316D01*
X1410056Y1088878D01*
X1409065Y1089075D01*
X1401511D01*
X1401259Y1090345D01*
X1401428Y1090415D01*
X1403526Y1092024D01*
X1405135Y1094122D01*
X1406147Y1096564D01*
X1406324Y1097915D01*
D02*
G37*
G36*
X1096444D02*
X1087755D01*
Y1089226D01*
X1089106Y1089403D01*
X1091548Y1090415D01*
X1093646Y1092024D01*
X1095255Y1094122D01*
X1096267Y1096564D01*
X1096444Y1097915D01*
D02*
G37*
G36*
X1085215D02*
X1076526D01*
X1076703Y1096564D01*
X1077715Y1094122D01*
X1079324Y1092024D01*
X1081422Y1090415D01*
X1083864Y1089403D01*
X1085215Y1089226D01*
Y1097915D01*
D02*
G37*
%LPD*%
D12*
X1460500Y1188720D02*
X1472565Y1200785D01*
X1433830Y1188720D02*
X1460500D01*
X1421765Y1200785D02*
X1433830Y1188720D01*
X1460500Y1163320D02*
X1472565Y1175385D01*
X1433830Y1163320D02*
X1460500D01*
X1421765Y1175385D02*
X1433830Y1163320D01*
X1460500Y1137920D02*
X1472565Y1149985D01*
X1433830Y1137920D02*
X1460500D01*
X1421765Y1149985D02*
X1433830Y1137920D01*
X1460500Y1112520D02*
X1472565Y1124585D01*
X1433830Y1112520D02*
X1460500D01*
X1421765Y1124585D02*
X1433830Y1112520D01*
X1460500Y1087120D02*
X1472565Y1099185D01*
X1433830Y1087120D02*
X1460500D01*
X1421765Y1099185D02*
X1433830Y1087120D01*
X1460500Y1061720D02*
X1472565Y1073785D01*
X1433830Y1061720D02*
X1460500D01*
X1421765Y1073785D02*
X1433830Y1061720D01*
X1460500Y1010920D02*
X1472565Y1022985D01*
X1433830Y1010920D02*
X1460500D01*
X1421765Y1022985D02*
X1433830Y1010920D01*
X1460500Y985520D02*
X1472565Y997585D01*
X1433830Y985520D02*
X1460500D01*
X1421765Y997585D02*
X1433830Y985520D01*
X1460500Y960120D02*
X1472565Y972185D01*
X1433830Y960120D02*
X1460500D01*
X1421765Y972185D02*
X1433830Y960120D01*
X1421765Y921385D02*
X1433830Y909320D01*
X1460500D01*
X1472565Y921385D01*
X1421765Y895985D02*
X1433830Y883920D01*
X1460500D01*
X1472565Y895985D01*
X1421765Y870585D02*
X1433830Y858520D01*
X1460500D01*
X1472565Y870585D01*
X1460500Y831850D02*
X1472565Y819785D01*
X1433830Y831850D02*
X1460500D01*
X1421765Y819785D02*
X1433830Y831850D01*
X1421765Y794385D02*
X1433830Y782320D01*
X1460500D01*
X1472565Y794385D01*
X1460500Y756920D02*
X1472565Y768985D01*
X1433830Y756920D02*
X1460500D01*
X1421765Y768985D02*
X1433830Y756920D01*
X1086485Y1226185D02*
X1099820Y1212850D01*
X1129030D01*
X1142365Y1226185D01*
X1396365D01*
X1142365Y1200785D02*
X1396365D01*
X1129030Y1187450D02*
X1142365Y1200785D01*
X1099820Y1187450D02*
X1129030D01*
X1086485Y1200785D02*
X1099820Y1187450D01*
X1111885Y1200785D02*
X1129665D01*
X1142365Y1213485D01*
X1409065D01*
X1421765Y1200785D01*
X1142365Y1175385D02*
X1396365D01*
X1129030Y1162050D02*
X1142365Y1175385D01*
X1099820Y1162050D02*
X1129030D01*
X1086485Y1175385D02*
X1099820Y1162050D01*
X1409065Y1188085D02*
X1421765Y1175385D01*
X1142365Y1188085D02*
X1409065D01*
X1129665Y1175385D02*
X1142365Y1188085D01*
X1111885Y1175385D02*
X1129665D01*
X1409065Y1162685D02*
X1421765Y1149985D01*
X1142365Y1162685D02*
X1409065D01*
X1129665Y1149985D02*
X1142365Y1162685D01*
X1111885Y1149985D02*
X1129665D01*
X1086485Y1124585D02*
X1099820Y1111250D01*
X1129030D01*
X1142365Y1124585D01*
X1396365D01*
X1111885D02*
X1129665D01*
X1142365Y1137285D01*
X1409065D01*
X1421765Y1124585D01*
X1111885Y1099185D02*
X1129665D01*
X1142365Y1111885D01*
X1409065D01*
X1421765Y1099185D01*
X1111885Y1073785D02*
X1129665D01*
X1142365Y1086485D01*
X1409065D01*
X1421765Y1073785D01*
X1111885Y1022985D02*
X1129665D01*
X1142365Y1035685D01*
X1409065D01*
X1421765Y1022985D01*
X1111885Y997585D02*
X1129665D01*
X1142365Y1010285D01*
X1409065D01*
X1421765Y997585D01*
X1111885Y972185D02*
X1129665D01*
X1142365Y984885D01*
X1409065D01*
X1421765Y972185D01*
X1111885Y946785D02*
X1129665D01*
X1142365Y959485D01*
X1409065D01*
X1421765Y946785D01*
X1111885Y921385D02*
X1129665D01*
X1142365Y934085D01*
X1409065D01*
X1421765Y921385D01*
X1111885Y895985D02*
X1129665D01*
X1142365Y908685D01*
X1409065D01*
X1421765Y895985D01*
X1111885Y870585D02*
X1129665D01*
X1142365Y883285D01*
X1409065D01*
X1421765Y870585D01*
X1111885Y819785D02*
X1129665D01*
X1142365Y832485D01*
X1409065D01*
X1421765Y819785D01*
X1111885Y794385D02*
X1129665D01*
X1142365Y807085D01*
X1409065D01*
X1421765Y794385D01*
X1111885Y768985D02*
X1129665D01*
X1142365Y781685D01*
X1409065D01*
X1421765Y768985D01*
X1111885Y743585D02*
X1129665D01*
X1142365Y756285D01*
X1409065D01*
X1421765Y743585D01*
X1142365Y1073785D02*
X1396365D01*
X1129030Y1060450D02*
X1142365Y1073785D01*
X1099820Y1060450D02*
X1129030D01*
X1086485Y1073785D02*
X1099820Y1060450D01*
X1142365Y1048385D02*
X1396365D01*
X1129030Y1035050D02*
X1142365Y1048385D01*
X1099820Y1035050D02*
X1129030D01*
X1086485Y1048385D02*
X1099820Y1035050D01*
X1142365Y1022985D02*
X1396365D01*
X1129030Y1009650D02*
X1142365Y1022985D01*
X1099820Y1009650D02*
X1129030D01*
X1086485Y1022985D02*
X1099820Y1009650D01*
X1142365Y997585D02*
X1396365D01*
X1129030Y984250D02*
X1142365Y997585D01*
X1099820Y984250D02*
X1129030D01*
X1086485Y997585D02*
X1099820Y984250D01*
X1142365Y946785D02*
X1396365D01*
X1129030Y933450D02*
X1142365Y946785D01*
X1099820Y933450D02*
X1129030D01*
X1086485Y946785D02*
X1099820Y933450D01*
X1142365Y921385D02*
X1396365D01*
X1129030Y908050D02*
X1142365Y921385D01*
X1099820Y908050D02*
X1129030D01*
X1086485Y921385D02*
X1099820Y908050D01*
X1142365Y870585D02*
X1396365D01*
X1129030Y857250D02*
X1142365Y870585D01*
X1099820Y857250D02*
X1129030D01*
X1086485Y870585D02*
X1099820Y857250D01*
X1687195Y1310005D02*
X1692275D01*
X1687195Y659765D02*
X1692275D01*
X1689735Y1310005D02*
X1694815Y1294765D01*
X1684655D02*
X1689735Y1310005D01*
Y659765D02*
X1694815Y675005D01*
X1684655D02*
X1689735Y659765D01*
Y1065124D02*
Y1310005D01*
Y659765D02*
Y904646D01*
X1674262Y1322705D02*
Y1327785D01*
X1060852Y1322705D02*
Y1327785D01*
X1659022Y1320165D02*
X1674262Y1325245D01*
X1659022Y1330325D02*
X1674262Y1325245D01*
X1060852D02*
X1076092Y1320165D01*
X1060852Y1325245D02*
X1076092Y1330325D01*
X1445258Y1325245D02*
X1674262D01*
X1060852D02*
X1289857D01*
D13*
X1459865Y934085D02*
X1472565Y946785D01*
X1434465Y934085D02*
X1459865D01*
X1421765Y946785D02*
X1434465Y934085D01*
D14*
X1683642Y917342D02*
X1686181Y912264D01*
X1691259Y907186D01*
X1696337D01*
X1698876Y909725D01*
Y914803D01*
X1696337Y917342D01*
X1693798D01*
X1691259Y914803D01*
Y907186D01*
X1683642Y932577D02*
Y922421D01*
X1691259D01*
X1688720Y927499D01*
Y930038D01*
X1691259Y932577D01*
X1696337D01*
X1698876Y930038D01*
Y924960D01*
X1696337Y922421D01*
X1698876Y937656D02*
X1696337D01*
Y940195D01*
X1698876D01*
Y937656D01*
X1686181Y950352D02*
X1683642Y952891D01*
Y957969D01*
X1686181Y960508D01*
X1696337D01*
X1698876Y957969D01*
Y952891D01*
X1696337Y950352D01*
X1686181D01*
X1698876Y975743D02*
Y965587D01*
X1688720Y975743D01*
X1686181D01*
X1683642Y973204D01*
Y968126D01*
X1686181Y965587D01*
X1698876Y988439D02*
X1683642D01*
X1691259Y980822D01*
Y990978D01*
X1698876Y1016370D02*
X1693798Y1011292D01*
X1688720D01*
X1683642Y1016370D01*
X1698876Y1023988D02*
X1688720D01*
Y1026527D01*
X1691259Y1029066D01*
X1698876D01*
X1691259D01*
X1688720Y1031605D01*
X1691259Y1034145D01*
X1698876D01*
Y1039223D02*
X1688720D01*
Y1041762D01*
X1691259Y1044301D01*
X1698876D01*
X1691259D01*
X1688720Y1046841D01*
X1691259Y1049380D01*
X1698876D01*
Y1054458D02*
X1693798Y1059536D01*
X1688720D01*
X1683642Y1054458D01*
X1302554Y1331339D02*
X1297475Y1328799D01*
X1292397Y1323721D01*
Y1318643D01*
X1294936Y1316104D01*
X1300015D01*
X1302554Y1318643D01*
Y1321182D01*
X1300015Y1323721D01*
X1292397D01*
X1307632Y1316104D02*
X1312711D01*
X1310171D01*
Y1331339D01*
X1307632Y1328799D01*
X1320328Y1316104D02*
Y1318643D01*
X1322867D01*
Y1316104D01*
X1320328D01*
X1333024Y1328799D02*
X1335563Y1331339D01*
X1340642D01*
X1343181Y1328799D01*
Y1326260D01*
X1340642Y1323721D01*
X1338102D01*
X1340642D01*
X1343181Y1321182D01*
Y1318643D01*
X1340642Y1316104D01*
X1335563D01*
X1333024Y1318643D01*
X1355877Y1316104D02*
Y1331339D01*
X1348259Y1323721D01*
X1358416D01*
X1363494Y1316104D02*
X1368573D01*
X1366033D01*
Y1331339D01*
X1363494Y1328799D01*
X1396503Y1316104D02*
X1391425Y1321182D01*
Y1326260D01*
X1396503Y1331339D01*
X1404121Y1316104D02*
Y1326260D01*
X1406660D01*
X1409199Y1323721D01*
Y1316104D01*
Y1323721D01*
X1411739Y1326260D01*
X1414278Y1323721D01*
Y1316104D01*
X1419356D02*
Y1326260D01*
X1421895D01*
X1424434Y1323721D01*
Y1316104D01*
Y1323721D01*
X1426974Y1326260D01*
X1429513Y1323721D01*
Y1316104D01*
X1434591D02*
X1439669Y1321182D01*
Y1326260D01*
X1434591Y1331339D01*
D15*
X1099185Y694945D02*
D03*
Y1274905D02*
D03*
X1639064Y694945D02*
D03*
Y1274905D02*
D03*
X1409065D02*
D03*
Y694945D02*
D03*
X1303784Y1274905D02*
D03*
Y694945D02*
D03*
D16*
X1111885Y743585D02*
D03*
X1421765D02*
D03*
X1472565D02*
D03*
D17*
X1086485D02*
D03*
X1111885Y768985D02*
D03*
X1086485D02*
D03*
X1111885Y794385D02*
D03*
X1086485D02*
D03*
X1111885Y819785D02*
D03*
X1086485D02*
D03*
X1111885Y845185D02*
D03*
X1086485D02*
D03*
X1111885Y870585D02*
D03*
X1086485D02*
D03*
X1111885Y895985D02*
D03*
X1086485D02*
D03*
X1111885Y921385D02*
D03*
X1086485D02*
D03*
X1111885Y946785D02*
D03*
X1086485D02*
D03*
X1111885Y972185D02*
D03*
X1086485D02*
D03*
X1111885Y997585D02*
D03*
X1086485D02*
D03*
X1111885Y1022985D02*
D03*
X1086485D02*
D03*
X1111885Y1048385D02*
D03*
X1086485D02*
D03*
X1111885Y1073785D02*
D03*
X1086485D02*
D03*
X1111885Y1099185D02*
D03*
X1086485D02*
D03*
X1111885Y1124585D02*
D03*
X1086485D02*
D03*
X1111885Y1149985D02*
D03*
X1086485D02*
D03*
X1111885Y1175385D02*
D03*
X1086485D02*
D03*
X1111885Y1200785D02*
D03*
X1086485D02*
D03*
X1111885Y1226185D02*
D03*
X1086485D02*
D03*
X1396365Y743585D02*
D03*
X1421765Y768985D02*
D03*
X1396365D02*
D03*
X1421765Y794385D02*
D03*
X1396365D02*
D03*
X1421765Y819785D02*
D03*
X1396365D02*
D03*
X1421765Y845185D02*
D03*
X1396365D02*
D03*
X1421765Y870585D02*
D03*
X1396365D02*
D03*
X1421765Y895985D02*
D03*
X1396365D02*
D03*
X1421765Y921385D02*
D03*
X1396365D02*
D03*
X1421765Y946785D02*
D03*
X1396365D02*
D03*
X1421765Y972185D02*
D03*
X1396365D02*
D03*
X1421765Y997585D02*
D03*
X1396365D02*
D03*
X1421765Y1022985D02*
D03*
X1396365D02*
D03*
X1421765Y1048385D02*
D03*
X1396365D02*
D03*
X1421765Y1073785D02*
D03*
X1396365D02*
D03*
X1421765Y1099185D02*
D03*
X1396365D02*
D03*
X1421765Y1124585D02*
D03*
X1396365D02*
D03*
X1421765Y1149985D02*
D03*
X1396365D02*
D03*
X1421765Y1175385D02*
D03*
X1396365D02*
D03*
X1421765Y1200785D02*
D03*
X1396365D02*
D03*
X1421765Y1226185D02*
D03*
X1396365D02*
D03*
X1447165Y743585D02*
D03*
X1472565Y768985D02*
D03*
X1447165D02*
D03*
X1472565Y794385D02*
D03*
X1447165D02*
D03*
X1472565Y819785D02*
D03*
X1447165D02*
D03*
X1472565Y845185D02*
D03*
X1447165D02*
D03*
X1472565Y870585D02*
D03*
X1447165D02*
D03*
X1472565Y895985D02*
D03*
X1447165D02*
D03*
X1472565Y921385D02*
D03*
X1447165D02*
D03*
X1472565Y946785D02*
D03*
X1447165D02*
D03*
X1472565Y972185D02*
D03*
X1447165D02*
D03*
X1472565Y997585D02*
D03*
X1447165D02*
D03*
X1472565Y1022985D02*
D03*
X1447165D02*
D03*
X1472565Y1048385D02*
D03*
X1447165D02*
D03*
X1472565Y1073785D02*
D03*
X1447165D02*
D03*
X1472565Y1099185D02*
D03*
X1447165D02*
D03*
X1472565Y1124585D02*
D03*
X1447165D02*
D03*
X1472565Y1149985D02*
D03*
X1447165D02*
D03*
X1472565Y1175385D02*
D03*
X1447165D02*
D03*
X1472565Y1200785D02*
D03*
X1447165D02*
D03*
X1472565Y1226185D02*
D03*
X1447165D02*
D03*
D18*
X1086485Y768985D02*
X1099185Y756285D01*
X1129665D01*
Y730885D02*
X1142365Y743585D01*
X1099185Y730885D02*
X1129665D01*
X1086485Y743585D02*
X1099185Y730885D01*
X1142365Y743585D02*
X1396365D01*
X1129665Y756285D02*
X1142365Y768985D01*
X1396365D01*
M02*
