G04 Layer_Physical_Order=1*
G04 Layer_Color=255*
%FSLAX44Y44*%
%MOMM*%
G71*
G01*
G75*
%ADD10R,0.3000X1.4000*%
%ADD11R,0.5500X0.5500*%
%ADD12C,0.2540*%
%ADD13C,0.5080*%
%ADD14C,0.1524*%
%ADD15C,6.0000*%
%ADD16R,1.5000X1.5000*%
%ADD17C,1.5000*%
G36*
X1674495Y659765D02*
X1061085D01*
Y1310005D01*
X1674495D01*
Y659765D01*
D02*
G37*
%LPC*%
G36*
X1111885Y955631D02*
X1109596Y955329D01*
X1107462Y954446D01*
X1105630Y953040D01*
X1104224Y951208D01*
X1103341Y949074D01*
X1103039Y946785D01*
X1103341Y944496D01*
X1104224Y942362D01*
X1105630Y940530D01*
X1107462Y939124D01*
X1109596Y938241D01*
X1111885Y937939D01*
X1114174Y938241D01*
X1116308Y939124D01*
X1118140Y940530D01*
X1119546Y942362D01*
X1120429Y944496D01*
X1120731Y946785D01*
X1120429Y949074D01*
X1119546Y951208D01*
X1118140Y953040D01*
X1116308Y954446D01*
X1114174Y955329D01*
X1111885Y955631D01*
D02*
G37*
G36*
X1421765D02*
X1419476Y955329D01*
X1417342Y954446D01*
X1415510Y953040D01*
X1414104Y951208D01*
X1413221Y949074D01*
X1412919Y946785D01*
X1413221Y944496D01*
X1414104Y942362D01*
X1415510Y940530D01*
X1417342Y939124D01*
X1419476Y938241D01*
X1421765Y937939D01*
X1424054Y938241D01*
X1426188Y939124D01*
X1428020Y940530D01*
X1429426Y942362D01*
X1430309Y944496D01*
X1430611Y946785D01*
X1430309Y949074D01*
X1429426Y951208D01*
X1428020Y953040D01*
X1426188Y954446D01*
X1424054Y955329D01*
X1421765Y955631D01*
D02*
G37*
G36*
X1472565Y930231D02*
X1470276Y929929D01*
X1468142Y929046D01*
X1466310Y927640D01*
X1464904Y925808D01*
X1464021Y923674D01*
X1463719Y921385D01*
X1464021Y919096D01*
X1464904Y916962D01*
X1466310Y915130D01*
X1468142Y913724D01*
X1470276Y912841D01*
X1472565Y912539D01*
X1474854Y912841D01*
X1476988Y913724D01*
X1478820Y915130D01*
X1480226Y916962D01*
X1481109Y919096D01*
X1481411Y921385D01*
X1481109Y923674D01*
X1480226Y925808D01*
X1478820Y927640D01*
X1476988Y929046D01*
X1474854Y929929D01*
X1472565Y930231D01*
D02*
G37*
G36*
X1447165Y955631D02*
X1444876Y955329D01*
X1442742Y954446D01*
X1440910Y953040D01*
X1439504Y951208D01*
X1438621Y949074D01*
X1438319Y946785D01*
X1438621Y944496D01*
X1439380Y942663D01*
X1433392Y936675D01*
X1410138D01*
X1404150Y942663D01*
X1404909Y944496D01*
X1405211Y946785D01*
X1404909Y949074D01*
X1404026Y951208D01*
X1402620Y953040D01*
X1400788Y954446D01*
X1398654Y955329D01*
X1396365Y955631D01*
X1394076Y955329D01*
X1391942Y954446D01*
X1390110Y953040D01*
X1388704Y951208D01*
X1387945Y949375D01*
X1337945D01*
X1336954Y949178D01*
X1336114Y948616D01*
X1248885Y861387D01*
X1174356Y935916D01*
X1173516Y936478D01*
X1172525Y936675D01*
X1100258D01*
X1094270Y942663D01*
X1095029Y944496D01*
X1095331Y946785D01*
X1095029Y949074D01*
X1094146Y951208D01*
X1092740Y953040D01*
X1090908Y954446D01*
X1088774Y955329D01*
X1086485Y955631D01*
X1084196Y955329D01*
X1082062Y954446D01*
X1080230Y953040D01*
X1078824Y951208D01*
X1077941Y949074D01*
X1077639Y946785D01*
X1077941Y944496D01*
X1078824Y942362D01*
X1080230Y940530D01*
X1082062Y939124D01*
X1084196Y938241D01*
X1086485Y937939D01*
X1088774Y938241D01*
X1090608Y939000D01*
X1097354Y932254D01*
X1098194Y931692D01*
X1099185Y931495D01*
X1171452D01*
X1246295Y856652D01*
Y845688D01*
X1245385Y845080D01*
X1242385D01*
X1241475Y845688D01*
Y852805D01*
X1241278Y853796D01*
X1240716Y854636D01*
X1235636Y859716D01*
X1234796Y860278D01*
X1233805Y860475D01*
X1078865D01*
X1077874Y860278D01*
X1077034Y859716D01*
X1071954Y854636D01*
X1071392Y853796D01*
X1071195Y852805D01*
Y832485D01*
X1071392Y831494D01*
X1071954Y830654D01*
X1078700Y823907D01*
X1077941Y822074D01*
X1077639Y819785D01*
X1077941Y817496D01*
X1078824Y815362D01*
X1080230Y813530D01*
X1082062Y812124D01*
X1084196Y811241D01*
X1086485Y810939D01*
X1088774Y811241D01*
X1090908Y812124D01*
X1092740Y813530D01*
X1094146Y815362D01*
X1095029Y817496D01*
X1095331Y819785D01*
X1095029Y822074D01*
X1094146Y824208D01*
X1092740Y826040D01*
X1090908Y827446D01*
X1088774Y828329D01*
X1086485Y828631D01*
X1084196Y828329D01*
X1082363Y827570D01*
X1076375Y833558D01*
Y851732D01*
X1079938Y855295D01*
X1106739D01*
X1106992Y854025D01*
X1106822Y853955D01*
X1104724Y852346D01*
X1103115Y850248D01*
X1102103Y847806D01*
X1101926Y846455D01*
X1111885D01*
X1121844D01*
X1121667Y847806D01*
X1120655Y850248D01*
X1119046Y852346D01*
X1116948Y853955D01*
X1116778Y854025D01*
X1117031Y855295D01*
X1232732D01*
X1236295Y851732D01*
Y845688D01*
X1235385Y845080D01*
X1232521D01*
X1232216Y845536D01*
X1231376Y846098D01*
X1230385Y846295D01*
X1230155D01*
Y836705D01*
Y827115D01*
X1230385D01*
X1231161Y826479D01*
X1231305Y826003D01*
X1231492Y825064D01*
X1232054Y824224D01*
X1237887Y818391D01*
X1237889Y817940D01*
X1237692Y817028D01*
X1237611Y816909D01*
X1237054Y816536D01*
X1227054Y806536D01*
X1226492Y805696D01*
X1226295Y804705D01*
Y800393D01*
X1226010Y799705D01*
Y785705D01*
X1226413Y784733D01*
X1227385Y784330D01*
X1230385D01*
X1231295Y783722D01*
Y780298D01*
X1225112Y774115D01*
X1186618D01*
X1126416Y834316D01*
X1125576Y834878D01*
X1124585Y835075D01*
X1117031D01*
X1116778Y836345D01*
X1116948Y836415D01*
X1119046Y838024D01*
X1120655Y840122D01*
X1121667Y842564D01*
X1121844Y843915D01*
X1111885D01*
X1101926D01*
X1102103Y842564D01*
X1103115Y840122D01*
X1104724Y838024D01*
X1106822Y836415D01*
X1106992Y836345D01*
X1106739Y835075D01*
X1100258D01*
X1094270Y841062D01*
X1095029Y842896D01*
X1095331Y845185D01*
X1095029Y847474D01*
X1094146Y849608D01*
X1092740Y851440D01*
X1090908Y852846D01*
X1088774Y853729D01*
X1086485Y854031D01*
X1084196Y853729D01*
X1082062Y852846D01*
X1080230Y851440D01*
X1078824Y849608D01*
X1077941Y847474D01*
X1077639Y845185D01*
X1077941Y842896D01*
X1078824Y840762D01*
X1080230Y838930D01*
X1082062Y837524D01*
X1084196Y836641D01*
X1086485Y836339D01*
X1088774Y836641D01*
X1090608Y837400D01*
X1097354Y830654D01*
X1098194Y830092D01*
X1099185Y829895D01*
X1123512D01*
X1183714Y769694D01*
X1184554Y769132D01*
X1185545Y768935D01*
X1226185D01*
X1227176Y769132D01*
X1228016Y769694D01*
X1234688Y776366D01*
X1235958Y775840D01*
Y772585D01*
X1236155Y771594D01*
X1236717Y770754D01*
X1237557Y770192D01*
X1238548Y769995D01*
X1240028D01*
Y775335D01*
Y780675D01*
X1238548D01*
X1237745Y780515D01*
X1237193Y780748D01*
X1236475Y781282D01*
Y783722D01*
X1237385Y784330D01*
X1240249D01*
X1240554Y783874D01*
X1241394Y783312D01*
X1242385Y783115D01*
X1242615D01*
Y792705D01*
X1245155D01*
Y783115D01*
X1245385D01*
X1246492Y782124D01*
X1247054Y781284D01*
X1249263Y779074D01*
X1249260Y779057D01*
X1248857Y778085D01*
Y772585D01*
X1249260Y771613D01*
X1250232Y771210D01*
X1251486D01*
X1269158Y753538D01*
X1270418Y752696D01*
X1271905Y752400D01*
X1391438D01*
X1391761Y751659D01*
X1391792Y751130D01*
X1390110Y749840D01*
X1388704Y748008D01*
X1387821Y745874D01*
X1387519Y743585D01*
X1387821Y741296D01*
X1388704Y739162D01*
X1390110Y737330D01*
X1391942Y735924D01*
X1394076Y735041D01*
X1396365Y734739D01*
X1398654Y735041D01*
X1400788Y735924D01*
X1402620Y737330D01*
X1404026Y739162D01*
X1404909Y741296D01*
X1405211Y743585D01*
X1404909Y745874D01*
X1404026Y748008D01*
X1402620Y749840D01*
X1400938Y751130D01*
X1400969Y751659D01*
X1401292Y752400D01*
X1412061D01*
X1412909Y751130D01*
X1412890Y751085D01*
Y736085D01*
X1413293Y735113D01*
X1414265Y734710D01*
X1425146D01*
X1434258Y725598D01*
X1435518Y724756D01*
X1437005Y724460D01*
X1457325D01*
X1458812Y724756D01*
X1460072Y725598D01*
X1469184Y734710D01*
X1480065D01*
X1481037Y735113D01*
X1481440Y736085D01*
Y751085D01*
X1481037Y752057D01*
X1480065Y752460D01*
X1465065D01*
X1464093Y752057D01*
X1463690Y751085D01*
Y740204D01*
X1455716Y732230D01*
X1438614D01*
X1430640Y740204D01*
Y751085D01*
X1430621Y751130D01*
X1431470Y752400D01*
X1442238D01*
X1442561Y751659D01*
X1442592Y751130D01*
X1440910Y749840D01*
X1439504Y748008D01*
X1438621Y745874D01*
X1438319Y743585D01*
X1438621Y741296D01*
X1439504Y739162D01*
X1440910Y737330D01*
X1442742Y735924D01*
X1444876Y735041D01*
X1447165Y734739D01*
X1449454Y735041D01*
X1451588Y735924D01*
X1453420Y737330D01*
X1454826Y739162D01*
X1455709Y741296D01*
X1456011Y743585D01*
X1455709Y745874D01*
X1454826Y748008D01*
X1453420Y749840D01*
X1451588Y751246D01*
X1451050Y751469D01*
Y761102D01*
X1451588Y761324D01*
X1453420Y762730D01*
X1454826Y764562D01*
X1455709Y766696D01*
X1456011Y768985D01*
X1455709Y771274D01*
X1454826Y773408D01*
X1453420Y775240D01*
X1451588Y776646D01*
X1449454Y777529D01*
X1447165Y777831D01*
X1444876Y777529D01*
X1442742Y776646D01*
X1440910Y775240D01*
X1439504Y773408D01*
X1438621Y771274D01*
X1438319Y768985D01*
X1438621Y766696D01*
X1439504Y764562D01*
X1440910Y762730D01*
X1442592Y761440D01*
X1442561Y760911D01*
X1442238Y760170D01*
X1426692D01*
X1426369Y760911D01*
X1426338Y761440D01*
X1428020Y762730D01*
X1429426Y764562D01*
X1430309Y766696D01*
X1430611Y768985D01*
X1430309Y771274D01*
X1429426Y773408D01*
X1428020Y775240D01*
X1426188Y776646D01*
X1424054Y777529D01*
X1421765Y777831D01*
X1419476Y777529D01*
X1417342Y776646D01*
X1415510Y775240D01*
X1414104Y773408D01*
X1413221Y771274D01*
X1412919Y768985D01*
X1413221Y766696D01*
X1414104Y764562D01*
X1415510Y762730D01*
X1417192Y761440D01*
X1417161Y760911D01*
X1416838Y760170D01*
X1401292D01*
X1400969Y760911D01*
X1400938Y761440D01*
X1402620Y762730D01*
X1404026Y764562D01*
X1404909Y766696D01*
X1405211Y768985D01*
X1404909Y771274D01*
X1404026Y773408D01*
X1402620Y775240D01*
X1400788Y776646D01*
X1398654Y777529D01*
X1396365Y777831D01*
X1394076Y777529D01*
X1391942Y776646D01*
X1390110Y775240D01*
X1388704Y773408D01*
X1387821Y771274D01*
X1387519Y768985D01*
X1387821Y766696D01*
X1388704Y764562D01*
X1390110Y762730D01*
X1391792Y761440D01*
X1391761Y760911D01*
X1391438Y760170D01*
X1273514D01*
X1257107Y776577D01*
Y778085D01*
X1256704Y779057D01*
X1255732Y779460D01*
X1255484D01*
X1255375Y780009D01*
X1254813Y780849D01*
X1251475Y784188D01*
Y785017D01*
X1251760Y785705D01*
Y799705D01*
X1251357Y800677D01*
X1251337Y800685D01*
X1251590Y801955D01*
X1387918D01*
X1388544Y800685D01*
X1387595Y799448D01*
X1386583Y797006D01*
X1386406Y795655D01*
X1396365D01*
X1406324D01*
X1406147Y797006D01*
X1405135Y799448D01*
X1404186Y800685D01*
X1404812Y801955D01*
X1415249D01*
X1415657Y800753D01*
X1415510Y800640D01*
X1414104Y798808D01*
X1413221Y796674D01*
X1412919Y794385D01*
X1413221Y792096D01*
X1414104Y789962D01*
X1415510Y788130D01*
X1417342Y786724D01*
X1419476Y785841D01*
X1421765Y785539D01*
X1424054Y785841D01*
X1426188Y786724D01*
X1428020Y788130D01*
X1429426Y789962D01*
X1430309Y792096D01*
X1430611Y794385D01*
X1430309Y796674D01*
X1429426Y798808D01*
X1428020Y800640D01*
X1427873Y800753D01*
X1428281Y801955D01*
X1429385D01*
X1430376Y802152D01*
X1431216Y802714D01*
X1436296Y807794D01*
X1436858Y808634D01*
X1437055Y809625D01*
Y831412D01*
X1443042Y837400D01*
X1444876Y836641D01*
X1447165Y836339D01*
X1449454Y836641D01*
X1451588Y837524D01*
X1453420Y838930D01*
X1454826Y840762D01*
X1455709Y842896D01*
X1456011Y845185D01*
X1455709Y847474D01*
X1454826Y849608D01*
X1453420Y851440D01*
X1451588Y852846D01*
X1449454Y853729D01*
X1447165Y854031D01*
X1444876Y853729D01*
X1442742Y852846D01*
X1440910Y851440D01*
X1439504Y849608D01*
X1438621Y847474D01*
X1438319Y845185D01*
X1438621Y842896D01*
X1439380Y841062D01*
X1432634Y834316D01*
X1432072Y833476D01*
X1431875Y832485D01*
Y810698D01*
X1428312Y807135D01*
X1241425D01*
X1240434Y806938D01*
X1239594Y806376D01*
X1237054Y803836D01*
X1236492Y802996D01*
X1236309Y802072D01*
X1236124Y801573D01*
X1235385Y801080D01*
X1232385D01*
X1231475Y801688D01*
Y803632D01*
X1239958Y812115D01*
X1327785D01*
X1328776Y812312D01*
X1329616Y812874D01*
X1359338Y842595D01*
X1387945D01*
X1388704Y840762D01*
X1390110Y838930D01*
X1391942Y837524D01*
X1394076Y836641D01*
X1396365Y836339D01*
X1398654Y836641D01*
X1400788Y837524D01*
X1402620Y838930D01*
X1404026Y840762D01*
X1404909Y842896D01*
X1405211Y845185D01*
X1404909Y847474D01*
X1404026Y849608D01*
X1403240Y850631D01*
X1404197Y851470D01*
X1406475Y849192D01*
Y833558D01*
X1400488Y827570D01*
X1398654Y828329D01*
X1396365Y828631D01*
X1394076Y828329D01*
X1391942Y827446D01*
X1390110Y826040D01*
X1388704Y824208D01*
X1387821Y822074D01*
X1387519Y819785D01*
X1387821Y817496D01*
X1388704Y815362D01*
X1390110Y813530D01*
X1391942Y812124D01*
X1394076Y811241D01*
X1396365Y810939D01*
X1398654Y811241D01*
X1400788Y812124D01*
X1402620Y813530D01*
X1404026Y815362D01*
X1404909Y817496D01*
X1405211Y819785D01*
X1404909Y822074D01*
X1404150Y823907D01*
X1410896Y830654D01*
X1411458Y831494D01*
X1411655Y832485D01*
Y840039D01*
X1412925Y840292D01*
X1412995Y840122D01*
X1414604Y838024D01*
X1416702Y836415D01*
X1419144Y835403D01*
X1420495Y835226D01*
Y845185D01*
X1421765D01*
Y846455D01*
X1431724D01*
X1431547Y847806D01*
X1430535Y850248D01*
X1428926Y852346D01*
X1426828Y853955D01*
X1425125Y854660D01*
X1425378Y855930D01*
X1435100D01*
X1436091Y856127D01*
X1436931Y856689D01*
X1443042Y862800D01*
X1444876Y862041D01*
X1447165Y861739D01*
X1449454Y862041D01*
X1451588Y862924D01*
X1453420Y864330D01*
X1454826Y866162D01*
X1455709Y868296D01*
X1456011Y870585D01*
X1455709Y872874D01*
X1454826Y875008D01*
X1453420Y876840D01*
X1451588Y878246D01*
X1449454Y879129D01*
X1447165Y879431D01*
X1444876Y879129D01*
X1442742Y878246D01*
X1440910Y876840D01*
X1439504Y875008D01*
X1438621Y872874D01*
X1438319Y870585D01*
X1438621Y868296D01*
X1439380Y866462D01*
X1434027Y861110D01*
X1425125D01*
X1424873Y862380D01*
X1426188Y862924D01*
X1428020Y864330D01*
X1429426Y866162D01*
X1430309Y868296D01*
X1430611Y870585D01*
X1430309Y872874D01*
X1429426Y875008D01*
X1428020Y876840D01*
X1426188Y878246D01*
X1424054Y879129D01*
X1421765Y879431D01*
X1419476Y879129D01*
X1417342Y878246D01*
X1415510Y876840D01*
X1414104Y875008D01*
X1413221Y872874D01*
X1412919Y870585D01*
X1413221Y868296D01*
X1414104Y866162D01*
X1415510Y864330D01*
X1417342Y862924D01*
X1418657Y862380D01*
X1418405Y861110D01*
X1412740D01*
X1404984Y868866D01*
X1405211Y870585D01*
X1404909Y872874D01*
X1404026Y875008D01*
X1402620Y876840D01*
X1400788Y878246D01*
X1398654Y879129D01*
X1396365Y879431D01*
X1394076Y879129D01*
X1391942Y878246D01*
X1390110Y876840D01*
X1388704Y875008D01*
X1387821Y872874D01*
X1387519Y870585D01*
X1387821Y868296D01*
X1388704Y866162D01*
X1390110Y864330D01*
X1391942Y862924D01*
X1394076Y862041D01*
X1396365Y861739D01*
X1398654Y862041D01*
X1400788Y862924D01*
X1402379Y864146D01*
X1409836Y856689D01*
X1410677Y856127D01*
X1411668Y855930D01*
X1418152D01*
X1418405Y854660D01*
X1416702Y853955D01*
X1414604Y852346D01*
X1412995Y850248D01*
X1412925Y850079D01*
X1411724Y850255D01*
X1411646Y850310D01*
X1411458Y851256D01*
X1410896Y852096D01*
X1403276Y859716D01*
X1402436Y860278D01*
X1401445Y860475D01*
X1359535D01*
X1358544Y860278D01*
X1358400Y860181D01*
X1357590Y861168D01*
X1377118Y880695D01*
X1451807D01*
X1457275Y875227D01*
Y833558D01*
X1451288Y827570D01*
X1449454Y828329D01*
X1447165Y828631D01*
X1444876Y828329D01*
X1442742Y827446D01*
X1440910Y826040D01*
X1439504Y824208D01*
X1438621Y822074D01*
X1438319Y819785D01*
X1438621Y817496D01*
X1439504Y815362D01*
X1440910Y813530D01*
X1442742Y812124D01*
X1444876Y811241D01*
X1447165Y810939D01*
X1449454Y811241D01*
X1451588Y812124D01*
X1453420Y813530D01*
X1454826Y815362D01*
X1455709Y817496D01*
X1456011Y819785D01*
X1455709Y822074D01*
X1454950Y823907D01*
X1461696Y830654D01*
X1462258Y831494D01*
X1462455Y832485D01*
Y840039D01*
X1463725Y840292D01*
X1463795Y840122D01*
X1465404Y838024D01*
X1467502Y836415D01*
X1469944Y835403D01*
X1471295Y835226D01*
Y845185D01*
Y855144D01*
X1469944Y854967D01*
X1467502Y853955D01*
X1465404Y852346D01*
X1463795Y850248D01*
X1463725Y850079D01*
X1462455Y850331D01*
Y876300D01*
X1462258Y877291D01*
X1461696Y878131D01*
X1454711Y885116D01*
X1453871Y885678D01*
X1452880Y885875D01*
X1452311D01*
X1452059Y887145D01*
X1452228Y887215D01*
X1454326Y888824D01*
X1455935Y890922D01*
X1456947Y893364D01*
X1457124Y894715D01*
X1447165D01*
X1437206D01*
X1437383Y893364D01*
X1438395Y890922D01*
X1440004Y888824D01*
X1442102Y887215D01*
X1442272Y887145D01*
X1442019Y885875D01*
X1401511D01*
X1401259Y887145D01*
X1401428Y887215D01*
X1403526Y888824D01*
X1405135Y890922D01*
X1406147Y893364D01*
X1406324Y894715D01*
X1396365D01*
X1386406D01*
X1386583Y893364D01*
X1387595Y890922D01*
X1389204Y888824D01*
X1391302Y887215D01*
X1391472Y887145D01*
X1391219Y885875D01*
X1376045D01*
X1375054Y885678D01*
X1374214Y885116D01*
X1316552Y827455D01*
X1251590D01*
X1251337Y828725D01*
X1251357Y828733D01*
X1251760Y829705D01*
Y843705D01*
X1251475Y844393D01*
Y856652D01*
X1339018Y944195D01*
X1387945D01*
X1388704Y942362D01*
X1390110Y940530D01*
X1391942Y939124D01*
X1394076Y938241D01*
X1396365Y937939D01*
X1398654Y938241D01*
X1400488Y939000D01*
X1407234Y932254D01*
X1408074Y931692D01*
X1409065Y931495D01*
X1434465D01*
X1435456Y931692D01*
X1436296Y932254D01*
X1443042Y939000D01*
X1444876Y938241D01*
X1447165Y937939D01*
X1449454Y938241D01*
X1451588Y939124D01*
X1453420Y940530D01*
X1454826Y942362D01*
X1455709Y944496D01*
X1456011Y946785D01*
X1455709Y949074D01*
X1454826Y951208D01*
X1453420Y953040D01*
X1451588Y954446D01*
X1449454Y955329D01*
X1447165Y955631D01*
D02*
G37*
G36*
X1472565D02*
X1470276Y955329D01*
X1468142Y954446D01*
X1466310Y953040D01*
X1464904Y951208D01*
X1464021Y949074D01*
X1463719Y946785D01*
X1464021Y944496D01*
X1464904Y942362D01*
X1466310Y940530D01*
X1468142Y939124D01*
X1470276Y938241D01*
X1472565Y937939D01*
X1474854Y938241D01*
X1476988Y939124D01*
X1478820Y940530D01*
X1480226Y942362D01*
X1481109Y944496D01*
X1481411Y946785D01*
X1481109Y949074D01*
X1480226Y951208D01*
X1478820Y953040D01*
X1476988Y954446D01*
X1474854Y955329D01*
X1472565Y955631D01*
D02*
G37*
G36*
X1445895Y970915D02*
X1437206D01*
X1437383Y969564D01*
X1438395Y967122D01*
X1440004Y965024D01*
X1442102Y963415D01*
X1444544Y962403D01*
X1445895Y962226D01*
Y970915D01*
D02*
G37*
G36*
X1096444D02*
X1087755D01*
Y962226D01*
X1089106Y962403D01*
X1091548Y963415D01*
X1093646Y965024D01*
X1095255Y967122D01*
X1096267Y969564D01*
X1096444Y970915D01*
D02*
G37*
G36*
X1085215D02*
X1076526D01*
X1076703Y969564D01*
X1077715Y967122D01*
X1079324Y965024D01*
X1081422Y963415D01*
X1083864Y962403D01*
X1085215Y962226D01*
Y970915D01*
D02*
G37*
G36*
X1395095D02*
X1386406D01*
X1386583Y969564D01*
X1387595Y967122D01*
X1389204Y965024D01*
X1391302Y963415D01*
X1393744Y962403D01*
X1395095Y962226D01*
Y970915D01*
D02*
G37*
G36*
X1421765Y930231D02*
X1419476Y929929D01*
X1417342Y929046D01*
X1415510Y927640D01*
X1414104Y925808D01*
X1413221Y923674D01*
X1412919Y921385D01*
X1413221Y919096D01*
X1414104Y916962D01*
X1415510Y915130D01*
X1417342Y913724D01*
X1419476Y912841D01*
X1421765Y912539D01*
X1424054Y912841D01*
X1426188Y913724D01*
X1428020Y915130D01*
X1429426Y916962D01*
X1430309Y919096D01*
X1430611Y921385D01*
X1430309Y923674D01*
X1429426Y925808D01*
X1428020Y927640D01*
X1426188Y929046D01*
X1424054Y929929D01*
X1421765Y930231D01*
D02*
G37*
G36*
X1445895Y905944D02*
X1444544Y905767D01*
X1442102Y904755D01*
X1440004Y903146D01*
X1438395Y901048D01*
X1437383Y898606D01*
X1437206Y897255D01*
X1445895D01*
Y905944D01*
D02*
G37*
G36*
X1087755D02*
Y897255D01*
X1096444D01*
X1096267Y898606D01*
X1095255Y901048D01*
X1093646Y903146D01*
X1091548Y904755D01*
X1089106Y905767D01*
X1087755Y905944D01*
D02*
G37*
G36*
X1085215D02*
X1083864Y905767D01*
X1081422Y904755D01*
X1079324Y903146D01*
X1077715Y901048D01*
X1076703Y898606D01*
X1076526Y897255D01*
X1085215D01*
Y905944D01*
D02*
G37*
G36*
X1395095D02*
X1393744Y905767D01*
X1391302Y904755D01*
X1389204Y903146D01*
X1387595Y901048D01*
X1386583Y898606D01*
X1386406Y897255D01*
X1395095D01*
Y905944D01*
D02*
G37*
G36*
X1397635D02*
Y897255D01*
X1406324D01*
X1406147Y898606D01*
X1405135Y901048D01*
X1403526Y903146D01*
X1401428Y904755D01*
X1398986Y905767D01*
X1397635Y905944D01*
D02*
G37*
G36*
X1086485Y930231D02*
X1084196Y929929D01*
X1082062Y929046D01*
X1080230Y927640D01*
X1078824Y925808D01*
X1077941Y923674D01*
X1077639Y921385D01*
X1077941Y919096D01*
X1078824Y916962D01*
X1080230Y915130D01*
X1082062Y913724D01*
X1084196Y912841D01*
X1086485Y912539D01*
X1088774Y912841D01*
X1090908Y913724D01*
X1092740Y915130D01*
X1094146Y916962D01*
X1095029Y919096D01*
X1095331Y921385D01*
X1095029Y923674D01*
X1094146Y925808D01*
X1092740Y927640D01*
X1090908Y929046D01*
X1088774Y929929D01*
X1086485Y930231D01*
D02*
G37*
G36*
X1111885D02*
X1109596Y929929D01*
X1107462Y929046D01*
X1105630Y927640D01*
X1104224Y925808D01*
X1103341Y923674D01*
X1103039Y921385D01*
X1103341Y919096D01*
X1104224Y916962D01*
X1105630Y915130D01*
X1107462Y913724D01*
X1109596Y912841D01*
X1111885Y912539D01*
X1114174Y912841D01*
X1116308Y913724D01*
X1118140Y915130D01*
X1119546Y916962D01*
X1120429Y919096D01*
X1120731Y921385D01*
X1120429Y923674D01*
X1119546Y925808D01*
X1118140Y927640D01*
X1116308Y929046D01*
X1114174Y929929D01*
X1111885Y930231D01*
D02*
G37*
G36*
X1448435Y905944D02*
Y897255D01*
X1457124D01*
X1456947Y898606D01*
X1455935Y901048D01*
X1454326Y903146D01*
X1452228Y904755D01*
X1449786Y905767D01*
X1448435Y905944D01*
D02*
G37*
G36*
X1447165Y930231D02*
X1444876Y929929D01*
X1442742Y929046D01*
X1440910Y927640D01*
X1439504Y925808D01*
X1438621Y923674D01*
X1438319Y921385D01*
X1438621Y919096D01*
X1439380Y917262D01*
X1433392Y911275D01*
X1410138D01*
X1404150Y917262D01*
X1404909Y919096D01*
X1405211Y921385D01*
X1404909Y923674D01*
X1404026Y925808D01*
X1402620Y927640D01*
X1400788Y929046D01*
X1398654Y929929D01*
X1396365Y930231D01*
X1394076Y929929D01*
X1391942Y929046D01*
X1390110Y927640D01*
X1388704Y925808D01*
X1387821Y923674D01*
X1387519Y921385D01*
X1387821Y919096D01*
X1388704Y916962D01*
X1390110Y915130D01*
X1391942Y913724D01*
X1394076Y912841D01*
X1396365Y912539D01*
X1398654Y912841D01*
X1400488Y913600D01*
X1407234Y906854D01*
X1408074Y906292D01*
X1409065Y906095D01*
X1434465D01*
X1435456Y906292D01*
X1436296Y906854D01*
X1443042Y913600D01*
X1444876Y912841D01*
X1447165Y912539D01*
X1449454Y912841D01*
X1451588Y913724D01*
X1453420Y915130D01*
X1454826Y916962D01*
X1455709Y919096D01*
X1456011Y921385D01*
X1455709Y923674D01*
X1454826Y925808D01*
X1453420Y927640D01*
X1451588Y929046D01*
X1449454Y929929D01*
X1447165Y930231D01*
D02*
G37*
G36*
X1086485Y1006431D02*
X1084196Y1006129D01*
X1082062Y1005246D01*
X1080230Y1003840D01*
X1078824Y1002008D01*
X1077941Y999874D01*
X1077639Y997585D01*
X1077941Y995296D01*
X1078824Y993162D01*
X1080230Y991330D01*
X1082062Y989924D01*
X1084196Y989041D01*
X1086485Y988739D01*
X1088774Y989041D01*
X1090908Y989924D01*
X1092740Y991330D01*
X1094146Y993162D01*
X1095029Y995296D01*
X1095331Y997585D01*
X1095029Y999874D01*
X1094146Y1002008D01*
X1092740Y1003840D01*
X1090908Y1005246D01*
X1088774Y1006129D01*
X1086485Y1006431D01*
D02*
G37*
G36*
X1111885D02*
X1109596Y1006129D01*
X1107462Y1005246D01*
X1105630Y1003840D01*
X1104224Y1002008D01*
X1103341Y999874D01*
X1103039Y997585D01*
X1103341Y995296D01*
X1104224Y993162D01*
X1105630Y991330D01*
X1107462Y989924D01*
X1109596Y989041D01*
X1111885Y988739D01*
X1114174Y989041D01*
X1116308Y989924D01*
X1118140Y991330D01*
X1119546Y993162D01*
X1120429Y995296D01*
X1120731Y997585D01*
X1120429Y999874D01*
X1119546Y1002008D01*
X1118140Y1003840D01*
X1116308Y1005246D01*
X1114174Y1006129D01*
X1111885Y1006431D01*
D02*
G37*
G36*
X1448435Y982144D02*
Y973455D01*
X1457124D01*
X1456947Y974806D01*
X1455935Y977248D01*
X1454326Y979346D01*
X1452228Y980955D01*
X1449786Y981967D01*
X1448435Y982144D01*
D02*
G37*
G36*
X1447165Y1006431D02*
X1444876Y1006129D01*
X1442742Y1005246D01*
X1440910Y1003840D01*
X1439504Y1002008D01*
X1438621Y999874D01*
X1438319Y997585D01*
X1438621Y995296D01*
X1439380Y993463D01*
X1433392Y987475D01*
X1410138D01*
X1404150Y993463D01*
X1404909Y995296D01*
X1405211Y997585D01*
X1404909Y999874D01*
X1404026Y1002008D01*
X1402620Y1003840D01*
X1400788Y1005246D01*
X1398654Y1006129D01*
X1396365Y1006431D01*
X1394076Y1006129D01*
X1391942Y1005246D01*
X1390110Y1003840D01*
X1388704Y1002008D01*
X1387821Y999874D01*
X1387519Y997585D01*
X1387821Y995296D01*
X1388704Y993162D01*
X1390110Y991330D01*
X1391942Y989924D01*
X1394076Y989041D01*
X1396365Y988739D01*
X1398654Y989041D01*
X1400488Y989800D01*
X1407234Y983054D01*
X1408074Y982492D01*
X1409065Y982295D01*
X1434465D01*
X1435456Y982492D01*
X1436296Y983054D01*
X1443042Y989800D01*
X1444876Y989041D01*
X1447165Y988739D01*
X1449454Y989041D01*
X1451588Y989924D01*
X1453420Y991330D01*
X1454826Y993162D01*
X1455709Y995296D01*
X1456011Y997585D01*
X1455709Y999874D01*
X1454826Y1002008D01*
X1453420Y1003840D01*
X1451588Y1005246D01*
X1449454Y1006129D01*
X1447165Y1006431D01*
D02*
G37*
G36*
X1421765D02*
X1419476Y1006129D01*
X1417342Y1005246D01*
X1415510Y1003840D01*
X1414104Y1002008D01*
X1413221Y999874D01*
X1412919Y997585D01*
X1413221Y995296D01*
X1414104Y993162D01*
X1415510Y991330D01*
X1417342Y989924D01*
X1419476Y989041D01*
X1421765Y988739D01*
X1424054Y989041D01*
X1426188Y989924D01*
X1428020Y991330D01*
X1429426Y993162D01*
X1430309Y995296D01*
X1430611Y997585D01*
X1430309Y999874D01*
X1429426Y1002008D01*
X1428020Y1003840D01*
X1426188Y1005246D01*
X1424054Y1006129D01*
X1421765Y1006431D01*
D02*
G37*
G36*
X1086485Y1031831D02*
X1084196Y1031529D01*
X1082062Y1030646D01*
X1080230Y1029240D01*
X1078824Y1027408D01*
X1077941Y1025274D01*
X1077639Y1022985D01*
X1077941Y1020696D01*
X1078824Y1018562D01*
X1080230Y1016730D01*
X1082062Y1015324D01*
X1084196Y1014441D01*
X1086485Y1014139D01*
X1088774Y1014441D01*
X1090908Y1015324D01*
X1092740Y1016730D01*
X1094146Y1018562D01*
X1095029Y1020696D01*
X1095331Y1022985D01*
X1095029Y1025274D01*
X1094146Y1027408D01*
X1092740Y1029240D01*
X1090908Y1030646D01*
X1088774Y1031529D01*
X1086485Y1031831D01*
D02*
G37*
G36*
X1111885D02*
X1109596Y1031529D01*
X1107462Y1030646D01*
X1105630Y1029240D01*
X1104224Y1027408D01*
X1103341Y1025274D01*
X1103039Y1022985D01*
X1103341Y1020696D01*
X1104224Y1018562D01*
X1105630Y1016730D01*
X1107462Y1015324D01*
X1109596Y1014441D01*
X1111885Y1014139D01*
X1114174Y1014441D01*
X1116308Y1015324D01*
X1118140Y1016730D01*
X1119546Y1018562D01*
X1120429Y1020696D01*
X1120731Y1022985D01*
X1120429Y1025274D01*
X1119546Y1027408D01*
X1118140Y1029240D01*
X1116308Y1030646D01*
X1114174Y1031529D01*
X1111885Y1031831D01*
D02*
G37*
G36*
X1472565Y1006431D02*
X1470276Y1006129D01*
X1468142Y1005246D01*
X1466310Y1003840D01*
X1464904Y1002008D01*
X1464021Y999874D01*
X1463719Y997585D01*
X1464021Y995296D01*
X1464904Y993162D01*
X1466310Y991330D01*
X1468142Y989924D01*
X1470276Y989041D01*
X1472565Y988739D01*
X1474854Y989041D01*
X1476988Y989924D01*
X1478820Y991330D01*
X1480226Y993162D01*
X1481109Y995296D01*
X1481411Y997585D01*
X1481109Y999874D01*
X1480226Y1002008D01*
X1478820Y1003840D01*
X1476988Y1005246D01*
X1474854Y1006129D01*
X1472565Y1006431D01*
D02*
G37*
G36*
X1447165Y1031831D02*
X1444876Y1031529D01*
X1442742Y1030646D01*
X1440910Y1029240D01*
X1439504Y1027408D01*
X1438621Y1025274D01*
X1438319Y1022985D01*
X1438621Y1020696D01*
X1439380Y1018863D01*
X1433392Y1012875D01*
X1410138D01*
X1404150Y1018863D01*
X1404909Y1020696D01*
X1405211Y1022985D01*
X1404909Y1025274D01*
X1404026Y1027408D01*
X1402620Y1029240D01*
X1400788Y1030646D01*
X1398654Y1031529D01*
X1396365Y1031831D01*
X1394076Y1031529D01*
X1391942Y1030646D01*
X1390110Y1029240D01*
X1388704Y1027408D01*
X1387821Y1025274D01*
X1387519Y1022985D01*
X1387821Y1020696D01*
X1388704Y1018562D01*
X1390110Y1016730D01*
X1391942Y1015324D01*
X1394076Y1014441D01*
X1396365Y1014139D01*
X1398654Y1014441D01*
X1400488Y1015200D01*
X1407234Y1008454D01*
X1408074Y1007892D01*
X1409065Y1007695D01*
X1434465D01*
X1435456Y1007892D01*
X1436296Y1008454D01*
X1443042Y1015200D01*
X1444876Y1014441D01*
X1447165Y1014139D01*
X1449454Y1014441D01*
X1451588Y1015324D01*
X1453420Y1016730D01*
X1454826Y1018562D01*
X1455709Y1020696D01*
X1456011Y1022985D01*
X1455709Y1025274D01*
X1454826Y1027408D01*
X1453420Y1029240D01*
X1451588Y1030646D01*
X1449454Y1031529D01*
X1447165Y1031831D01*
D02*
G37*
G36*
X1397635Y982144D02*
Y973455D01*
X1406324D01*
X1406147Y974806D01*
X1405135Y977248D01*
X1403526Y979346D01*
X1401428Y980955D01*
X1398986Y981967D01*
X1397635Y982144D01*
D02*
G37*
G36*
X1111885Y981031D02*
X1109596Y980729D01*
X1107462Y979846D01*
X1105630Y978440D01*
X1104224Y976608D01*
X1103341Y974474D01*
X1103039Y972185D01*
X1103341Y969896D01*
X1104224Y967762D01*
X1105630Y965930D01*
X1107462Y964524D01*
X1109596Y963641D01*
X1111885Y963339D01*
X1114174Y963641D01*
X1116308Y964524D01*
X1118140Y965930D01*
X1119546Y967762D01*
X1120429Y969896D01*
X1120731Y972185D01*
X1120429Y974474D01*
X1119546Y976608D01*
X1118140Y978440D01*
X1116308Y979846D01*
X1114174Y980729D01*
X1111885Y981031D01*
D02*
G37*
G36*
X1421765D02*
X1419476Y980729D01*
X1417342Y979846D01*
X1415510Y978440D01*
X1414104Y976608D01*
X1413221Y974474D01*
X1412919Y972185D01*
X1413221Y969896D01*
X1414104Y967762D01*
X1415510Y965930D01*
X1417342Y964524D01*
X1419476Y963641D01*
X1421765Y963339D01*
X1424054Y963641D01*
X1426188Y964524D01*
X1428020Y965930D01*
X1429426Y967762D01*
X1430309Y969896D01*
X1430611Y972185D01*
X1430309Y974474D01*
X1429426Y976608D01*
X1428020Y978440D01*
X1426188Y979846D01*
X1424054Y980729D01*
X1421765Y981031D01*
D02*
G37*
G36*
X1406324Y970915D02*
X1397635D01*
Y962226D01*
X1398986Y962403D01*
X1401428Y963415D01*
X1403526Y965024D01*
X1405135Y967122D01*
X1406147Y969564D01*
X1406324Y970915D01*
D02*
G37*
G36*
X1457124D02*
X1448435D01*
Y962226D01*
X1449786Y962403D01*
X1452228Y963415D01*
X1454326Y965024D01*
X1455935Y967122D01*
X1456947Y969564D01*
X1457124Y970915D01*
D02*
G37*
G36*
X1472565Y981031D02*
X1470276Y980729D01*
X1468142Y979846D01*
X1466310Y978440D01*
X1464904Y976608D01*
X1464021Y974474D01*
X1463719Y972185D01*
X1464021Y969896D01*
X1464904Y967762D01*
X1466310Y965930D01*
X1468142Y964524D01*
X1470276Y963641D01*
X1472565Y963339D01*
X1474854Y963641D01*
X1476988Y964524D01*
X1478820Y965930D01*
X1480226Y967762D01*
X1481109Y969896D01*
X1481411Y972185D01*
X1481109Y974474D01*
X1480226Y976608D01*
X1478820Y978440D01*
X1476988Y979846D01*
X1474854Y980729D01*
X1472565Y981031D01*
D02*
G37*
G36*
X1445895Y982144D02*
X1444544Y981967D01*
X1442102Y980955D01*
X1440004Y979346D01*
X1438395Y977248D01*
X1437383Y974806D01*
X1437206Y973455D01*
X1445895D01*
Y982144D01*
D02*
G37*
G36*
X1087755D02*
Y973455D01*
X1096444D01*
X1096267Y974806D01*
X1095255Y977248D01*
X1093646Y979346D01*
X1091548Y980955D01*
X1089106Y981967D01*
X1087755Y982144D01*
D02*
G37*
G36*
X1085215D02*
X1083864Y981967D01*
X1081422Y980955D01*
X1079324Y979346D01*
X1077715Y977248D01*
X1076703Y974806D01*
X1076526Y973455D01*
X1085215D01*
Y982144D01*
D02*
G37*
G36*
X1395095D02*
X1393744Y981967D01*
X1391302Y980955D01*
X1389204Y979346D01*
X1387595Y977248D01*
X1386583Y974806D01*
X1386406Y973455D01*
X1395095D01*
Y982144D01*
D02*
G37*
G36*
X1472565Y904831D02*
X1470276Y904529D01*
X1468142Y903646D01*
X1466310Y902240D01*
X1464904Y900408D01*
X1464021Y898274D01*
X1463719Y895985D01*
X1464021Y893696D01*
X1464904Y891562D01*
X1466310Y889730D01*
X1468142Y888324D01*
X1470276Y887441D01*
X1472565Y887139D01*
X1474854Y887441D01*
X1476988Y888324D01*
X1478820Y889730D01*
X1480226Y891562D01*
X1481109Y893696D01*
X1481411Y895985D01*
X1481109Y898274D01*
X1480226Y900408D01*
X1478820Y902240D01*
X1476988Y903646D01*
X1474854Y904529D01*
X1472565Y904831D01*
D02*
G37*
G36*
X1395095Y793115D02*
X1386406D01*
X1386583Y791764D01*
X1387595Y789322D01*
X1389204Y787224D01*
X1391302Y785615D01*
X1393744Y784603D01*
X1395095Y784426D01*
Y793115D01*
D02*
G37*
G36*
X1445895D02*
X1437206D01*
X1437383Y791764D01*
X1438395Y789322D01*
X1440004Y787224D01*
X1442102Y785615D01*
X1444544Y784603D01*
X1445895Y784426D01*
Y793115D01*
D02*
G37*
G36*
X1244048Y780675D02*
X1242568D01*
Y776605D01*
X1246638D01*
Y778085D01*
X1246441Y779076D01*
X1245879Y779916D01*
X1245039Y780478D01*
X1244048Y780675D01*
D02*
G37*
G36*
X1085215Y793115D02*
X1076526D01*
X1076703Y791764D01*
X1077715Y789322D01*
X1079324Y787224D01*
X1081422Y785615D01*
X1083864Y784603D01*
X1085215Y784426D01*
Y793115D01*
D02*
G37*
G36*
X1096444D02*
X1087755D01*
Y784426D01*
X1089106Y784603D01*
X1091548Y785615D01*
X1093646Y787224D01*
X1095255Y789322D01*
X1096267Y791764D01*
X1096444Y793115D01*
D02*
G37*
G36*
X1111885Y803231D02*
X1109596Y802929D01*
X1107462Y802046D01*
X1105630Y800640D01*
X1104224Y798808D01*
X1103341Y796674D01*
X1103039Y794385D01*
X1103341Y792096D01*
X1104224Y789962D01*
X1105630Y788130D01*
X1107462Y786724D01*
X1109596Y785841D01*
X1111885Y785539D01*
X1114174Y785841D01*
X1116308Y786724D01*
X1118140Y788130D01*
X1119546Y789962D01*
X1120429Y792096D01*
X1120731Y794385D01*
X1120429Y796674D01*
X1119546Y798808D01*
X1118140Y800640D01*
X1116308Y802046D01*
X1114174Y802929D01*
X1111885Y803231D01*
D02*
G37*
G36*
X1472565D02*
X1470276Y802929D01*
X1468142Y802046D01*
X1466310Y800640D01*
X1464904Y798808D01*
X1464021Y796674D01*
X1463719Y794385D01*
X1464021Y792096D01*
X1464904Y789962D01*
X1466310Y788130D01*
X1468142Y786724D01*
X1470276Y785841D01*
X1472565Y785539D01*
X1474854Y785841D01*
X1476988Y786724D01*
X1478820Y788130D01*
X1480226Y789962D01*
X1481109Y792096D01*
X1481411Y794385D01*
X1481109Y796674D01*
X1480226Y798808D01*
X1478820Y800640D01*
X1476988Y802046D01*
X1474854Y802929D01*
X1472565Y803231D01*
D02*
G37*
G36*
X1406324Y793115D02*
X1397635D01*
Y784426D01*
X1398986Y784603D01*
X1401428Y785615D01*
X1403526Y787224D01*
X1405135Y789322D01*
X1406147Y791764D01*
X1406324Y793115D01*
D02*
G37*
G36*
X1457124D02*
X1448435D01*
Y784426D01*
X1449786Y784603D01*
X1452228Y785615D01*
X1454326Y787224D01*
X1455935Y789322D01*
X1456947Y791764D01*
X1457124Y793115D01*
D02*
G37*
G36*
X1246638Y774065D02*
X1242568D01*
Y769995D01*
X1244048D01*
X1245039Y770192D01*
X1245879Y770754D01*
X1246441Y771594D01*
X1246638Y772585D01*
Y774065D01*
D02*
G37*
G36*
X1409065Y726312D02*
X1404158Y725926D01*
X1399372Y724777D01*
X1394825Y722893D01*
X1390628Y720321D01*
X1386885Y717125D01*
X1383689Y713382D01*
X1381117Y709185D01*
X1379234Y704638D01*
X1378085Y699852D01*
X1377698Y694945D01*
X1378085Y690038D01*
X1379234Y685252D01*
X1381117Y680705D01*
X1383689Y676508D01*
X1386885Y672766D01*
X1390628Y669569D01*
X1394825Y666997D01*
X1399372Y665114D01*
X1404158Y663965D01*
X1409065Y663578D01*
X1413972Y663965D01*
X1418758Y665114D01*
X1423305Y666997D01*
X1427502Y669569D01*
X1431245Y672766D01*
X1434441Y676508D01*
X1437013Y680705D01*
X1438896Y685252D01*
X1440045Y690038D01*
X1440432Y694945D01*
X1440045Y699852D01*
X1438896Y704638D01*
X1437013Y709185D01*
X1434441Y713382D01*
X1431245Y717125D01*
X1427502Y720321D01*
X1423305Y722893D01*
X1418758Y724777D01*
X1413972Y725926D01*
X1409065Y726312D01*
D02*
G37*
G36*
X1639064D02*
X1634158Y725926D01*
X1629372Y724777D01*
X1624824Y722893D01*
X1620628Y720321D01*
X1616885Y717125D01*
X1613688Y713382D01*
X1611117Y709185D01*
X1609233Y704638D01*
X1608084Y699852D01*
X1607698Y694945D01*
X1608084Y690038D01*
X1609233Y685252D01*
X1611117Y680705D01*
X1613688Y676508D01*
X1616885Y672766D01*
X1620628Y669569D01*
X1624824Y666997D01*
X1629372Y665114D01*
X1634158Y663965D01*
X1639064Y663578D01*
X1643971Y663965D01*
X1648757Y665114D01*
X1653305Y666997D01*
X1657501Y669569D01*
X1661244Y672766D01*
X1664441Y676508D01*
X1667012Y680705D01*
X1668896Y685252D01*
X1670045Y690038D01*
X1670431Y694945D01*
X1670045Y699852D01*
X1668896Y704638D01*
X1667012Y709185D01*
X1664441Y713382D01*
X1661244Y717125D01*
X1657501Y720321D01*
X1653305Y722893D01*
X1648757Y724777D01*
X1643971Y725926D01*
X1639064Y726312D01*
D02*
G37*
G36*
X1099185D02*
X1094278Y725926D01*
X1089492Y724777D01*
X1084945Y722893D01*
X1080748Y720321D01*
X1077005Y717125D01*
X1073809Y713382D01*
X1071237Y709185D01*
X1069354Y704638D01*
X1068204Y699852D01*
X1067818Y694945D01*
X1068204Y690038D01*
X1069354Y685252D01*
X1071237Y680705D01*
X1073809Y676508D01*
X1077005Y672766D01*
X1080748Y669569D01*
X1084945Y666997D01*
X1089492Y665114D01*
X1094278Y663965D01*
X1099185Y663578D01*
X1104092Y663965D01*
X1108878Y665114D01*
X1113425Y666997D01*
X1117622Y669569D01*
X1121365Y672766D01*
X1124561Y676508D01*
X1127133Y680705D01*
X1129016Y685252D01*
X1130165Y690038D01*
X1130552Y694945D01*
X1130165Y699852D01*
X1129016Y704638D01*
X1127133Y709185D01*
X1124561Y713382D01*
X1121365Y717125D01*
X1117622Y720321D01*
X1113425Y722893D01*
X1108878Y724777D01*
X1104092Y725926D01*
X1099185Y726312D01*
D02*
G37*
G36*
X1303784D02*
X1298878Y725926D01*
X1294092Y724777D01*
X1289544Y722893D01*
X1285348Y720321D01*
X1281605Y717125D01*
X1278408Y713382D01*
X1275837Y709185D01*
X1273953Y704638D01*
X1272804Y699852D01*
X1272418Y694945D01*
X1272804Y690038D01*
X1273953Y685252D01*
X1275837Y680705D01*
X1278408Y676508D01*
X1281605Y672766D01*
X1285348Y669569D01*
X1289544Y666997D01*
X1294092Y665114D01*
X1298878Y663965D01*
X1303784Y663578D01*
X1308691Y663965D01*
X1313477Y665114D01*
X1318025Y666997D01*
X1322221Y669569D01*
X1325964Y672766D01*
X1329161Y676508D01*
X1331732Y680705D01*
X1333616Y685252D01*
X1334765Y690038D01*
X1335151Y694945D01*
X1334765Y699852D01*
X1333616Y704638D01*
X1331732Y709185D01*
X1329161Y713382D01*
X1325964Y717125D01*
X1322221Y720321D01*
X1318025Y722893D01*
X1313477Y724777D01*
X1308691Y725926D01*
X1303784Y726312D01*
D02*
G37*
G36*
X1119385Y752460D02*
X1104385D01*
X1103413Y752057D01*
X1103010Y751085D01*
Y736085D01*
X1103413Y735113D01*
X1104385Y734710D01*
X1119385D01*
X1120357Y735113D01*
X1120760Y736085D01*
Y751085D01*
X1120357Y752057D01*
X1119385Y752460D01*
D02*
G37*
G36*
X1111885Y777831D02*
X1109596Y777529D01*
X1107462Y776646D01*
X1105630Y775240D01*
X1104224Y773408D01*
X1103341Y771274D01*
X1103039Y768985D01*
X1103341Y766696D01*
X1104224Y764562D01*
X1105630Y762730D01*
X1107462Y761324D01*
X1109596Y760441D01*
X1111885Y760139D01*
X1114174Y760441D01*
X1116308Y761324D01*
X1118140Y762730D01*
X1119546Y764562D01*
X1120429Y766696D01*
X1120731Y768985D01*
X1120429Y771274D01*
X1119546Y773408D01*
X1118140Y775240D01*
X1116308Y776646D01*
X1114174Y777529D01*
X1111885Y777831D01*
D02*
G37*
G36*
X1472565D02*
X1470276Y777529D01*
X1468142Y776646D01*
X1466310Y775240D01*
X1464904Y773408D01*
X1464021Y771274D01*
X1463719Y768985D01*
X1464021Y766696D01*
X1464904Y764562D01*
X1466310Y762730D01*
X1468142Y761324D01*
X1470276Y760441D01*
X1472565Y760139D01*
X1474854Y760441D01*
X1476988Y761324D01*
X1478820Y762730D01*
X1480226Y764562D01*
X1481109Y766696D01*
X1481411Y768985D01*
X1481109Y771274D01*
X1480226Y773408D01*
X1478820Y775240D01*
X1476988Y776646D01*
X1474854Y777529D01*
X1472565Y777831D01*
D02*
G37*
G36*
X1086485Y752431D02*
X1084196Y752129D01*
X1082062Y751246D01*
X1080230Y749840D01*
X1078824Y748008D01*
X1077941Y745874D01*
X1077639Y743585D01*
X1077941Y741296D01*
X1078824Y739162D01*
X1080230Y737330D01*
X1082062Y735924D01*
X1084196Y735041D01*
X1086485Y734739D01*
X1088774Y735041D01*
X1090908Y735924D01*
X1092740Y737330D01*
X1094146Y739162D01*
X1095029Y741296D01*
X1095331Y743585D01*
X1095029Y745874D01*
X1094146Y748008D01*
X1092740Y749840D01*
X1090908Y751246D01*
X1088774Y752129D01*
X1086485Y752431D01*
D02*
G37*
G36*
Y777831D02*
X1084196Y777529D01*
X1082062Y776646D01*
X1080230Y775240D01*
X1078824Y773408D01*
X1077941Y771274D01*
X1077639Y768985D01*
X1077941Y766696D01*
X1078824Y764562D01*
X1080230Y762730D01*
X1082062Y761324D01*
X1084196Y760441D01*
X1086485Y760139D01*
X1088774Y760441D01*
X1090908Y761324D01*
X1092740Y762730D01*
X1094146Y764562D01*
X1095029Y766696D01*
X1095331Y768985D01*
X1095029Y771274D01*
X1094146Y773408D01*
X1092740Y775240D01*
X1090908Y776646D01*
X1088774Y777529D01*
X1086485Y777831D01*
D02*
G37*
G36*
Y879431D02*
X1084196Y879129D01*
X1082062Y878246D01*
X1080230Y876840D01*
X1078824Y875008D01*
X1077941Y872874D01*
X1077639Y870585D01*
X1077941Y868296D01*
X1078824Y866162D01*
X1080230Y864330D01*
X1082062Y862924D01*
X1084196Y862041D01*
X1086485Y861739D01*
X1088774Y862041D01*
X1090908Y862924D01*
X1092740Y864330D01*
X1094146Y866162D01*
X1095029Y868296D01*
X1095331Y870585D01*
X1095029Y872874D01*
X1094146Y875008D01*
X1092740Y876840D01*
X1090908Y878246D01*
X1088774Y879129D01*
X1086485Y879431D01*
D02*
G37*
G36*
X1111885D02*
X1109596Y879129D01*
X1107462Y878246D01*
X1105630Y876840D01*
X1104224Y875008D01*
X1103341Y872874D01*
X1103039Y870585D01*
X1103341Y868296D01*
X1104224Y866162D01*
X1105630Y864330D01*
X1107462Y862924D01*
X1109596Y862041D01*
X1111885Y861739D01*
X1114174Y862041D01*
X1116308Y862924D01*
X1118140Y864330D01*
X1119546Y866162D01*
X1120429Y868296D01*
X1120731Y870585D01*
X1120429Y872874D01*
X1119546Y875008D01*
X1118140Y876840D01*
X1116308Y878246D01*
X1114174Y879129D01*
X1111885Y879431D01*
D02*
G37*
G36*
X1227615Y846295D02*
X1227385D01*
X1226394Y846098D01*
X1225554Y845536D01*
X1224992Y844696D01*
X1224795Y843705D01*
Y837975D01*
X1227615D01*
Y846295D01*
D02*
G37*
G36*
X1473835Y855144D02*
Y846455D01*
X1482524D01*
X1482347Y847806D01*
X1481335Y850248D01*
X1479726Y852346D01*
X1477628Y853955D01*
X1475186Y854967D01*
X1473835Y855144D01*
D02*
G37*
G36*
X1472565Y879431D02*
X1470276Y879129D01*
X1468142Y878246D01*
X1466310Y876840D01*
X1464904Y875008D01*
X1464021Y872874D01*
X1463719Y870585D01*
X1464021Y868296D01*
X1464904Y866162D01*
X1466310Y864330D01*
X1468142Y862924D01*
X1470276Y862041D01*
X1472565Y861739D01*
X1474854Y862041D01*
X1476988Y862924D01*
X1478820Y864330D01*
X1480226Y866162D01*
X1481109Y868296D01*
X1481411Y870585D01*
X1481109Y872874D01*
X1480226Y875008D01*
X1478820Y876840D01*
X1476988Y878246D01*
X1474854Y879129D01*
X1472565Y879431D01*
D02*
G37*
G36*
X1111885Y904831D02*
X1109596Y904529D01*
X1107462Y903646D01*
X1105630Y902240D01*
X1104224Y900408D01*
X1103341Y898274D01*
X1103039Y895985D01*
X1103341Y893696D01*
X1104224Y891562D01*
X1105630Y889730D01*
X1107462Y888324D01*
X1109596Y887441D01*
X1111885Y887139D01*
X1114174Y887441D01*
X1116308Y888324D01*
X1118140Y889730D01*
X1119546Y891562D01*
X1120429Y893696D01*
X1120731Y895985D01*
X1120429Y898274D01*
X1119546Y900408D01*
X1118140Y902240D01*
X1116308Y903646D01*
X1114174Y904529D01*
X1111885Y904831D01*
D02*
G37*
G36*
X1421765D02*
X1419476Y904529D01*
X1417342Y903646D01*
X1415510Y902240D01*
X1414104Y900408D01*
X1413221Y898274D01*
X1412919Y895985D01*
X1413221Y893696D01*
X1414104Y891562D01*
X1415510Y889730D01*
X1417342Y888324D01*
X1419476Y887441D01*
X1421765Y887139D01*
X1424054Y887441D01*
X1426188Y888324D01*
X1428020Y889730D01*
X1429426Y891562D01*
X1430309Y893696D01*
X1430611Y895985D01*
X1430309Y898274D01*
X1429426Y900408D01*
X1428020Y902240D01*
X1426188Y903646D01*
X1424054Y904529D01*
X1421765Y904831D01*
D02*
G37*
G36*
X1085215Y894715D02*
X1076526D01*
X1076703Y893364D01*
X1077715Y890922D01*
X1079324Y888824D01*
X1081422Y887215D01*
X1083864Y886203D01*
X1085215Y886026D01*
Y894715D01*
D02*
G37*
G36*
X1096444D02*
X1087755D01*
Y886026D01*
X1089106Y886203D01*
X1091548Y887215D01*
X1093646Y888824D01*
X1095255Y890922D01*
X1096267Y893364D01*
X1096444Y894715D01*
D02*
G37*
G36*
X1482524Y843915D02*
X1473835D01*
Y835226D01*
X1475186Y835403D01*
X1477628Y836415D01*
X1479726Y838024D01*
X1481335Y840122D01*
X1482347Y842564D01*
X1482524Y843915D01*
D02*
G37*
G36*
X1087755Y804344D02*
Y795655D01*
X1096444D01*
X1096267Y797006D01*
X1095255Y799448D01*
X1093646Y801546D01*
X1091548Y803155D01*
X1089106Y804167D01*
X1087755Y804344D01*
D02*
G37*
G36*
X1448435D02*
Y795655D01*
X1457124D01*
X1456947Y797006D01*
X1455935Y799448D01*
X1454326Y801546D01*
X1452228Y803155D01*
X1449786Y804167D01*
X1448435Y804344D01*
D02*
G37*
G36*
X1085215D02*
X1083864Y804167D01*
X1081422Y803155D01*
X1079324Y801546D01*
X1077715Y799448D01*
X1076703Y797006D01*
X1076526Y795655D01*
X1085215D01*
Y804344D01*
D02*
G37*
G36*
X1445895D02*
X1444544Y804167D01*
X1442102Y803155D01*
X1440004Y801546D01*
X1438395Y799448D01*
X1437383Y797006D01*
X1437206Y795655D01*
X1445895D01*
Y804344D01*
D02*
G37*
G36*
X1111885Y828631D02*
X1109596Y828329D01*
X1107462Y827446D01*
X1105630Y826040D01*
X1104224Y824208D01*
X1103341Y822074D01*
X1103039Y819785D01*
X1103341Y817496D01*
X1104224Y815362D01*
X1105630Y813530D01*
X1107462Y812124D01*
X1109596Y811241D01*
X1111885Y810939D01*
X1114174Y811241D01*
X1116308Y812124D01*
X1118140Y813530D01*
X1119546Y815362D01*
X1120429Y817496D01*
X1120731Y819785D01*
X1120429Y822074D01*
X1119546Y824208D01*
X1118140Y826040D01*
X1116308Y827446D01*
X1114174Y828329D01*
X1111885Y828631D01*
D02*
G37*
G36*
X1227615Y835435D02*
X1224795D01*
Y829705D01*
X1224992Y828714D01*
X1225554Y827874D01*
X1226394Y827312D01*
X1227385Y827115D01*
X1227615D01*
Y835435D01*
D02*
G37*
G36*
X1431724Y843915D02*
X1423035D01*
Y835226D01*
X1424386Y835403D01*
X1426828Y836415D01*
X1428926Y838024D01*
X1430535Y840122D01*
X1431547Y842564D01*
X1431724Y843915D01*
D02*
G37*
G36*
X1421765Y828631D02*
X1419476Y828329D01*
X1417342Y827446D01*
X1415510Y826040D01*
X1414104Y824208D01*
X1413221Y822074D01*
X1412919Y819785D01*
X1413221Y817496D01*
X1414104Y815362D01*
X1415510Y813530D01*
X1417342Y812124D01*
X1419476Y811241D01*
X1421765Y810939D01*
X1424054Y811241D01*
X1426188Y812124D01*
X1428020Y813530D01*
X1429426Y815362D01*
X1430309Y817496D01*
X1430611Y819785D01*
X1430309Y822074D01*
X1429426Y824208D01*
X1428020Y826040D01*
X1426188Y827446D01*
X1424054Y828329D01*
X1421765Y828631D01*
D02*
G37*
G36*
X1472565D02*
X1470276Y828329D01*
X1468142Y827446D01*
X1466310Y826040D01*
X1464904Y824208D01*
X1464021Y822074D01*
X1463719Y819785D01*
X1464021Y817496D01*
X1464904Y815362D01*
X1466310Y813530D01*
X1468142Y812124D01*
X1470276Y811241D01*
X1472565Y810939D01*
X1474854Y811241D01*
X1476988Y812124D01*
X1478820Y813530D01*
X1480226Y815362D01*
X1481109Y817496D01*
X1481411Y819785D01*
X1481109Y822074D01*
X1480226Y824208D01*
X1478820Y826040D01*
X1476988Y827446D01*
X1474854Y828329D01*
X1472565Y828631D01*
D02*
G37*
G36*
X1448435Y1159944D02*
Y1151255D01*
X1457124D01*
X1456947Y1152606D01*
X1455935Y1155048D01*
X1454326Y1157146D01*
X1452228Y1158755D01*
X1449786Y1159767D01*
X1448435Y1159944D01*
D02*
G37*
G36*
X1447165Y1184231D02*
X1444876Y1183929D01*
X1442742Y1183046D01*
X1440910Y1181640D01*
X1439504Y1179808D01*
X1438621Y1177674D01*
X1438319Y1175385D01*
X1438621Y1173096D01*
X1439380Y1171263D01*
X1433392Y1165275D01*
X1410138D01*
X1404150Y1171263D01*
X1404909Y1173096D01*
X1405211Y1175385D01*
X1404909Y1177674D01*
X1404026Y1179808D01*
X1402620Y1181640D01*
X1400788Y1183046D01*
X1398654Y1183929D01*
X1396365Y1184231D01*
X1394076Y1183929D01*
X1391942Y1183046D01*
X1390110Y1181640D01*
X1388704Y1179808D01*
X1387821Y1177674D01*
X1387519Y1175385D01*
X1387821Y1173096D01*
X1388704Y1170962D01*
X1390110Y1169130D01*
X1391942Y1167724D01*
X1394076Y1166841D01*
X1396365Y1166539D01*
X1398654Y1166841D01*
X1400488Y1167600D01*
X1407234Y1160854D01*
X1408074Y1160292D01*
X1409065Y1160095D01*
X1434465D01*
X1435456Y1160292D01*
X1436296Y1160854D01*
X1443042Y1167600D01*
X1444876Y1166841D01*
X1447165Y1166539D01*
X1449454Y1166841D01*
X1451588Y1167724D01*
X1453420Y1169130D01*
X1454826Y1170962D01*
X1455709Y1173096D01*
X1456011Y1175385D01*
X1455709Y1177674D01*
X1454826Y1179808D01*
X1453420Y1181640D01*
X1451588Y1183046D01*
X1449454Y1183929D01*
X1447165Y1184231D01*
D02*
G37*
G36*
X1087755Y1159944D02*
Y1151255D01*
X1096444D01*
X1096267Y1152606D01*
X1095255Y1155048D01*
X1093646Y1157146D01*
X1091548Y1158755D01*
X1089106Y1159767D01*
X1087755Y1159944D01*
D02*
G37*
G36*
X1397635D02*
Y1151255D01*
X1406324D01*
X1406147Y1152606D01*
X1405135Y1155048D01*
X1403526Y1157146D01*
X1401428Y1158755D01*
X1398986Y1159767D01*
X1397635Y1159944D01*
D02*
G37*
G36*
X1086485Y1184231D02*
X1084196Y1183929D01*
X1082062Y1183046D01*
X1080230Y1181640D01*
X1078824Y1179808D01*
X1077941Y1177674D01*
X1077639Y1175385D01*
X1077941Y1173096D01*
X1078824Y1170962D01*
X1080230Y1169130D01*
X1082062Y1167724D01*
X1084196Y1166841D01*
X1086485Y1166539D01*
X1088774Y1166841D01*
X1090908Y1167724D01*
X1092740Y1169130D01*
X1094146Y1170962D01*
X1095029Y1173096D01*
X1095331Y1175385D01*
X1095029Y1177674D01*
X1094146Y1179808D01*
X1092740Y1181640D01*
X1090908Y1183046D01*
X1088774Y1183929D01*
X1086485Y1184231D01*
D02*
G37*
G36*
X1472565D02*
X1470276Y1183929D01*
X1468142Y1183046D01*
X1466310Y1181640D01*
X1464904Y1179808D01*
X1464021Y1177674D01*
X1463719Y1175385D01*
X1464021Y1173096D01*
X1464904Y1170962D01*
X1466310Y1169130D01*
X1468142Y1167724D01*
X1470276Y1166841D01*
X1472565Y1166539D01*
X1474854Y1166841D01*
X1476988Y1167724D01*
X1478820Y1169130D01*
X1480226Y1170962D01*
X1481109Y1173096D01*
X1481411Y1175385D01*
X1481109Y1177674D01*
X1480226Y1179808D01*
X1478820Y1181640D01*
X1476988Y1183046D01*
X1474854Y1183929D01*
X1472565Y1184231D01*
D02*
G37*
G36*
X1447165Y1209631D02*
X1444876Y1209329D01*
X1442742Y1208446D01*
X1440910Y1207040D01*
X1439504Y1205208D01*
X1438621Y1203074D01*
X1438319Y1200785D01*
X1438621Y1198496D01*
X1439380Y1196663D01*
X1433392Y1190675D01*
X1410138D01*
X1404150Y1196663D01*
X1404909Y1198496D01*
X1405211Y1200785D01*
X1404909Y1203074D01*
X1404026Y1205208D01*
X1402620Y1207040D01*
X1400788Y1208446D01*
X1398654Y1209329D01*
X1396365Y1209631D01*
X1394076Y1209329D01*
X1391942Y1208446D01*
X1390110Y1207040D01*
X1388704Y1205208D01*
X1387821Y1203074D01*
X1387519Y1200785D01*
X1387821Y1198496D01*
X1388704Y1196362D01*
X1390110Y1194530D01*
X1391942Y1193124D01*
X1394076Y1192241D01*
X1396365Y1191939D01*
X1398654Y1192241D01*
X1400488Y1193000D01*
X1407234Y1186254D01*
X1408074Y1185692D01*
X1409065Y1185495D01*
X1434465D01*
X1435456Y1185692D01*
X1436296Y1186254D01*
X1443042Y1193000D01*
X1444876Y1192241D01*
X1447165Y1191939D01*
X1449454Y1192241D01*
X1451588Y1193124D01*
X1453420Y1194530D01*
X1454826Y1196362D01*
X1455709Y1198496D01*
X1456011Y1200785D01*
X1455709Y1203074D01*
X1454826Y1205208D01*
X1453420Y1207040D01*
X1451588Y1208446D01*
X1449454Y1209329D01*
X1447165Y1209631D01*
D02*
G37*
G36*
X1111885Y1184231D02*
X1109596Y1183929D01*
X1107462Y1183046D01*
X1105630Y1181640D01*
X1104224Y1179808D01*
X1103341Y1177674D01*
X1103039Y1175385D01*
X1103341Y1173096D01*
X1104224Y1170962D01*
X1105630Y1169130D01*
X1107462Y1167724D01*
X1109596Y1166841D01*
X1111885Y1166539D01*
X1114174Y1166841D01*
X1116308Y1167724D01*
X1118140Y1169130D01*
X1119546Y1170962D01*
X1120429Y1173096D01*
X1120731Y1175385D01*
X1120429Y1177674D01*
X1119546Y1179808D01*
X1118140Y1181640D01*
X1116308Y1183046D01*
X1114174Y1183929D01*
X1111885Y1184231D01*
D02*
G37*
G36*
X1421765D02*
X1419476Y1183929D01*
X1417342Y1183046D01*
X1415510Y1181640D01*
X1414104Y1179808D01*
X1413221Y1177674D01*
X1412919Y1175385D01*
X1413221Y1173096D01*
X1414104Y1170962D01*
X1415510Y1169130D01*
X1417342Y1167724D01*
X1419476Y1166841D01*
X1421765Y1166539D01*
X1424054Y1166841D01*
X1426188Y1167724D01*
X1428020Y1169130D01*
X1429426Y1170962D01*
X1430309Y1173096D01*
X1430611Y1175385D01*
X1430309Y1177674D01*
X1429426Y1179808D01*
X1428020Y1181640D01*
X1426188Y1183046D01*
X1424054Y1183929D01*
X1421765Y1184231D01*
D02*
G37*
G36*
X1085215Y1159944D02*
X1083864Y1159767D01*
X1081422Y1158755D01*
X1079324Y1157146D01*
X1077715Y1155048D01*
X1076703Y1152606D01*
X1076526Y1151255D01*
X1085215D01*
Y1159944D01*
D02*
G37*
G36*
X1406324Y1148715D02*
X1397635D01*
Y1140026D01*
X1398986Y1140203D01*
X1401428Y1141215D01*
X1403526Y1142824D01*
X1405135Y1144922D01*
X1406147Y1147364D01*
X1406324Y1148715D01*
D02*
G37*
G36*
X1457124D02*
X1448435D01*
Y1140026D01*
X1449786Y1140203D01*
X1452228Y1141215D01*
X1454326Y1142824D01*
X1455935Y1144922D01*
X1456947Y1147364D01*
X1457124Y1148715D01*
D02*
G37*
G36*
X1445895D02*
X1437206D01*
X1437383Y1147364D01*
X1438395Y1144922D01*
X1440004Y1142824D01*
X1442102Y1141215D01*
X1444544Y1140203D01*
X1445895Y1140026D01*
Y1148715D01*
D02*
G37*
G36*
X1096444D02*
X1087755D01*
Y1140026D01*
X1089106Y1140203D01*
X1091548Y1141215D01*
X1093646Y1142824D01*
X1095255Y1144922D01*
X1096267Y1147364D01*
X1096444Y1148715D01*
D02*
G37*
G36*
X1111885Y1158831D02*
X1109596Y1158529D01*
X1107462Y1157646D01*
X1105630Y1156240D01*
X1104224Y1154408D01*
X1103341Y1152274D01*
X1103039Y1149985D01*
X1103341Y1147696D01*
X1104224Y1145562D01*
X1105630Y1143730D01*
X1107462Y1142324D01*
X1109596Y1141441D01*
X1111885Y1141139D01*
X1114174Y1141441D01*
X1116308Y1142324D01*
X1118140Y1143730D01*
X1119546Y1145562D01*
X1120429Y1147696D01*
X1120731Y1149985D01*
X1120429Y1152274D01*
X1119546Y1154408D01*
X1118140Y1156240D01*
X1116308Y1157646D01*
X1114174Y1158529D01*
X1111885Y1158831D01*
D02*
G37*
G36*
X1395095Y1159944D02*
X1393744Y1159767D01*
X1391302Y1158755D01*
X1389204Y1157146D01*
X1387595Y1155048D01*
X1386583Y1152606D01*
X1386406Y1151255D01*
X1395095D01*
Y1159944D01*
D02*
G37*
G36*
X1445895D02*
X1444544Y1159767D01*
X1442102Y1158755D01*
X1440004Y1157146D01*
X1438395Y1155048D01*
X1437383Y1152606D01*
X1437206Y1151255D01*
X1445895D01*
Y1159944D01*
D02*
G37*
G36*
X1421765Y1158831D02*
X1419476Y1158529D01*
X1417342Y1157646D01*
X1415510Y1156240D01*
X1414104Y1154408D01*
X1413221Y1152274D01*
X1412919Y1149985D01*
X1413221Y1147696D01*
X1414104Y1145562D01*
X1415510Y1143730D01*
X1417342Y1142324D01*
X1419476Y1141441D01*
X1421765Y1141139D01*
X1424054Y1141441D01*
X1426188Y1142324D01*
X1428020Y1143730D01*
X1429426Y1145562D01*
X1430309Y1147696D01*
X1430611Y1149985D01*
X1430309Y1152274D01*
X1429426Y1154408D01*
X1428020Y1156240D01*
X1426188Y1157646D01*
X1424054Y1158529D01*
X1421765Y1158831D01*
D02*
G37*
G36*
X1472565D02*
X1470276Y1158529D01*
X1468142Y1157646D01*
X1466310Y1156240D01*
X1464904Y1154408D01*
X1464021Y1152274D01*
X1463719Y1149985D01*
X1464021Y1147696D01*
X1464904Y1145562D01*
X1466310Y1143730D01*
X1468142Y1142324D01*
X1470276Y1141441D01*
X1472565Y1141139D01*
X1474854Y1141441D01*
X1476988Y1142324D01*
X1478820Y1143730D01*
X1480226Y1145562D01*
X1481109Y1147696D01*
X1481411Y1149985D01*
X1481109Y1152274D01*
X1480226Y1154408D01*
X1478820Y1156240D01*
X1476988Y1157646D01*
X1474854Y1158529D01*
X1472565Y1158831D01*
D02*
G37*
G36*
X1086485Y1209631D02*
X1084196Y1209329D01*
X1082062Y1208446D01*
X1080230Y1207040D01*
X1078824Y1205208D01*
X1077941Y1203074D01*
X1077639Y1200785D01*
X1077941Y1198496D01*
X1078824Y1196362D01*
X1080230Y1194530D01*
X1082062Y1193124D01*
X1084196Y1192241D01*
X1086485Y1191939D01*
X1088774Y1192241D01*
X1090908Y1193124D01*
X1092740Y1194530D01*
X1094146Y1196362D01*
X1095029Y1198496D01*
X1095331Y1200785D01*
X1095029Y1203074D01*
X1094146Y1205208D01*
X1092740Y1207040D01*
X1090908Y1208446D01*
X1088774Y1209329D01*
X1086485Y1209631D01*
D02*
G37*
G36*
X1113155Y1236144D02*
Y1227455D01*
X1121844D01*
X1121667Y1228806D01*
X1120655Y1231248D01*
X1119046Y1233346D01*
X1116948Y1234955D01*
X1114506Y1235967D01*
X1113155Y1236144D01*
D02*
G37*
G36*
X1423035D02*
Y1227455D01*
X1431724D01*
X1431547Y1228806D01*
X1430535Y1231248D01*
X1428926Y1233346D01*
X1426828Y1234955D01*
X1424386Y1235967D01*
X1423035Y1236144D01*
D02*
G37*
G36*
X1420495D02*
X1419144Y1235967D01*
X1416702Y1234955D01*
X1414604Y1233346D01*
X1412995Y1231248D01*
X1411983Y1228806D01*
X1411806Y1227455D01*
X1420495D01*
Y1236144D01*
D02*
G37*
G36*
X1471295D02*
X1469944Y1235967D01*
X1467502Y1234955D01*
X1465404Y1233346D01*
X1463795Y1231248D01*
X1462783Y1228806D01*
X1462606Y1227455D01*
X1471295D01*
Y1236144D01*
D02*
G37*
G36*
X1473835D02*
Y1227455D01*
X1482524D01*
X1482347Y1228806D01*
X1481335Y1231248D01*
X1479726Y1233346D01*
X1477628Y1234955D01*
X1475186Y1235967D01*
X1473835Y1236144D01*
D02*
G37*
G36*
X1409065Y1306272D02*
X1404158Y1305885D01*
X1399372Y1304736D01*
X1394825Y1302853D01*
X1390628Y1300281D01*
X1386885Y1297085D01*
X1383689Y1293342D01*
X1381117Y1289145D01*
X1379234Y1284598D01*
X1378085Y1279812D01*
X1377698Y1274905D01*
X1378085Y1269998D01*
X1379234Y1265212D01*
X1381117Y1260665D01*
X1383689Y1256468D01*
X1386885Y1252725D01*
X1390628Y1249529D01*
X1394825Y1246957D01*
X1399372Y1245074D01*
X1404158Y1243924D01*
X1409065Y1243538D01*
X1413972Y1243924D01*
X1418758Y1245074D01*
X1423305Y1246957D01*
X1427502Y1249529D01*
X1431245Y1252725D01*
X1434441Y1256468D01*
X1437013Y1260665D01*
X1438896Y1265212D01*
X1440045Y1269998D01*
X1440432Y1274905D01*
X1440045Y1279812D01*
X1438896Y1284598D01*
X1437013Y1289145D01*
X1434441Y1293342D01*
X1431245Y1297085D01*
X1427502Y1300281D01*
X1423305Y1302853D01*
X1418758Y1304736D01*
X1413972Y1305885D01*
X1409065Y1306272D01*
D02*
G37*
G36*
X1639064D02*
X1634158Y1305885D01*
X1629372Y1304736D01*
X1624824Y1302853D01*
X1620628Y1300281D01*
X1616885Y1297085D01*
X1613688Y1293342D01*
X1611117Y1289145D01*
X1609233Y1284598D01*
X1608084Y1279812D01*
X1607698Y1274905D01*
X1608084Y1269998D01*
X1609233Y1265212D01*
X1611117Y1260665D01*
X1613688Y1256468D01*
X1616885Y1252725D01*
X1620628Y1249529D01*
X1624824Y1246957D01*
X1629372Y1245074D01*
X1634158Y1243924D01*
X1639064Y1243538D01*
X1643971Y1243924D01*
X1648757Y1245074D01*
X1653305Y1246957D01*
X1657501Y1249529D01*
X1661244Y1252725D01*
X1664441Y1256468D01*
X1667012Y1260665D01*
X1668896Y1265212D01*
X1670045Y1269998D01*
X1670431Y1274905D01*
X1670045Y1279812D01*
X1668896Y1284598D01*
X1667012Y1289145D01*
X1664441Y1293342D01*
X1661244Y1297085D01*
X1657501Y1300281D01*
X1653305Y1302853D01*
X1648757Y1304736D01*
X1643971Y1305885D01*
X1639064Y1306272D01*
D02*
G37*
G36*
X1099185D02*
X1094278Y1305885D01*
X1089492Y1304736D01*
X1084945Y1302853D01*
X1080748Y1300281D01*
X1077005Y1297085D01*
X1073809Y1293342D01*
X1071237Y1289145D01*
X1069354Y1284598D01*
X1068204Y1279812D01*
X1067818Y1274905D01*
X1068204Y1269998D01*
X1069354Y1265212D01*
X1071237Y1260665D01*
X1073809Y1256468D01*
X1077005Y1252725D01*
X1080748Y1249529D01*
X1084945Y1246957D01*
X1089492Y1245074D01*
X1094278Y1243924D01*
X1099185Y1243538D01*
X1104092Y1243924D01*
X1108878Y1245074D01*
X1113425Y1246957D01*
X1117622Y1249529D01*
X1121365Y1252725D01*
X1124561Y1256468D01*
X1127133Y1260665D01*
X1129016Y1265212D01*
X1130165Y1269998D01*
X1130552Y1274905D01*
X1130165Y1279812D01*
X1129016Y1284598D01*
X1127133Y1289145D01*
X1124561Y1293342D01*
X1121365Y1297085D01*
X1117622Y1300281D01*
X1113425Y1302853D01*
X1108878Y1304736D01*
X1104092Y1305885D01*
X1099185Y1306272D01*
D02*
G37*
G36*
X1303784D02*
X1298878Y1305885D01*
X1294092Y1304736D01*
X1289544Y1302853D01*
X1285348Y1300281D01*
X1281605Y1297085D01*
X1278408Y1293342D01*
X1275837Y1289145D01*
X1273953Y1284598D01*
X1272804Y1279812D01*
X1272418Y1274905D01*
X1272804Y1269998D01*
X1273953Y1265212D01*
X1275837Y1260665D01*
X1278408Y1256468D01*
X1281605Y1252725D01*
X1285348Y1249529D01*
X1289544Y1246957D01*
X1294092Y1245074D01*
X1298878Y1243924D01*
X1303784Y1243538D01*
X1308691Y1243924D01*
X1313477Y1245074D01*
X1318025Y1246957D01*
X1322221Y1249529D01*
X1325964Y1252725D01*
X1329161Y1256468D01*
X1331732Y1260665D01*
X1333616Y1265212D01*
X1334765Y1269998D01*
X1335151Y1274905D01*
X1334765Y1279812D01*
X1333616Y1284598D01*
X1331732Y1289145D01*
X1329161Y1293342D01*
X1325964Y1297085D01*
X1322221Y1300281D01*
X1318025Y1302853D01*
X1313477Y1304736D01*
X1308691Y1305885D01*
X1303784Y1306272D01*
D02*
G37*
G36*
X1110615Y1236144D02*
X1109264Y1235967D01*
X1106822Y1234955D01*
X1104724Y1233346D01*
X1103115Y1231248D01*
X1102103Y1228806D01*
X1101926Y1227455D01*
X1110615D01*
Y1236144D01*
D02*
G37*
G36*
X1472565Y1209631D02*
X1470276Y1209329D01*
X1468142Y1208446D01*
X1466310Y1207040D01*
X1464904Y1205208D01*
X1464021Y1203074D01*
X1463719Y1200785D01*
X1464021Y1198496D01*
X1464904Y1196362D01*
X1466310Y1194530D01*
X1468142Y1193124D01*
X1470276Y1192241D01*
X1472565Y1191939D01*
X1474854Y1192241D01*
X1476988Y1193124D01*
X1478820Y1194530D01*
X1480226Y1196362D01*
X1481109Y1198496D01*
X1481411Y1200785D01*
X1481109Y1203074D01*
X1480226Y1205208D01*
X1478820Y1207040D01*
X1476988Y1208446D01*
X1474854Y1209329D01*
X1472565Y1209631D01*
D02*
G37*
G36*
X1447165Y1235031D02*
X1444876Y1234729D01*
X1442742Y1233846D01*
X1440910Y1232440D01*
X1439504Y1230608D01*
X1438621Y1228474D01*
X1438319Y1226185D01*
X1438621Y1223896D01*
X1439380Y1222063D01*
X1433392Y1216075D01*
X1426911D01*
X1426658Y1217345D01*
X1426828Y1217415D01*
X1428926Y1219024D01*
X1430535Y1221122D01*
X1431547Y1223564D01*
X1431724Y1224915D01*
X1421765D01*
X1411806D01*
X1411983Y1223564D01*
X1412995Y1221122D01*
X1414604Y1219024D01*
X1416702Y1217415D01*
X1416871Y1217345D01*
X1416619Y1216075D01*
X1410138D01*
X1404150Y1222063D01*
X1404909Y1223896D01*
X1405211Y1226185D01*
X1404909Y1228474D01*
X1404026Y1230608D01*
X1402620Y1232440D01*
X1400788Y1233846D01*
X1398654Y1234729D01*
X1396365Y1235031D01*
X1394076Y1234729D01*
X1391942Y1233846D01*
X1390110Y1232440D01*
X1388704Y1230608D01*
X1387821Y1228474D01*
X1387519Y1226185D01*
X1387821Y1223896D01*
X1388704Y1221762D01*
X1390110Y1219930D01*
X1391942Y1218524D01*
X1394076Y1217641D01*
X1396365Y1217339D01*
X1398654Y1217641D01*
X1400488Y1218400D01*
X1407234Y1211654D01*
X1408074Y1211092D01*
X1409065Y1210895D01*
X1434465D01*
X1435456Y1211092D01*
X1436296Y1211654D01*
X1443042Y1218400D01*
X1444876Y1217641D01*
X1447165Y1217339D01*
X1449454Y1217641D01*
X1451588Y1218524D01*
X1453420Y1219930D01*
X1454826Y1221762D01*
X1455709Y1223896D01*
X1456011Y1226185D01*
X1455709Y1228474D01*
X1454826Y1230608D01*
X1453420Y1232440D01*
X1451588Y1233846D01*
X1449454Y1234729D01*
X1447165Y1235031D01*
D02*
G37*
G36*
X1111885Y1209631D02*
X1109596Y1209329D01*
X1107462Y1208446D01*
X1105630Y1207040D01*
X1104224Y1205208D01*
X1103341Y1203074D01*
X1103039Y1200785D01*
X1103341Y1198496D01*
X1104224Y1196362D01*
X1105630Y1194530D01*
X1107462Y1193124D01*
X1109596Y1192241D01*
X1111885Y1191939D01*
X1114174Y1192241D01*
X1116308Y1193124D01*
X1118140Y1194530D01*
X1119546Y1196362D01*
X1120429Y1198496D01*
X1120731Y1200785D01*
X1120429Y1203074D01*
X1119546Y1205208D01*
X1118140Y1207040D01*
X1116308Y1208446D01*
X1114174Y1209329D01*
X1111885Y1209631D01*
D02*
G37*
G36*
X1421765D02*
X1419476Y1209329D01*
X1417342Y1208446D01*
X1415510Y1207040D01*
X1414104Y1205208D01*
X1413221Y1203074D01*
X1412919Y1200785D01*
X1413221Y1198496D01*
X1414104Y1196362D01*
X1415510Y1194530D01*
X1417342Y1193124D01*
X1419476Y1192241D01*
X1421765Y1191939D01*
X1424054Y1192241D01*
X1426188Y1193124D01*
X1428020Y1194530D01*
X1429426Y1196362D01*
X1430309Y1198496D01*
X1430611Y1200785D01*
X1430309Y1203074D01*
X1429426Y1205208D01*
X1428020Y1207040D01*
X1426188Y1208446D01*
X1424054Y1209329D01*
X1421765Y1209631D01*
D02*
G37*
G36*
X1110615Y1224915D02*
X1101926D01*
X1102103Y1223564D01*
X1103115Y1221122D01*
X1104724Y1219024D01*
X1106822Y1217415D01*
X1109264Y1216403D01*
X1110615Y1216226D01*
Y1224915D01*
D02*
G37*
G36*
X1482524D02*
X1473835D01*
Y1216226D01*
X1475186Y1216403D01*
X1477628Y1217415D01*
X1479726Y1219024D01*
X1481335Y1221122D01*
X1482347Y1223564D01*
X1482524Y1224915D01*
D02*
G37*
G36*
X1086485Y1235031D02*
X1084196Y1234729D01*
X1082062Y1233846D01*
X1080230Y1232440D01*
X1078824Y1230608D01*
X1077941Y1228474D01*
X1077639Y1226185D01*
X1077941Y1223896D01*
X1078824Y1221762D01*
X1080230Y1219930D01*
X1082062Y1218524D01*
X1084196Y1217641D01*
X1086485Y1217339D01*
X1088774Y1217641D01*
X1090908Y1218524D01*
X1092740Y1219930D01*
X1094146Y1221762D01*
X1095029Y1223896D01*
X1095331Y1226185D01*
X1095029Y1228474D01*
X1094146Y1230608D01*
X1092740Y1232440D01*
X1090908Y1233846D01*
X1088774Y1234729D01*
X1086485Y1235031D01*
D02*
G37*
G36*
X1471295Y1224915D02*
X1462606D01*
X1462783Y1223564D01*
X1463795Y1221122D01*
X1465404Y1219024D01*
X1467502Y1217415D01*
X1469944Y1216403D01*
X1471295Y1216226D01*
Y1224915D01*
D02*
G37*
G36*
X1121844D02*
X1113155D01*
Y1216226D01*
X1114506Y1216403D01*
X1116948Y1217415D01*
X1119046Y1219024D01*
X1120655Y1221122D01*
X1121667Y1223564D01*
X1121844Y1224915D01*
D02*
G37*
G36*
X1086485Y1082631D02*
X1084196Y1082329D01*
X1082062Y1081446D01*
X1080230Y1080040D01*
X1078824Y1078208D01*
X1077941Y1076074D01*
X1077639Y1073785D01*
X1077941Y1071496D01*
X1078824Y1069362D01*
X1080230Y1067530D01*
X1082062Y1066124D01*
X1084196Y1065241D01*
X1086485Y1064939D01*
X1088774Y1065241D01*
X1090908Y1066124D01*
X1092740Y1067530D01*
X1094146Y1069362D01*
X1095029Y1071496D01*
X1095331Y1073785D01*
X1095029Y1076074D01*
X1094146Y1078208D01*
X1092740Y1080040D01*
X1090908Y1081446D01*
X1088774Y1082329D01*
X1086485Y1082631D01*
D02*
G37*
G36*
X1111885D02*
X1109596Y1082329D01*
X1107462Y1081446D01*
X1105630Y1080040D01*
X1104224Y1078208D01*
X1103341Y1076074D01*
X1103039Y1073785D01*
X1103341Y1071496D01*
X1104224Y1069362D01*
X1105630Y1067530D01*
X1107462Y1066124D01*
X1109596Y1065241D01*
X1111885Y1064939D01*
X1114174Y1065241D01*
X1116308Y1066124D01*
X1118140Y1067530D01*
X1119546Y1069362D01*
X1120429Y1071496D01*
X1120731Y1073785D01*
X1120429Y1076074D01*
X1119546Y1078208D01*
X1118140Y1080040D01*
X1116308Y1081446D01*
X1114174Y1082329D01*
X1111885Y1082631D01*
D02*
G37*
G36*
X1447165D02*
X1444876Y1082329D01*
X1442742Y1081446D01*
X1440910Y1080040D01*
X1439504Y1078208D01*
X1438621Y1076074D01*
X1438319Y1073785D01*
X1438621Y1071496D01*
X1439380Y1069662D01*
X1433392Y1063675D01*
X1410138D01*
X1404150Y1069662D01*
X1404909Y1071496D01*
X1405211Y1073785D01*
X1404909Y1076074D01*
X1404026Y1078208D01*
X1402620Y1080040D01*
X1400788Y1081446D01*
X1398654Y1082329D01*
X1396365Y1082631D01*
X1394076Y1082329D01*
X1391942Y1081446D01*
X1390110Y1080040D01*
X1388704Y1078208D01*
X1387821Y1076074D01*
X1387519Y1073785D01*
X1387821Y1071496D01*
X1388704Y1069362D01*
X1390110Y1067530D01*
X1391942Y1066124D01*
X1394076Y1065241D01*
X1396365Y1064939D01*
X1398654Y1065241D01*
X1400488Y1066000D01*
X1407234Y1059254D01*
X1408074Y1058692D01*
X1409065Y1058495D01*
X1416619D01*
X1416871Y1057225D01*
X1416702Y1057155D01*
X1414604Y1055546D01*
X1412995Y1053448D01*
X1411983Y1051006D01*
X1411806Y1049655D01*
X1421765D01*
X1431724D01*
X1431547Y1051006D01*
X1430535Y1053448D01*
X1428926Y1055546D01*
X1426828Y1057155D01*
X1426658Y1057225D01*
X1426911Y1058495D01*
X1434465D01*
X1435456Y1058692D01*
X1436296Y1059254D01*
X1443042Y1066000D01*
X1444876Y1065241D01*
X1447165Y1064939D01*
X1449454Y1065241D01*
X1451588Y1066124D01*
X1453420Y1067530D01*
X1454826Y1069362D01*
X1455709Y1071496D01*
X1456011Y1073785D01*
X1455709Y1076074D01*
X1454826Y1078208D01*
X1453420Y1080040D01*
X1451588Y1081446D01*
X1449454Y1082329D01*
X1447165Y1082631D01*
D02*
G37*
G36*
X1113155Y1058344D02*
Y1049655D01*
X1121844D01*
X1121667Y1051006D01*
X1120655Y1053448D01*
X1119046Y1055546D01*
X1116948Y1057155D01*
X1114506Y1058167D01*
X1113155Y1058344D01*
D02*
G37*
G36*
X1473835D02*
Y1049655D01*
X1482524D01*
X1482347Y1051006D01*
X1481335Y1053448D01*
X1479726Y1055546D01*
X1477628Y1057155D01*
X1475186Y1058167D01*
X1473835Y1058344D01*
D02*
G37*
G36*
X1395095Y1097915D02*
X1386406D01*
X1386583Y1096564D01*
X1387595Y1094122D01*
X1389204Y1092024D01*
X1391302Y1090415D01*
X1393744Y1089403D01*
X1395095Y1089226D01*
Y1097915D01*
D02*
G37*
G36*
X1445895D02*
X1437206D01*
X1437383Y1096564D01*
X1438395Y1094122D01*
X1440004Y1092024D01*
X1442102Y1090415D01*
X1444544Y1089403D01*
X1445895Y1089226D01*
Y1097915D01*
D02*
G37*
G36*
X1085215D02*
X1076526D01*
X1076703Y1096564D01*
X1077715Y1094122D01*
X1079324Y1092024D01*
X1081422Y1090415D01*
X1083864Y1089403D01*
X1085215Y1089226D01*
Y1097915D01*
D02*
G37*
G36*
X1421765Y1082631D02*
X1419476Y1082329D01*
X1417342Y1081446D01*
X1415510Y1080040D01*
X1414104Y1078208D01*
X1413221Y1076074D01*
X1412919Y1073785D01*
X1413221Y1071496D01*
X1414104Y1069362D01*
X1415510Y1067530D01*
X1417342Y1066124D01*
X1419476Y1065241D01*
X1421765Y1064939D01*
X1424054Y1065241D01*
X1426188Y1066124D01*
X1428020Y1067530D01*
X1429426Y1069362D01*
X1430309Y1071496D01*
X1430611Y1073785D01*
X1430309Y1076074D01*
X1429426Y1078208D01*
X1428020Y1080040D01*
X1426188Y1081446D01*
X1424054Y1082329D01*
X1421765Y1082631D01*
D02*
G37*
G36*
X1472565D02*
X1470276Y1082329D01*
X1468142Y1081446D01*
X1466310Y1080040D01*
X1464904Y1078208D01*
X1464021Y1076074D01*
X1463719Y1073785D01*
X1464021Y1071496D01*
X1464904Y1069362D01*
X1466310Y1067530D01*
X1468142Y1066124D01*
X1470276Y1065241D01*
X1472565Y1064939D01*
X1474854Y1065241D01*
X1476988Y1066124D01*
X1478820Y1067530D01*
X1480226Y1069362D01*
X1481109Y1071496D01*
X1481411Y1073785D01*
X1481109Y1076074D01*
X1480226Y1078208D01*
X1478820Y1080040D01*
X1476988Y1081446D01*
X1474854Y1082329D01*
X1472565Y1082631D01*
D02*
G37*
G36*
X1110615Y1047115D02*
X1101926D01*
X1102103Y1045764D01*
X1103115Y1043322D01*
X1104724Y1041224D01*
X1106822Y1039615D01*
X1109264Y1038603D01*
X1110615Y1038426D01*
Y1047115D01*
D02*
G37*
G36*
X1471295D02*
X1462606D01*
X1462783Y1045764D01*
X1463795Y1043322D01*
X1465404Y1041224D01*
X1467502Y1039615D01*
X1469944Y1038603D01*
X1471295Y1038426D01*
Y1047115D01*
D02*
G37*
G36*
X1447165Y1057231D02*
X1444876Y1056929D01*
X1442742Y1056046D01*
X1440910Y1054640D01*
X1439504Y1052808D01*
X1438621Y1050674D01*
X1438319Y1048385D01*
X1438621Y1046096D01*
X1439380Y1044262D01*
X1433392Y1038275D01*
X1426911D01*
X1426658Y1039545D01*
X1426828Y1039615D01*
X1428926Y1041224D01*
X1430535Y1043322D01*
X1431547Y1045764D01*
X1431724Y1047115D01*
X1421765D01*
X1411806D01*
X1411983Y1045764D01*
X1412995Y1043322D01*
X1414604Y1041224D01*
X1416702Y1039615D01*
X1416871Y1039545D01*
X1416619Y1038275D01*
X1410138D01*
X1404150Y1044262D01*
X1404909Y1046096D01*
X1405211Y1048385D01*
X1404909Y1050674D01*
X1404026Y1052808D01*
X1402620Y1054640D01*
X1400788Y1056046D01*
X1398654Y1056929D01*
X1396365Y1057231D01*
X1394076Y1056929D01*
X1391942Y1056046D01*
X1390110Y1054640D01*
X1388704Y1052808D01*
X1387821Y1050674D01*
X1387519Y1048385D01*
X1387821Y1046096D01*
X1388704Y1043962D01*
X1390110Y1042130D01*
X1391942Y1040724D01*
X1394076Y1039841D01*
X1396365Y1039539D01*
X1398654Y1039841D01*
X1400488Y1040600D01*
X1407234Y1033854D01*
X1408074Y1033292D01*
X1409065Y1033095D01*
X1434465D01*
X1435456Y1033292D01*
X1436296Y1033854D01*
X1443042Y1040600D01*
X1444876Y1039841D01*
X1447165Y1039539D01*
X1449454Y1039841D01*
X1451588Y1040724D01*
X1453420Y1042130D01*
X1454826Y1043962D01*
X1455709Y1046096D01*
X1456011Y1048385D01*
X1455709Y1050674D01*
X1454826Y1052808D01*
X1453420Y1054640D01*
X1451588Y1056046D01*
X1449454Y1056929D01*
X1447165Y1057231D01*
D02*
G37*
G36*
X1421765Y1031831D02*
X1419476Y1031529D01*
X1417342Y1030646D01*
X1415510Y1029240D01*
X1414104Y1027408D01*
X1413221Y1025274D01*
X1412919Y1022985D01*
X1413221Y1020696D01*
X1414104Y1018562D01*
X1415510Y1016730D01*
X1417342Y1015324D01*
X1419476Y1014441D01*
X1421765Y1014139D01*
X1424054Y1014441D01*
X1426188Y1015324D01*
X1428020Y1016730D01*
X1429426Y1018562D01*
X1430309Y1020696D01*
X1430611Y1022985D01*
X1430309Y1025274D01*
X1429426Y1027408D01*
X1428020Y1029240D01*
X1426188Y1030646D01*
X1424054Y1031529D01*
X1421765Y1031831D01*
D02*
G37*
G36*
X1472565D02*
X1470276Y1031529D01*
X1468142Y1030646D01*
X1466310Y1029240D01*
X1464904Y1027408D01*
X1464021Y1025274D01*
X1463719Y1022985D01*
X1464021Y1020696D01*
X1464904Y1018562D01*
X1466310Y1016730D01*
X1468142Y1015324D01*
X1470276Y1014441D01*
X1472565Y1014139D01*
X1474854Y1014441D01*
X1476988Y1015324D01*
X1478820Y1016730D01*
X1480226Y1018562D01*
X1481109Y1020696D01*
X1481411Y1022985D01*
X1481109Y1025274D01*
X1480226Y1027408D01*
X1478820Y1029240D01*
X1476988Y1030646D01*
X1474854Y1031529D01*
X1472565Y1031831D01*
D02*
G37*
G36*
X1110615Y1058344D02*
X1109264Y1058167D01*
X1106822Y1057155D01*
X1104724Y1055546D01*
X1103115Y1053448D01*
X1102103Y1051006D01*
X1101926Y1049655D01*
X1110615D01*
Y1058344D01*
D02*
G37*
G36*
X1471295D02*
X1469944Y1058167D01*
X1467502Y1057155D01*
X1465404Y1055546D01*
X1463795Y1053448D01*
X1462783Y1051006D01*
X1462606Y1049655D01*
X1471295D01*
Y1058344D01*
D02*
G37*
G36*
X1086485Y1057231D02*
X1084196Y1056929D01*
X1082062Y1056046D01*
X1080230Y1054640D01*
X1078824Y1052808D01*
X1077941Y1050674D01*
X1077639Y1048385D01*
X1077941Y1046096D01*
X1078824Y1043962D01*
X1080230Y1042130D01*
X1082062Y1040724D01*
X1084196Y1039841D01*
X1086485Y1039539D01*
X1088774Y1039841D01*
X1090908Y1040724D01*
X1092740Y1042130D01*
X1094146Y1043962D01*
X1095029Y1046096D01*
X1095331Y1048385D01*
X1095029Y1050674D01*
X1094146Y1052808D01*
X1092740Y1054640D01*
X1090908Y1056046D01*
X1088774Y1056929D01*
X1086485Y1057231D01*
D02*
G37*
G36*
X1121844Y1047115D02*
X1113155D01*
Y1038426D01*
X1114506Y1038603D01*
X1116948Y1039615D01*
X1119046Y1041224D01*
X1120655Y1043322D01*
X1121667Y1045764D01*
X1121844Y1047115D01*
D02*
G37*
G36*
X1482524D02*
X1473835D01*
Y1038426D01*
X1475186Y1038603D01*
X1477628Y1039615D01*
X1479726Y1041224D01*
X1481335Y1043322D01*
X1482347Y1045764D01*
X1482524Y1047115D01*
D02*
G37*
G36*
X1447165Y1133431D02*
X1444876Y1133129D01*
X1442742Y1132246D01*
X1440910Y1130840D01*
X1439504Y1129008D01*
X1438621Y1126874D01*
X1438319Y1124585D01*
X1438621Y1122296D01*
X1439380Y1120462D01*
X1433392Y1114475D01*
X1410138D01*
X1404150Y1120462D01*
X1404909Y1122296D01*
X1405211Y1124585D01*
X1404909Y1126874D01*
X1404026Y1129008D01*
X1402620Y1130840D01*
X1400788Y1132246D01*
X1398654Y1133129D01*
X1396365Y1133431D01*
X1394076Y1133129D01*
X1391942Y1132246D01*
X1390110Y1130840D01*
X1388704Y1129008D01*
X1387821Y1126874D01*
X1387519Y1124585D01*
X1387821Y1122296D01*
X1388704Y1120162D01*
X1390110Y1118330D01*
X1391942Y1116924D01*
X1394076Y1116041D01*
X1396365Y1115739D01*
X1398654Y1116041D01*
X1400488Y1116800D01*
X1407234Y1110054D01*
X1408074Y1109492D01*
X1409065Y1109295D01*
X1434465D01*
X1435456Y1109492D01*
X1436296Y1110054D01*
X1443042Y1116800D01*
X1444876Y1116041D01*
X1447165Y1115739D01*
X1449454Y1116041D01*
X1451588Y1116924D01*
X1453420Y1118330D01*
X1454826Y1120162D01*
X1455709Y1122296D01*
X1456011Y1124585D01*
X1455709Y1126874D01*
X1454826Y1129008D01*
X1453420Y1130840D01*
X1451588Y1132246D01*
X1449454Y1133129D01*
X1447165Y1133431D01*
D02*
G37*
G36*
X1086485D02*
X1084196Y1133129D01*
X1082062Y1132246D01*
X1080230Y1130840D01*
X1078824Y1129008D01*
X1077941Y1126874D01*
X1077639Y1124585D01*
X1077941Y1122296D01*
X1078824Y1120162D01*
X1080230Y1118330D01*
X1082062Y1116924D01*
X1084196Y1116041D01*
X1086485Y1115739D01*
X1088774Y1116041D01*
X1090908Y1116924D01*
X1092740Y1118330D01*
X1094146Y1120162D01*
X1095029Y1122296D01*
X1095331Y1124585D01*
X1095029Y1126874D01*
X1094146Y1129008D01*
X1092740Y1130840D01*
X1090908Y1132246D01*
X1088774Y1133129D01*
X1086485Y1133431D01*
D02*
G37*
G36*
X1397635Y1109144D02*
Y1100455D01*
X1406324D01*
X1406147Y1101806D01*
X1405135Y1104248D01*
X1403526Y1106346D01*
X1401428Y1107955D01*
X1398986Y1108967D01*
X1397635Y1109144D01*
D02*
G37*
G36*
X1448435D02*
Y1100455D01*
X1457124D01*
X1456947Y1101806D01*
X1455935Y1104248D01*
X1454326Y1106346D01*
X1452228Y1107955D01*
X1449786Y1108967D01*
X1448435Y1109144D01*
D02*
G37*
G36*
X1111885Y1133431D02*
X1109596Y1133129D01*
X1107462Y1132246D01*
X1105630Y1130840D01*
X1104224Y1129008D01*
X1103341Y1126874D01*
X1103039Y1124585D01*
X1103341Y1122296D01*
X1104224Y1120162D01*
X1105630Y1118330D01*
X1107462Y1116924D01*
X1109596Y1116041D01*
X1111885Y1115739D01*
X1114174Y1116041D01*
X1116308Y1116924D01*
X1118140Y1118330D01*
X1119546Y1120162D01*
X1120429Y1122296D01*
X1120731Y1124585D01*
X1120429Y1126874D01*
X1119546Y1129008D01*
X1118140Y1130840D01*
X1116308Y1132246D01*
X1114174Y1133129D01*
X1111885Y1133431D01*
D02*
G37*
G36*
X1395095Y1148715D02*
X1386406D01*
X1386583Y1147364D01*
X1387595Y1144922D01*
X1389204Y1142824D01*
X1391302Y1141215D01*
X1393744Y1140203D01*
X1395095Y1140026D01*
Y1148715D01*
D02*
G37*
G36*
X1085215D02*
X1076526D01*
X1076703Y1147364D01*
X1077715Y1144922D01*
X1079324Y1142824D01*
X1081422Y1141215D01*
X1083864Y1140203D01*
X1085215Y1140026D01*
Y1148715D01*
D02*
G37*
G36*
X1421765Y1133431D02*
X1419476Y1133129D01*
X1417342Y1132246D01*
X1415510Y1130840D01*
X1414104Y1129008D01*
X1413221Y1126874D01*
X1412919Y1124585D01*
X1413221Y1122296D01*
X1414104Y1120162D01*
X1415510Y1118330D01*
X1417342Y1116924D01*
X1419476Y1116041D01*
X1421765Y1115739D01*
X1424054Y1116041D01*
X1426188Y1116924D01*
X1428020Y1118330D01*
X1429426Y1120162D01*
X1430309Y1122296D01*
X1430611Y1124585D01*
X1430309Y1126874D01*
X1429426Y1129008D01*
X1428020Y1130840D01*
X1426188Y1132246D01*
X1424054Y1133129D01*
X1421765Y1133431D01*
D02*
G37*
G36*
X1472565D02*
X1470276Y1133129D01*
X1468142Y1132246D01*
X1466310Y1130840D01*
X1464904Y1129008D01*
X1464021Y1126874D01*
X1463719Y1124585D01*
X1464021Y1122296D01*
X1464904Y1120162D01*
X1466310Y1118330D01*
X1468142Y1116924D01*
X1470276Y1116041D01*
X1472565Y1115739D01*
X1474854Y1116041D01*
X1476988Y1116924D01*
X1478820Y1118330D01*
X1480226Y1120162D01*
X1481109Y1122296D01*
X1481411Y1124585D01*
X1481109Y1126874D01*
X1480226Y1129008D01*
X1478820Y1130840D01*
X1476988Y1132246D01*
X1474854Y1133129D01*
X1472565Y1133431D01*
D02*
G37*
G36*
X1087755Y1109144D02*
Y1100455D01*
X1096444D01*
X1096267Y1101806D01*
X1095255Y1104248D01*
X1093646Y1106346D01*
X1091548Y1107955D01*
X1089106Y1108967D01*
X1087755Y1109144D01*
D02*
G37*
G36*
X1111885Y1108031D02*
X1109596Y1107729D01*
X1107462Y1106846D01*
X1105630Y1105440D01*
X1104224Y1103608D01*
X1103341Y1101474D01*
X1103039Y1099185D01*
X1103341Y1096896D01*
X1104224Y1094762D01*
X1105630Y1092930D01*
X1107462Y1091524D01*
X1109596Y1090641D01*
X1111885Y1090339D01*
X1114174Y1090641D01*
X1116308Y1091524D01*
X1118140Y1092930D01*
X1119546Y1094762D01*
X1120429Y1096896D01*
X1120731Y1099185D01*
X1120429Y1101474D01*
X1119546Y1103608D01*
X1118140Y1105440D01*
X1116308Y1106846D01*
X1114174Y1107729D01*
X1111885Y1108031D01*
D02*
G37*
G36*
X1421765D02*
X1419476Y1107729D01*
X1417342Y1106846D01*
X1415510Y1105440D01*
X1414104Y1103608D01*
X1413221Y1101474D01*
X1412919Y1099185D01*
X1413221Y1096896D01*
X1414104Y1094762D01*
X1415510Y1092930D01*
X1417342Y1091524D01*
X1419476Y1090641D01*
X1421765Y1090339D01*
X1424054Y1090641D01*
X1426188Y1091524D01*
X1428020Y1092930D01*
X1429426Y1094762D01*
X1430309Y1096896D01*
X1430611Y1099185D01*
X1430309Y1101474D01*
X1429426Y1103608D01*
X1428020Y1105440D01*
X1426188Y1106846D01*
X1424054Y1107729D01*
X1421765Y1108031D01*
D02*
G37*
G36*
X1457124Y1097915D02*
X1448435D01*
Y1089226D01*
X1449786Y1089403D01*
X1452228Y1090415D01*
X1454326Y1092024D01*
X1455935Y1094122D01*
X1456947Y1096564D01*
X1457124Y1097915D01*
D02*
G37*
G36*
X1096444D02*
X1087755D01*
Y1089226D01*
X1089106Y1089403D01*
X1091548Y1090415D01*
X1093646Y1092024D01*
X1095255Y1094122D01*
X1096267Y1096564D01*
X1096444Y1097915D01*
D02*
G37*
G36*
X1406324D02*
X1397635D01*
Y1089226D01*
X1398986Y1089403D01*
X1401428Y1090415D01*
X1403526Y1092024D01*
X1405135Y1094122D01*
X1406147Y1096564D01*
X1406324Y1097915D01*
D02*
G37*
G36*
X1395095Y1109144D02*
X1393744Y1108967D01*
X1391302Y1107955D01*
X1389204Y1106346D01*
X1387595Y1104248D01*
X1386583Y1101806D01*
X1386406Y1100455D01*
X1395095D01*
Y1109144D01*
D02*
G37*
G36*
X1085215D02*
X1083864Y1108967D01*
X1081422Y1107955D01*
X1079324Y1106346D01*
X1077715Y1104248D01*
X1076703Y1101806D01*
X1076526Y1100455D01*
X1085215D01*
Y1109144D01*
D02*
G37*
G36*
X1472565Y1108031D02*
X1470276Y1107729D01*
X1468142Y1106846D01*
X1466310Y1105440D01*
X1464904Y1103608D01*
X1464021Y1101474D01*
X1463719Y1099185D01*
X1464021Y1096896D01*
X1464904Y1094762D01*
X1466310Y1092930D01*
X1468142Y1091524D01*
X1470276Y1090641D01*
X1472565Y1090339D01*
X1474854Y1090641D01*
X1476988Y1091524D01*
X1478820Y1092930D01*
X1480226Y1094762D01*
X1481109Y1096896D01*
X1481411Y1099185D01*
X1481109Y1101474D01*
X1480226Y1103608D01*
X1478820Y1105440D01*
X1476988Y1106846D01*
X1474854Y1107729D01*
X1472565Y1108031D01*
D02*
G37*
G36*
X1445895Y1109144D02*
X1444544Y1108967D01*
X1442102Y1107955D01*
X1440004Y1106346D01*
X1438395Y1104248D01*
X1437383Y1101806D01*
X1437206Y1100455D01*
X1445895D01*
Y1109144D01*
D02*
G37*
%LPD*%
G36*
X1402650Y853017D02*
X1401811Y852060D01*
X1400788Y852846D01*
X1398654Y853729D01*
X1396365Y854031D01*
X1394076Y853729D01*
X1391942Y852846D01*
X1390110Y851440D01*
X1388704Y849608D01*
X1387945Y847775D01*
X1358265D01*
X1357274Y847578D01*
X1356434Y847016D01*
X1326712Y817295D01*
X1324403D01*
X1323877Y818565D01*
X1360608Y855295D01*
X1400372D01*
X1402650Y853017D01*
D02*
G37*
D10*
X1248885Y792705D02*
D03*
X1243885D02*
D03*
X1238885D02*
D03*
X1233885D02*
D03*
X1228885D02*
D03*
Y836705D02*
D03*
X1233885D02*
D03*
X1238885D02*
D03*
X1243885D02*
D03*
X1248885D02*
D03*
D11*
X1252982Y775335D02*
D03*
X1241298D02*
D03*
D12*
X1434465Y1213485D02*
X1447165Y1226185D01*
X1409065Y1213485D02*
X1434465D01*
X1396365Y1226185D02*
X1409065Y1213485D01*
X1434465Y1188085D02*
X1447165Y1200785D01*
X1409065Y1188085D02*
X1434465D01*
X1396365Y1200785D02*
X1409065Y1188085D01*
X1434465Y1162685D02*
X1447165Y1175385D01*
X1409065Y1162685D02*
X1434465D01*
X1396365Y1175385D02*
X1409065Y1162685D01*
X1434465Y1111885D02*
X1447165Y1124585D01*
X1409065Y1111885D02*
X1434465D01*
X1396365Y1124585D02*
X1409065Y1111885D01*
X1434465Y1061085D02*
X1447165Y1073785D01*
X1409065Y1061085D02*
X1434465D01*
X1396365Y1073785D02*
X1409065Y1061085D01*
X1434465Y1035685D02*
X1447165Y1048385D01*
X1409065Y1035685D02*
X1434465D01*
X1396365Y1048385D02*
X1409065Y1035685D01*
X1434465Y1010285D02*
X1447165Y1022985D01*
X1409065Y1010285D02*
X1434465D01*
X1396365Y1022985D02*
X1409065Y1010285D01*
X1434465Y984885D02*
X1447165Y997585D01*
X1409065Y984885D02*
X1434465D01*
X1396365Y997585D02*
X1409065Y984885D01*
X1396365Y946785D02*
X1409065Y934085D01*
X1434465D01*
X1447165Y946785D01*
X1434465Y908685D02*
X1447165Y921385D01*
X1409065Y908685D02*
X1434465D01*
X1396365Y921385D02*
X1409065Y908685D01*
X1435100Y858520D02*
X1447165Y870585D01*
X1411668Y858520D02*
X1435100D01*
X1399603Y870585D02*
X1411668Y858520D01*
X1396365Y870585D02*
X1399603D01*
X1238885Y792705D02*
Y802005D01*
X1241425Y804545D01*
X1429385D01*
X1434465Y809625D01*
Y832485D01*
X1447165Y845185D01*
X1233885Y779225D02*
Y792705D01*
X1226185Y771525D02*
X1233885Y779225D01*
X1185545Y771525D02*
X1226185D01*
X1124585Y832485D02*
X1185545Y771525D01*
X1099185Y832485D02*
X1124585D01*
X1086485Y845185D02*
X1099185Y832485D01*
X1228885Y792705D02*
Y804705D01*
X1238885Y814705D01*
X1327785D01*
X1358265Y845185D01*
X1396365D01*
X1337945Y946785D02*
X1396365D01*
X1248885Y836705D02*
Y857725D01*
X1337945Y946785D01*
X1172525Y934085D02*
X1248885Y857725D01*
X1099185Y934085D02*
X1172525D01*
X1086485Y946785D02*
X1099185Y934085D01*
X1243885Y829613D02*
X1248633Y824865D01*
X1243885Y829613D02*
Y836705D01*
X1248633Y824865D02*
X1317625D01*
X1238885Y836705D02*
Y852805D01*
X1073785Y832485D02*
Y852805D01*
Y832485D02*
X1086485Y819785D01*
X1073785Y852805D02*
X1078865Y857885D01*
X1233805D01*
X1238885Y852805D01*
X1233885Y826055D02*
Y836705D01*
Y826055D02*
X1240155Y819785D01*
X1321435D01*
X1317625Y824865D02*
X1376045Y883285D01*
X1452880D01*
X1459865Y876300D01*
Y832485D02*
Y876300D01*
X1447165Y819785D02*
X1459865Y832485D01*
X1396365Y819785D02*
X1409065Y832485D01*
Y850265D01*
X1321435Y819785D02*
X1359535Y857885D01*
X1401445D01*
X1409065Y850265D01*
X1252982Y775335D02*
Y779018D01*
X1248885Y783115D02*
Y792705D01*
Y783115D02*
X1252982Y779018D01*
X1241298Y775335D02*
Y780288D01*
X1243885Y782875D01*
Y792705D01*
X1687195Y1310005D02*
X1692275D01*
X1687195Y659765D02*
X1692275D01*
X1689735Y1310005D02*
X1694815Y1294765D01*
X1684655D02*
X1689735Y1310005D01*
Y659765D02*
X1694815Y675005D01*
X1684655D02*
X1689735Y659765D01*
Y1065124D02*
Y1310005D01*
Y659765D02*
Y904646D01*
X1674262Y1322705D02*
Y1327785D01*
X1060852Y1322705D02*
Y1327785D01*
X1659022Y1320165D02*
X1674262Y1325245D01*
X1659022Y1330325D02*
X1674262Y1325245D01*
X1060852D02*
X1076092Y1320165D01*
X1060852Y1325245D02*
X1076092Y1330325D01*
X1445258Y1325245D02*
X1674262D01*
X1060852D02*
X1289857D01*
D13*
X1457325Y728345D02*
X1472565Y743585D01*
X1437005Y728345D02*
X1457325D01*
X1421765Y743585D02*
X1437005Y728345D01*
X1396365Y756285D02*
X1447165D01*
Y743585D02*
Y756285D01*
X1396365Y743585D02*
Y756285D01*
Y768985D01*
X1447165Y756285D02*
Y768985D01*
X1271905Y756285D02*
X1396365D01*
X1252982Y775208D02*
X1271905Y756285D01*
X1252982Y775208D02*
Y775335D01*
D14*
X1683642Y917342D02*
X1686181Y912264D01*
X1691259Y907186D01*
X1696337D01*
X1698876Y909725D01*
Y914803D01*
X1696337Y917342D01*
X1693798D01*
X1691259Y914803D01*
Y907186D01*
X1683642Y932577D02*
Y922421D01*
X1691259D01*
X1688720Y927499D01*
Y930038D01*
X1691259Y932577D01*
X1696337D01*
X1698876Y930038D01*
Y924960D01*
X1696337Y922421D01*
X1698876Y937656D02*
X1696337D01*
Y940195D01*
X1698876D01*
Y937656D01*
X1686181Y950352D02*
X1683642Y952891D01*
Y957969D01*
X1686181Y960508D01*
X1696337D01*
X1698876Y957969D01*
Y952891D01*
X1696337Y950352D01*
X1686181D01*
X1698876Y975743D02*
Y965587D01*
X1688720Y975743D01*
X1686181D01*
X1683642Y973204D01*
Y968126D01*
X1686181Y965587D01*
X1698876Y988439D02*
X1683642D01*
X1691259Y980822D01*
Y990978D01*
X1698876Y1016370D02*
X1693798Y1011292D01*
X1688720D01*
X1683642Y1016370D01*
X1698876Y1023988D02*
X1688720D01*
Y1026527D01*
X1691259Y1029066D01*
X1698876D01*
X1691259D01*
X1688720Y1031605D01*
X1691259Y1034145D01*
X1698876D01*
Y1039223D02*
X1688720D01*
Y1041762D01*
X1691259Y1044301D01*
X1698876D01*
X1691259D01*
X1688720Y1046841D01*
X1691259Y1049380D01*
X1698876D01*
Y1054458D02*
X1693798Y1059536D01*
X1688720D01*
X1683642Y1054458D01*
X1302554Y1331339D02*
X1297475Y1328799D01*
X1292397Y1323721D01*
Y1318643D01*
X1294936Y1316104D01*
X1300015D01*
X1302554Y1318643D01*
Y1321182D01*
X1300015Y1323721D01*
X1292397D01*
X1307632Y1316104D02*
X1312711D01*
X1310171D01*
Y1331339D01*
X1307632Y1328799D01*
X1320328Y1316104D02*
Y1318643D01*
X1322867D01*
Y1316104D01*
X1320328D01*
X1333024Y1328799D02*
X1335563Y1331339D01*
X1340642D01*
X1343181Y1328799D01*
Y1326260D01*
X1340642Y1323721D01*
X1338102D01*
X1340642D01*
X1343181Y1321182D01*
Y1318643D01*
X1340642Y1316104D01*
X1335563D01*
X1333024Y1318643D01*
X1355877Y1316104D02*
Y1331339D01*
X1348259Y1323721D01*
X1358416D01*
X1363494Y1316104D02*
X1368573D01*
X1366033D01*
Y1331339D01*
X1363494Y1328799D01*
X1396503Y1316104D02*
X1391425Y1321182D01*
Y1326260D01*
X1396503Y1331339D01*
X1404121Y1316104D02*
Y1326260D01*
X1406660D01*
X1409199Y1323721D01*
Y1316104D01*
Y1323721D01*
X1411739Y1326260D01*
X1414278Y1323721D01*
Y1316104D01*
X1419356D02*
Y1326260D01*
X1421895D01*
X1424434Y1323721D01*
Y1316104D01*
Y1323721D01*
X1426974Y1326260D01*
X1429513Y1323721D01*
Y1316104D01*
X1434591D02*
X1439669Y1321182D01*
Y1326260D01*
X1434591Y1331339D01*
D15*
X1099185Y694945D02*
D03*
Y1274905D02*
D03*
X1639064Y694945D02*
D03*
Y1274905D02*
D03*
X1409065D02*
D03*
Y694945D02*
D03*
X1303784Y1274905D02*
D03*
Y694945D02*
D03*
D16*
X1111885Y743585D02*
D03*
X1421765D02*
D03*
X1472565D02*
D03*
D17*
X1086485D02*
D03*
X1111885Y768985D02*
D03*
X1086485D02*
D03*
X1111885Y794385D02*
D03*
X1086485D02*
D03*
X1111885Y819785D02*
D03*
X1086485D02*
D03*
X1111885Y845185D02*
D03*
X1086485D02*
D03*
X1111885Y870585D02*
D03*
X1086485D02*
D03*
X1111885Y895985D02*
D03*
X1086485D02*
D03*
X1111885Y921385D02*
D03*
X1086485D02*
D03*
X1111885Y946785D02*
D03*
X1086485D02*
D03*
X1111885Y972185D02*
D03*
X1086485D02*
D03*
X1111885Y997585D02*
D03*
X1086485D02*
D03*
X1111885Y1022985D02*
D03*
X1086485D02*
D03*
X1111885Y1048385D02*
D03*
X1086485D02*
D03*
X1111885Y1073785D02*
D03*
X1086485D02*
D03*
X1111885Y1099185D02*
D03*
X1086485D02*
D03*
X1111885Y1124585D02*
D03*
X1086485D02*
D03*
X1111885Y1149985D02*
D03*
X1086485D02*
D03*
X1111885Y1175385D02*
D03*
X1086485D02*
D03*
X1111885Y1200785D02*
D03*
X1086485D02*
D03*
X1111885Y1226185D02*
D03*
X1086485D02*
D03*
X1396365Y743585D02*
D03*
X1421765Y768985D02*
D03*
X1396365D02*
D03*
X1421765Y794385D02*
D03*
X1396365D02*
D03*
X1421765Y819785D02*
D03*
X1396365D02*
D03*
X1421765Y845185D02*
D03*
X1396365D02*
D03*
X1421765Y870585D02*
D03*
X1396365D02*
D03*
X1421765Y895985D02*
D03*
X1396365D02*
D03*
X1421765Y921385D02*
D03*
X1396365D02*
D03*
X1421765Y946785D02*
D03*
X1396365D02*
D03*
X1421765Y972185D02*
D03*
X1396365D02*
D03*
X1421765Y997585D02*
D03*
X1396365D02*
D03*
X1421765Y1022985D02*
D03*
X1396365D02*
D03*
X1421765Y1048385D02*
D03*
X1396365D02*
D03*
X1421765Y1073785D02*
D03*
X1396365D02*
D03*
X1421765Y1099185D02*
D03*
X1396365D02*
D03*
X1421765Y1124585D02*
D03*
X1396365D02*
D03*
X1421765Y1149985D02*
D03*
X1396365D02*
D03*
X1421765Y1175385D02*
D03*
X1396365D02*
D03*
X1421765Y1200785D02*
D03*
X1396365D02*
D03*
X1421765Y1226185D02*
D03*
X1396365D02*
D03*
X1447165Y743585D02*
D03*
X1472565Y768985D02*
D03*
X1447165D02*
D03*
X1472565Y794385D02*
D03*
X1447165D02*
D03*
X1472565Y819785D02*
D03*
X1447165D02*
D03*
X1472565Y845185D02*
D03*
X1447165D02*
D03*
X1472565Y870585D02*
D03*
X1447165D02*
D03*
X1472565Y895985D02*
D03*
X1447165D02*
D03*
X1472565Y921385D02*
D03*
X1447165D02*
D03*
X1472565Y946785D02*
D03*
X1447165D02*
D03*
X1472565Y972185D02*
D03*
X1447165D02*
D03*
X1472565Y997585D02*
D03*
X1447165D02*
D03*
X1472565Y1022985D02*
D03*
X1447165D02*
D03*
X1472565Y1048385D02*
D03*
X1447165D02*
D03*
X1472565Y1073785D02*
D03*
X1447165D02*
D03*
X1472565Y1099185D02*
D03*
X1447165D02*
D03*
X1472565Y1124585D02*
D03*
X1447165D02*
D03*
X1472565Y1149985D02*
D03*
X1447165D02*
D03*
X1472565Y1175385D02*
D03*
X1447165D02*
D03*
X1472565Y1200785D02*
D03*
X1447165D02*
D03*
X1472565Y1226185D02*
D03*
X1447165D02*
D03*
M02*
