G04 Layer_Color=8421504*
%FSLAX44Y44*%
%MOMM*%
G71*
G01*
G75*
%ADD10C,0.1270*%
%ADD11C,0.2540*%
%ADD12C,0.1524*%
%ADD13R,9.0000X3.5000*%
%ADD14R,8.3800X10.6600*%
%ADD15R,3.1000X1.1000*%
%ADD16R,1.2200X2.7200*%
%ADD17R,2.4500X2.4500*%
%ADD18R,0.5100X1.0000*%
%ADD19R,1.7000X1.3000*%
%ADD20R,1.0160X1.5240*%
%ADD21R,0.3000X1.0000*%
%ADD22R,3.0000X2.6500*%
%ADD23R,1.4000X1.5000*%
%ADD24R,1.5000X1.4000*%
%ADD25R,0.8500X0.8500*%
%ADD26R,2.7000X4.2000*%
D10*
X312420Y370840D02*
Y1021080D01*
Y370840D02*
X873760D01*
Y1021080D01*
X312420D02*
X873760D01*
D11*
X888365Y370840D02*
Y615721D01*
Y776199D02*
Y1021080D01*
X883285Y386080D02*
X888365Y370840D01*
X893445Y386080D01*
X883285Y1005840D02*
X888365Y1021080D01*
X893445Y1005840D01*
X885825Y370840D02*
X890905D01*
X885825Y1021080D02*
X890905D01*
X312420Y1036320D02*
X514120D01*
X672060D02*
X873760D01*
X312420D02*
X327660Y1041400D01*
X312420Y1036320D02*
X327660Y1031240D01*
X858520Y1041400D02*
X873760Y1036320D01*
X858520Y1031240D02*
X873760Y1036320D01*
X312420Y1033780D02*
Y1038860D01*
X873760Y1033780D02*
Y1038860D01*
D12*
X882271Y628417D02*
X884811Y623339D01*
X889889Y618261D01*
X894967D01*
X897506Y620800D01*
Y625878D01*
X894967Y628417D01*
X892428D01*
X889889Y625878D01*
Y618261D01*
X882271Y643652D02*
Y633496D01*
X889889D01*
X887350Y638574D01*
Y641113D01*
X889889Y643652D01*
X894967D01*
X897506Y641113D01*
Y636035D01*
X894967Y633496D01*
X897506Y648731D02*
X894967D01*
Y651270D01*
X897506D01*
Y648731D01*
X884811Y661427D02*
X882271Y663966D01*
Y669044D01*
X884811Y671583D01*
X894967D01*
X897506Y669044D01*
Y663966D01*
X894967Y661427D01*
X884811D01*
X897506Y686818D02*
Y676662D01*
X887350Y686818D01*
X884811D01*
X882271Y684279D01*
Y679201D01*
X884811Y676662D01*
X897506Y699514D02*
X882271D01*
X889889Y691897D01*
Y702054D01*
X897506Y727445D02*
X892428Y722367D01*
X887350D01*
X882271Y727445D01*
X897506Y735063D02*
X887350D01*
Y737602D01*
X889889Y740141D01*
X897506D01*
X889889D01*
X887350Y742680D01*
X889889Y745220D01*
X897506D01*
Y750298D02*
X887350D01*
Y752837D01*
X889889Y755376D01*
X897506D01*
X889889D01*
X887350Y757915D01*
X889889Y760455D01*
X897506D01*
Y765533D02*
X892428Y770611D01*
X887350D01*
X882271Y765533D01*
X526817Y1042413D02*
X516660D01*
Y1034796D01*
X521739Y1037335D01*
X524278D01*
X526817Y1034796D01*
Y1029718D01*
X524278Y1027178D01*
X519199D01*
X516660Y1029718D01*
X542052Y1042413D02*
X536974Y1039874D01*
X531895Y1034796D01*
Y1029718D01*
X534435Y1027178D01*
X539513D01*
X542052Y1029718D01*
Y1032257D01*
X539513Y1034796D01*
X531895D01*
X547130Y1027178D02*
Y1029718D01*
X549670D01*
Y1027178D01*
X547130D01*
X559826D02*
X564905D01*
X562365D01*
Y1042413D01*
X559826Y1039874D01*
X572522D02*
X575061Y1042413D01*
X580140D01*
X582679Y1039874D01*
Y1037335D01*
X580140Y1034796D01*
X577601D01*
X580140D01*
X582679Y1032257D01*
Y1029718D01*
X580140Y1027178D01*
X575061D01*
X572522Y1029718D01*
X595375Y1027178D02*
Y1042413D01*
X587757Y1034796D01*
X597914D01*
X623306Y1027178D02*
X618227Y1032257D01*
Y1037335D01*
X623306Y1042413D01*
X630923Y1027178D02*
Y1037335D01*
X633462D01*
X636002Y1034796D01*
Y1027178D01*
Y1034796D01*
X638541Y1037335D01*
X641080Y1034796D01*
Y1027178D01*
X646158D02*
Y1037335D01*
X648698D01*
X651237Y1034796D01*
Y1027178D01*
Y1034796D01*
X653776Y1037335D01*
X656315Y1034796D01*
Y1027178D01*
X661393D02*
X666472Y1032257D01*
Y1037335D01*
X661393Y1042413D01*
D13*
X825500Y571500D02*
D03*
Y492760D02*
D03*
D14*
X492740Y501650D02*
D03*
D15*
X605540Y527050D02*
D03*
Y476250D02*
D03*
D16*
X502120Y584200D02*
D03*
X529120D02*
D03*
X502120Y617220D02*
D03*
X529120D02*
D03*
X635800Y739140D02*
D03*
X608800D02*
D03*
X635800Y772160D02*
D03*
X608800D02*
D03*
D17*
X528090Y660400D02*
D03*
X467590D02*
D03*
X528090Y711200D02*
D03*
X467590D02*
D03*
X568730Y762000D02*
D03*
X508230D02*
D03*
X568730Y812800D02*
D03*
X508230D02*
D03*
D18*
X591820Y617730D02*
D03*
X604520D02*
D03*
X617220D02*
D03*
X629920D02*
D03*
X591820Y675130D02*
D03*
X604520D02*
D03*
X617220D02*
D03*
X629920D02*
D03*
D19*
X609600Y708660D02*
D03*
X635000D02*
D03*
D20*
X612140Y800100D02*
D03*
X632460D02*
D03*
X673100Y886460D02*
D03*
X652780D02*
D03*
D21*
X637380Y859350D02*
D03*
X632380D02*
D03*
X627380D02*
D03*
X622380D02*
D03*
X617380D02*
D03*
X637380Y817050D02*
D03*
X632380D02*
D03*
X627380D02*
D03*
X622380D02*
D03*
X617380D02*
D03*
D22*
X744220Y674370D02*
D03*
X814220D02*
D03*
X779220Y793370D02*
D03*
D23*
X591500Y866140D02*
D03*
X571500D02*
D03*
X591500Y886460D02*
D03*
X571500D02*
D03*
D24*
X612140Y886780D02*
D03*
Y906780D02*
D03*
X632460Y886780D02*
D03*
Y906780D02*
D03*
D25*
X655190D02*
D03*
X670690D02*
D03*
D26*
X400685Y395605D02*
D03*
X433705D02*
D03*
X475615Y395600D02*
D03*
X508635Y395605D02*
D03*
M02*
