G04 Layer_Color=65535*
%FSLAX44Y44*%
%MOMM*%
G71*
G01*
G75*
%ADD12C,0.2540*%
%ADD14C,0.1524*%
%ADD19C,0.3048*%
%ADD20C,0.1270*%
%ADD21C,0.2000*%
D12*
X1096235Y946785D02*
G03*
X1096235Y946785I-9750J0D01*
G01*
Y845185D02*
G03*
X1096235Y845185I-9750J0D01*
G01*
Y819785D02*
G03*
X1096235Y819785I-9750J0D01*
G01*
X1406115Y946785D02*
G03*
X1406115Y946785I-9750J0D01*
G01*
Y845185D02*
G03*
X1406115Y845185I-9750J0D01*
G01*
Y819785D02*
G03*
X1406115Y819785I-9750J0D01*
G01*
Y768985D02*
G03*
X1406115Y768985I-9750J0D01*
G01*
Y743585D02*
G03*
X1406115Y743585I-9750J0D01*
G01*
X1456915Y768985D02*
G03*
X1456915Y768985I-9750J0D01*
G01*
Y743585D02*
G03*
X1456915Y743585I-9750J0D01*
G01*
Y819785D02*
G03*
X1456915Y819785I-9750J0D01*
G01*
Y845185D02*
G03*
X1456915Y845185I-9750J0D01*
G01*
Y946785D02*
G03*
X1456915Y946785I-9750J0D01*
G01*
X1096235Y768985D02*
G03*
X1096235Y768985I-9750J0D01*
G01*
Y743585D02*
G03*
X1096235Y743585I-9750J0D01*
G01*
X1247142Y772795D02*
Y777875D01*
X1218074Y935352D02*
X1215535Y932812D01*
Y927734D01*
X1218074Y925195D01*
X1228231D01*
X1230770Y927734D01*
Y932812D01*
X1228231Y935352D01*
X1223152D01*
Y930273D01*
X1230770Y940430D02*
X1215535D01*
Y948048D01*
X1218074Y950587D01*
X1223152D01*
X1225691Y948048D01*
Y940430D01*
X1215535Y955665D02*
Y960743D01*
Y958204D01*
X1230770D01*
Y955665D01*
Y960743D01*
X1215535Y975979D02*
Y970900D01*
X1218074Y968361D01*
X1228231D01*
X1230770Y970900D01*
Y975979D01*
X1228231Y978518D01*
X1218074D01*
X1215535Y975979D01*
X1233309Y983596D02*
Y993753D01*
X1230770Y1008988D02*
Y998831D01*
X1220613Y1008988D01*
X1218074D01*
X1215535Y1006449D01*
Y1001370D01*
X1218074Y998831D01*
X1230770Y1021684D02*
X1215535D01*
X1223152Y1014066D01*
Y1024223D01*
X1230770Y1049615D02*
X1225691Y1044536D01*
X1220613D01*
X1215535Y1049615D01*
X1230770Y1057232D02*
Y1062311D01*
Y1059771D01*
X1215535D01*
X1218074Y1057232D01*
Y1069928D02*
X1215535Y1072467D01*
Y1077546D01*
X1218074Y1080085D01*
X1220613D01*
X1223152Y1077546D01*
X1225691Y1080085D01*
X1228231D01*
X1230770Y1077546D01*
Y1072467D01*
X1228231Y1069928D01*
X1225691D01*
X1223152Y1072467D01*
X1220613Y1069928D01*
X1218074D01*
X1223152Y1072467D02*
Y1077546D01*
X1230770Y1085163D02*
X1225691Y1090242D01*
X1220613D01*
X1215535Y1085163D01*
Y1128329D02*
X1230770D01*
Y1135947D01*
X1228231Y1138486D01*
X1218074D01*
X1215535Y1135947D01*
Y1128329D01*
X1230770Y1151182D02*
Y1146104D01*
X1228231Y1143564D01*
X1223152D01*
X1220613Y1146104D01*
Y1151182D01*
X1223152Y1153721D01*
X1225691D01*
Y1143564D01*
X1220613Y1158799D02*
X1230770Y1163878D01*
X1220613Y1168956D01*
X1230770Y1174035D02*
Y1179113D01*
Y1176574D01*
X1220613D01*
Y1174035D01*
Y1196887D02*
Y1189270D01*
X1223152Y1186730D01*
X1228231D01*
X1230770Y1189270D01*
Y1196887D01*
Y1209583D02*
Y1204505D01*
X1228231Y1201965D01*
X1223152D01*
X1220613Y1204505D01*
Y1209583D01*
X1223152Y1212122D01*
X1225691D01*
Y1201965D01*
X1244991Y970900D02*
X1242452Y973439D01*
Y978518D01*
X1244991Y981057D01*
X1255148D01*
X1257687Y978518D01*
Y973439D01*
X1255148Y970900D01*
X1244991D01*
Y1163878D02*
X1242452Y1161339D01*
Y1156260D01*
X1244991Y1153721D01*
X1255148D01*
X1257687Y1156260D01*
Y1161339D01*
X1255148Y1163878D01*
X1250069D01*
Y1158799D01*
X1257687Y1168956D02*
X1242452D01*
Y1176574D01*
X1244991Y1179113D01*
X1250069D01*
X1252609Y1176574D01*
Y1168956D01*
X1244991Y1194348D02*
X1242452Y1191809D01*
Y1186730D01*
X1244991Y1184191D01*
X1247530D01*
X1250069Y1186730D01*
Y1191809D01*
X1252609Y1194348D01*
X1255148D01*
X1257687Y1191809D01*
Y1186730D01*
X1255148Y1184191D01*
X1282065Y970900D02*
Y975979D01*
Y973439D01*
X1266830D01*
X1269369Y970900D01*
Y1161339D02*
X1266830Y1158799D01*
Y1153721D01*
X1269369Y1151182D01*
X1279526D01*
X1282065Y1153721D01*
Y1158799D01*
X1279526Y1161339D01*
X1274447D01*
Y1156260D01*
X1269369Y1176574D02*
X1266830Y1174035D01*
Y1168956D01*
X1269369Y1166417D01*
X1271908D01*
X1274447Y1168956D01*
Y1174035D01*
X1276987Y1176574D01*
X1279526D01*
X1282065Y1174035D01*
Y1168956D01*
X1279526Y1166417D01*
X1282065Y1181652D02*
X1266830D01*
X1271908Y1186730D01*
X1266830Y1191809D01*
X1282065D01*
X1591949Y755012D02*
X1589410Y752473D01*
Y747394D01*
X1591949Y744855D01*
X1602106D01*
X1604645Y747394D01*
Y752473D01*
X1602106Y755012D01*
X1597027D01*
Y749933D01*
X1604645Y760090D02*
Y765168D01*
Y762629D01*
X1594488D01*
Y760090D01*
X1591949Y775325D02*
X1594488D01*
Y772786D01*
Y777864D01*
Y775325D01*
X1602106D01*
X1604645Y777864D01*
X1594488Y785482D02*
Y788021D01*
X1597027D01*
Y785482D01*
X1594488D01*
X1602106D02*
Y788021D01*
X1604645D01*
Y785482D01*
X1602106D01*
X1589410Y813413D02*
X1604645D01*
X1597027D01*
X1594488Y815952D01*
Y821030D01*
X1597027Y823569D01*
X1604645D01*
X1591949Y831187D02*
X1594488D01*
Y828648D01*
Y833726D01*
Y831187D01*
X1602106D01*
X1604645Y833726D01*
X1591949Y843883D02*
X1594488D01*
Y841344D01*
Y846422D01*
Y843883D01*
X1602106D01*
X1604645Y846422D01*
X1609723Y854040D02*
X1594488D01*
Y861657D01*
X1597027Y864196D01*
X1602106D01*
X1604645Y861657D01*
Y854040D01*
Y869275D02*
Y876892D01*
X1602106Y879431D01*
X1599567Y876892D01*
Y871814D01*
X1597027Y869275D01*
X1594488Y871814D01*
Y879431D01*
Y884510D02*
Y887049D01*
X1597027D01*
Y884510D01*
X1594488D01*
X1602106D02*
Y887049D01*
X1604645D01*
Y884510D01*
X1602106D01*
X1604645Y897206D02*
X1594488Y907362D01*
X1604645Y912441D02*
X1594488Y922598D01*
X1609723Y932754D02*
Y935293D01*
X1607184Y937832D01*
X1594488D01*
Y930215D01*
X1597027Y927676D01*
X1602106D01*
X1604645Y930215D01*
Y937832D01*
Y942911D02*
Y947989D01*
Y945450D01*
X1594488D01*
Y942911D01*
X1591949Y958146D02*
X1594488D01*
Y955607D01*
Y960685D01*
Y958146D01*
X1602106D01*
X1604645Y960685D01*
X1589410Y968303D02*
X1604645D01*
X1597027D01*
X1594488Y970842D01*
Y975920D01*
X1597027Y978459D01*
X1604645D01*
X1594488Y983538D02*
X1602106D01*
X1604645Y986077D01*
Y993695D01*
X1594488D01*
X1589410Y998773D02*
X1604645D01*
Y1006390D01*
X1602106Y1008930D01*
X1599567D01*
X1597027D01*
X1594488Y1006390D01*
Y998773D01*
X1604645Y1014008D02*
X1602106D01*
Y1016547D01*
X1604645D01*
Y1014008D01*
X1594488Y1036861D02*
Y1029243D01*
X1597027Y1026704D01*
X1602106D01*
X1604645Y1029243D01*
Y1036861D01*
Y1044478D02*
Y1049556D01*
X1602106Y1052096D01*
X1597027D01*
X1594488Y1049556D01*
Y1044478D01*
X1597027Y1041939D01*
X1602106D01*
X1604645Y1044478D01*
Y1057174D02*
X1594488D01*
Y1059713D01*
X1597027Y1062252D01*
X1604645D01*
X1597027D01*
X1594488Y1064791D01*
X1597027Y1067331D01*
X1604645D01*
Y1072409D02*
X1594488Y1082566D01*
X1604645Y1087644D02*
X1589410D01*
X1594488Y1092722D01*
X1589410Y1097801D01*
X1604645D01*
Y1105418D02*
Y1110497D01*
X1602106Y1113036D01*
X1597027D01*
X1594488Y1110497D01*
Y1105418D01*
X1597027Y1102879D01*
X1602106D01*
X1604645Y1105418D01*
Y1118114D02*
X1594488D01*
Y1125732D01*
X1597027Y1128271D01*
X1604645D01*
Y1133349D02*
X1589410D01*
X1599567D02*
X1594488Y1140967D01*
X1599567Y1133349D02*
X1604645Y1140967D01*
X1589410Y1148584D02*
X1604645D01*
X1597027D01*
Y1158741D01*
X1589410D01*
X1604645D01*
Y1171437D02*
Y1166359D01*
X1602106Y1163819D01*
X1597027D01*
X1594488Y1166359D01*
Y1171437D01*
X1597027Y1173976D01*
X1599567D01*
Y1163819D01*
X1604645Y1179054D02*
Y1184133D01*
Y1181594D01*
X1589410D01*
Y1179054D01*
X1604645Y1191750D02*
Y1196829D01*
Y1194290D01*
X1594488D01*
Y1191750D01*
X1604645Y1206985D02*
Y1212064D01*
X1602106Y1214603D01*
X1597027D01*
X1594488Y1212064D01*
Y1206985D01*
X1597027Y1204446D01*
X1602106D01*
X1604645Y1206985D01*
Y1219681D02*
Y1227299D01*
X1602106Y1229838D01*
X1599567Y1227299D01*
Y1222221D01*
X1597027Y1219681D01*
X1594488Y1222221D01*
Y1229838D01*
X1477645Y685165D02*
Y702939D01*
X1486532D01*
X1489494Y699977D01*
Y694052D01*
X1486532Y691090D01*
X1477645D01*
X1495419Y685165D02*
X1501344D01*
X1498382D01*
Y697014D01*
X1495419D01*
X1510231Y682203D02*
X1522081D01*
X1528005Y685165D02*
Y702939D01*
X1533930Y697014D01*
X1539855Y702939D01*
Y685165D01*
X1545780Y697014D02*
Y688127D01*
X1548742Y685165D01*
X1557629D01*
Y697014D01*
X1563554D02*
X1575403Y685165D01*
X1569479Y691090D01*
X1575403Y697014D01*
X1563554Y685165D01*
X1134749Y1102357D02*
X1132210Y1099818D01*
Y1094739D01*
X1134749Y1092200D01*
X1144906D01*
X1147445Y1094739D01*
Y1099818D01*
X1144906Y1102357D01*
X1139827D01*
Y1097278D01*
X1134749Y1117592D02*
X1132210Y1115053D01*
Y1109974D01*
X1134749Y1107435D01*
X1137288D01*
X1139827Y1109974D01*
Y1115053D01*
X1142367Y1117592D01*
X1144906D01*
X1147445Y1115053D01*
Y1109974D01*
X1144906Y1107435D01*
X1147445Y1122670D02*
X1132210D01*
X1137288Y1127748D01*
X1132210Y1132827D01*
X1147445D01*
X1149984Y1137905D02*
Y1148062D01*
X1132210Y1153140D02*
X1147445D01*
X1139827D01*
Y1163297D01*
X1132210D01*
X1147445D01*
Y1175993D02*
Y1170915D01*
X1144906Y1168375D01*
X1139827D01*
X1137288Y1170915D01*
Y1175993D01*
X1139827Y1178532D01*
X1142367D01*
Y1168375D01*
X1137288Y1186150D02*
Y1191228D01*
X1139827Y1193767D01*
X1147445D01*
Y1186150D01*
X1144906Y1183610D01*
X1142367Y1186150D01*
Y1193767D01*
X1132210Y1209002D02*
X1147445D01*
Y1201385D01*
X1144906Y1198846D01*
X1139827D01*
X1137288Y1201385D01*
Y1209002D01*
X1147445Y1221698D02*
Y1216620D01*
X1144906Y1214081D01*
X1139827D01*
X1137288Y1216620D01*
Y1221698D01*
X1139827Y1224237D01*
X1142367D01*
Y1214081D01*
X1137288Y1229316D02*
X1147445D01*
X1142367D01*
X1139827Y1231855D01*
X1137288Y1234394D01*
Y1236933D01*
X1374140Y1109980D02*
X1358905D01*
Y1117598D01*
X1361444Y1120137D01*
X1366523D01*
X1369062Y1117598D01*
Y1109980D01*
X1374140Y1125215D02*
Y1130293D01*
Y1127754D01*
X1363983D01*
Y1125215D01*
X1376679Y1137911D02*
Y1148068D01*
X1358905Y1153146D02*
X1374140D01*
X1366523D01*
Y1163303D01*
X1358905D01*
X1374140D01*
Y1175999D02*
Y1170920D01*
X1371601Y1168381D01*
X1366523D01*
X1363983Y1170920D01*
Y1175999D01*
X1366523Y1178538D01*
X1369062D01*
Y1168381D01*
X1363983Y1186155D02*
Y1191234D01*
X1366523Y1193773D01*
X1374140D01*
Y1186155D01*
X1371601Y1183616D01*
X1369062Y1186155D01*
Y1193773D01*
X1358905Y1209008D02*
X1374140D01*
Y1201390D01*
X1371601Y1198851D01*
X1366523D01*
X1363983Y1201390D01*
Y1209008D01*
X1374140Y1221704D02*
Y1216626D01*
X1371601Y1214086D01*
X1366523D01*
X1363983Y1216626D01*
Y1221704D01*
X1366523Y1224243D01*
X1369062D01*
Y1214086D01*
X1363983Y1229321D02*
X1374140D01*
X1369062D01*
X1366523Y1231861D01*
X1363983Y1234400D01*
Y1236939D01*
X1496064Y1102357D02*
X1493525Y1099818D01*
Y1094739D01*
X1496064Y1092200D01*
X1506221D01*
X1508760Y1094739D01*
Y1099818D01*
X1506221Y1102357D01*
X1501142D01*
Y1097278D01*
X1508760Y1107435D02*
X1493525D01*
Y1115053D01*
X1496064Y1117592D01*
X1501142D01*
X1503682Y1115053D01*
Y1107435D01*
X1496064Y1132827D02*
X1493525Y1130288D01*
Y1125209D01*
X1496064Y1122670D01*
X1498603D01*
X1501142Y1125209D01*
Y1130288D01*
X1503682Y1132827D01*
X1506221D01*
X1508760Y1130288D01*
Y1125209D01*
X1506221Y1122670D01*
X1511299Y1137905D02*
Y1148062D01*
X1493525Y1153140D02*
X1508760D01*
X1501142D01*
Y1163297D01*
X1493525D01*
X1508760D01*
Y1175993D02*
Y1170915D01*
X1506221Y1168375D01*
X1501142D01*
X1498603Y1170915D01*
Y1175993D01*
X1501142Y1178532D01*
X1503682D01*
Y1168375D01*
X1498603Y1186150D02*
Y1191228D01*
X1501142Y1193767D01*
X1508760D01*
Y1186150D01*
X1506221Y1183610D01*
X1503682Y1186150D01*
Y1193767D01*
X1493525Y1209002D02*
X1508760D01*
Y1201385D01*
X1506221Y1198846D01*
X1501142D01*
X1498603Y1201385D01*
Y1209002D01*
X1508760Y1221698D02*
Y1216620D01*
X1506221Y1214081D01*
X1501142D01*
X1498603Y1216620D01*
Y1221698D01*
X1501142Y1224237D01*
X1503682D01*
Y1214081D01*
X1498603Y1229316D02*
X1508760D01*
X1503682D01*
X1501142Y1231855D01*
X1498603Y1234394D01*
Y1236933D01*
X1163320Y868675D02*
X1168398D01*
X1165859D01*
Y853440D01*
X1163320D01*
X1168398D01*
X1186173Y866136D02*
X1183633Y868675D01*
X1178555D01*
X1176016Y866136D01*
Y863597D01*
X1178555Y861058D01*
X1183633D01*
X1186173Y858518D01*
Y855979D01*
X1183633Y853440D01*
X1178555D01*
X1176016Y855979D01*
X1191251Y868675D02*
Y853440D01*
X1201408D01*
X1216643Y868675D02*
X1206486D01*
Y861058D01*
X1211564Y863597D01*
X1214104D01*
X1216643Y861058D01*
Y855979D01*
X1214104Y853440D01*
X1209025D01*
X1206486Y855979D01*
X1229339Y853440D02*
Y868675D01*
X1221721Y861058D01*
X1231878D01*
X1247113Y853440D02*
X1236956D01*
X1247113Y863597D01*
Y866136D01*
X1244574Y868675D01*
X1239495D01*
X1236956Y866136D01*
X1262348Y853440D02*
X1252191D01*
X1262348Y863597D01*
Y866136D01*
X1259809Y868675D01*
X1254730D01*
X1252191Y866136D01*
X1267426D02*
X1269966Y868675D01*
X1275044D01*
X1277583Y866136D01*
Y855979D01*
X1275044Y853440D01*
X1269966D01*
X1267426Y855979D01*
Y866136D01*
X1282661Y868675D02*
X1287740D01*
X1285201D01*
Y853440D01*
X1282661D01*
X1287740D01*
X1295357Y868675D02*
Y855979D01*
X1297897Y853440D01*
X1302975D01*
X1305514Y855979D01*
Y868675D01*
X1310592D02*
X1320749D01*
Y866136D01*
X1310592Y855979D01*
Y853440D01*
X1320749D01*
X1325827Y861058D02*
X1335984D01*
X1341062Y868675D02*
X1351219D01*
X1346141D01*
Y853440D01*
X1239520Y750570D02*
X1244598D01*
X1242059D01*
Y765805D01*
X1239520Y763266D01*
X1252216D02*
X1254755Y765805D01*
X1259833D01*
X1262373Y763266D01*
Y753109D01*
X1259833Y750570D01*
X1254755D01*
X1252216Y753109D01*
Y763266D01*
X1267451D02*
X1269990Y765805D01*
X1275069D01*
X1277608Y763266D01*
Y753109D01*
X1275069Y750570D01*
X1269990D01*
X1267451Y753109D01*
Y763266D01*
X1282686Y750570D02*
Y760727D01*
X1290304D01*
X1292843Y758187D01*
Y750570D01*
X1308078Y765805D02*
X1297921D01*
Y758187D01*
X1303000D01*
X1297921D01*
Y750570D01*
X1687195Y1310005D02*
X1692275D01*
X1687195Y659765D02*
X1692275D01*
X1689735Y1310005D02*
X1694815Y1294765D01*
X1684655D02*
X1689735Y1310005D01*
Y659765D02*
X1694815Y675005D01*
X1684655D02*
X1689735Y659765D01*
Y1065124D02*
Y1310005D01*
Y659765D02*
Y904646D01*
X1674262Y1322705D02*
Y1327785D01*
X1060852Y1322705D02*
Y1327785D01*
X1659022Y1320165D02*
X1674262Y1325245D01*
X1659022Y1330325D02*
X1674262Y1325245D01*
X1060852D02*
X1076092Y1320165D01*
X1060852Y1325245D02*
X1076092Y1330325D01*
X1445258Y1325245D02*
X1674262D01*
X1060852D02*
X1289857D01*
D14*
X1683642Y917342D02*
X1686181Y912264D01*
X1691259Y907186D01*
X1696337D01*
X1698876Y909725D01*
Y914803D01*
X1696337Y917342D01*
X1693798D01*
X1691259Y914803D01*
Y907186D01*
X1683642Y932577D02*
Y922421D01*
X1691259D01*
X1688720Y927499D01*
Y930038D01*
X1691259Y932577D01*
X1696337D01*
X1698876Y930038D01*
Y924960D01*
X1696337Y922421D01*
X1698876Y937656D02*
X1696337D01*
Y940195D01*
X1698876D01*
Y937656D01*
X1686181Y950352D02*
X1683642Y952891D01*
Y957969D01*
X1686181Y960508D01*
X1696337D01*
X1698876Y957969D01*
Y952891D01*
X1696337Y950352D01*
X1686181D01*
X1698876Y975743D02*
Y965587D01*
X1688720Y975743D01*
X1686181D01*
X1683642Y973204D01*
Y968126D01*
X1686181Y965587D01*
X1698876Y988439D02*
X1683642D01*
X1691259Y980822D01*
Y990978D01*
X1698876Y1016370D02*
X1693798Y1011292D01*
X1688720D01*
X1683642Y1016370D01*
X1698876Y1023988D02*
X1688720D01*
Y1026527D01*
X1691259Y1029066D01*
X1698876D01*
X1691259D01*
X1688720Y1031605D01*
X1691259Y1034145D01*
X1698876D01*
Y1039223D02*
X1688720D01*
Y1041762D01*
X1691259Y1044301D01*
X1698876D01*
X1691259D01*
X1688720Y1046841D01*
X1691259Y1049380D01*
X1698876D01*
Y1054458D02*
X1693798Y1059536D01*
X1688720D01*
X1683642Y1054458D01*
X1302554Y1331339D02*
X1297475Y1328799D01*
X1292397Y1323721D01*
Y1318643D01*
X1294936Y1316104D01*
X1300015D01*
X1302554Y1318643D01*
Y1321182D01*
X1300015Y1323721D01*
X1292397D01*
X1307632Y1316104D02*
X1312711D01*
X1310171D01*
Y1331339D01*
X1307632Y1328799D01*
X1320328Y1316104D02*
Y1318643D01*
X1322867D01*
Y1316104D01*
X1320328D01*
X1333024Y1328799D02*
X1335563Y1331339D01*
X1340642D01*
X1343181Y1328799D01*
Y1326260D01*
X1340642Y1323721D01*
X1338102D01*
X1340642D01*
X1343181Y1321182D01*
Y1318643D01*
X1340642Y1316104D01*
X1335563D01*
X1333024Y1318643D01*
X1355877Y1316104D02*
Y1331339D01*
X1348259Y1323721D01*
X1358416D01*
X1363494Y1316104D02*
X1368573D01*
X1366033D01*
Y1331339D01*
X1363494Y1328799D01*
X1396503Y1316104D02*
X1391425Y1321182D01*
Y1326260D01*
X1396503Y1331339D01*
X1404121Y1316104D02*
Y1326260D01*
X1406660D01*
X1409199Y1323721D01*
Y1316104D01*
Y1323721D01*
X1411739Y1326260D01*
X1414278Y1323721D01*
Y1316104D01*
X1419356D02*
Y1326260D01*
X1421895D01*
X1424434Y1323721D01*
Y1316104D01*
Y1323721D01*
X1426974Y1326260D01*
X1429513Y1323721D01*
Y1316104D01*
X1434591D02*
X1439669Y1321182D01*
Y1326260D01*
X1434591Y1331339D01*
D19*
X1202690Y1109980D02*
X1297305D01*
X1202690Y914400D02*
X1297305D01*
Y1221105D01*
X1202690D02*
X1297305D01*
X1202690Y914400D02*
Y1221105D01*
D20*
X1429385Y730885D02*
X1434465Y735965D01*
X1119505Y730885D02*
X1124585Y735965D01*
X1122045Y730885D02*
X1124585Y733425D01*
X1122045D02*
X1124585Y730885D01*
X1122045Y733425D02*
X1124585D01*
X1122045Y730885D02*
Y733425D01*
X1431925Y730885D02*
Y733425D01*
X1434465D01*
Y730885D02*
Y733425D01*
X1431925D02*
X1434465Y730885D01*
D21*
X1253885Y829705D02*
Y843705D01*
X1223885Y826205D02*
X1253885D01*
X1223885Y803205D02*
Y826205D01*
Y803205D02*
X1253885D01*
Y826205D01*
X1073785Y1238885D02*
X1124585D01*
X1073785Y730885D02*
X1124585D01*
X1073785D02*
Y1238885D01*
X1124585Y730885D02*
Y1238885D01*
X1383665D02*
X1434465D01*
X1383665Y730885D02*
X1434465D01*
X1383665D02*
Y1238885D01*
X1434465Y730885D02*
Y1238885D01*
X1485265D01*
X1434465Y730885D02*
X1485265D01*
X1434465D02*
Y1238885D01*
X1485265Y730885D02*
Y1238885D01*
M02*
