M48
;Layer_Color=9474304
;FILE_FORMAT=4:4
METRIC,LZ
;TYPE=PLATED
T1F00S00C0.9000
%
T01
X01396365Y00743585
X01421765
Y00768985
X01396365
X01447165
Y00743585
X01472565
Y00768985
X01111885
Y00743585
X01086485
Y00768985
Y00794385
X01111885
Y00819785
X01086485
Y00845185
X01111885
Y00870585
X01086485
Y00895985
X01111885
Y00921385
X01086485
Y00946785
X01111885
Y00972185
X01086485
Y00997585
X01111885
Y01022985
X01086485
Y01048385
X01111885
Y01073785
X01086485
Y01099185
X01111885
Y01124585
X01086485
Y01149985
X01111885
Y01175385
X01086485
X01396365
Y01149985
Y01124585
Y01099185
Y01073785
Y01048385
Y01022985
Y00997585
Y00972185
Y00946785
Y00921385
Y00895985
Y00870585
Y00845185
Y00819785
Y00794385
X01421765
Y00819785
Y00845185
Y00870585
Y00895985
Y00921385
Y00946785
Y00972185
Y00997585
Y01022985
Y01048385
Y01073785
Y01099185
Y01124585
Y01149985
Y01175385
X01447165
Y01149985
Y01124585
Y01099185
Y01073785
Y01048385
Y01022985
Y00997585
Y00972185
Y00946785
Y00921385
Y00895985
Y00870585
Y00845185
Y00819785
Y00794385
X01472565
Y00819785
Y00845185
Y00870585
Y00895985
Y00921385
Y00946785
Y00972185
Y00997585
Y01022985
Y01048385
Y01073785
Y01099185
Y01124585
Y01149985
Y01175385
Y01200785
X01447165
X01421765
X01396365
Y01226185
X01421765
X01447165
X01472565
X01111885
Y01200785
X01086485
Y01226185
M30
