G04 Layer_Color=8056319*
%FSLAX44Y44*%
%MOMM*%
G71*
G01*
G75*
%ADD25C,0.2540*%
%ADD28C,0.1270*%
%ADD29C,0.1524*%
%ADD60C,0.3302*%
D25*
X873760Y1033780D02*
Y1038860D01*
X312420Y1033780D02*
Y1038860D01*
X858520Y1031240D02*
X873760Y1036320D01*
X858520Y1041400D02*
X873760Y1036320D01*
X312420D02*
X327660Y1031240D01*
X312420Y1036320D02*
X327660Y1041400D01*
X672060Y1036320D02*
X873760D01*
X312420D02*
X514120D01*
X885825Y1021080D02*
X890905D01*
X885825Y370840D02*
X890905D01*
X888365Y1021080D02*
X893445Y1005840D01*
X883285D02*
X888365Y1021080D01*
Y370840D02*
X893445Y386080D01*
X883285D02*
X888365Y370840D01*
Y776199D02*
Y1021080D01*
Y370840D02*
Y615721D01*
D28*
X312420Y1021080D02*
X873760D01*
Y370840D02*
Y1021080D01*
X312420Y370840D02*
X873760D01*
X312420D02*
Y1021080D01*
D29*
X526817Y1042413D02*
X516660D01*
Y1034796D01*
X521739Y1037335D01*
X524278D01*
X526817Y1034796D01*
Y1029718D01*
X524278Y1027178D01*
X519199D01*
X516660Y1029718D01*
X542052Y1042413D02*
X536974Y1039874D01*
X531895Y1034796D01*
Y1029718D01*
X534435Y1027178D01*
X539513D01*
X542052Y1029718D01*
Y1032257D01*
X539513Y1034796D01*
X531895D01*
X547130Y1027178D02*
Y1029718D01*
X549670D01*
Y1027178D01*
X547130D01*
X559826D02*
X564905D01*
X562365D01*
Y1042413D01*
X559826Y1039874D01*
X572522D02*
X575061Y1042413D01*
X580140D01*
X582679Y1039874D01*
Y1037335D01*
X580140Y1034796D01*
X577601D01*
X580140D01*
X582679Y1032257D01*
Y1029718D01*
X580140Y1027178D01*
X575061D01*
X572522Y1029718D01*
X595375Y1027178D02*
Y1042413D01*
X587757Y1034796D01*
X597914D01*
X623306Y1027178D02*
X618227Y1032257D01*
Y1037335D01*
X623306Y1042413D01*
X630923Y1027178D02*
Y1037335D01*
X633462D01*
X636002Y1034796D01*
Y1027178D01*
Y1034796D01*
X638541Y1037335D01*
X641080Y1034796D01*
Y1027178D01*
X646158D02*
Y1037335D01*
X648698D01*
X651237Y1034796D01*
Y1027178D01*
Y1034796D01*
X653776Y1037335D01*
X656315Y1034796D01*
Y1027178D01*
X661393D02*
X666472Y1032257D01*
Y1037335D01*
X661393Y1042413D01*
X882271Y628417D02*
X884811Y623339D01*
X889889Y618261D01*
X894967D01*
X897506Y620800D01*
Y625878D01*
X894967Y628417D01*
X892428D01*
X889889Y625878D01*
Y618261D01*
X882271Y643652D02*
Y633496D01*
X889889D01*
X887350Y638574D01*
Y641113D01*
X889889Y643652D01*
X894967D01*
X897506Y641113D01*
Y636035D01*
X894967Y633496D01*
X897506Y648731D02*
X894967D01*
Y651270D01*
X897506D01*
Y648731D01*
X884811Y661427D02*
X882271Y663966D01*
Y669044D01*
X884811Y671583D01*
X894967D01*
X897506Y669044D01*
Y663966D01*
X894967Y661427D01*
X884811D01*
X897506Y686818D02*
Y676662D01*
X887350Y686818D01*
X884811D01*
X882271Y684279D01*
Y679201D01*
X884811Y676662D01*
X897506Y699514D02*
X882271D01*
X889889Y691897D01*
Y702054D01*
X897506Y727445D02*
X892428Y722367D01*
X887350D01*
X882271Y727445D01*
X897506Y735063D02*
X887350D01*
Y737602D01*
X889889Y740141D01*
X897506D01*
X889889D01*
X887350Y742680D01*
X889889Y745220D01*
X897506D01*
Y750298D02*
X887350D01*
Y752837D01*
X889889Y755376D01*
X897506D01*
X889889D01*
X887350Y757915D01*
X889889Y760455D01*
X897506D01*
Y765533D02*
X892428Y770611D01*
X887350D01*
X882271Y765533D01*
D60*
X916432Y973454D02*
Y991229D01*
X925319D01*
X928281Y988266D01*
Y982342D01*
X925319Y979379D01*
X916432D01*
X934206Y973454D02*
X940131D01*
X937169D01*
Y991229D01*
X934206D01*
X951981Y985304D02*
X957905D01*
X960868Y982342D01*
Y973454D01*
X951981D01*
X949018Y976417D01*
X951981Y979379D01*
X960868D01*
X969755Y988266D02*
Y985304D01*
X966792D01*
X972717D01*
X969755D01*
Y976417D01*
X972717Y973454D01*
X990491D02*
X984567D01*
X981604Y976417D01*
Y982342D01*
X984567Y985304D01*
X990491D01*
X993454Y982342D01*
Y979379D01*
X981604D01*
X1020115Y985304D02*
X1026040D01*
X1029002Y982342D01*
Y973454D01*
X1020115D01*
X1017153Y976417D01*
X1020115Y979379D01*
X1029002D01*
X1034927Y973454D02*
X1040852D01*
X1037889D01*
Y991229D01*
X1034927D01*
X1049739Y973454D02*
X1055664D01*
X1052701D01*
Y991229D01*
X1049739D01*
X1082325D02*
Y973454D01*
Y982342D01*
X1085287Y985304D01*
X1091212D01*
X1094175Y982342D01*
Y973454D01*
X1103062D02*
X1108987D01*
X1111949Y976417D01*
Y982342D01*
X1108987Y985304D01*
X1103062D01*
X1100099Y982342D01*
Y976417D01*
X1103062Y973454D01*
X1117874D02*
X1123798D01*
X1120836D01*
Y991229D01*
X1117874D01*
X1141573Y973454D02*
X1135648D01*
X1132685Y976417D01*
Y982342D01*
X1135648Y985304D01*
X1141573D01*
X1144535Y982342D01*
Y979379D01*
X1132685D01*
X1150460Y973454D02*
X1159347D01*
X1162309Y976417D01*
X1159347Y979379D01*
X1153422D01*
X1150460Y982342D01*
X1153422Y985304D01*
X1162309D01*
X1191933Y973454D02*
X1186008Y979379D01*
Y985304D01*
X1191933Y991229D01*
X1200820Y973454D02*
X1206745D01*
X1203783D01*
Y985304D01*
X1200820D01*
X1215632Y973454D02*
Y985304D01*
X1224519D01*
X1227482Y982342D01*
Y973454D01*
X1245256Y985304D02*
X1236369D01*
X1233406Y982342D01*
Y976417D01*
X1236369Y973454D01*
X1245256D01*
X1251181D02*
X1257105D01*
X1254143D01*
Y991229D01*
X1251181D01*
X1265992Y985304D02*
Y976417D01*
X1268955Y973454D01*
X1277842D01*
Y985304D01*
X1295616Y991229D02*
Y973454D01*
X1286729D01*
X1283767Y976417D01*
Y982342D01*
X1286729Y985304D01*
X1295616D01*
X1301541Y973454D02*
X1307466D01*
X1304503D01*
Y985304D01*
X1301541D01*
X1316353Y973454D02*
Y985304D01*
X1325240D01*
X1328202Y982342D01*
Y973454D01*
X1340052Y967530D02*
X1343014D01*
X1345977Y970492D01*
Y985304D01*
X1337090D01*
X1334127Y982342D01*
Y976417D01*
X1337090Y973454D01*
X1345977D01*
X1369676Y985304D02*
X1375600Y973454D01*
X1381525Y985304D01*
X1387450Y973454D02*
X1393375D01*
X1390412D01*
Y985304D01*
X1387450D01*
X1405224D02*
X1411149D01*
X1414111Y982342D01*
Y973454D01*
X1405224D01*
X1402262Y976417D01*
X1405224Y979379D01*
X1414111D01*
X1420036Y973454D02*
X1428923D01*
X1431886Y976417D01*
X1428923Y979379D01*
X1422998D01*
X1420036Y982342D01*
X1422998Y985304D01*
X1431886D01*
X1437810Y973454D02*
X1443735Y979379D01*
Y985304D01*
X1437810Y991229D01*
X1470396Y985304D02*
Y976417D01*
X1473359Y973454D01*
X1476321Y976417D01*
X1479284Y973454D01*
X1482246Y976417D01*
Y985304D01*
X1488171Y991229D02*
Y973454D01*
Y982342D01*
X1491133Y985304D01*
X1497058D01*
X1500020Y982342D01*
Y973454D01*
X1505945D02*
X1511870D01*
X1508907D01*
Y985304D01*
X1505945D01*
X1532606D02*
X1523719D01*
X1520757Y982342D01*
Y976417D01*
X1523719Y973454D01*
X1532606D01*
X1538531Y991229D02*
Y973454D01*
Y982342D01*
X1541494Y985304D01*
X1547418D01*
X1550381Y982342D01*
Y973454D01*
X1574080Y991229D02*
Y973454D01*
Y982342D01*
X1577042Y985304D01*
X1582967D01*
X1585929Y982342D01*
Y973454D01*
X1594816Y985304D02*
X1600741D01*
X1603703Y982342D01*
Y973454D01*
X1594816D01*
X1591854Y976417D01*
X1594816Y979379D01*
X1603703D01*
X1609628Y985304D02*
X1615553Y973454D01*
X1621478Y985304D01*
X1636290Y973454D02*
X1630365D01*
X1627402Y976417D01*
Y982342D01*
X1630365Y985304D01*
X1636290D01*
X1639252Y982342D01*
Y979379D01*
X1627402D01*
X1665913Y985304D02*
X1671838D01*
X1674800Y982342D01*
Y973454D01*
X1665913D01*
X1662951Y976417D01*
X1665913Y979379D01*
X1674800D01*
X916432Y956050D02*
Y938276D01*
Y947163D01*
X919394Y950125D01*
X925319D01*
X928281Y947163D01*
Y938276D01*
X937169D02*
X943093D01*
X946056Y941238D01*
Y947163D01*
X943093Y950125D01*
X937169D01*
X934206Y947163D01*
Y941238D01*
X937169Y938276D01*
X951981D02*
X957905D01*
X954943D01*
Y956050D01*
X951981D01*
X975679Y938276D02*
X969755D01*
X966792Y941238D01*
Y947163D01*
X969755Y950125D01*
X975679D01*
X978642Y947163D01*
Y944200D01*
X966792D01*
X1002341Y938276D02*
X1011228D01*
X1014190Y941238D01*
X1011228Y944200D01*
X1005303D01*
X1002341Y947163D01*
X1005303Y950125D01*
X1014190D01*
X1020115Y938276D02*
X1026040D01*
X1023078D01*
Y950125D01*
X1020115D01*
X1034927D02*
X1046777D01*
X1034927Y938276D01*
X1046777D01*
X1061589D02*
X1055664D01*
X1052701Y941238D01*
Y947163D01*
X1055664Y950125D01*
X1061589D01*
X1064551Y947163D01*
Y944200D01*
X1052701D01*
X1088250Y956050D02*
Y938276D01*
X1097137D01*
X1100099Y941238D01*
Y944200D01*
Y947163D01*
X1097137Y950125D01*
X1088250D01*
X1114911Y938276D02*
X1108987D01*
X1106024Y941238D01*
Y947163D01*
X1108987Y950125D01*
X1114911D01*
X1117874Y947163D01*
Y944200D01*
X1106024D01*
X1123798Y938276D02*
X1129723D01*
X1126761D01*
Y956050D01*
X1123798D01*
X1141573Y938276D02*
X1147497D01*
X1150460Y941238D01*
Y947163D01*
X1147497Y950125D01*
X1141573D01*
X1138610Y947163D01*
Y941238D01*
X1141573Y938276D01*
X1156385Y950125D02*
Y941238D01*
X1159347Y938276D01*
X1162309Y941238D01*
X1165272Y938276D01*
X1168234Y941238D01*
Y950125D01*
X1191933Y938276D02*
X1197858D01*
X1194895D01*
Y956050D01*
X1191933Y953088D01*
X1206745D02*
X1209707Y956050D01*
X1215632D01*
X1218594Y953088D01*
Y941238D01*
X1215632Y938276D01*
X1209707D01*
X1206745Y941238D01*
Y953088D01*
X1224519D02*
X1227482Y956050D01*
X1233406D01*
X1236369Y953088D01*
Y941238D01*
X1233406Y938276D01*
X1227482D01*
X1224519Y941238D01*
Y953088D01*
X1242293Y938276D02*
Y950125D01*
X1245256D01*
X1248218Y947163D01*
Y938276D01*
Y947163D01*
X1251181Y950125D01*
X1254143Y947163D01*
Y938276D01*
X1260068D02*
X1265992D01*
X1263030D01*
Y950125D01*
X1260068D01*
X1274880Y938276D02*
X1280804D01*
X1277842D01*
Y956050D01*
X1274880D01*
X1289691Y938276D02*
Y941238D01*
X1292654D01*
Y938276D01*
X1289691D01*
X916432Y926796D02*
Y909022D01*
X925319D01*
X928281Y911984D01*
Y923834D01*
X925319Y926796D01*
X916432D01*
X937169Y909022D02*
X943093D01*
X946056Y911984D01*
Y917909D01*
X943093Y920871D01*
X937169D01*
X934206Y917909D01*
Y911984D01*
X937169Y909022D01*
X969755D02*
Y920871D01*
X978642D01*
X981604Y917909D01*
Y909022D01*
X990491D02*
X996416D01*
X999379Y911984D01*
Y917909D01*
X996416Y920871D01*
X990491D01*
X987529Y917909D01*
Y911984D01*
X990491Y909022D01*
X1008266Y923834D02*
Y920871D01*
X1005303D01*
X1011228D01*
X1008266D01*
Y911984D01*
X1011228Y909022D01*
X1037889Y903097D02*
Y920871D01*
X1046777D01*
X1049739Y917909D01*
Y911984D01*
X1046777Y909022D01*
X1037889D01*
X1055664D02*
X1061589D01*
X1058626D01*
Y926796D01*
X1055664D01*
X1073438Y920871D02*
X1079363D01*
X1082325Y917909D01*
Y909022D01*
X1073438D01*
X1070476Y911984D01*
X1073438Y914947D01*
X1082325D01*
X1091212Y923834D02*
Y920871D01*
X1088250D01*
X1094175D01*
X1091212D01*
Y911984D01*
X1094175Y909022D01*
X1111949D02*
X1106024D01*
X1103062Y911984D01*
Y917909D01*
X1106024Y920871D01*
X1111949D01*
X1114911Y917909D01*
Y914947D01*
X1103062D01*
X1138610Y926796D02*
Y909022D01*
Y917909D01*
X1141573Y920871D01*
X1147497D01*
X1150460Y917909D01*
Y909022D01*
X1159347D02*
X1165272D01*
X1168234Y911984D01*
Y917909D01*
X1165272Y920871D01*
X1159347D01*
X1156385Y917909D01*
Y911984D01*
X1159347Y909022D01*
X1174159D02*
X1180083D01*
X1177121D01*
Y926796D01*
X1174159D01*
X1197858Y909022D02*
X1191933D01*
X1188971Y911984D01*
Y917909D01*
X1191933Y920871D01*
X1197858D01*
X1200820Y917909D01*
Y914947D01*
X1188971D01*
X1206745Y909022D02*
X1215632D01*
X1218594Y911984D01*
X1215632Y914947D01*
X1209707D01*
X1206745Y917909D01*
X1209707Y920871D01*
X1218594D01*
X1242293D02*
Y911984D01*
X1245256Y909022D01*
X1248218Y911984D01*
X1251181Y909022D01*
X1254143Y911984D01*
Y920871D01*
X1260068Y926796D02*
Y909022D01*
Y917909D01*
X1263030Y920871D01*
X1268955D01*
X1271917Y917909D01*
Y909022D01*
X1277842D02*
X1283767D01*
X1280804D01*
Y920871D01*
X1277842D01*
X1304503D02*
X1295616D01*
X1292654Y917909D01*
Y911984D01*
X1295616Y909022D01*
X1304503D01*
X1310428Y926796D02*
Y909022D01*
Y917909D01*
X1313391Y920871D01*
X1319315D01*
X1322278Y917909D01*
Y909022D01*
X1348939Y920871D02*
X1354864D01*
X1357826Y917909D01*
Y909022D01*
X1348939D01*
X1345977Y911984D01*
X1348939Y914947D01*
X1357826D01*
X1363751Y920871D02*
Y909022D01*
Y914947D01*
X1366713Y917909D01*
X1369676Y920871D01*
X1372638D01*
X1390412Y909022D02*
X1384487D01*
X1381525Y911984D01*
Y917909D01*
X1384487Y920871D01*
X1390412D01*
X1393375Y917909D01*
Y914947D01*
X1381525D01*
X1420036Y920871D02*
X1425961D01*
X1428923Y917909D01*
Y909022D01*
X1420036D01*
X1417074Y911984D01*
X1420036Y914947D01*
X1428923D01*
X1434848Y926796D02*
Y909022D01*
X1443735D01*
X1446697Y911984D01*
Y914947D01*
Y917909D01*
X1443735Y920871D01*
X1434848D01*
X1455585Y909022D02*
X1461509D01*
X1464472Y911984D01*
Y917909D01*
X1461509Y920871D01*
X1455585D01*
X1452622Y917909D01*
Y911984D01*
X1455585Y909022D01*
X1470396Y920871D02*
X1476321Y909022D01*
X1482246Y920871D01*
X1497058Y909022D02*
X1491133D01*
X1488171Y911984D01*
Y917909D01*
X1491133Y920871D01*
X1497058D01*
X1500020Y917909D01*
Y914947D01*
X1488171D01*
X1535569Y909022D02*
X1523719D01*
X1535569Y920871D01*
Y923834D01*
X1532606Y926796D01*
X1526682D01*
X1523719Y923834D01*
X1541494D02*
X1544456Y926796D01*
X1550381D01*
X1553343Y923834D01*
Y911984D01*
X1550381Y909022D01*
X1544456D01*
X1541494Y911984D01*
Y923834D01*
X1559268D02*
X1562230Y926796D01*
X1568155D01*
X1571117Y923834D01*
Y911984D01*
X1568155Y909022D01*
X1562230D01*
X1559268Y911984D01*
Y923834D01*
X1577042Y909022D02*
Y920871D01*
X1580004D01*
X1582967Y917909D01*
Y909022D01*
Y917909D01*
X1585929Y920871D01*
X1588891Y917909D01*
Y909022D01*
X1594816D02*
X1600741D01*
X1597779D01*
Y920871D01*
X1594816D01*
X1609628Y909022D02*
X1615553D01*
X1612590D01*
Y926796D01*
X1609628D01*
X1624440Y909022D02*
Y911984D01*
X1627402D01*
Y909022D01*
X1624440D01*
M02*
