G04 Layer_Physical_Order=1*
G04 Layer_Color=255*
%FSLAX44Y44*%
%MOMM*%
G71*
G01*
G75*
%ADD10R,3.4500X3.4500*%
%ADD11O,0.2800X0.8500*%
%ADD12O,0.8500X0.2800*%
%ADD13R,0.4500X0.7000*%
%ADD14R,0.6200X0.6200*%
%ADD15R,0.6200X0.6200*%
%ADD16R,0.7000X0.4500*%
%ADD17R,0.7000X0.9000*%
%ADD18R,0.5500X0.5500*%
%ADD19R,0.5500X0.5500*%
G04:AMPARAMS|DCode=20|XSize=0.6mm|YSize=0.75mm|CornerRadius=0.075mm|HoleSize=0mm|Usage=FLASHONLY|Rotation=0.000|XOffset=0mm|YOffset=0mm|HoleType=Round|Shape=RoundedRectangle|*
%AMROUNDEDRECTD20*
21,1,0.6000,0.6000,0,0,0.0*
21,1,0.4500,0.7500,0,0,0.0*
1,1,0.1500,0.2250,-0.3000*
1,1,0.1500,-0.2250,-0.3000*
1,1,0.1500,-0.2250,0.3000*
1,1,0.1500,0.2250,0.3000*
%
%ADD20ROUNDEDRECTD20*%
%ADD21R,1.3000X0.6000*%
%ADD22R,1.4000X1.0500*%
%ADD23R,0.9000X0.7000*%
%ADD24R,0.8500X0.8500*%
%ADD25R,1.3300X0.6500*%
%ADD26R,0.6500X1.3300*%
%ADD27R,0.6500X1.8300*%
%ADD28R,0.8500X0.8500*%
%ADD29R,3.9500X1.5000*%
%ADD30R,4.2500X1.5000*%
%ADD31R,1.3000X1.5500*%
%ADD32R,2.2860X1.7780*%
%ADD33R,8.8900X10.6680*%
%ADD34R,1.5500X1.3000*%
%ADD35R,1.0000X1.1000*%
%ADD36R,1.6000X0.8900*%
%ADD37R,0.3000X0.4500*%
%ADD38R,3.8750X3.8750*%
%ADD39R,0.5500X0.5000*%
%ADD40R,0.5500X0.4000*%
%ADD41R,0.4000X0.5500*%
%ADD42C,0.2540*%
%ADD43C,0.4500*%
%ADD44C,0.1778*%
%ADD45C,0.6000*%
%ADD46C,0.3048*%
%ADD47C,0.4000*%
%ADD48C,0.3800*%
%ADD49C,1.7780*%
%ADD50C,0.3043*%
%ADD51C,0.5080*%
%ADD52C,0.5200*%
%ADD53C,0.1524*%
%ADD54R,1.5000X1.5000*%
%ADD55C,1.5000*%
%ADD56R,1.5000X1.5000*%
%ADD57C,6.0000*%
%ADD58C,0.6350*%
%ADD59C,0.4572*%
%ADD60C,0.4500*%
%ADD61C,0.3810*%
%ADD62C,0.5500*%
%ADD63C,0.7620*%
%ADD64C,0.4570*%
G36*
X761250Y605000D02*
X795000Y571250D01*
Y437500D01*
X685000D01*
Y605000D01*
X761250Y605000D01*
D02*
G37*
G36*
X525390Y555750D02*
X526660Y554480D01*
X526660Y528755D01*
X526710Y528505D01*
X526710Y528250D01*
X526757Y528014D01*
X526854Y527779D01*
X526857Y527764D01*
X526866Y527752D01*
X527035Y527343D01*
X527038Y527329D01*
X527046Y527316D01*
X527143Y527081D01*
X527277Y526881D01*
X527457Y526701D01*
X527599Y526488D01*
X527910Y526177D01*
Y520701D01*
X527960Y520451D01*
Y520196D01*
X528000Y519995D01*
Y518271D01*
X528050Y518021D01*
Y517766D01*
X528054Y517745D01*
Y515290D01*
X528251Y514299D01*
X528812Y513459D01*
X529653Y512897D01*
X530250Y512778D01*
X530250Y503722D01*
X529653Y503603D01*
X528812Y503041D01*
X528251Y502201D01*
X528054Y501210D01*
Y498755D01*
X528050Y498734D01*
Y498479D01*
X528000Y498229D01*
Y496505D01*
X527960Y496304D01*
Y496049D01*
X527910Y495799D01*
Y492073D01*
X525349Y489511D01*
X525207Y489300D01*
X525027Y489119D01*
X524894Y488919D01*
X524893Y488919D01*
X524796Y488684D01*
X524788Y488671D01*
X524785Y488657D01*
X524616Y488248D01*
X524607Y488236D01*
X524604Y488222D01*
X524507Y487986D01*
Y487986D01*
X524507Y487986D01*
X524460Y487750D01*
Y487495D01*
X524410Y487245D01*
X524410Y463770D01*
X523140Y462500D01*
X485750Y462500D01*
Y555750D01*
X525390Y555750D01*
D02*
G37*
G36*
X546250Y502000D02*
Y462500D01*
X528270Y462500D01*
X527000Y462500D01*
X527000Y487245D01*
X527047Y487481D01*
X527180Y487680D01*
X530500Y491000D01*
Y495799D01*
X530590Y496250D01*
Y498229D01*
X530644Y498500D01*
Y501210D01*
X534500D01*
X535491Y501407D01*
X536331Y501969D01*
X536352Y502000D01*
X546250Y502000D01*
D02*
G37*
G36*
X546250Y514750D02*
X536004Y514750D01*
X535491Y515093D01*
X534500Y515290D01*
X530644D01*
Y518000D01*
X530590Y518271D01*
Y520250D01*
X530500Y520701D01*
Y526177D01*
X530500Y526177D01*
Y527250D01*
X530399Y527351D01*
Y527351D01*
X530394Y527356D01*
X529742Y528008D01*
X529742Y528008D01*
X529430Y528320D01*
X529297Y528519D01*
X529250Y528755D01*
X529250Y555750D01*
X546250Y555750D01*
Y514750D01*
D02*
G37*
G36*
X635000Y488750D02*
X670000D01*
Y437500D01*
X587500D01*
Y500000D01*
X623750D01*
X635000Y488750D01*
D02*
G37*
G36*
X676250Y518750D02*
X631250D01*
X623750Y511250D01*
X587500D01*
Y605000D01*
X676250D01*
Y518750D01*
D02*
G37*
%LPC*%
G36*
X501000Y551077D02*
X498770Y550633D01*
X496880Y549370D01*
X495617Y547480D01*
X495173Y545250D01*
X495583Y543191D01*
X495542Y542868D01*
X495009Y541783D01*
X494169Y541221D01*
X493607Y540381D01*
X493410Y539390D01*
Y528390D01*
X493607Y527399D01*
X494169Y526559D01*
X494916Y526059D01*
X494990Y525390D01*
X494916Y524721D01*
X494169Y524221D01*
X493607Y523381D01*
X493410Y522390D01*
Y511390D01*
X493607Y510399D01*
X494169Y509559D01*
X495009Y508997D01*
X496000Y508800D01*
X506000D01*
X506991Y508997D01*
X507831Y509559D01*
X508393Y510399D01*
X508590Y511390D01*
Y514115D01*
X516537D01*
X516669Y513919D01*
X517509Y513357D01*
X518500Y513160D01*
X521500D01*
X522491Y513357D01*
X523331Y513919D01*
X523893Y514759D01*
X524090Y515750D01*
Y520250D01*
X523893Y521241D01*
X523331Y522081D01*
X522491Y522643D01*
X521500Y522840D01*
X518500D01*
X517509Y522643D01*
X516669Y522081D01*
X516537Y521885D01*
X508590D01*
Y522390D01*
X508393Y523381D01*
X507831Y524221D01*
X507084Y524721D01*
X507010Y525390D01*
X507084Y526059D01*
X507831Y526559D01*
X508393Y527399D01*
X508590Y528390D01*
Y539390D01*
X508393Y540381D01*
X507831Y541221D01*
X506991Y541783D01*
X506458Y542868D01*
X506418Y543191D01*
X506827Y545250D01*
X506383Y547480D01*
X505120Y549370D01*
X503230Y550633D01*
X501000Y551077D01*
D02*
G37*
G36*
X521500Y503340D02*
X518500D01*
X517509Y503143D01*
X516669Y502581D01*
X516107Y501741D01*
X515910Y500750D01*
Y498385D01*
X499778D01*
X499620Y498620D01*
X497730Y499883D01*
X495500Y500327D01*
X493270Y499883D01*
X491380Y498620D01*
X490117Y496730D01*
X489673Y494500D01*
X490117Y492270D01*
X491380Y490380D01*
X493270Y489117D01*
X495500Y488673D01*
X497730Y489117D01*
X499620Y490380D01*
X499778Y490615D01*
X519000D01*
X520487Y490911D01*
X521747Y491753D01*
X522747Y492753D01*
X523589Y494013D01*
X523813Y495140D01*
X523893Y495259D01*
X524090Y496250D01*
Y500750D01*
X523893Y501741D01*
X523331Y502581D01*
X522491Y503143D01*
X521500Y503340D01*
D02*
G37*
%LPD*%
D10*
X581250Y720750D02*
D03*
D11*
X563750Y745500D02*
D03*
X568750D02*
D03*
X573750D02*
D03*
X578750D02*
D03*
X583750D02*
D03*
X588750D02*
D03*
X593750D02*
D03*
X598750D02*
D03*
Y696000D02*
D03*
X593750D02*
D03*
X588750D02*
D03*
X583750D02*
D03*
X578750D02*
D03*
X573750D02*
D03*
X568750D02*
D03*
X563750D02*
D03*
D12*
X606000Y738250D02*
D03*
Y733250D02*
D03*
Y728250D02*
D03*
Y723250D02*
D03*
Y718250D02*
D03*
Y713250D02*
D03*
Y708250D02*
D03*
Y703250D02*
D03*
X556500D02*
D03*
Y708250D02*
D03*
Y713250D02*
D03*
Y718250D02*
D03*
Y723250D02*
D03*
Y728250D02*
D03*
Y733250D02*
D03*
Y738250D02*
D03*
D13*
X644250Y726250D02*
D03*
X634250D02*
D03*
X644250Y704750D02*
D03*
X634250D02*
D03*
X652500Y685500D02*
D03*
X642500D02*
D03*
X669500Y685500D02*
D03*
X659500D02*
D03*
X686500D02*
D03*
X676500D02*
D03*
D14*
X636250Y715500D02*
D03*
X645250D02*
D03*
X624500Y685500D02*
D03*
X633500D02*
D03*
X644500Y675000D02*
D03*
X653500D02*
D03*
X675500Y696250D02*
D03*
X684500D02*
D03*
X655000Y655000D02*
D03*
X646000D02*
D03*
X636250Y737000D02*
D03*
X645250D02*
D03*
D15*
X624500Y696750D02*
D03*
Y705750D02*
D03*
X667500Y666000D02*
D03*
Y675000D02*
D03*
X635000Y655000D02*
D03*
Y664000D02*
D03*
D16*
X624250Y675700D02*
D03*
Y665800D02*
D03*
X624500Y725700D02*
D03*
Y715800D02*
D03*
X755000Y755500D02*
D03*
Y765500D02*
D03*
X733000Y765500D02*
D03*
Y755500D02*
D03*
D17*
X613750Y663750D02*
D03*
Y650750D02*
D03*
X590500Y668000D02*
D03*
Y681000D02*
D03*
X808000Y705500D02*
D03*
Y692500D02*
D03*
X797000Y692500D02*
D03*
Y705500D02*
D03*
X542250Y598750D02*
D03*
Y585750D02*
D03*
X530000Y598750D02*
D03*
Y585750D02*
D03*
D18*
X624000Y639158D02*
D03*
Y650842D02*
D03*
X601500Y678092D02*
D03*
Y666408D02*
D03*
X579500Y678000D02*
D03*
Y666316D02*
D03*
X563750Y678000D02*
D03*
Y666316D02*
D03*
X617500Y757592D02*
D03*
Y745908D02*
D03*
X576750Y758658D02*
D03*
Y770342D02*
D03*
X595750Y758658D02*
D03*
Y770342D02*
D03*
X606250Y770342D02*
D03*
Y758658D02*
D03*
X557000Y759408D02*
D03*
Y771092D02*
D03*
X583250Y802908D02*
D03*
Y814592D02*
D03*
X499750Y909592D02*
D03*
Y897908D02*
D03*
D19*
X518908Y738250D02*
D03*
X530592D02*
D03*
X518908Y710000D02*
D03*
X530592D02*
D03*
X518908Y720000D02*
D03*
X530592D02*
D03*
X645342Y752500D02*
D03*
X633658D02*
D03*
X645342Y761500D02*
D03*
X633658D02*
D03*
X569408Y780500D02*
D03*
X581092D02*
D03*
X590908D02*
D03*
X602592D02*
D03*
D20*
X556750Y819550D02*
D03*
X573250D02*
D03*
Y808250D02*
D03*
X556750D02*
D03*
D21*
X515000Y932500D02*
D03*
Y913500D02*
D03*
X536000Y923000D02*
D03*
D22*
X480000Y999500D02*
D03*
Y1014000D02*
D03*
X444000D02*
D03*
Y999500D02*
D03*
D23*
X524750Y898000D02*
D03*
X511750D02*
D03*
X552000D02*
D03*
X539000D02*
D03*
X794250Y680000D02*
D03*
X807250D02*
D03*
D24*
X706000Y737000D02*
D03*
Y752500D02*
D03*
X706500Y662000D02*
D03*
Y677500D02*
D03*
D25*
X759100Y796250D02*
D03*
Y808950D02*
D03*
Y821650D02*
D03*
X728400D02*
D03*
Y808950D02*
D03*
Y796250D02*
D03*
D26*
X743750Y824950D02*
D03*
D27*
Y794250D02*
D03*
D28*
X810000Y718500D02*
D03*
X794500D02*
D03*
X519250Y481890D02*
D03*
X534750D02*
D03*
X519250Y533890D02*
D03*
X534750D02*
D03*
X746750Y672000D02*
D03*
X762250D02*
D03*
X734250D02*
D03*
X718750D02*
D03*
D29*
X852750Y788700D02*
D03*
Y733300D02*
D03*
D30*
X851250Y761000D02*
D03*
D31*
X614750Y487500D02*
D03*
Y521500D02*
D03*
D32*
X650250Y529150D02*
D03*
Y503750D02*
D03*
Y478350D02*
D03*
D33*
X737500Y503750D02*
D03*
D34*
X700250Y577500D02*
D03*
X666250D02*
D03*
D35*
X501000Y533890D02*
D03*
Y516890D02*
D03*
D36*
X526500Y508250D02*
D03*
D37*
X520000Y498500D02*
D03*
X526500D02*
D03*
X533000D02*
D03*
X520000Y518000D02*
D03*
X526500D02*
D03*
X533000D02*
D03*
D38*
X744000Y717500D02*
D03*
D39*
X770250Y744000D02*
D03*
X717750D02*
D03*
Y691000D02*
D03*
X770250D02*
D03*
D40*
Y698750D02*
D03*
Y706250D02*
D03*
Y713750D02*
D03*
Y721250D02*
D03*
Y728750D02*
D03*
Y736250D02*
D03*
X717750D02*
D03*
Y728750D02*
D03*
Y721250D02*
D03*
Y713750D02*
D03*
Y706250D02*
D03*
Y698750D02*
D03*
D41*
X762130Y743750D02*
D03*
X754880D02*
D03*
X747630D02*
D03*
X740370D02*
D03*
X733120D02*
D03*
X725870D02*
D03*
X762130Y691250D02*
D03*
X754880D02*
D03*
X747630D02*
D03*
X740370D02*
D03*
X733120D02*
D03*
X725870D02*
D03*
D42*
X606000Y718250D02*
X611500D01*
X573750Y733250D02*
Y745500D01*
X583750Y689000D02*
Y696000D01*
X593750Y691000D02*
X601500Y683250D01*
X612750Y703250D02*
X615250Y700750D01*
X573750Y745500D02*
Y751000D01*
X578750Y690500D02*
Y696000D01*
X537250Y718250D02*
X556500D01*
X530592Y738250D02*
X556500D01*
X593750Y691000D02*
Y696000D01*
X706250Y688250D02*
Y690750D01*
X706000Y691000D02*
X706250Y690750D01*
Y687750D02*
Y688250D01*
Y687750D02*
X707750Y686250D01*
X706000Y691000D02*
X713750Y698750D01*
X618950Y725700D02*
X624500D01*
X611500Y718250D02*
X618950Y725700D01*
X617800Y715800D02*
X624500D01*
X615250Y713250D02*
X617800Y715800D01*
X606000Y713250D02*
X615250D01*
X622000Y708250D02*
X624500Y705750D01*
X611000Y708250D02*
X622000D01*
X606000Y708250D02*
X611000Y708250D01*
X501000Y516890D02*
X502110Y518000D01*
X505110D02*
X520000D01*
X495500Y494500D02*
X519000D01*
X520000Y495500D01*
Y498500D01*
X552000Y898000D02*
X562250D01*
X499750Y909592D02*
Y918000D01*
X536000Y923000D02*
X550500D01*
X500500Y932500D02*
X515000D01*
X807250Y680000D02*
X817000D01*
X808250Y692750D02*
X816000D01*
X808000Y692500D02*
X808250Y692750D01*
X789250D02*
X796750D01*
X797000Y692500D01*
X817500Y718500D02*
X821000Y715000D01*
X810000Y718500D02*
X817500D01*
X770250Y728750D02*
X780500D01*
X770250Y744000D02*
X780500D01*
X762130Y749630D02*
X765500Y753000D01*
X762130Y743750D02*
Y749630D01*
X694750Y737000D02*
X706000D01*
X712500Y691000D02*
X717750D01*
X713750Y698750D02*
X717750D01*
X770250Y682630D02*
Y691000D01*
X762130Y682880D02*
Y691250D01*
X754880Y682880D02*
Y691250D01*
X606000Y703250D02*
X612750D01*
X335280Y937260D02*
X347980Y949960D01*
X373380D01*
X386080Y937260D01*
X373380Y924560D02*
X386080Y911860D01*
X347980Y924560D02*
X373380D01*
X335280Y911860D02*
X347980Y924560D01*
X373380Y899160D02*
X386080Y886460D01*
X347980Y899160D02*
X373380D01*
X335280Y886460D02*
X347980Y899160D01*
X373380Y848360D02*
X386080Y835660D01*
X347980Y848360D02*
X373380D01*
X335280Y835660D02*
X347980Y848360D01*
X373380Y797560D02*
X386080Y784860D01*
X347980Y797560D02*
X373380D01*
X335280Y784860D02*
X347980Y797560D01*
X373380Y772160D02*
X386080Y759460D01*
X347980Y772160D02*
X373380D01*
X335280Y759460D02*
X347980Y772160D01*
X373380Y746760D02*
X386080Y734060D01*
X347980Y746760D02*
X373380D01*
X335280Y734060D02*
X347980Y746760D01*
X373380Y721360D02*
X386080Y708660D01*
X347980Y721360D02*
X373380D01*
X335280Y708660D02*
X347980Y721360D01*
X373380Y670560D02*
X386080Y657860D01*
X347980Y670560D02*
X373380D01*
X335280Y657860D02*
X347980Y670560D01*
X373380Y568960D02*
X386080Y556260D01*
X347980Y568960D02*
X373380D01*
X335280Y556260D02*
X347980Y568960D01*
X373380Y543560D02*
X386080Y530860D01*
X347980Y543560D02*
X373380D01*
X335280Y530860D02*
X347980Y543560D01*
X530592Y720000D02*
X535500D01*
X537250Y718250D01*
X486250Y897750D02*
Y993500D01*
X492000Y1014250D02*
X497500Y1008750D01*
X428250D02*
X433750Y1014250D01*
X563750Y745500D02*
Y752658D01*
X557000Y759408D02*
X563750Y752658D01*
X557000Y771092D02*
Y808000D01*
X556750Y808250D02*
X557000Y808000D01*
X578592Y802908D02*
X583250D01*
X573250Y808250D02*
X578592Y802908D01*
X583250D02*
X591658D01*
X583250Y814592D02*
X591658D01*
X556750Y819550D02*
Y829750D01*
X581092Y780500D02*
Y789158D01*
X590908Y780500D02*
Y789158D01*
X588750Y745500D02*
Y778342D01*
X590908Y780500D01*
X583750Y745500D02*
Y777842D01*
X581092Y780500D02*
X583750Y777842D01*
X598750Y745500D02*
Y751158D01*
X606250Y758658D01*
X563750Y678000D02*
X568908D01*
X571500Y675408D01*
Y665908D02*
Y675408D01*
X573934Y677842D01*
X579342D01*
X579500Y678000D01*
Y684750D01*
X583750Y689000D01*
X601500Y678092D02*
Y683250D01*
X714250Y728750D02*
X717750D01*
X706000Y737000D02*
X714250Y728750D01*
X530592Y731842D02*
Y738250D01*
X528500Y729750D02*
X530592Y731842D01*
X528500Y729750D02*
X530592Y727658D01*
Y720000D02*
Y727658D01*
X511750Y738250D02*
X518908D01*
X853450Y788750D02*
X853500Y788700D01*
X695500Y752500D02*
X706000D01*
X563750Y678000D02*
Y678250D01*
X576750Y688500D02*
X578750Y690500D01*
X563750Y678250D02*
X574000Y688500D01*
X576750D01*
X601500Y678092D02*
X611408D01*
X567500Y757250D02*
X573750Y751000D01*
X567500Y757250D02*
Y759500D01*
X633658Y761500D02*
Y770158D01*
X606250Y758658D02*
X609408D01*
X615750Y765000D01*
X619250D01*
X335280Y632460D02*
X347980Y645160D01*
X373380D01*
X335280Y581660D02*
X347980Y594360D01*
X373380D01*
Y645160D02*
X386080Y632460D01*
X373380Y594360D02*
X386080Y581660D01*
X529500Y586250D02*
X530000Y585750D01*
X506750Y586250D02*
X529500D01*
X542250Y585750D02*
X542500Y586000D01*
X566500D01*
X433750Y1014250D02*
X445750D01*
X480000D02*
X492000D01*
X571250Y730750D02*
X573750Y733250D01*
X707750Y686250D02*
X712500Y691000D01*
X444000Y999750D02*
X480000D01*
X486250Y993500D01*
X891286Y370840D02*
Y615721D01*
Y776199D02*
Y1021080D01*
X886206Y386080D02*
X891286Y370840D01*
X896366Y386080D01*
X886206Y1005840D02*
X891286Y1021080D01*
X896366Y1005840D01*
X888746Y370840D02*
X893826D01*
X888746Y1021080D02*
X893826D01*
X312420Y1038987D02*
X514120D01*
X672060D02*
X873760D01*
X312420D02*
X327660Y1044067D01*
X312420Y1038987D02*
X327660Y1033907D01*
X858520Y1044067D02*
X873760Y1038987D01*
X858520Y1033907D02*
X873760Y1038987D01*
X312420Y1036447D02*
Y1041527D01*
X873760Y1036447D02*
Y1041527D01*
D43*
X615250Y688000D02*
Y700750D01*
X684500Y696250D02*
X686500Y694250D01*
Y685500D02*
Y694250D01*
X733000Y765500D02*
Y767500D01*
X686500Y685500D02*
X690537D01*
X644250Y726250D02*
X646750D01*
X645500Y737250D02*
X654000D01*
X615250Y688000D02*
X617750Y685500D01*
X675500Y696250D02*
X676500Y695250D01*
Y685500D02*
Y695250D01*
X669500Y685500D02*
X676500D01*
X669500Y677000D02*
Y685500D01*
X667500Y675000D02*
X669500Y677000D01*
X652500Y685500D02*
X659500D01*
X652500D02*
X652500Y685500D01*
Y679500D02*
Y685500D01*
Y679500D02*
X653500Y678500D01*
Y675000D02*
Y678500D01*
X642500Y677000D02*
X644500Y675000D01*
X642500Y677000D02*
Y685500D01*
X633500D02*
X642500D01*
X633200Y665800D02*
X635000Y664000D01*
X624250Y665800D02*
X633200D01*
X613750Y663750D02*
X615800Y665800D01*
X624250D01*
Y675700D02*
X624500Y675950D01*
Y685500D01*
X617750D02*
X624500D01*
X652500D02*
Y692750D01*
X648500Y696750D02*
X652500Y692750D01*
X624500Y696750D02*
X648500D01*
X634250Y704750D02*
Y710250D01*
X636250Y712250D01*
Y715500D01*
X635950Y715800D02*
X636250Y715500D01*
X624500Y715800D02*
X635950D01*
X634250Y735000D02*
X636250Y737000D01*
X634250Y726250D02*
Y735000D01*
X633700Y725700D02*
X634250Y726250D01*
X624500Y725700D02*
X633700D01*
X613750Y650750D02*
X623908D01*
X624000Y650842D01*
X630842D01*
X635000Y655000D01*
X646000D01*
X624000Y630500D02*
Y639158D01*
X655000Y646342D02*
Y655000D01*
X667500Y656250D02*
Y666000D01*
X644250Y704750D02*
X651000D01*
X613750Y640750D02*
Y650750D01*
D44*
X548500Y703250D02*
X556500D01*
X568750Y692811D02*
Y696000D01*
X573750Y693117D02*
Y696000D01*
X540500Y733250D02*
X556500D01*
X544000Y713250D02*
X556500D01*
X547750Y708250D02*
X556500D01*
X588750Y689750D02*
Y696000D01*
X561500Y693750D02*
X563750Y696000D01*
X544750Y728250D02*
X556500D01*
X547250Y723250D02*
X556500D01*
X542750Y697500D02*
X548500Y703250D01*
X542000Y702500D02*
X547750Y708250D01*
X485750Y693750D02*
X561500D01*
X609500Y723250D02*
X626750Y740500D01*
X606000Y723250D02*
X609500D01*
X609750Y728250D02*
X623500Y742000D01*
X606000Y728250D02*
X609750D01*
X610439Y733250D02*
X617500Y740311D01*
X606000Y733250D02*
X610439D01*
X610000Y738250D02*
X611500Y739750D01*
X606000Y738250D02*
X610000D01*
X776250Y698750D02*
X778500Y696500D01*
X783916Y687584D02*
Y701084D01*
X770250Y698750D02*
X776250D01*
X778750Y706250D02*
X783916Y701084D01*
X791500Y680000D02*
X794250D01*
X783916Y687584D02*
X791500Y680000D01*
X770250Y706250D02*
X778750D01*
X776000Y713750D02*
X778750Y711000D01*
X770250Y713750D02*
X776000D01*
X530592Y710000D02*
X531092Y709500D01*
X540250D01*
X524750Y898000D02*
X539000D01*
X486250Y897750D02*
X499592D01*
X499750Y897908D01*
X511658D01*
X511750Y898000D01*
Y910250D01*
X515000Y913500D01*
X444000Y999750D02*
X444250Y1000000D01*
X576750Y754250D02*
Y758658D01*
Y754250D02*
X578750Y752250D01*
Y745500D02*
Y752250D01*
X593750Y745500D02*
Y756658D01*
X595750Y758658D01*
X623500Y742000D02*
Y757750D01*
X627250Y761500D01*
X633658D01*
X626750Y740500D02*
Y745592D01*
X633658Y752500D01*
X590500Y681000D02*
Y688000D01*
X588750Y689750D02*
X590500Y688000D01*
X540250Y709500D02*
X544000Y713250D01*
X565190Y689250D02*
X568750Y692811D01*
X547250Y723250D02*
X547250Y723250D01*
X539750Y723250D02*
X544750Y728250D01*
X565383Y684750D02*
X573750Y693117D01*
X539000Y886250D02*
Y898000D01*
X428090Y708660D02*
X444750Y692000D01*
X467750D01*
X411480Y708660D02*
X428090D01*
X467750Y692000D02*
X484000D01*
X485750Y693750D01*
X399000Y695740D02*
Y740500D01*
Y695740D02*
X411480Y683260D01*
X406000Y747500D02*
X420250D01*
X399000Y740500D02*
X406000Y747500D01*
X465250Y702500D02*
X474250D01*
X420250Y747500D02*
X465250Y702500D01*
X474250D02*
X542000D01*
X556500Y708250D02*
X556500Y708250D01*
X487500Y822500D02*
X533750Y868750D01*
X448040Y697500D02*
X480500D01*
X411480Y734060D02*
X448040Y697500D01*
X480500D02*
X542750D01*
X492500Y817500D02*
X538750Y863750D01*
X617500Y740311D02*
Y745908D01*
X611500Y739750D02*
Y751592D01*
X617500Y757592D01*
X482500Y827500D02*
X528750Y873750D01*
X508772Y684750D02*
X565383D01*
X508750Y684772D02*
X508762Y684784D01*
X508750Y684772D02*
X508772Y684750D01*
X502500Y807500D02*
X547500Y852500D01*
X673900D01*
X708250Y886850D01*
X490750Y689250D02*
X565190D01*
X497500Y812500D02*
X543250Y858250D01*
X574750D01*
X682850Y912250D02*
Y914352D01*
X528750Y873750D02*
X568750D01*
X533750Y868750D02*
X570000D01*
X538750Y863750D02*
X572500D01*
X568750Y873750D02*
X637000Y942000D01*
X729300D01*
X759050Y912250D01*
X570000Y868750D02*
X638000Y936750D01*
X709150D01*
X733650Y912250D01*
X572500Y863750D02*
X640250Y931500D01*
X689000D01*
X708250Y912250D01*
X574750Y858250D02*
X642750Y926250D01*
X670952D01*
X682850Y914352D01*
X481750Y680250D02*
X490750Y689250D01*
X411480Y581660D02*
X457410D01*
X481750Y606000D01*
Y680250D01*
X542250Y598750D02*
Y623750D01*
X386080Y632460D02*
X399040Y619500D01*
X419750D01*
X490250Y608250D02*
X530000D01*
X451250Y569250D02*
X490250Y608250D01*
X398490Y569250D02*
X451250D01*
X386080Y581660D02*
X398490Y569250D01*
X530000Y598750D02*
Y608250D01*
Y598750D02*
X530000Y598750D01*
X427750Y611500D02*
X453750D01*
X419750Y619500D02*
X427750Y611500D01*
X873760Y370840D02*
Y1021080D01*
X312420D02*
X873760D01*
X312420Y370840D02*
Y1021080D01*
Y370840D02*
X873760D01*
D45*
X851250Y761000D02*
X851750D01*
X818750D02*
X851250D01*
X794000Y736250D02*
X818750Y761000D01*
X690537Y685500D02*
X711287Y706250D01*
X714250D01*
X773750Y736250D02*
X794000D01*
X646750Y726250D02*
X654250D01*
X659250Y721250D01*
X645250Y715500D02*
X653500D01*
X659250Y721250D01*
X714000Y721250D01*
X733000Y767500D02*
Y771000D01*
X728000Y776000D02*
X733000Y771000D01*
X755000Y771000D02*
X760000Y776000D01*
X755000Y768250D02*
Y771000D01*
X701000Y813000D02*
X709700Y821700D01*
X701000Y784750D02*
Y813000D01*
Y784750D02*
X709750Y776000D01*
X728000D01*
X775500Y809000D02*
X783000Y801500D01*
X760000Y776000D02*
X776000D01*
X783000Y783000D01*
Y801500D01*
X709700Y821700D02*
X728400D01*
X759100Y809000D02*
X775500D01*
D46*
X711750Y682750D02*
X721500D01*
X706500Y677500D02*
X711750Y682750D01*
X501000Y533890D02*
Y545250D01*
X526500Y508250D02*
Y518000D01*
Y498500D02*
Y508250D01*
X808000Y705500D02*
X808000Y705500D01*
X797000Y705500D02*
X808000D01*
X794500Y718500D02*
X797000Y716000D01*
Y705500D02*
Y716000D01*
X781000Y718500D02*
X794500D01*
X778250Y721250D02*
X781000Y718500D01*
X770250Y721250D02*
X778250D01*
X746750Y661000D02*
Y672000D01*
X734250Y661000D02*
Y672000D01*
X696500Y672750D02*
X701250Y677500D01*
X706500D01*
Y651000D02*
Y662000D01*
X725870Y687120D02*
Y691250D01*
X721500Y682750D02*
X725870Y687120D01*
X718750Y661000D02*
Y672000D01*
X762250Y661000D02*
Y672000D01*
X746750D02*
X747630Y672880D01*
Y691250D01*
X733120Y673130D02*
X734250Y672000D01*
X733120Y673130D02*
Y691250D01*
D47*
X755000Y765500D02*
Y768250D01*
X754880Y743750D02*
Y755380D01*
X733120Y743750D02*
Y755380D01*
D48*
X714000Y721250D02*
X717750Y721250D01*
X770250Y736250D02*
X773750D01*
X714250Y706250D02*
X717750D01*
X707250Y713750D02*
X717750D01*
D49*
X650250Y503750D02*
X737500D01*
D50*
X645250Y737000D02*
X645500Y737250D01*
X754880Y755380D02*
X755000Y755500D01*
X733000Y755500D02*
X733120Y755380D01*
X514750Y720000D02*
X518908D01*
X511750Y723000D02*
X514750Y720000D01*
X511750Y713000D02*
X514750Y710000D01*
X518908D01*
X569408Y780500D02*
Y788158D01*
X602592Y780500D02*
Y788158D01*
X595750Y770342D02*
X606250D01*
X606250Y770342D01*
X569500Y770342D02*
X576750D01*
X606250Y770342D02*
X610092D01*
X614000Y774250D01*
X645342Y761500D02*
X654750D01*
X645342Y752500D02*
X654750D01*
X743750Y778250D02*
Y794250D01*
X740370Y743750D02*
Y747620D01*
X744000Y751250D01*
X747630Y743750D02*
Y747620D01*
X744000Y751250D02*
X747630Y747620D01*
X744000Y751250D02*
Y754500D01*
X759100Y796250D02*
X771000D01*
X759100Y821650D02*
X771000D01*
X743750Y824950D02*
Y836850D01*
X716500Y808950D02*
X728400D01*
X716500Y796250D02*
X728400D01*
X556066Y666316D02*
X563750D01*
X579500Y658632D02*
Y666316D01*
X590500Y658500D02*
Y668000D01*
X601500Y658724D02*
Y666408D01*
X717750Y744000D02*
Y755250D01*
D51*
X335280Y454660D02*
X347980Y467360D01*
X373380D01*
X386080Y454660D01*
X335280Y480060D02*
X347980Y492760D01*
X373380D01*
X386080Y480060D01*
D52*
X822750Y733350D02*
X853450D01*
X822750Y788750D02*
X853450D01*
D53*
X885192Y628417D02*
X887732Y623339D01*
X892810Y618261D01*
X897888D01*
X900427Y620800D01*
Y625878D01*
X897888Y628417D01*
X895349D01*
X892810Y625878D01*
Y618261D01*
X885192Y643652D02*
Y633496D01*
X892810D01*
X890271Y638574D01*
Y641113D01*
X892810Y643652D01*
X897888D01*
X900427Y641113D01*
Y636035D01*
X897888Y633496D01*
X900427Y648731D02*
X897888D01*
Y651270D01*
X900427D01*
Y648731D01*
X887732Y661427D02*
X885192Y663966D01*
Y669044D01*
X887732Y671583D01*
X897888D01*
X900427Y669044D01*
Y663966D01*
X897888Y661427D01*
X887732D01*
X900427Y686818D02*
Y676662D01*
X890271Y686818D01*
X887732D01*
X885192Y684279D01*
Y679201D01*
X887732Y676662D01*
X900427Y699514D02*
X885192D01*
X892810Y691897D01*
Y702054D01*
X900427Y727445D02*
X895349Y722367D01*
X890271D01*
X885192Y727445D01*
X900427Y735063D02*
X890271D01*
Y737602D01*
X892810Y740141D01*
X900427D01*
X892810D01*
X890271Y742680D01*
X892810Y745220D01*
X900427D01*
Y750298D02*
X890271D01*
Y752837D01*
X892810Y755376D01*
X900427D01*
X892810D01*
X890271Y757915D01*
X892810Y760455D01*
X900427D01*
Y765533D02*
X895349Y770611D01*
X890271D01*
X885192Y765533D01*
X526817Y1045080D02*
X516660D01*
Y1037463D01*
X521739Y1040002D01*
X524278D01*
X526817Y1037463D01*
Y1032385D01*
X524278Y1029846D01*
X519199D01*
X516660Y1032385D01*
X542052Y1045080D02*
X536974Y1042541D01*
X531895Y1037463D01*
Y1032385D01*
X534435Y1029846D01*
X539513D01*
X542052Y1032385D01*
Y1034924D01*
X539513Y1037463D01*
X531895D01*
X547130Y1029846D02*
Y1032385D01*
X549670D01*
Y1029846D01*
X547130D01*
X559826D02*
X564905D01*
X562365D01*
Y1045080D01*
X559826Y1042541D01*
X572522D02*
X575061Y1045080D01*
X580140D01*
X582679Y1042541D01*
Y1040002D01*
X580140Y1037463D01*
X577601D01*
X580140D01*
X582679Y1034924D01*
Y1032385D01*
X580140Y1029846D01*
X575061D01*
X572522Y1032385D01*
X595375Y1029846D02*
Y1045080D01*
X587757Y1037463D01*
X597914D01*
X623306Y1029846D02*
X618227Y1034924D01*
Y1040002D01*
X623306Y1045080D01*
X630923Y1029846D02*
Y1040002D01*
X633462D01*
X636002Y1037463D01*
Y1029846D01*
Y1037463D01*
X638541Y1040002D01*
X641080Y1037463D01*
Y1029846D01*
X646158D02*
Y1040002D01*
X648698D01*
X651237Y1037463D01*
Y1029846D01*
Y1037463D01*
X653776Y1040002D01*
X656315Y1037463D01*
Y1029846D01*
X661393D02*
X666472Y1034924D01*
Y1040002D01*
X661393Y1045080D01*
D54*
X360680Y454660D02*
D03*
X411480D02*
D03*
D55*
X335280D02*
D03*
X360680Y480060D02*
D03*
X335280D02*
D03*
X360680Y505460D02*
D03*
X335280D02*
D03*
X360680Y530860D02*
D03*
X335280D02*
D03*
X360680Y556260D02*
D03*
X335280D02*
D03*
X360680Y581660D02*
D03*
X335280D02*
D03*
X360680Y607060D02*
D03*
X335280D02*
D03*
X360680Y632460D02*
D03*
X335280D02*
D03*
X360680Y657860D02*
D03*
X335280D02*
D03*
X360680Y683260D02*
D03*
X335280D02*
D03*
X360680Y708660D02*
D03*
X335280D02*
D03*
X360680Y734060D02*
D03*
X335280D02*
D03*
X360680Y759460D02*
D03*
X335280D02*
D03*
X360680Y784860D02*
D03*
X335280D02*
D03*
X360680Y810260D02*
D03*
X335280D02*
D03*
X360680Y835660D02*
D03*
X335280D02*
D03*
X360680Y861060D02*
D03*
X335280D02*
D03*
X360680Y886460D02*
D03*
X335280D02*
D03*
X360680Y911860D02*
D03*
X335280D02*
D03*
X360680Y937260D02*
D03*
X335280D02*
D03*
X386080Y454660D02*
D03*
X411480Y480060D02*
D03*
X386080D02*
D03*
X411480Y505460D02*
D03*
X386080D02*
D03*
X411480Y530860D02*
D03*
X386080D02*
D03*
X411480Y556260D02*
D03*
X386080D02*
D03*
X411480Y581660D02*
D03*
X386080D02*
D03*
X411480Y607060D02*
D03*
X386080D02*
D03*
X411480Y632460D02*
D03*
X386080D02*
D03*
X411480Y657860D02*
D03*
X386080D02*
D03*
X411480Y683260D02*
D03*
X386080D02*
D03*
X411480Y708660D02*
D03*
X386080D02*
D03*
X411480Y734060D02*
D03*
X386080D02*
D03*
X411480Y759460D02*
D03*
X386080D02*
D03*
X411480Y784860D02*
D03*
X386080D02*
D03*
X411480Y810260D02*
D03*
X386080D02*
D03*
X411480Y835660D02*
D03*
X386080D02*
D03*
X411480Y861060D02*
D03*
X386080D02*
D03*
X411480Y886460D02*
D03*
X386080D02*
D03*
X411480Y911860D02*
D03*
X386080D02*
D03*
X411480Y937260D02*
D03*
X386080D02*
D03*
X759050Y912250D02*
D03*
Y886850D02*
D03*
X733650Y912250D02*
D03*
Y886850D02*
D03*
X708250Y912250D02*
D03*
Y886850D02*
D03*
X682850Y912250D02*
D03*
Y886850D02*
D03*
X657450Y912250D02*
D03*
D56*
Y886850D02*
D03*
D57*
X837979Y406020D02*
D03*
Y985980D02*
D03*
X577980Y406020D02*
D03*
Y985980D02*
D03*
X347980D02*
D03*
Y406020D02*
D03*
D58*
X822750Y733350D02*
D03*
X706250Y688250D02*
D03*
X606250Y464750D02*
D03*
X615000D02*
D03*
X623750D02*
D03*
X726000Y589250D02*
D03*
Y580500D02*
D03*
Y571750D02*
D03*
X643750Y568250D02*
D03*
Y577000D02*
D03*
Y585750D02*
D03*
X605250Y545250D02*
D03*
X614000D02*
D03*
X622750D02*
D03*
X652250Y597500D02*
D03*
X661000D02*
D03*
X669750D02*
D03*
X595750Y535750D02*
D03*
Y527000D02*
D03*
Y518250D02*
D03*
X726000Y598000D02*
D03*
X717250D02*
D03*
X708500D02*
D03*
X699750D02*
D03*
X691000D02*
D03*
X596000Y477250D02*
D03*
Y486000D02*
D03*
Y494750D02*
D03*
X501000Y545250D02*
D03*
X495500Y494500D02*
D03*
X562250Y898000D02*
D03*
X499750Y918000D02*
D03*
X550500Y923000D02*
D03*
X500500Y932500D02*
D03*
X817000Y680000D02*
D03*
X816000Y692750D02*
D03*
X789250D02*
D03*
X821000Y715000D02*
D03*
X780500Y728750D02*
D03*
Y744000D02*
D03*
X765500Y753000D02*
D03*
X746750Y661000D02*
D03*
X734250D02*
D03*
X696500Y672750D02*
D03*
X654000Y737250D02*
D03*
X694750Y737000D02*
D03*
X706500Y651000D02*
D03*
X718750Y661000D02*
D03*
X762250D02*
D03*
X770250Y682630D02*
D03*
X762130Y682880D02*
D03*
X754880D02*
D03*
X428250Y1008750D02*
D03*
X497500D02*
D03*
X511750Y723000D02*
D03*
Y713000D02*
D03*
X591658Y802908D02*
D03*
Y814592D02*
D03*
X556750Y829750D02*
D03*
X569408Y788158D02*
D03*
X602592D02*
D03*
X581092Y789158D02*
D03*
X590908D02*
D03*
X569500Y770342D02*
D03*
X614000Y774250D02*
D03*
X654750Y761500D02*
D03*
Y752500D02*
D03*
X743750Y778250D02*
D03*
X744000Y754500D02*
D03*
X771000Y796250D02*
D03*
Y821650D02*
D03*
X743750Y836850D02*
D03*
X716500Y808950D02*
D03*
Y796250D02*
D03*
X571500Y665908D02*
D03*
X556066Y666316D02*
D03*
X579500Y658632D02*
D03*
X601500Y658724D02*
D03*
X590500Y658500D02*
D03*
X624000Y630500D02*
D03*
X655000Y646342D02*
D03*
X667500Y656250D02*
D03*
X651000Y704750D02*
D03*
X707250Y713750D02*
D03*
X717750Y755250D02*
D03*
X528500Y729750D02*
D03*
X511750Y738250D02*
D03*
X822750Y788750D02*
D03*
X695500Y752500D02*
D03*
X611408Y678092D02*
D03*
X613750Y640750D02*
D03*
X567500Y759500D02*
D03*
X633658Y770158D02*
D03*
X619250Y765000D02*
D03*
X506750Y586250D02*
D03*
X566500Y586000D02*
D03*
D59*
X812750Y741500D02*
D03*
X817626Y746768D02*
D03*
X778500Y696500D02*
D03*
X778750Y711000D02*
D03*
X486250Y897750D02*
D03*
X743750Y762750D02*
D03*
Y770000D02*
D03*
X540500Y733250D02*
D03*
X801500Y730750D02*
D03*
X807000Y736000D02*
D03*
X821436Y740672D02*
D03*
X796000Y749250D02*
D03*
X801500Y755500D02*
D03*
X807000Y762250D02*
D03*
X813500Y768750D02*
D03*
X820928Y771890D02*
D03*
X822706Y780018D02*
D03*
X775250Y756250D02*
D03*
X783000Y762750D02*
D03*
X791500Y768750D02*
D03*
X795250Y777750D02*
D03*
X795750Y788500D02*
D03*
Y799250D02*
D03*
Y809750D02*
D03*
X795000Y820500D02*
D03*
X791750Y831250D02*
D03*
X785500Y839000D02*
D03*
X776500Y844000D02*
D03*
X767250Y844500D02*
D03*
X758750Y844000D02*
D03*
X751250Y841500D02*
D03*
X663194Y734822D02*
D03*
X671068Y733044D02*
D03*
X678942Y731266D02*
D03*
X686562Y729996D02*
D03*
X659250Y706250D02*
D03*
X667000Y708250D02*
D03*
X675000Y709500D02*
D03*
X683000Y710500D02*
D03*
X691250Y711750D02*
D03*
X699000Y712750D02*
D03*
X789000Y745500D02*
D03*
X794750Y728750D02*
D03*
X788000Y728250D02*
D03*
X736500Y841000D02*
D03*
X701000Y841250D02*
D03*
X693500Y835000D02*
D03*
X688500Y826750D02*
D03*
X687250Y816000D02*
D03*
X687000Y805750D02*
D03*
X687250Y795750D02*
D03*
X687500Y786250D02*
D03*
X690000Y777250D02*
D03*
X696250Y771000D02*
D03*
X704250Y766750D02*
D03*
X712000Y763000D02*
D03*
X547250Y723250D02*
D03*
X539750D02*
D03*
X729250Y844000D02*
D03*
X720000Y845000D02*
D03*
X710500Y844750D02*
D03*
X539000Y886250D02*
D03*
X467750Y692000D02*
D03*
X474250Y702500D02*
D03*
X487500Y822500D02*
D03*
X480500Y697500D02*
D03*
X492500Y817500D02*
D03*
X482500Y827500D02*
D03*
X695452Y728726D02*
D03*
X704596Y728472D02*
D03*
X508750Y684772D02*
D03*
X502500Y807500D02*
D03*
D60*
X571250Y730750D02*
D03*
Y720750D02*
D03*
Y710750D02*
D03*
X581250D02*
D03*
X591250D02*
D03*
Y720750D02*
D03*
Y730750D02*
D03*
X581250D02*
D03*
Y720750D02*
D03*
D61*
X531580Y508250D02*
D03*
X521420D02*
D03*
D62*
X732000Y729500D02*
D03*
Y717500D02*
D03*
Y705500D02*
D03*
X756000D02*
D03*
Y717500D02*
D03*
Y729500D02*
D03*
X744000D02*
D03*
Y705500D02*
D03*
Y717500D02*
D03*
D63*
X513250Y545750D02*
D03*
X519250Y470000D02*
D03*
X522500Y545750D02*
D03*
X533750Y546250D02*
D03*
X542000D02*
D03*
X540000Y469250D02*
D03*
X532000D02*
D03*
X507750Y481750D02*
D03*
X508000Y470500D02*
D03*
D64*
X490750Y689250D02*
D03*
X497500Y812500D02*
D03*
X542250Y623750D02*
D03*
X530000Y608250D02*
D03*
X453750Y611500D02*
D03*
M02*
