G04 Layer_Color=128*
%FSLAX44Y44*%
%MOMM*%
G71*
G01*
G75*
%ADD42C,0.2540*%
%ADD44C,0.1778*%
%ADD53C,0.1524*%
%ADD133C,0.0508*%
D42*
X891286Y370840D02*
Y615721D01*
Y776199D02*
Y1021080D01*
X886206Y386080D02*
X891286Y370840D01*
X896366Y386080D01*
X886206Y1005840D02*
X891286Y1021080D01*
X896366Y1005840D01*
X888746Y370840D02*
X893826D01*
X888746Y1021080D02*
X893826D01*
X312420Y1038987D02*
X514120D01*
X672060D02*
X873760D01*
X312420D02*
X327660Y1044067D01*
X312420Y1038987D02*
X327660Y1033907D01*
X858520Y1044067D02*
X873760Y1038987D01*
X858520Y1033907D02*
X873760Y1038987D01*
X312420Y1036447D02*
Y1041527D01*
X873760Y1036447D02*
Y1041527D01*
D44*
Y370840D02*
Y1021080D01*
X312420D02*
X873760D01*
X312420Y370840D02*
Y1021080D01*
Y370840D02*
X873760D01*
D53*
X885192Y628417D02*
X887732Y623339D01*
X892810Y618261D01*
X897888D01*
X900427Y620800D01*
Y625878D01*
X897888Y628417D01*
X895349D01*
X892810Y625878D01*
Y618261D01*
X885192Y643652D02*
Y633496D01*
X892810D01*
X890271Y638574D01*
Y641113D01*
X892810Y643652D01*
X897888D01*
X900427Y641113D01*
Y636035D01*
X897888Y633496D01*
X900427Y648731D02*
X897888D01*
Y651270D01*
X900427D01*
Y648731D01*
X887732Y661427D02*
X885192Y663966D01*
Y669044D01*
X887732Y671583D01*
X897888D01*
X900427Y669044D01*
Y663966D01*
X897888Y661427D01*
X887732D01*
X900427Y686818D02*
Y676662D01*
X890271Y686818D01*
X887732D01*
X885192Y684279D01*
Y679201D01*
X887732Y676662D01*
X900427Y699514D02*
X885192D01*
X892810Y691897D01*
Y702054D01*
X900427Y727445D02*
X895349Y722367D01*
X890271D01*
X885192Y727445D01*
X900427Y735063D02*
X890271D01*
Y737602D01*
X892810Y740141D01*
X900427D01*
X892810D01*
X890271Y742680D01*
X892810Y745220D01*
X900427D01*
Y750298D02*
X890271D01*
Y752837D01*
X892810Y755376D01*
X900427D01*
X892810D01*
X890271Y757915D01*
X892810Y760455D01*
X900427D01*
Y765533D02*
X895349Y770611D01*
X890271D01*
X885192Y765533D01*
X526817Y1045080D02*
X516660D01*
Y1037463D01*
X521739Y1040002D01*
X524278D01*
X526817Y1037463D01*
Y1032385D01*
X524278Y1029846D01*
X519199D01*
X516660Y1032385D01*
X542052Y1045080D02*
X536974Y1042541D01*
X531895Y1037463D01*
Y1032385D01*
X534435Y1029846D01*
X539513D01*
X542052Y1032385D01*
Y1034924D01*
X539513Y1037463D01*
X531895D01*
X547130Y1029846D02*
Y1032385D01*
X549670D01*
Y1029846D01*
X547130D01*
X559826D02*
X564905D01*
X562365D01*
Y1045080D01*
X559826Y1042541D01*
X572522D02*
X575061Y1045080D01*
X580140D01*
X582679Y1042541D01*
Y1040002D01*
X580140Y1037463D01*
X577601D01*
X580140D01*
X582679Y1034924D01*
Y1032385D01*
X580140Y1029846D01*
X575061D01*
X572522Y1032385D01*
X595375Y1029846D02*
Y1045080D01*
X587757Y1037463D01*
X597914D01*
X623306Y1029846D02*
X618227Y1034924D01*
Y1040002D01*
X623306Y1045080D01*
X630923Y1029846D02*
Y1040002D01*
X633462D01*
X636002Y1037463D01*
Y1029846D01*
Y1037463D01*
X638541Y1040002D01*
X641080Y1037463D01*
Y1029846D01*
X646158D02*
Y1040002D01*
X648698D01*
X651237Y1037463D01*
Y1029846D01*
Y1037463D01*
X653776Y1040002D01*
X656315Y1037463D01*
Y1029846D01*
X661393D02*
X666472Y1034924D01*
Y1040002D01*
X661393Y1045080D01*
D133*
X356180Y454660D02*
X365180D01*
X360680Y450160D02*
Y459160D01*
X330780Y454660D02*
X339780D01*
X335280Y450160D02*
Y459160D01*
X356180Y480060D02*
X365180D01*
X360680Y475560D02*
Y484560D01*
X330780Y480060D02*
X339780D01*
X335280Y475560D02*
Y484560D01*
X356180Y505460D02*
X365180D01*
X360680Y500960D02*
Y509960D01*
X330780Y505460D02*
X339780D01*
X335280Y500960D02*
Y509960D01*
X356180Y530860D02*
X365180D01*
X360680Y526360D02*
Y535360D01*
X330780Y530860D02*
X339780D01*
X335280Y526360D02*
Y535360D01*
X356180Y556260D02*
X365180D01*
X360680Y551760D02*
Y560760D01*
X330780Y556260D02*
X339780D01*
X335280Y551760D02*
Y560760D01*
X356180Y581660D02*
X365180D01*
X360680Y577160D02*
Y586160D01*
X330780Y581660D02*
X339780D01*
X335280Y577160D02*
Y586160D01*
X356180Y607060D02*
X365180D01*
X360680Y602560D02*
Y611560D01*
X330780Y607060D02*
X339780D01*
X335280Y602560D02*
Y611560D01*
X356180Y632460D02*
X365180D01*
X360680Y627960D02*
Y636960D01*
X330780Y632460D02*
X339780D01*
X335280Y627960D02*
Y636960D01*
X356180Y657860D02*
X365180D01*
X360680Y653360D02*
Y662360D01*
X330780Y657860D02*
X339780D01*
X335280Y653360D02*
Y662360D01*
X356180Y683260D02*
X365180D01*
X360680Y678760D02*
Y687760D01*
X330780Y683260D02*
X339780D01*
X335280Y678760D02*
Y687760D01*
X356180Y708660D02*
X365180D01*
X360680Y704160D02*
Y713160D01*
X330780Y708660D02*
X339780D01*
X335280Y704160D02*
Y713160D01*
X356180Y734060D02*
X365180D01*
X360680Y729560D02*
Y738560D01*
X330780Y734060D02*
X339780D01*
X335280Y729560D02*
Y738560D01*
X356180Y759460D02*
X365180D01*
X360680Y754960D02*
Y763960D01*
X330780Y759460D02*
X339780D01*
X335280Y754960D02*
Y763960D01*
X356180Y784860D02*
X365180D01*
X360680Y780360D02*
Y789360D01*
X330780Y784860D02*
X339780D01*
X335280Y780360D02*
Y789360D01*
X356180Y810260D02*
X365180D01*
X360680Y805760D02*
Y814760D01*
X330780Y810260D02*
X339780D01*
X335280Y805760D02*
Y814760D01*
X356180Y835660D02*
X365180D01*
X360680Y831160D02*
Y840160D01*
X330780Y835660D02*
X339780D01*
X335280Y831160D02*
Y840160D01*
X356180Y861060D02*
X365180D01*
X360680Y856560D02*
Y865560D01*
X330780Y861060D02*
X339780D01*
X335280Y856560D02*
Y865560D01*
X356180Y886460D02*
X365180D01*
X360680Y881960D02*
Y890960D01*
X330780Y886460D02*
X339780D01*
X335280Y881960D02*
Y890960D01*
X356180Y911860D02*
X365180D01*
X360680Y907360D02*
Y916360D01*
X330780Y911860D02*
X339780D01*
X335280Y907360D02*
Y916360D01*
X356180Y937260D02*
X365180D01*
X360680Y932760D02*
Y941760D01*
X330780Y937260D02*
X339780D01*
X335280Y932760D02*
Y941760D01*
X406980Y454660D02*
X415980D01*
X411480Y450160D02*
Y459160D01*
X381580Y454660D02*
X390580D01*
X386080Y450160D02*
Y459160D01*
X406980Y480060D02*
X415980D01*
X411480Y475560D02*
Y484560D01*
X381580Y480060D02*
X390580D01*
X386080Y475560D02*
Y484560D01*
X406980Y505460D02*
X415980D01*
X411480Y500960D02*
Y509960D01*
X381580Y505460D02*
X390580D01*
X386080Y500960D02*
Y509960D01*
X406980Y530860D02*
X415980D01*
X411480Y526360D02*
Y535360D01*
X381580Y530860D02*
X390580D01*
X386080Y526360D02*
Y535360D01*
X406980Y556260D02*
X415980D01*
X411480Y551760D02*
Y560760D01*
X381580Y556260D02*
X390580D01*
X386080Y551760D02*
Y560760D01*
X406980Y581660D02*
X415980D01*
X411480Y577160D02*
Y586160D01*
X381580Y581660D02*
X390580D01*
X386080Y577160D02*
Y586160D01*
X406980Y607060D02*
X415980D01*
X411480Y602560D02*
Y611560D01*
X381580Y607060D02*
X390580D01*
X386080Y602560D02*
Y611560D01*
X406980Y632460D02*
X415980D01*
X411480Y627960D02*
Y636960D01*
X381580Y632460D02*
X390580D01*
X386080Y627960D02*
Y636960D01*
X406980Y657860D02*
X415980D01*
X411480Y653360D02*
Y662360D01*
X381580Y657860D02*
X390580D01*
X386080Y653360D02*
Y662360D01*
X406980Y683260D02*
X415980D01*
X411480Y678760D02*
Y687760D01*
X381580Y683260D02*
X390580D01*
X386080Y678760D02*
Y687760D01*
X406980Y708660D02*
X415980D01*
X411480Y704160D02*
Y713160D01*
X381580Y708660D02*
X390580D01*
X386080Y704160D02*
Y713160D01*
X406980Y734060D02*
X415980D01*
X411480Y729560D02*
Y738560D01*
X381580Y734060D02*
X390580D01*
X386080Y729560D02*
Y738560D01*
X406980Y759460D02*
X415980D01*
X411480Y754960D02*
Y763960D01*
X381580Y759460D02*
X390580D01*
X386080Y754960D02*
Y763960D01*
X406980Y784860D02*
X415980D01*
X411480Y780360D02*
Y789360D01*
X381580Y784860D02*
X390580D01*
X386080Y780360D02*
Y789360D01*
X406980Y810260D02*
X415980D01*
X411480Y805760D02*
Y814760D01*
X381580Y810260D02*
X390580D01*
X386080Y805760D02*
Y814760D01*
X406980Y835660D02*
X415980D01*
X411480Y831160D02*
Y840160D01*
X381580Y835660D02*
X390580D01*
X386080Y831160D02*
Y840160D01*
X406980Y861060D02*
X415980D01*
X411480Y856560D02*
Y865560D01*
X381580Y861060D02*
X390580D01*
X386080Y856560D02*
Y865560D01*
X406980Y886460D02*
X415980D01*
X411480Y881960D02*
Y890960D01*
X381580Y886460D02*
X390580D01*
X386080Y881960D02*
Y890960D01*
X406980Y911860D02*
X415980D01*
X411480Y907360D02*
Y916360D01*
X381580Y911860D02*
X390580D01*
X386080Y907360D02*
Y916360D01*
X406980Y937260D02*
X415980D01*
X411480Y932760D02*
Y941760D01*
X381580Y937260D02*
X390580D01*
X386080Y932760D02*
Y941760D01*
X754550Y912250D02*
X763550D01*
X759050Y907750D02*
Y916750D01*
X754550Y886850D02*
X763550D01*
X759050Y882350D02*
Y891350D01*
X729150Y912250D02*
X738150D01*
X733650Y907750D02*
Y916750D01*
X729150Y886850D02*
X738150D01*
X733650Y882350D02*
Y891350D01*
X703750Y912250D02*
X712750D01*
X708250Y907750D02*
Y916750D01*
X703750Y886850D02*
X712750D01*
X708250Y882350D02*
Y891350D01*
X678350Y912250D02*
X687350D01*
X682850Y907750D02*
Y916750D01*
X678350Y886850D02*
X687350D01*
X682850Y882350D02*
Y891350D01*
X652950Y912250D02*
X661950D01*
X657450Y907750D02*
Y916750D01*
X652950Y886850D02*
X661950D01*
X657450Y882350D02*
Y891350D01*
X824009Y406020D02*
X851949D01*
X837979Y392050D02*
Y419990D01*
X824009Y985980D02*
X851949D01*
X837979Y972010D02*
Y999950D01*
X564010Y406020D02*
X591950D01*
X577980Y392050D02*
Y419990D01*
X564010Y985980D02*
X591950D01*
X577980Y972010D02*
Y999950D01*
X334010Y985980D02*
X361950D01*
X347980Y972010D02*
Y999950D01*
X334010Y406020D02*
X361950D01*
X347980Y392050D02*
Y419990D01*
X820845Y733350D02*
X824655D01*
X822750Y731445D02*
Y735255D01*
X811480Y741500D02*
X814020D01*
X812750Y740230D02*
Y742770D01*
X816356Y746768D02*
X818896D01*
X817626Y745498D02*
Y748038D01*
X704345Y688250D02*
X708155D01*
X706250Y686345D02*
Y690155D01*
X570250Y730750D02*
X572250D01*
X571250Y729750D02*
Y731750D01*
X570250Y720750D02*
X572250D01*
X571250Y719750D02*
Y721750D01*
X570250Y710750D02*
X572250D01*
X571250Y709750D02*
Y711750D01*
X580250Y710750D02*
X582250D01*
X581250Y709750D02*
Y711750D01*
X590250Y710750D02*
X592250D01*
X591250Y709750D02*
Y711750D01*
X590250Y720750D02*
X592250D01*
X591250Y719750D02*
Y721750D01*
X590250Y730750D02*
X592250D01*
X591250Y729750D02*
Y731750D01*
X580250Y730750D02*
X582250D01*
X581250Y729750D02*
Y731750D01*
X580250Y720750D02*
X582250D01*
X581250Y719750D02*
Y721750D01*
X530580Y508250D02*
X532580D01*
X531580Y507250D02*
Y509250D01*
X520420Y508250D02*
X522420D01*
X521420Y507250D02*
Y509250D01*
X730500Y729500D02*
X733500D01*
X732000Y728000D02*
Y731000D01*
X730500Y717500D02*
X733500D01*
X732000Y716000D02*
Y719000D01*
X730500Y705500D02*
X733500D01*
X732000Y704000D02*
Y707000D01*
X754500Y705500D02*
X757500D01*
X756000Y704000D02*
Y707000D01*
X754500Y717500D02*
X757500D01*
X756000Y716000D02*
Y719000D01*
X754500Y729500D02*
X757500D01*
X756000Y728000D02*
Y731000D01*
X742500Y729500D02*
X745500D01*
X744000Y728000D02*
Y731000D01*
X742500Y705500D02*
X745500D01*
X744000Y704000D02*
Y707000D01*
X742500Y717500D02*
X745500D01*
X744000Y716000D02*
Y719000D01*
X604345Y464750D02*
X608155D01*
X606250Y462845D02*
Y466655D01*
X613095Y464750D02*
X616905D01*
X615000Y462845D02*
Y466655D01*
X621845Y464750D02*
X625655D01*
X623750Y462845D02*
Y466655D01*
X724095Y589250D02*
X727905D01*
X726000Y587345D02*
Y591155D01*
X724095Y580500D02*
X727905D01*
X726000Y578595D02*
Y582405D01*
X724095Y571750D02*
X727905D01*
X726000Y569845D02*
Y573655D01*
X510710Y545750D02*
X515790D01*
X513250Y543210D02*
Y548290D01*
X641845Y568250D02*
X645655D01*
X643750Y566345D02*
Y570155D01*
X641845Y577000D02*
X645655D01*
X643750Y575095D02*
Y578905D01*
X641845Y585750D02*
X645655D01*
X643750Y583845D02*
Y587655D01*
X603345Y545250D02*
X607155D01*
X605250Y543345D02*
Y547155D01*
X612095Y545250D02*
X615905D01*
X614000Y543345D02*
Y547155D01*
X620845Y545250D02*
X624655D01*
X622750Y543345D02*
Y547155D01*
X650345Y597500D02*
X654155D01*
X652250Y595595D02*
Y599405D01*
X659095Y597500D02*
X662905D01*
X661000Y595595D02*
Y599405D01*
X667845Y597500D02*
X671655D01*
X669750Y595595D02*
Y599405D01*
X593845Y535750D02*
X597655D01*
X595750Y533845D02*
Y537655D01*
X593845Y527000D02*
X597655D01*
X595750Y525095D02*
Y528905D01*
X593845Y518250D02*
X597655D01*
X595750Y516345D02*
Y520155D01*
X724095Y598000D02*
X727905D01*
X726000Y596095D02*
Y599905D01*
X715345Y598000D02*
X719155D01*
X717250Y596095D02*
Y599905D01*
X706595Y598000D02*
X710405D01*
X708500Y596095D02*
Y599905D01*
X697845Y598000D02*
X701655D01*
X699750Y596095D02*
Y599905D01*
X689095Y598000D02*
X692905D01*
X691000Y596095D02*
Y599905D01*
X594095Y477250D02*
X597905D01*
X596000Y475345D02*
Y479155D01*
X594095Y486000D02*
X597905D01*
X596000Y484095D02*
Y487905D01*
X594095Y494750D02*
X597905D01*
X596000Y492845D02*
Y496655D01*
X516710Y470000D02*
X521790D01*
X519250Y467460D02*
Y472540D01*
X499095Y545250D02*
X502905D01*
X501000Y543345D02*
Y547155D01*
X519960Y545750D02*
X525040D01*
X522500Y543210D02*
Y548290D01*
X531210Y546250D02*
X536290D01*
X533750Y543710D02*
Y548790D01*
X539460Y546250D02*
X544540D01*
X542000Y543710D02*
Y548790D01*
X537460Y469250D02*
X542540D01*
X540000Y466710D02*
Y471790D01*
X529460Y469250D02*
X534540D01*
X532000Y466710D02*
Y471790D01*
X493595Y494500D02*
X497405D01*
X495500Y492595D02*
Y496405D01*
X505210Y481750D02*
X510290D01*
X507750Y479210D02*
Y484290D01*
X505460Y470500D02*
X510540D01*
X508000Y467960D02*
Y473040D01*
X560345Y898000D02*
X564155D01*
X562250Y896095D02*
Y899905D01*
X497845Y918000D02*
X501655D01*
X499750Y916095D02*
Y919905D01*
X548595Y923000D02*
X552405D01*
X550500Y921095D02*
Y924905D01*
X498595Y932500D02*
X502405D01*
X500500Y930595D02*
Y934405D01*
X777230Y696500D02*
X779770D01*
X778500Y695230D02*
Y697770D01*
X777480Y711000D02*
X780020D01*
X778750Y709730D02*
Y712270D01*
X815095Y680000D02*
X818905D01*
X817000Y678095D02*
Y681905D01*
X814095Y692750D02*
X817905D01*
X816000Y690845D02*
Y694655D01*
X787345Y692750D02*
X791155D01*
X789250Y690845D02*
Y694655D01*
X819095Y715000D02*
X822905D01*
X821000Y713095D02*
Y716905D01*
X778595Y728750D02*
X782405D01*
X780500Y726845D02*
Y730655D01*
X778595Y744000D02*
X782405D01*
X780500Y742095D02*
Y745905D01*
X763595Y753000D02*
X767405D01*
X765500Y751095D02*
Y754905D01*
X744845Y661000D02*
X748655D01*
X746750Y659095D02*
Y662905D01*
X732345Y661000D02*
X736155D01*
X734250Y659095D02*
Y662905D01*
X694595Y672750D02*
X698405D01*
X696500Y670845D02*
Y674655D01*
X652095Y737250D02*
X655905D01*
X654000Y735345D02*
Y739155D01*
X692845Y737000D02*
X696655D01*
X694750Y735095D02*
Y738905D01*
X704595Y651000D02*
X708405D01*
X706500Y649095D02*
Y652905D01*
X716845Y661000D02*
X720655D01*
X718750Y659095D02*
Y662905D01*
X760345Y661000D02*
X764155D01*
X762250Y659095D02*
Y662905D01*
X768345Y682630D02*
X772155D01*
X770250Y680725D02*
Y684535D01*
X760225Y682880D02*
X764035D01*
X762130Y680975D02*
Y684785D01*
X752975Y682880D02*
X756785D01*
X754880Y680975D02*
Y684785D01*
X484980Y897750D02*
X487520D01*
X486250Y896480D02*
Y899020D01*
X426345Y1008750D02*
X430155D01*
X428250Y1006845D02*
Y1010655D01*
X495595Y1008750D02*
X499405D01*
X497500Y1006845D02*
Y1010655D01*
X509845Y723000D02*
X513655D01*
X511750Y721095D02*
Y724905D01*
X509845Y713000D02*
X513655D01*
X511750Y711095D02*
Y714905D01*
X589753Y802908D02*
X593563D01*
X591658Y801003D02*
Y804813D01*
X589753Y814592D02*
X593563D01*
X591658Y812687D02*
Y816497D01*
X554845Y829750D02*
X558655D01*
X556750Y827845D02*
Y831655D01*
X567503Y788158D02*
X571313D01*
X569408Y786253D02*
Y790063D01*
X600687Y788158D02*
X604497D01*
X602592Y786253D02*
Y790063D01*
X579187Y789158D02*
X582997D01*
X581092Y787253D02*
Y791063D01*
X589003Y789158D02*
X592813D01*
X590908Y787253D02*
Y791063D01*
X567595Y770342D02*
X571405D01*
X569500Y768437D02*
Y772247D01*
X612095Y774250D02*
X615905D01*
X614000Y772345D02*
Y776155D01*
X652845Y761500D02*
X656655D01*
X654750Y759595D02*
Y763405D01*
X652845Y752500D02*
X656655D01*
X654750Y750595D02*
Y754405D01*
X741845Y778250D02*
X745655D01*
X743750Y776345D02*
Y780155D01*
X742095Y754500D02*
X745905D01*
X744000Y752595D02*
Y756405D01*
X742480Y762750D02*
X745020D01*
X743750Y761480D02*
Y764020D01*
X742480Y770000D02*
X745020D01*
X743750Y768730D02*
Y771270D01*
X769095Y796250D02*
X772905D01*
X771000Y794345D02*
Y798155D01*
X769095Y821650D02*
X772905D01*
X771000Y819745D02*
Y823555D01*
X741845Y836850D02*
X745655D01*
X743750Y834945D02*
Y838755D01*
X714595Y808950D02*
X718405D01*
X716500Y807045D02*
Y810855D01*
X714595Y796250D02*
X718405D01*
X716500Y794345D02*
Y798155D01*
X569595Y665908D02*
X573405D01*
X571500Y664003D02*
Y667813D01*
X554161Y666316D02*
X557971D01*
X556066Y664411D02*
Y668221D01*
X577595Y658632D02*
X581405D01*
X579500Y656727D02*
Y660537D01*
X599595Y658724D02*
X603405D01*
X601500Y656819D02*
Y660629D01*
X588595Y658500D02*
X592405D01*
X590500Y656595D02*
Y660405D01*
X622095Y630500D02*
X625905D01*
X624000Y628595D02*
Y632405D01*
X653095Y646342D02*
X656905D01*
X655000Y644437D02*
Y648247D01*
X665595Y656250D02*
X669405D01*
X667500Y654345D02*
Y658155D01*
X649095Y704750D02*
X652905D01*
X651000Y702845D02*
Y706655D01*
X705345Y713750D02*
X709155D01*
X707250Y711845D02*
Y715655D01*
X715845Y755250D02*
X719655D01*
X717750Y753345D02*
Y757155D01*
X526595Y729750D02*
X530405D01*
X528500Y727845D02*
Y731655D01*
X509845Y738250D02*
X513655D01*
X511750Y736345D02*
Y740155D01*
X539230Y733250D02*
X541770D01*
X540500Y731980D02*
Y734520D01*
X820845Y788750D02*
X824655D01*
X822750Y786845D02*
Y790655D01*
X800230Y730750D02*
X802770D01*
X801500Y729480D02*
Y732020D01*
X805730Y736000D02*
X808270D01*
X807000Y734730D02*
Y737270D01*
X820166Y740672D02*
X822706D01*
X821436Y739402D02*
Y741942D01*
X794730Y749250D02*
X797270D01*
X796000Y747980D02*
Y750520D01*
X800230Y755500D02*
X802770D01*
X801500Y754230D02*
Y756770D01*
X805730Y762250D02*
X808270D01*
X807000Y760980D02*
Y763520D01*
X812230Y768750D02*
X814770D01*
X813500Y767480D02*
Y770020D01*
X819658Y771890D02*
X822198D01*
X820928Y770620D02*
Y773160D01*
X821436Y780018D02*
X823976D01*
X822706Y778748D02*
Y781288D01*
X773980Y756250D02*
X776520D01*
X775250Y754980D02*
Y757520D01*
X781730Y762750D02*
X784270D01*
X783000Y761480D02*
Y764020D01*
X790230Y768750D02*
X792770D01*
X791500Y767480D02*
Y770020D01*
X793980Y777750D02*
X796520D01*
X795250Y776480D02*
Y779020D01*
X794480Y788500D02*
X797020D01*
X795750Y787230D02*
Y789770D01*
X794480Y799250D02*
X797020D01*
X795750Y797980D02*
Y800520D01*
X794480Y809750D02*
X797020D01*
X795750Y808480D02*
Y811020D01*
X793730Y820500D02*
X796270D01*
X795000Y819230D02*
Y821770D01*
X790480Y831250D02*
X793020D01*
X791750Y829980D02*
Y832520D01*
X784230Y839000D02*
X786770D01*
X785500Y837730D02*
Y840270D01*
X775230Y844000D02*
X777770D01*
X776500Y842730D02*
Y845270D01*
X765980Y844500D02*
X768520D01*
X767250Y843230D02*
Y845770D01*
X757480Y844000D02*
X760020D01*
X758750Y842730D02*
Y845270D01*
X749980Y841500D02*
X752520D01*
X751250Y840230D02*
Y842770D01*
X693595Y752500D02*
X697405D01*
X695500Y750595D02*
Y754405D01*
X661924Y734822D02*
X664464D01*
X663194Y733552D02*
Y736092D01*
X669798Y733044D02*
X672338D01*
X671068Y731774D02*
Y734314D01*
X677672Y731266D02*
X680212D01*
X678942Y729996D02*
Y732536D01*
X685292Y729996D02*
X687832D01*
X686562Y728726D02*
Y731266D01*
X657980Y706250D02*
X660520D01*
X659250Y704980D02*
Y707520D01*
X665730Y708250D02*
X668270D01*
X667000Y706980D02*
Y709520D01*
X673730Y709500D02*
X676270D01*
X675000Y708230D02*
Y710770D01*
X681730Y710500D02*
X684270D01*
X683000Y709230D02*
Y711770D01*
X689980Y711750D02*
X692520D01*
X691250Y710480D02*
Y713020D01*
X697730Y712750D02*
X700270D01*
X699000Y711480D02*
Y714020D01*
X787730Y745500D02*
X790270D01*
X789000Y744230D02*
Y746770D01*
X793480Y728750D02*
X796020D01*
X794750Y727480D02*
Y730020D01*
X786730Y728250D02*
X789270D01*
X788000Y726980D02*
Y729520D01*
X735230Y841000D02*
X737770D01*
X736500Y839730D02*
Y842270D01*
X699730Y841250D02*
X702270D01*
X701000Y839980D02*
Y842520D01*
X692230Y835000D02*
X694770D01*
X693500Y833730D02*
Y836270D01*
X687230Y826750D02*
X689770D01*
X688500Y825480D02*
Y828020D01*
X685980Y816000D02*
X688520D01*
X687250Y814730D02*
Y817270D01*
X685730Y805750D02*
X688270D01*
X687000Y804480D02*
Y807020D01*
X685980Y795750D02*
X688520D01*
X687250Y794480D02*
Y797020D01*
X686230Y786250D02*
X688770D01*
X687500Y784980D02*
Y787520D01*
X688730Y777250D02*
X691270D01*
X690000Y775980D02*
Y778520D01*
X694980Y771000D02*
X697520D01*
X696250Y769730D02*
Y772270D01*
X702980Y766750D02*
X705520D01*
X704250Y765480D02*
Y768020D01*
X710730Y763000D02*
X713270D01*
X712000Y761730D02*
Y764270D01*
X545980Y723250D02*
X548520D01*
X547250Y721980D02*
Y724520D01*
X538480Y723250D02*
X541020D01*
X539750Y721980D02*
Y724520D01*
X727980Y844000D02*
X730520D01*
X729250Y842730D02*
Y845270D01*
X718730Y845000D02*
X721270D01*
X720000Y843730D02*
Y846270D01*
X709230Y844750D02*
X711770D01*
X710500Y843480D02*
Y846020D01*
X537730Y886250D02*
X540270D01*
X539000Y884980D02*
Y887520D01*
X466480Y692000D02*
X469020D01*
X467750Y690730D02*
Y693270D01*
X472980Y702500D02*
X475520D01*
X474250Y701230D02*
Y703770D01*
X486230Y822500D02*
X488770D01*
X487500Y821230D02*
Y823770D01*
X479230Y697500D02*
X481770D01*
X480500Y696230D02*
Y698770D01*
X491230Y817500D02*
X493770D01*
X492500Y816230D02*
Y818770D01*
X609503Y678092D02*
X613313D01*
X611408Y676187D02*
Y679997D01*
X611845Y640750D02*
X615655D01*
X613750Y638845D02*
Y642655D01*
X565595Y759500D02*
X569405D01*
X567500Y757595D02*
Y761405D01*
X631753Y770158D02*
X635563D01*
X633658Y768253D02*
Y772063D01*
X617345Y765000D02*
X621155D01*
X619250Y763095D02*
Y766905D01*
X481230Y827500D02*
X483770D01*
X482500Y826230D02*
Y828770D01*
X694182Y728726D02*
X696722D01*
X695452Y727456D02*
Y729996D01*
X703326Y728472D02*
X705866D01*
X704596Y727202D02*
Y729742D01*
X507480Y684772D02*
X510020D01*
X508750Y683502D02*
Y686042D01*
X501230Y807500D02*
X503770D01*
X502500Y806230D02*
Y808770D01*
X489480Y689250D02*
X492020D01*
X490750Y687980D02*
Y690520D01*
X496230Y812500D02*
X498770D01*
X497500Y811230D02*
Y813770D01*
X540980Y623750D02*
X543520D01*
X542250Y622480D02*
Y625020D01*
X528730Y608250D02*
X531270D01*
X530000Y606980D02*
Y609520D01*
X452480Y611500D02*
X455020D01*
X453750Y610230D02*
Y612770D01*
X504845Y586250D02*
X508655D01*
X506750Y584345D02*
Y588155D01*
X564595Y586000D02*
X568405D01*
X566500Y584095D02*
Y587905D01*
M02*
