G04 Layer_Color=32896*
%FSLAX44Y44*%
%MOMM*%
G71*
G01*
G75*
%ADD42C,0.2540*%
%ADD44C,0.1778*%
%ADD53C,0.1524*%
%ADD82C,0.2032*%
D42*
X370500Y581750D02*
G03*
X370500Y581750I-9750J0D01*
G01*
Y607000D02*
G03*
X370500Y607000I-9750J0D01*
G01*
Y632500D02*
G03*
X370500Y632500I-9750J0D01*
G01*
Y683250D02*
G03*
X370500Y683250I-9750J0D01*
G01*
Y708750D02*
G03*
X370500Y708750I-9750J0D01*
G01*
Y734000D02*
G03*
X370500Y734000I-9750J0D01*
G01*
X345000D02*
G03*
X345000Y734000I-9750J0D01*
G01*
X395750D02*
G03*
X395750Y734000I-9750J0D01*
G01*
X421250D02*
G03*
X421250Y734000I-9750J0D01*
G01*
Y708750D02*
G03*
X421250Y708750I-9750J0D01*
G01*
Y683250D02*
G03*
X421250Y683250I-9750J0D01*
G01*
Y632500D02*
G03*
X421250Y632500I-9750J0D01*
G01*
Y607000D02*
G03*
X421250Y607000I-9750J0D01*
G01*
Y581750D02*
G03*
X421250Y581750I-9750J0D01*
G01*
X395830Y454810D02*
G03*
X395830Y454810I-9750J0D01*
G01*
Y480060D02*
G03*
X395830Y480060I-9750J0D01*
G01*
X345080D02*
G03*
X345080Y480060I-9750J0D01*
G01*
Y454810D02*
G03*
X345080Y454810I-9750J0D01*
G01*
X345050Y632500D02*
G03*
X345050Y632500I-9750J0D01*
G01*
X395850D02*
G03*
X395850Y632500I-9750J0D01*
G01*
Y581700D02*
G03*
X395850Y581700I-9750J0D01*
G01*
X345050D02*
G03*
X345050Y581700I-9750J0D01*
G01*
X395850D02*
G03*
X395850Y581700I-9750J0D01*
G01*
X494132Y397500D02*
Y412735D01*
X501750Y405117D01*
X491593D01*
X486515Y410196D02*
X483976Y412735D01*
X478897D01*
X476358Y410196D01*
Y407657D01*
X478897Y405117D01*
X481437D01*
X478897D01*
X476358Y402578D01*
Y400039D01*
X478897Y397500D01*
X483976D01*
X486515Y400039D01*
X471280Y410196D02*
X468741Y412735D01*
X463662D01*
X461123Y410196D01*
Y407657D01*
X463662Y405117D01*
X466202D01*
X463662D01*
X461123Y402578D01*
Y400039D01*
X463662Y397500D01*
X468741D01*
X471280Y400039D01*
X456045Y397500D02*
Y412735D01*
X450966Y407657D01*
X445888Y412735D01*
Y397500D01*
X440810Y412735D02*
Y397500D01*
Y405117D01*
X430653D01*
Y412735D01*
Y397500D01*
X425575Y407657D02*
X415418D01*
X425575Y397500D01*
X415418D01*
X891286Y370840D02*
Y615721D01*
Y776199D02*
Y1021080D01*
X886206Y386080D02*
X891286Y370840D01*
X896366Y386080D01*
X886206Y1005840D02*
X891286Y1021080D01*
X896366Y1005840D01*
X888746Y370840D02*
X893826D01*
X888746Y1021080D02*
X893826D01*
X312420Y1038987D02*
X514120D01*
X672060D02*
X873760D01*
X312420D02*
X327660Y1044067D01*
X312420Y1038987D02*
X327660Y1033907D01*
X858520Y1044067D02*
X873760Y1038987D01*
X858520Y1033907D02*
X873760Y1038987D01*
X312420Y1036447D02*
Y1041527D01*
X873760Y1036447D02*
Y1041527D01*
D44*
X595750Y503750D02*
Y534500D01*
X533750Y442000D02*
Y503750D01*
X766000Y442000D02*
Y503750D01*
X533750Y442000D02*
X869500D01*
X533750Y503750D02*
X869750D01*
X595750Y534500D02*
X869750D01*
X703250D02*
Y646000D01*
X792750Y534500D02*
Y646000D01*
X595750Y534500D02*
Y646000D01*
X869875D01*
X859222Y494845D02*
X852451D01*
X855836D01*
Y484688D01*
X849065D02*
Y494845D01*
X843987D01*
X842294Y493153D01*
Y489767D01*
X843987Y488074D01*
X849065D01*
X845680D02*
X842294Y484688D01*
X818595D02*
Y494845D01*
X815210Y491460D01*
X811824Y494845D01*
Y484688D01*
X803360Y494845D02*
X806746D01*
X808438Y493153D01*
Y486381D01*
X806746Y484688D01*
X803360D01*
X801667Y486381D01*
Y493153D01*
X803360Y494845D01*
X798282D02*
Y484688D01*
X793203D01*
X791511Y486381D01*
Y493153D01*
X793203Y494845D01*
X798282D01*
X781354D02*
X788125D01*
Y484688D01*
X781354D01*
X788125Y489767D02*
X784739D01*
X859222Y468233D02*
X855836D01*
X857529D01*
Y478390D01*
X859222Y476697D01*
X820288Y478390D02*
X813517D01*
X816902D01*
Y468233D01*
X810131Y478390D02*
X803360Y468233D01*
Y478390D02*
X810131Y468233D01*
X859222Y460242D02*
X857529Y461935D01*
X854144D01*
X852451Y460242D01*
Y453471D01*
X854144Y451778D01*
X857529D01*
X859222Y453471D01*
Y460242D01*
X818595Y451778D02*
Y461935D01*
X813517D01*
X811824Y460242D01*
Y456856D01*
X813517Y455164D01*
X818595D01*
X815210D02*
X811824Y451778D01*
X808438Y461935D02*
X801667Y451778D01*
Y461935D02*
X808438Y451778D01*
X743722Y493845D02*
Y483689D01*
X738644D01*
X736951Y485381D01*
Y487074D01*
X738644Y488767D01*
X743722D01*
X738644D01*
X736951Y490460D01*
Y492152D01*
X738644Y493845D01*
X743722D01*
X733565D02*
Y492152D01*
X730180Y488767D01*
X726794Y492152D01*
Y493845D01*
X730180Y488767D02*
Y483689D01*
X723409D02*
Y493845D01*
X718330D01*
X716637Y492152D01*
Y488767D01*
X718330Y487074D01*
X723409D01*
X682782Y483689D02*
Y493845D01*
X679396Y490460D01*
X676011Y493845D01*
Y483689D01*
X667547Y493845D02*
X670932D01*
X672625Y492152D01*
Y485381D01*
X670932Y483689D01*
X667547D01*
X665854Y485381D01*
Y492152D01*
X667547Y493845D01*
X662468D02*
Y483689D01*
X657390D01*
X655697Y485381D01*
Y492152D01*
X657390Y493845D01*
X662468D01*
X645540D02*
X652311D01*
Y483689D01*
X645540D01*
X652311Y488767D02*
X648926D01*
X743722Y467233D02*
X740336D01*
X742029D01*
Y477390D01*
X743722Y475697D01*
X684474Y467233D02*
Y477390D01*
X679396D01*
X677703Y475697D01*
Y472312D01*
X679396Y470619D01*
X684474D01*
X674318Y467233D02*
Y474004D01*
X670932Y477390D01*
X667547Y474004D01*
Y467233D01*
Y472312D01*
X674318D01*
X664161Y467233D02*
X657390Y474004D01*
X654004Y477390D02*
Y467233D01*
X647233D01*
X643848D02*
Y477390D01*
X637076Y467233D01*
Y477390D01*
X633691Y467233D02*
Y474004D01*
X630305Y477390D01*
X626920Y474004D01*
Y467233D01*
Y472312D01*
X633691D01*
X613377Y477390D02*
Y467233D01*
X608299D01*
X606606Y468926D01*
Y475697D01*
X608299Y477390D01*
X613377D01*
X603221D02*
X599835D01*
X601528D01*
Y467233D01*
X603221D01*
X599835D01*
X587986Y475697D02*
X589678Y477390D01*
X593064D01*
X594757Y475697D01*
Y474004D01*
X593064Y472312D01*
X589678D01*
X587986Y470619D01*
Y468926D01*
X589678Y467233D01*
X593064D01*
X594757Y468926D01*
X584600Y467233D02*
Y474004D01*
X581214Y477390D01*
X577829Y474004D01*
Y467233D01*
Y472312D01*
X584600D01*
X574443Y477390D02*
Y467233D01*
X569365D01*
X567672Y468926D01*
Y470619D01*
X569365Y472312D01*
X574443D01*
X569365D01*
X567672Y474004D01*
Y475697D01*
X569365Y477390D01*
X574443D01*
X564287D02*
Y467233D01*
X557515D01*
X547359Y477390D02*
X554130D01*
Y467233D01*
X547359D01*
X554130Y472312D02*
X550744D01*
X743722Y459242D02*
X742029Y460935D01*
X738644D01*
X736951Y459242D01*
Y452471D01*
X738644Y450778D01*
X742029D01*
X743722Y452471D01*
Y459242D01*
X682782Y450778D02*
Y460935D01*
X677703D01*
X676011Y459242D01*
Y455856D01*
X677703Y454164D01*
X682782D01*
X672625Y450778D02*
Y457549D01*
X669239Y460935D01*
X665854Y457549D01*
Y450778D01*
Y455856D01*
X672625D01*
X662468Y450778D02*
X655697Y457549D01*
X652311Y460935D02*
Y450778D01*
X645540D01*
X642155D02*
Y460935D01*
X635384Y450778D01*
Y460935D01*
X631998Y450778D02*
Y457549D01*
X628613Y460935D01*
X625227Y457549D01*
Y450778D01*
Y455856D01*
X631998D01*
X604913Y460935D02*
X611685D01*
Y450778D01*
X604913D01*
X611685Y455856D02*
X608299D01*
X601528Y450778D02*
Y460935D01*
X594757Y450778D01*
Y460935D01*
X591371Y450778D02*
Y457549D01*
X587986Y460935D01*
X584600Y457549D01*
Y450778D01*
Y455856D01*
X591371D01*
X581214Y460935D02*
Y450778D01*
X576136D01*
X574443Y452471D01*
Y454164D01*
X576136Y455856D01*
X581214D01*
X576136D01*
X574443Y457549D01*
Y459242D01*
X576136Y460935D01*
X581214D01*
X571058D02*
Y450778D01*
X564287D01*
X554130Y460935D02*
X560901D01*
Y450778D01*
X554130D01*
X560901Y455856D02*
X557515D01*
X867972Y871890D02*
Y863426D01*
X866279Y861733D01*
X862894D01*
X861201Y863426D01*
Y871890D01*
X851044Y870197D02*
X852737Y871890D01*
X856123D01*
X857815Y870197D01*
Y868504D01*
X856123Y866812D01*
X852737D01*
X851044Y865119D01*
Y863426D01*
X852737Y861733D01*
X856123D01*
X857815Y863426D01*
X840887Y871890D02*
X847659D01*
Y861733D01*
X840887D01*
X847659Y866812D02*
X844273D01*
X822267Y871890D02*
X825652D01*
X827345Y870197D01*
Y863426D01*
X825652Y861733D01*
X822267D01*
X820574Y863426D01*
Y870197D01*
X822267Y871890D01*
X817188Y861733D02*
Y871890D01*
X810417Y861733D01*
Y871890D01*
X800260D02*
X807032D01*
Y861733D01*
X800260D01*
X807032Y866812D02*
X803646D01*
X779947Y870197D02*
X781640Y871890D01*
X785025D01*
X786718Y870197D01*
Y868504D01*
X785025Y866812D01*
X781640D01*
X779947Y865119D01*
Y863426D01*
X781640Y861733D01*
X785025D01*
X786718Y863426D01*
X776562Y861733D02*
Y871890D01*
X771483D01*
X769790Y870197D01*
Y866812D01*
X771483Y865119D01*
X776562D01*
X766405Y871890D02*
X763019D01*
X764712D01*
Y861733D01*
X766405D01*
X763019D01*
X747784D02*
Y871890D01*
X744398Y868504D01*
X741013Y871890D01*
Y861733D01*
X737627D02*
Y868504D01*
X734242Y871890D01*
X730856Y868504D01*
Y861733D01*
Y866812D01*
X737627D01*
X720699Y870197D02*
X722392Y871890D01*
X725778D01*
X727471Y870197D01*
Y868504D01*
X725778Y866812D01*
X722392D01*
X720699Y865119D01*
Y863426D01*
X722392Y861733D01*
X725778D01*
X727471Y863426D01*
X717314Y871890D02*
X710543D01*
X713928D01*
Y861733D01*
X700386Y871890D02*
X707157D01*
Y861733D01*
X700386D01*
X707157Y866812D02*
X703772D01*
X697001Y861733D02*
Y871890D01*
X691922D01*
X690229Y870197D01*
Y866812D01*
X691922Y865119D01*
X697001D01*
X693615D02*
X690229Y861733D01*
X676687D02*
Y868504D01*
X673301Y871890D01*
X669916Y868504D01*
Y861733D01*
Y866812D01*
X676687D01*
X666530Y871890D02*
X659759D01*
X663145D01*
Y861733D01*
X646217D02*
Y868504D01*
X642831Y871890D01*
X639446Y868504D01*
Y861733D01*
Y866812D01*
X646217D01*
X625903Y871890D02*
X619132D01*
X622518D01*
Y861733D01*
X615747Y871890D02*
X612361D01*
X614054D01*
Y861733D01*
X615747D01*
X612361D01*
X607283D02*
Y871890D01*
X603897Y868504D01*
X600512Y871890D01*
Y861733D01*
X590355Y871890D02*
X597126D01*
Y861733D01*
X590355D01*
X597126Y866812D02*
X593741D01*
X861201Y853742D02*
X862894Y855435D01*
X866279D01*
X867972Y853742D01*
Y846971D01*
X866279Y845278D01*
X862894D01*
X861201Y846971D01*
X851044Y853742D02*
X852737Y855435D01*
X856123D01*
X857815Y853742D01*
Y846971D01*
X856123Y845278D01*
X852737D01*
X851044Y846971D01*
X837502Y855435D02*
Y845278D01*
X832423D01*
X830731Y846971D01*
Y853742D01*
X832423Y855435D01*
X837502D01*
X820574D02*
X827345D01*
Y845278D01*
X820574D01*
X827345Y850356D02*
X823960D01*
X817188Y855435D02*
Y845278D01*
X812110D01*
X810417Y846971D01*
Y848664D01*
X812110Y850356D01*
X817188D01*
X812110D01*
X810417Y852049D01*
Y853742D01*
X812110Y855435D01*
X817188D01*
X807032D02*
Y846971D01*
X805339Y845278D01*
X801953D01*
X800260Y846971D01*
Y855435D01*
X790104Y853742D02*
X791797Y855435D01*
X795182D01*
X796875Y853742D01*
Y846971D01*
X795182Y845278D01*
X791797D01*
X790104Y846971D01*
Y850356D01*
X793489D01*
X779947Y853742D02*
X781640Y855435D01*
X785025D01*
X786718Y853742D01*
Y846971D01*
X785025Y845278D01*
X781640D01*
X779947Y846971D01*
Y850356D01*
X783333D01*
X769790Y855435D02*
X776562D01*
Y845278D01*
X769790D01*
X776562Y850356D02*
X773176D01*
X766405Y845278D02*
Y855435D01*
X761326D01*
X759634Y853742D01*
Y850356D01*
X761326Y848664D01*
X766405D01*
X763019D02*
X759634Y845278D01*
X741013Y855435D02*
X744398D01*
X746091Y853742D01*
Y846971D01*
X744398Y845278D01*
X741013D01*
X739320Y846971D01*
Y853742D01*
X741013Y855435D01*
X735935Y845278D02*
Y855435D01*
X730856D01*
X729164Y853742D01*
Y850356D01*
X730856Y848664D01*
X735935D01*
X732549D02*
X729164Y845278D01*
X715621D02*
Y855435D01*
X710543D01*
X708850Y853742D01*
Y850356D01*
X710543Y848664D01*
X715621D01*
X712236D02*
X708850Y845278D01*
X705464D02*
Y852049D01*
X702079Y855435D01*
X698693Y852049D01*
Y845278D01*
Y850356D01*
X705464D01*
X688537Y853742D02*
X690229Y855435D01*
X693615D01*
X695308Y853742D01*
Y852049D01*
X693615Y850356D01*
X690229D01*
X688537Y848664D01*
Y846971D01*
X690229Y845278D01*
X693615D01*
X695308Y846971D01*
X685151Y845278D02*
Y855435D01*
X680073D01*
X678380Y853742D01*
Y850356D01*
X680073Y848664D01*
X685151D01*
X674994Y855435D02*
Y845278D01*
X669916D01*
X668223Y846971D01*
Y848664D01*
X669916Y850356D01*
X674994D01*
X669916D01*
X668223Y852049D01*
Y853742D01*
X669916Y855435D01*
X674994D01*
X658066D02*
X664837D01*
Y845278D01*
X658066D01*
X664837Y850356D02*
X661452D01*
X654681Y845278D02*
Y855435D01*
X649603D01*
X647910Y853742D01*
Y850356D01*
X649603Y848664D01*
X654681D01*
X651295D02*
X647910Y845278D01*
X644524D02*
Y855435D01*
X639446D01*
X637753Y853742D01*
Y850356D01*
X639446Y848664D01*
X644524D01*
X641139D02*
X637753Y845278D01*
X634367Y855435D02*
Y853742D01*
X630982Y850356D01*
X627596Y853742D01*
Y855435D01*
X630982Y850356D02*
Y845278D01*
X614054D02*
Y855435D01*
X608976D01*
X607283Y853742D01*
Y850356D01*
X608976Y848664D01*
X614054D01*
X603897Y855435D02*
X600512D01*
X602204D01*
Y845278D01*
X603897D01*
X600512D01*
X866222Y627965D02*
Y638122D01*
X861144D01*
X859451Y636429D01*
Y633043D01*
X861144Y631350D01*
X866222D01*
X856065Y638122D02*
X852680D01*
X854372D01*
Y627965D01*
X856065D01*
X852680D01*
X830674Y636429D02*
X832366Y638122D01*
X835752D01*
X837445Y636429D01*
Y629658D01*
X835752Y627965D01*
X832366D01*
X830674Y629658D01*
Y633043D01*
X834059D01*
X827288Y627965D02*
Y638122D01*
X822209D01*
X820517Y636429D01*
Y633043D01*
X822209Y631350D01*
X827288D01*
X817131Y638122D02*
X813746D01*
X815438D01*
Y627965D01*
X817131D01*
X813746D01*
X803589Y638122D02*
X806974D01*
X808667Y636429D01*
Y629658D01*
X806974Y627965D01*
X803589D01*
X801896Y629658D01*
Y636429D01*
X803589Y638122D01*
X778197Y627965D02*
Y638122D01*
X773119D01*
X771426Y636429D01*
Y633043D01*
X773119Y631350D01*
X778197D01*
X774811D02*
X771426Y627965D01*
X761269Y638122D02*
X768040D01*
Y633043D01*
X764655D01*
X768040D01*
Y627965D01*
X740956Y636429D02*
X742648Y638122D01*
X746034D01*
X747727Y636429D01*
Y629658D01*
X746034Y627965D01*
X742648D01*
X740956Y629658D01*
Y633043D01*
X744341D01*
X737570Y627965D02*
Y638122D01*
X732492D01*
X730799Y636429D01*
Y633043D01*
X732492Y631350D01*
X737570D01*
X727413Y638122D02*
X724028D01*
X725721D01*
Y627965D01*
X727413D01*
X724028D01*
X713871Y638122D02*
X717257D01*
X718950Y636429D01*
Y629658D01*
X717257Y627965D01*
X713871D01*
X712178Y629658D01*
Y636429D01*
X713871Y638122D01*
X681708D02*
X688479D01*
Y633043D01*
X685094D01*
X688479D01*
Y627965D01*
X671552Y638122D02*
X678323D01*
Y627965D01*
X671552D01*
X678323Y633043D02*
X674937D01*
X668166Y627965D02*
Y638122D01*
X664780Y634736D01*
X661395Y638122D01*
Y627965D01*
X658009Y636429D02*
X651238Y629658D01*
X658009D02*
X651238Y636429D01*
X658009Y633043D02*
X651238D01*
X654624Y629658D02*
Y636429D01*
X630925D02*
X632617Y638122D01*
X636003D01*
X637696Y636429D01*
Y629658D01*
X636003Y627965D01*
X632617D01*
X630925Y629658D01*
X627539Y638122D02*
X620768D01*
X624153D01*
Y627965D01*
X617382D02*
Y638122D01*
X612304D01*
X610611Y636429D01*
Y633043D01*
X612304Y631350D01*
X617382D01*
X613997D02*
X610611Y627965D01*
X607225Y638122D02*
Y627965D01*
X600454D01*
X859451Y619973D02*
X861144Y621666D01*
X864529D01*
X866222Y619973D01*
Y613202D01*
X864529Y611510D01*
X861144D01*
X859451Y613202D01*
Y616588D01*
X862836D01*
X856065Y611510D02*
Y621666D01*
X850987D01*
X849294Y619973D01*
Y616588D01*
X850987Y614895D01*
X856065D01*
X845909Y611510D02*
X842523D01*
X844216D01*
Y621666D01*
X845909Y619973D01*
X837445Y621666D02*
X830674D01*
Y619973D01*
X837445Y613202D01*
Y611510D01*
X759576Y619973D02*
X761269Y621666D01*
X764655D01*
X766348Y619973D01*
Y613202D01*
X764655Y611510D01*
X761269D01*
X759576Y613202D01*
Y616588D01*
X762962D01*
X756191Y611510D02*
Y621666D01*
X751113D01*
X749420Y619973D01*
Y616588D01*
X751113Y614895D01*
X756191D01*
X746034Y619973D02*
X744341Y621666D01*
X740956D01*
X739263Y619973D01*
Y613202D01*
X740956Y611510D01*
X744341D01*
X746034Y613202D01*
Y619973D01*
X674937Y616588D02*
X668166D01*
X664780D02*
X658009D01*
X859451Y603518D02*
X861144Y605211D01*
X864529D01*
X866222Y603518D01*
Y596747D01*
X864529Y595054D01*
X861144D01*
X859451Y596747D01*
Y600133D01*
X862836D01*
X856065Y595054D02*
Y605211D01*
X850987D01*
X849294Y603518D01*
Y600133D01*
X850987Y598440D01*
X856065D01*
X839137Y595054D02*
X845909D01*
X839137Y601825D01*
Y603518D01*
X840830Y605211D01*
X844216D01*
X845909Y603518D01*
X835752Y605211D02*
X828981D01*
Y603518D01*
X835752Y596747D01*
Y595054D01*
X757884Y603518D02*
X759576Y605211D01*
X762962D01*
X764655Y603518D01*
Y596747D01*
X762962Y595054D01*
X759576D01*
X757884Y596747D01*
Y600133D01*
X761269D01*
X754498Y595054D02*
Y605211D01*
X749420D01*
X747727Y603518D01*
Y600133D01*
X749420Y598440D01*
X754498D01*
X737570Y595054D02*
X744341D01*
X737570Y601825D01*
Y603518D01*
X739263Y605211D01*
X742648D01*
X744341Y603518D01*
X673244Y600133D02*
X666473D01*
X663087D02*
X656316D01*
X859451Y587063D02*
X861144Y588756D01*
X864529D01*
X866222Y587063D01*
Y580292D01*
X864529Y578599D01*
X861144D01*
X859451Y580292D01*
Y583677D01*
X862836D01*
X856065Y578599D02*
Y588756D01*
X850987D01*
X849294Y587063D01*
Y583677D01*
X850987Y581985D01*
X856065D01*
X839137Y578599D02*
X845909D01*
X839137Y585370D01*
Y587063D01*
X840830Y588756D01*
X844216D01*
X845909Y587063D01*
X828981Y578599D02*
X835752D01*
X828981Y585370D01*
Y587063D01*
X830674Y588756D01*
X834059D01*
X835752Y587063D01*
X757884D02*
X759576Y588756D01*
X762962D01*
X764655Y587063D01*
Y580292D01*
X762962Y578599D01*
X759576D01*
X757884Y580292D01*
Y583677D01*
X761269D01*
X754498Y578599D02*
Y588756D01*
X749420D01*
X747727Y587063D01*
Y583677D01*
X749420Y581985D01*
X754498D01*
X744341Y587063D02*
X742648Y588756D01*
X739263D01*
X737570Y587063D01*
Y585370D01*
X739263Y583677D01*
X740956D01*
X739263D01*
X737570Y581985D01*
Y580292D01*
X739263Y578599D01*
X742648D01*
X744341Y580292D01*
X673244Y583677D02*
X666473D01*
X663087D02*
X656316D01*
X859451Y570608D02*
X861144Y572300D01*
X864529D01*
X866222Y570608D01*
Y563837D01*
X864529Y562144D01*
X861144D01*
X859451Y563837D01*
Y567222D01*
X862836D01*
X856065Y562144D02*
Y572300D01*
X850987D01*
X849294Y570608D01*
Y567222D01*
X850987Y565529D01*
X856065D01*
X845909Y562144D02*
X842523D01*
X844216D01*
Y572300D01*
X845909Y570608D01*
X837445D02*
X835752Y572300D01*
X832366D01*
X830674Y570608D01*
Y568915D01*
X832366Y567222D01*
X830674Y565529D01*
Y563837D01*
X832366Y562144D01*
X835752D01*
X837445Y563837D01*
Y565529D01*
X835752Y567222D01*
X837445Y568915D01*
Y570608D01*
X835752Y567222D02*
X832366D01*
X756191D02*
X749420D01*
X746034D02*
X739263D01*
X674937Y572300D02*
Y562144D01*
X669859D01*
X668166Y563837D01*
Y565529D01*
X669859Y567222D01*
X674937D01*
X669859D01*
X668166Y568915D01*
Y570608D01*
X669859Y572300D01*
X674937D01*
X664780D02*
Y570608D01*
X661395Y567222D01*
X658009Y570608D01*
Y572300D01*
X661395Y567222D02*
Y562144D01*
X654624D02*
Y572300D01*
X649545D01*
X647852Y570608D01*
Y567222D01*
X649545Y565529D01*
X654624D01*
X859451Y554152D02*
X861144Y555845D01*
X864529D01*
X866222Y554152D01*
Y547381D01*
X864529Y545689D01*
X861144D01*
X859451Y547381D01*
Y550767D01*
X862836D01*
X856065Y545689D02*
Y555845D01*
X850987D01*
X849294Y554152D01*
Y550767D01*
X850987Y549074D01*
X856065D01*
X839137Y545689D02*
X845909D01*
X839137Y552460D01*
Y554152D01*
X840830Y555845D01*
X844216D01*
X845909Y554152D01*
X835752D02*
X834059Y555845D01*
X830674D01*
X828981Y554152D01*
Y552460D01*
X830674Y550767D01*
X832366D01*
X830674D01*
X828981Y549074D01*
Y547381D01*
X830674Y545689D01*
X834059D01*
X835752Y547381D01*
X754498Y550767D02*
X747727D01*
X744341D02*
X737570D01*
X673244Y555845D02*
X666473D01*
X669859D01*
Y545689D01*
X663087D02*
Y555845D01*
X658009D01*
X656316Y554152D01*
Y550767D01*
X658009Y549074D01*
X663087D01*
X659702D02*
X656316Y545689D01*
X866222Y521242D02*
X859451Y514471D01*
X866222D02*
X859451Y521242D01*
X866222Y517856D02*
X859451D01*
X862836Y514471D02*
Y521242D01*
X839137Y522935D02*
X845909D01*
Y517856D01*
X842523D01*
X845909D01*
Y512778D01*
X828981Y522935D02*
X835752D01*
Y512778D01*
X828981D01*
X835752Y517856D02*
X832366D01*
X825595Y512778D02*
Y522935D01*
X822209Y519549D01*
X818824Y522935D01*
Y512778D01*
X815438Y519549D02*
X813746D01*
Y517856D01*
X815438D01*
Y519549D01*
Y514471D02*
X813746D01*
Y512778D01*
X815438D01*
Y514471D01*
X790047Y522935D02*
X796818D01*
Y517856D01*
X793432D01*
X796818D01*
Y512778D01*
X786661D02*
Y522935D01*
X781583D01*
X779890Y521242D01*
Y517856D01*
X781583Y516164D01*
X786661D01*
X783275D02*
X779890Y512778D01*
X771426Y522935D02*
X774811D01*
X776504Y521242D01*
Y514471D01*
X774811Y512778D01*
X771426D01*
X769733Y514471D01*
Y521242D01*
X771426Y522935D01*
X766348Y512778D02*
Y522935D01*
X759576Y512778D01*
Y522935D01*
X756191D02*
X749420D01*
X752805D01*
Y512778D01*
X729106Y522935D02*
X735877D01*
Y512778D01*
X729106D01*
X735877Y517856D02*
X732492D01*
X725721Y512778D02*
Y522935D01*
X718950Y512778D01*
Y522935D01*
X715564D02*
Y512778D01*
X710486D01*
X708793Y514471D01*
Y521242D01*
X710486Y522935D01*
X715564D01*
X695250Y512778D02*
Y522935D01*
X691865Y519549D01*
X688479Y522935D01*
Y512778D01*
X680015Y522935D02*
X683401D01*
X685094Y521242D01*
Y514471D01*
X683401Y512778D01*
X680015D01*
X678323Y514471D01*
Y521242D01*
X680015Y522935D01*
X674937D02*
Y512778D01*
X669859D01*
X668166Y514471D01*
Y521242D01*
X669859Y522935D01*
X674937D01*
X664780D02*
Y514471D01*
X663087Y512778D01*
X659702D01*
X658009Y514471D01*
Y522935D01*
X654624D02*
Y512778D01*
X647852D01*
X637696Y522935D02*
X644467D01*
Y512778D01*
X637696D01*
X644467Y517856D02*
X641081D01*
X873760Y370840D02*
Y1021080D01*
X312420D02*
X873760D01*
X312420Y370840D02*
Y1021080D01*
Y370840D02*
X873760D01*
D53*
X885192Y628417D02*
X887732Y623339D01*
X892810Y618261D01*
X897888D01*
X900427Y620800D01*
Y625878D01*
X897888Y628417D01*
X895349D01*
X892810Y625878D01*
Y618261D01*
X885192Y643652D02*
Y633496D01*
X892810D01*
X890271Y638574D01*
Y641113D01*
X892810Y643652D01*
X897888D01*
X900427Y641113D01*
Y636035D01*
X897888Y633496D01*
X900427Y648731D02*
X897888D01*
Y651270D01*
X900427D01*
Y648731D01*
X887732Y661427D02*
X885192Y663966D01*
Y669044D01*
X887732Y671583D01*
X897888D01*
X900427Y669044D01*
Y663966D01*
X897888Y661427D01*
X887732D01*
X900427Y686818D02*
Y676662D01*
X890271Y686818D01*
X887732D01*
X885192Y684279D01*
Y679201D01*
X887732Y676662D01*
X900427Y699514D02*
X885192D01*
X892810Y691897D01*
Y702054D01*
X900427Y727445D02*
X895349Y722367D01*
X890271D01*
X885192Y727445D01*
X900427Y735063D02*
X890271D01*
Y737602D01*
X892810Y740141D01*
X900427D01*
X892810D01*
X890271Y742680D01*
X892810Y745220D01*
X900427D01*
Y750298D02*
X890271D01*
Y752837D01*
X892810Y755376D01*
X900427D01*
X892810D01*
X890271Y757915D01*
X892810Y760455D01*
X900427D01*
Y765533D02*
X895349Y770611D01*
X890271D01*
X885192Y765533D01*
X526817Y1045080D02*
X516660D01*
Y1037463D01*
X521739Y1040002D01*
X524278D01*
X526817Y1037463D01*
Y1032385D01*
X524278Y1029846D01*
X519199D01*
X516660Y1032385D01*
X542052Y1045080D02*
X536974Y1042541D01*
X531895Y1037463D01*
Y1032385D01*
X534435Y1029846D01*
X539513D01*
X542052Y1032385D01*
Y1034924D01*
X539513Y1037463D01*
X531895D01*
X547130Y1029846D02*
Y1032385D01*
X549670D01*
Y1029846D01*
X547130D01*
X559826D02*
X564905D01*
X562365D01*
Y1045080D01*
X559826Y1042541D01*
X572522D02*
X575061Y1045080D01*
X580140D01*
X582679Y1042541D01*
Y1040002D01*
X580140Y1037463D01*
X577601D01*
X580140D01*
X582679Y1034924D01*
Y1032385D01*
X580140Y1029846D01*
X575061D01*
X572522Y1032385D01*
X595375Y1029846D02*
Y1045080D01*
X587757Y1037463D01*
X597914D01*
X623306Y1029846D02*
X618227Y1034924D01*
Y1040002D01*
X623306Y1045080D01*
X630923Y1029846D02*
Y1040002D01*
X633462D01*
X636002Y1037463D01*
Y1029846D01*
Y1037463D01*
X638541Y1040002D01*
X641080Y1037463D01*
Y1029846D01*
X646158D02*
Y1040002D01*
X648698D01*
X651237Y1037463D01*
Y1029846D01*
Y1037463D01*
X653776Y1040002D01*
X656315Y1037463D01*
Y1029846D01*
X661393D02*
X666472Y1034924D01*
Y1040002D01*
X661393Y1045080D01*
D82*
X752690Y409715D02*
X762000D01*
Y402733D01*
X757345D01*
X762000D01*
Y395750D01*
X738724Y409715D02*
X748035D01*
Y395750D01*
X738724D01*
X748035Y402733D02*
X743379D01*
X734069Y409715D02*
Y395750D01*
X727086D01*
X724759Y398078D01*
Y400405D01*
X727086Y402733D01*
X734069D01*
X727086D01*
X724759Y405060D01*
Y407388D01*
X727086Y409715D01*
X734069D01*
X696828Y395750D02*
X706138D01*
X696828Y405060D01*
Y407388D01*
X699155Y409715D01*
X703811D01*
X706138Y407388D01*
X692173D02*
X689845Y409715D01*
X685190D01*
X682862Y407388D01*
Y398078D01*
X685190Y395750D01*
X689845D01*
X692173Y398078D01*
Y407388D01*
X678207Y395750D02*
X673552D01*
X675880D01*
Y409715D01*
X678207Y407388D01*
X666569Y398078D02*
X664242Y395750D01*
X659586D01*
X657259Y398078D01*
Y407388D01*
X659586Y409715D01*
X664242D01*
X666569Y407388D01*
Y405060D01*
X664242Y402733D01*
X657259D01*
X859109Y827176D02*
X861394Y829462D01*
X865965D01*
X868250Y827176D01*
Y818035D01*
X865965Y815750D01*
X861394D01*
X859109Y818035D01*
Y822606D01*
X863680D01*
X854538Y815750D02*
X849968D01*
X852253D01*
Y824891D01*
X854538D01*
X840827Y827176D02*
Y824891D01*
X843112D01*
X838542D01*
X840827D01*
Y818035D01*
X838542Y815750D01*
X831686Y824891D02*
X829401D01*
Y822606D01*
X831686D01*
Y824891D01*
Y818035D02*
X829401D01*
Y815750D01*
X831686D01*
Y818035D01*
X806548Y829462D02*
Y815750D01*
Y822606D01*
X804263Y824891D01*
X799692D01*
X797407Y822606D01*
Y815750D01*
X790551Y827176D02*
Y824891D01*
X792836D01*
X788266D01*
X790551D01*
Y818035D01*
X788266Y815750D01*
X779125Y827176D02*
Y824891D01*
X781410D01*
X776840D01*
X779125D01*
Y818035D01*
X776840Y815750D01*
X769984Y811180D02*
Y824891D01*
X763128D01*
X760843Y822606D01*
Y818035D01*
X763128Y815750D01*
X769984D01*
X756272D02*
X749416D01*
X747131Y818035D01*
X749416Y820321D01*
X753987D01*
X756272Y822606D01*
X753987Y824891D01*
X747131D01*
X742561D02*
X740275D01*
Y822606D01*
X742561D01*
Y824891D01*
Y818035D02*
X740275D01*
Y815750D01*
X742561D01*
Y818035D01*
X731134Y815750D02*
X721993Y824891D01*
X717423Y815750D02*
X708282Y824891D01*
X699141Y811180D02*
X696855D01*
X694570Y813465D01*
Y824891D01*
X701426D01*
X703711Y822606D01*
Y818035D01*
X701426Y815750D01*
X694570D01*
X690000D02*
X685429D01*
X687714D01*
Y824891D01*
X690000D01*
X676288Y827176D02*
Y824891D01*
X678573D01*
X674003D01*
X676288D01*
Y818035D01*
X674003Y815750D01*
X667147Y829462D02*
Y815750D01*
Y822606D01*
X664862Y824891D01*
X660291D01*
X658006Y822606D01*
Y815750D01*
X653436Y824891D02*
Y818035D01*
X651150Y815750D01*
X644294D01*
Y824891D01*
X639724Y829462D02*
Y815750D01*
X632868D01*
X630583Y818035D01*
Y820321D01*
Y822606D01*
X632868Y824891D01*
X639724D01*
X626012Y815750D02*
Y818035D01*
X623727D01*
Y815750D01*
X626012D01*
X605445Y824891D02*
X612301D01*
X614586Y822606D01*
Y818035D01*
X612301Y815750D01*
X605445D01*
X598589D02*
X594019D01*
X591733Y818035D01*
Y822606D01*
X594019Y824891D01*
X598589D01*
X600874Y822606D01*
Y818035D01*
X598589Y815750D01*
X587163D02*
Y824891D01*
X584878D01*
X582592Y822606D01*
Y815750D01*
Y822606D01*
X580307Y824891D01*
X578022Y822606D01*
Y815750D01*
X573451D02*
X564310Y824891D01*
X559740Y815750D02*
Y829462D01*
X555169Y824891D01*
X550599Y829462D01*
Y815750D01*
X543743D02*
X539173D01*
X536887Y818035D01*
Y822606D01*
X539173Y824891D01*
X543743D01*
X546028Y822606D01*
Y818035D01*
X543743Y815750D01*
X532317D02*
Y824891D01*
X525461D01*
X523176Y822606D01*
Y815750D01*
X518605D02*
Y829462D01*
Y820321D02*
X511749Y824891D01*
X518605Y820321D02*
X511749Y815750D01*
X504894Y829462D02*
Y815750D01*
Y822606D01*
X495753D01*
Y829462D01*
Y815750D01*
X484326D02*
X488897D01*
X491182Y818035D01*
Y822606D01*
X488897Y824891D01*
X484326D01*
X482041Y822606D01*
Y820321D01*
X491182D01*
X477471Y815750D02*
X472900D01*
X475185D01*
Y829462D01*
X477471D01*
X466044Y815750D02*
X461474D01*
X463759D01*
Y824891D01*
X466044D01*
X452333Y815750D02*
X447762D01*
X445477Y818035D01*
Y822606D01*
X447762Y824891D01*
X452333D01*
X454618Y822606D01*
Y818035D01*
X452333Y815750D01*
X440906D02*
X434050D01*
X431765Y818035D01*
X434050Y820321D01*
X438621D01*
X440906Y822606D01*
X438621Y824891D01*
X431765D01*
M02*
