G04 Layer_Color=2752767*
%FSLAX44Y44*%
%MOMM*%
G71*
G01*
G75*
%ADD42C,0.2540*%
%ADD44C,0.1778*%
%ADD53C,0.1524*%
%ADD133C,0.0508*%
%ADD134C,0.0677*%
D42*
X891286Y370840D02*
Y615721D01*
Y776199D02*
Y1021080D01*
X886206Y386080D02*
X891286Y370840D01*
X896366Y386080D01*
X886206Y1005840D02*
X891286Y1021080D01*
X896366Y1005840D01*
X888746Y370840D02*
X893826D01*
X888746Y1021080D02*
X893826D01*
X312420Y1038987D02*
X514120D01*
X672060D02*
X873760D01*
X312420D02*
X327660Y1044067D01*
X312420Y1038987D02*
X327660Y1033907D01*
X858520Y1044067D02*
X873760Y1038987D01*
X858520Y1033907D02*
X873760Y1038987D01*
X312420Y1036447D02*
Y1041527D01*
X873760Y1036447D02*
Y1041527D01*
D44*
Y370840D02*
Y1021080D01*
X312420D02*
X873760D01*
X312420Y370840D02*
Y1021080D01*
Y370840D02*
X873760D01*
D53*
X885192Y628417D02*
X887732Y623339D01*
X892810Y618261D01*
X897888D01*
X900427Y620800D01*
Y625878D01*
X897888Y628417D01*
X895349D01*
X892810Y625878D01*
Y618261D01*
X885192Y643652D02*
Y633496D01*
X892810D01*
X890271Y638574D01*
Y641113D01*
X892810Y643652D01*
X897888D01*
X900427Y641113D01*
Y636035D01*
X897888Y633496D01*
X900427Y648731D02*
X897888D01*
Y651270D01*
X900427D01*
Y648731D01*
X887732Y661427D02*
X885192Y663966D01*
Y669044D01*
X887732Y671583D01*
X897888D01*
X900427Y669044D01*
Y663966D01*
X897888Y661427D01*
X887732D01*
X900427Y686818D02*
Y676662D01*
X890271Y686818D01*
X887732D01*
X885192Y684279D01*
Y679201D01*
X887732Y676662D01*
X900427Y699514D02*
X885192D01*
X892810Y691897D01*
Y702054D01*
X900427Y727445D02*
X895349Y722367D01*
X890271D01*
X885192Y727445D01*
X900427Y735063D02*
X890271D01*
Y737602D01*
X892810Y740141D01*
X900427D01*
X892810D01*
X890271Y742680D01*
X892810Y745220D01*
X900427D01*
Y750298D02*
X890271D01*
Y752837D01*
X892810Y755376D01*
X900427D01*
X892810D01*
X890271Y757915D01*
X892810Y760455D01*
X900427D01*
Y765533D02*
X895349Y770611D01*
X890271D01*
X885192Y765533D01*
X526817Y1045080D02*
X516660D01*
Y1037463D01*
X521739Y1040002D01*
X524278D01*
X526817Y1037463D01*
Y1032385D01*
X524278Y1029846D01*
X519199D01*
X516660Y1032385D01*
X542052Y1045080D02*
X536974Y1042541D01*
X531895Y1037463D01*
Y1032385D01*
X534435Y1029846D01*
X539513D01*
X542052Y1032385D01*
Y1034924D01*
X539513Y1037463D01*
X531895D01*
X547130Y1029846D02*
Y1032385D01*
X549670D01*
Y1029846D01*
X547130D01*
X559826D02*
X564905D01*
X562365D01*
Y1045080D01*
X559826Y1042541D01*
X572522D02*
X575061Y1045080D01*
X580140D01*
X582679Y1042541D01*
Y1040002D01*
X580140Y1037463D01*
X577601D01*
X580140D01*
X582679Y1034924D01*
Y1032385D01*
X580140Y1029846D01*
X575061D01*
X572522Y1032385D01*
X595375Y1029846D02*
Y1045080D01*
X587757Y1037463D01*
X597914D01*
X623306Y1029846D02*
X618227Y1034924D01*
Y1040002D01*
X623306Y1045080D01*
X630923Y1029846D02*
Y1040002D01*
X633462D01*
X636002Y1037463D01*
Y1029846D01*
Y1037463D01*
X638541Y1040002D01*
X641080Y1037463D01*
Y1029846D01*
X646158D02*
Y1040002D01*
X648698D01*
X651237Y1037463D01*
Y1029846D01*
Y1037463D01*
X653776Y1040002D01*
X656315Y1037463D01*
Y1029846D01*
X661393D02*
X666472Y1034924D01*
Y1040002D01*
X661393Y1045080D01*
D133*
X358648Y452628D02*
Y456692D01*
X362712D01*
Y452628D01*
X358648D01*
X333248D02*
Y456692D01*
X337312D01*
Y452628D01*
X333248D01*
X358648Y478028D02*
Y482092D01*
X362712D01*
Y478028D01*
X358648D01*
X333248D02*
Y482092D01*
X337312D01*
Y478028D01*
X333248D01*
X358648Y503428D02*
Y507492D01*
X362712D01*
Y503428D01*
X358648D01*
X333248D02*
Y507492D01*
X337312D01*
Y503428D01*
X333248D01*
X358648Y528828D02*
Y532892D01*
X362712D01*
Y528828D01*
X358648D01*
X333248D02*
Y532892D01*
X337312D01*
Y528828D01*
X333248D01*
X358648Y554228D02*
Y558292D01*
X362712D01*
Y554228D01*
X358648D01*
X333248D02*
Y558292D01*
X337312D01*
Y554228D01*
X333248D01*
X358648Y579628D02*
Y583692D01*
X362712D01*
Y579628D01*
X358648D01*
X333248D02*
Y583692D01*
X337312D01*
Y579628D01*
X333248D01*
X358648Y605028D02*
Y609092D01*
X362712D01*
Y605028D01*
X358648D01*
X333248D02*
Y609092D01*
X337312D01*
Y605028D01*
X333248D01*
X358648Y630428D02*
Y634492D01*
X362712D01*
Y630428D01*
X358648D01*
X333248D02*
Y634492D01*
X337312D01*
Y630428D01*
X333248D01*
X358648Y655828D02*
Y659892D01*
X362712D01*
Y655828D01*
X358648D01*
X333248D02*
Y659892D01*
X337312D01*
Y655828D01*
X333248D01*
X358648Y681228D02*
Y685292D01*
X362712D01*
Y681228D01*
X358648D01*
X333248D02*
Y685292D01*
X337312D01*
Y681228D01*
X333248D01*
X358648Y706628D02*
Y710692D01*
X362712D01*
Y706628D01*
X358648D01*
X333248D02*
Y710692D01*
X337312D01*
Y706628D01*
X333248D01*
X358648Y732028D02*
Y736092D01*
X362712D01*
Y732028D01*
X358648D01*
X333248D02*
Y736092D01*
X337312D01*
Y732028D01*
X333248D01*
X358648Y757428D02*
Y761492D01*
X362712D01*
Y757428D01*
X358648D01*
X333248D02*
Y761492D01*
X337312D01*
Y757428D01*
X333248D01*
X358648Y782828D02*
Y786892D01*
X362712D01*
Y782828D01*
X358648D01*
X333248D02*
Y786892D01*
X337312D01*
Y782828D01*
X333248D01*
X358648Y808228D02*
Y812292D01*
X362712D01*
Y808228D01*
X358648D01*
X333248D02*
Y812292D01*
X337312D01*
Y808228D01*
X333248D01*
X358648Y833628D02*
Y837692D01*
X362712D01*
Y833628D01*
X358648D01*
X333248D02*
Y837692D01*
X337312D01*
Y833628D01*
X333248D01*
X358648Y859028D02*
Y863092D01*
X362712D01*
Y859028D01*
X358648D01*
X333248D02*
Y863092D01*
X337312D01*
Y859028D01*
X333248D01*
X358648Y884428D02*
Y888492D01*
X362712D01*
Y884428D01*
X358648D01*
X333248D02*
Y888492D01*
X337312D01*
Y884428D01*
X333248D01*
X358648Y909828D02*
Y913892D01*
X362712D01*
Y909828D01*
X358648D01*
X333248D02*
Y913892D01*
X337312D01*
Y909828D01*
X333248D01*
X358648Y935228D02*
Y939292D01*
X362712D01*
Y935228D01*
X358648D01*
X333248D02*
Y939292D01*
X337312D01*
Y935228D01*
X333248D01*
X409448Y452628D02*
Y456692D01*
X413512D01*
Y452628D01*
X409448D01*
X384048D02*
Y456692D01*
X388112D01*
Y452628D01*
X384048D01*
X409448Y478028D02*
Y482092D01*
X413512D01*
Y478028D01*
X409448D01*
X384048D02*
Y482092D01*
X388112D01*
Y478028D01*
X384048D01*
X409448Y503428D02*
Y507492D01*
X413512D01*
Y503428D01*
X409448D01*
X384048D02*
Y507492D01*
X388112D01*
Y503428D01*
X384048D01*
X409448Y528828D02*
Y532892D01*
X413512D01*
Y528828D01*
X409448D01*
X384048D02*
Y532892D01*
X388112D01*
Y528828D01*
X384048D01*
X409448Y554228D02*
Y558292D01*
X413512D01*
Y554228D01*
X409448D01*
X384048D02*
Y558292D01*
X388112D01*
Y554228D01*
X384048D01*
X409448Y579628D02*
Y583692D01*
X413512D01*
Y579628D01*
X409448D01*
X384048D02*
Y583692D01*
X388112D01*
Y579628D01*
X384048D01*
X409448Y605028D02*
Y609092D01*
X413512D01*
Y605028D01*
X409448D01*
X384048D02*
Y609092D01*
X388112D01*
Y605028D01*
X384048D01*
X409448Y630428D02*
Y634492D01*
X413512D01*
Y630428D01*
X409448D01*
X384048D02*
Y634492D01*
X388112D01*
Y630428D01*
X384048D01*
X409448Y655828D02*
Y659892D01*
X413512D01*
Y655828D01*
X409448D01*
X384048D02*
Y659892D01*
X388112D01*
Y655828D01*
X384048D01*
X409448Y681228D02*
Y685292D01*
X413512D01*
Y681228D01*
X409448D01*
X384048D02*
Y685292D01*
X388112D01*
Y681228D01*
X384048D01*
X409448Y706628D02*
Y710692D01*
X413512D01*
Y706628D01*
X409448D01*
X384048D02*
Y710692D01*
X388112D01*
Y706628D01*
X384048D01*
X409448Y732028D02*
Y736092D01*
X413512D01*
Y732028D01*
X409448D01*
X384048D02*
Y736092D01*
X388112D01*
Y732028D01*
X384048D01*
X409448Y757428D02*
Y761492D01*
X413512D01*
Y757428D01*
X409448D01*
X384048D02*
Y761492D01*
X388112D01*
Y757428D01*
X384048D01*
X409448Y782828D02*
Y786892D01*
X413512D01*
Y782828D01*
X409448D01*
X384048D02*
Y786892D01*
X388112D01*
Y782828D01*
X384048D01*
X409448Y808228D02*
Y812292D01*
X413512D01*
Y808228D01*
X409448D01*
X384048D02*
Y812292D01*
X388112D01*
Y808228D01*
X384048D01*
X409448Y833628D02*
Y837692D01*
X413512D01*
Y833628D01*
X409448D01*
X384048D02*
Y837692D01*
X388112D01*
Y833628D01*
X384048D01*
X409448Y859028D02*
Y863092D01*
X413512D01*
Y859028D01*
X409448D01*
X384048D02*
Y863092D01*
X388112D01*
Y859028D01*
X384048D01*
X409448Y884428D02*
Y888492D01*
X413512D01*
Y884428D01*
X409448D01*
X384048D02*
Y888492D01*
X388112D01*
Y884428D01*
X384048D01*
X409448Y909828D02*
Y913892D01*
X413512D01*
Y909828D01*
X409448D01*
X384048D02*
Y913892D01*
X388112D01*
Y909828D01*
X384048D01*
X409448Y935228D02*
Y939292D01*
X413512D01*
Y935228D01*
X409448D01*
X384048D02*
Y939292D01*
X388112D01*
Y935228D01*
X384048D01*
X757018Y910218D02*
Y914282D01*
X761082D01*
Y910218D01*
X757018D01*
Y884818D02*
Y888882D01*
X761082D01*
Y884818D01*
X757018D01*
X731618Y910218D02*
Y914282D01*
X735682D01*
Y910218D01*
X731618D01*
Y884818D02*
Y888882D01*
X735682D01*
Y884818D01*
X731618D01*
X706218Y910218D02*
Y914282D01*
X710282D01*
Y910218D01*
X706218D01*
Y884818D02*
Y888882D01*
X710282D01*
Y884818D01*
X706218D01*
X680818Y910218D02*
Y914282D01*
X684882D01*
Y910218D01*
X680818D01*
Y884818D02*
Y888882D01*
X684882D01*
Y884818D01*
X680818D01*
X655418Y910218D02*
Y914282D01*
X659482D01*
Y910218D01*
X655418D01*
Y884818D02*
Y888882D01*
X659482D01*
Y884818D01*
X655418D01*
X822750Y731318D02*
X820718Y735382D01*
X824782D01*
X822750Y731318D01*
X812750Y739468D02*
X813766Y740484D01*
X814782D01*
X813766Y741500D01*
X814782Y742516D01*
X813766D01*
X812750Y743532D01*
X811734Y742516D01*
X810718D01*
X811734Y741500D01*
X810718Y740484D01*
X811734D01*
X812750Y739468D01*
X817626Y744736D02*
X818642Y745752D01*
X819658D01*
X818642Y746768D01*
X819658Y747784D01*
X818642D01*
X817626Y748800D01*
X816610Y747784D01*
X815594D01*
X816610Y746768D01*
X815594Y745752D01*
X816610D01*
X817626Y744736D01*
X706250Y686218D02*
X704218Y690282D01*
X708282D01*
X706250Y686218D01*
X569218Y728718D02*
X570234Y730750D01*
X569218Y732782D01*
X571250Y731766D01*
X573282Y732782D01*
X572266Y730750D01*
X573282Y728718D01*
X571250Y729734D01*
X569218Y728718D01*
Y718718D02*
X570234Y720750D01*
X569218Y722782D01*
X571250Y721766D01*
X573282Y722782D01*
X572266Y720750D01*
X573282Y718718D01*
X571250Y719734D01*
X569218Y718718D01*
Y708718D02*
X570234Y710750D01*
X569218Y712782D01*
X571250Y711766D01*
X573282Y712782D01*
X572266Y710750D01*
X573282Y708718D01*
X571250Y709734D01*
X569218Y708718D01*
X579218D02*
X580234Y710750D01*
X579218Y712782D01*
X581250Y711766D01*
X583282Y712782D01*
X582266Y710750D01*
X583282Y708718D01*
X581250Y709734D01*
X579218Y708718D01*
X589218D02*
X590234Y710750D01*
X589218Y712782D01*
X591250Y711766D01*
X593282Y712782D01*
X592266Y710750D01*
X593282Y708718D01*
X591250Y709734D01*
X589218Y708718D01*
Y718718D02*
X590234Y720750D01*
X589218Y722782D01*
X591250Y721766D01*
X593282Y722782D01*
X592266Y720750D01*
X593282Y718718D01*
X591250Y719734D01*
X589218Y718718D01*
Y728718D02*
X590234Y730750D01*
X589218Y732782D01*
X591250Y731766D01*
X593282Y732782D01*
X592266Y730750D01*
X593282Y728718D01*
X591250Y729734D01*
X589218Y728718D01*
X579218D02*
X580234Y730750D01*
X579218Y732782D01*
X581250Y731766D01*
X583282Y732782D01*
X582266Y730750D01*
X583282Y728718D01*
X581250Y729734D01*
X579218Y728718D01*
Y718718D02*
X580234Y720750D01*
X579218Y722782D01*
X581250Y721766D01*
X583282Y722782D01*
X582266Y720750D01*
X583282Y718718D01*
X581250Y719734D01*
X579218Y718718D01*
X529548Y506218D02*
X530564Y508250D01*
X529548Y510282D01*
X531580Y509266D01*
X533612Y510282D01*
X532596Y508250D01*
X533612Y506218D01*
X531580Y507234D01*
X529548Y506218D01*
X519388D02*
X520404Y508250D01*
X519388Y510282D01*
X521420Y509266D01*
X523452Y510282D01*
X522436Y508250D01*
X523452Y506218D01*
X521420Y507234D01*
X519388Y506218D01*
X730984Y728484D02*
Y727468D01*
X733016D01*
Y728484D01*
X734032D01*
Y730516D01*
X733016D01*
Y731532D01*
X730984D01*
Y730516D01*
X729968D01*
Y728484D01*
X730984D01*
Y716484D02*
Y715468D01*
X733016D01*
Y716484D01*
X734032D01*
Y718516D01*
X733016D01*
Y719532D01*
X730984D01*
Y718516D01*
X729968D01*
Y716484D01*
X730984D01*
Y704484D02*
Y703468D01*
X733016D01*
Y704484D01*
X734032D01*
Y706516D01*
X733016D01*
Y707532D01*
X730984D01*
Y706516D01*
X729968D01*
Y704484D01*
X730984D01*
X754984D02*
Y703468D01*
X757016D01*
Y704484D01*
X758032D01*
Y706516D01*
X757016D01*
Y707532D01*
X754984D01*
Y706516D01*
X753968D01*
Y704484D01*
X754984D01*
Y716484D02*
Y715468D01*
X757016D01*
Y716484D01*
X758032D01*
Y718516D01*
X757016D01*
Y719532D01*
X754984D01*
Y718516D01*
X753968D01*
Y716484D01*
X754984D01*
Y728484D02*
Y727468D01*
X757016D01*
Y728484D01*
X758032D01*
Y730516D01*
X757016D01*
Y731532D01*
X754984D01*
Y730516D01*
X753968D01*
Y728484D01*
X754984D01*
X742984D02*
Y727468D01*
X745016D01*
Y728484D01*
X746032D01*
Y730516D01*
X745016D01*
Y731532D01*
X742984D01*
Y730516D01*
X741968D01*
Y728484D01*
X742984D01*
Y704484D02*
Y703468D01*
X745016D01*
Y704484D01*
X746032D01*
Y706516D01*
X745016D01*
Y707532D01*
X742984D01*
Y706516D01*
X741968D01*
Y704484D01*
X742984D01*
Y716484D02*
Y715468D01*
X745016D01*
Y716484D01*
X746032D01*
Y718516D01*
X745016D01*
Y719532D01*
X742984D01*
Y718516D01*
X741968D01*
Y716484D01*
X742984D01*
X606250Y462718D02*
X604218Y466782D01*
X608282D01*
X606250Y462718D01*
X615000D02*
X612968Y466782D01*
X617032D01*
X615000Y462718D01*
X623750D02*
X621718Y466782D01*
X625782D01*
X623750Y462718D01*
X726000Y587218D02*
X723968Y591282D01*
X728032D01*
X726000Y587218D01*
Y578468D02*
X723968Y582532D01*
X728032D01*
X726000Y578468D01*
Y569718D02*
X723968Y573782D01*
X728032D01*
X726000Y569718D01*
X511218Y543718D02*
X512234D01*
X513250Y544734D01*
X514266Y543718D01*
X515282D01*
Y544734D01*
X514266Y545750D01*
X515282Y546766D01*
Y547782D01*
X514266D01*
X513250Y546766D01*
X512234Y547782D01*
X511218D01*
Y546766D01*
X512234Y545750D01*
X511218Y544734D01*
Y543718D01*
X643750Y566218D02*
X641718Y570282D01*
X645782D01*
X643750Y566218D01*
Y574968D02*
X641718Y579032D01*
X645782D01*
X643750Y574968D01*
Y583718D02*
X641718Y587782D01*
X645782D01*
X643750Y583718D01*
X605250Y543218D02*
X603218Y547282D01*
X607282D01*
X605250Y543218D01*
X614000D02*
X611968Y547282D01*
X616032D01*
X614000Y543218D01*
X622750D02*
X620718Y547282D01*
X624782D01*
X622750Y543218D01*
X652250Y595468D02*
X650218Y599532D01*
X654282D01*
X652250Y595468D01*
X661000D02*
X658968Y599532D01*
X663032D01*
X661000Y595468D01*
X669750D02*
X667718Y599532D01*
X671782D01*
X669750Y595468D01*
X595750Y533718D02*
X593718Y537782D01*
X597782D01*
X595750Y533718D01*
Y524968D02*
X593718Y529032D01*
X597782D01*
X595750Y524968D01*
Y516218D02*
X593718Y520282D01*
X597782D01*
X595750Y516218D01*
X726000Y595968D02*
X723968Y600032D01*
X728032D01*
X726000Y595968D01*
X717250D02*
X715218Y600032D01*
X719282D01*
X717250Y595968D01*
X708500D02*
X706468Y600032D01*
X710532D01*
X708500Y595968D01*
X699750D02*
X697718Y600032D01*
X701782D01*
X699750Y595968D01*
X691000D02*
X688968Y600032D01*
X693032D01*
X691000Y595968D01*
X596000Y475218D02*
X593968Y479282D01*
X598032D01*
X596000Y475218D01*
Y483968D02*
X593968Y488032D01*
X598032D01*
X596000Y483968D01*
Y492718D02*
X593968Y496782D01*
X598032D01*
X596000Y492718D01*
X517218Y467968D02*
X518234D01*
X519250Y468984D01*
X520266Y467968D01*
X521282D01*
Y468984D01*
X520266Y470000D01*
X521282Y471016D01*
Y472032D01*
X520266D01*
X519250Y471016D01*
X518234Y472032D01*
X517218D01*
Y471016D01*
X518234Y470000D01*
X517218Y468984D01*
Y467968D01*
X501000Y543218D02*
X498968Y547282D01*
X503032D01*
X501000Y543218D01*
X520468Y543718D02*
X521484D01*
X522500Y544734D01*
X523516Y543718D01*
X524532D01*
Y544734D01*
X523516Y545750D01*
X524532Y546766D01*
Y547782D01*
X523516D01*
X522500Y546766D01*
X521484Y547782D01*
X520468D01*
Y546766D01*
X521484Y545750D01*
X520468Y544734D01*
Y543718D01*
X531718Y544218D02*
X532734D01*
X533750Y545234D01*
X534766Y544218D01*
X535782D01*
Y545234D01*
X534766Y546250D01*
X535782Y547266D01*
Y548282D01*
X534766D01*
X533750Y547266D01*
X532734Y548282D01*
X531718D01*
Y547266D01*
X532734Y546250D01*
X531718Y545234D01*
Y544218D01*
X539968D02*
X540984D01*
X542000Y545234D01*
X543016Y544218D01*
X544032D01*
Y545234D01*
X543016Y546250D01*
X544032Y547266D01*
Y548282D01*
X543016D01*
X542000Y547266D01*
X540984Y548282D01*
X539968D01*
Y547266D01*
X540984Y546250D01*
X539968Y545234D01*
Y544218D01*
X537968Y467218D02*
X538984D01*
X540000Y468234D01*
X541016Y467218D01*
X542032D01*
Y468234D01*
X541016Y469250D01*
X542032Y470266D01*
Y471282D01*
X541016D01*
X540000Y470266D01*
X538984Y471282D01*
X537968D01*
Y470266D01*
X538984Y469250D01*
X537968Y468234D01*
Y467218D01*
X529968D02*
X530984D01*
X532000Y468234D01*
X533016Y467218D01*
X534032D01*
Y468234D01*
X533016Y469250D01*
X534032Y470266D01*
Y471282D01*
X533016D01*
X532000Y470266D01*
X530984Y471282D01*
X529968D01*
Y470266D01*
X530984Y469250D01*
X529968Y468234D01*
Y467218D01*
X495500Y492468D02*
X493468Y496532D01*
X497532D01*
X495500Y492468D01*
X505718Y479718D02*
X506734D01*
X507750Y480734D01*
X508766Y479718D01*
X509782D01*
Y480734D01*
X508766Y481750D01*
X509782Y482766D01*
Y483782D01*
X508766D01*
X507750Y482766D01*
X506734Y483782D01*
X505718D01*
Y482766D01*
X506734Y481750D01*
X505718Y480734D01*
Y479718D01*
X505968Y468468D02*
X506984D01*
X508000Y469484D01*
X509016Y468468D01*
X510032D01*
Y469484D01*
X509016Y470500D01*
X510032Y471516D01*
Y472532D01*
X509016D01*
X508000Y471516D01*
X506984Y472532D01*
X505968D01*
Y471516D01*
X506984Y470500D01*
X505968Y469484D01*
Y468468D01*
X562250Y895968D02*
X560218Y900032D01*
X564282D01*
X562250Y895968D01*
X499750Y915968D02*
X497718Y920032D01*
X501782D01*
X499750Y915968D01*
X550500Y920968D02*
X548468Y925032D01*
X552532D01*
X550500Y920968D01*
X500500Y930468D02*
X498468Y934532D01*
X502532D01*
X500500Y930468D01*
X778500Y694468D02*
X779516Y695484D01*
X780532D01*
X779516Y696500D01*
X780532Y697516D01*
X779516D01*
X778500Y698532D01*
X777484Y697516D01*
X776468D01*
X777484Y696500D01*
X776468Y695484D01*
X777484D01*
X778500Y694468D01*
X778750Y708968D02*
X779766Y709984D01*
X780782D01*
X779766Y711000D01*
X780782Y712016D01*
X779766D01*
X778750Y713032D01*
X777734Y712016D01*
X776718D01*
X777734Y711000D01*
X776718Y709984D01*
X777734D01*
X778750Y708968D01*
X817000Y677968D02*
X814968Y682032D01*
X819032D01*
X817000Y677968D01*
X816000Y690718D02*
X813968Y694782D01*
X818032D01*
X816000Y690718D01*
X789250D02*
X787218Y694782D01*
X791282D01*
X789250Y690718D01*
X821000Y712968D02*
X818968Y717032D01*
X823032D01*
X821000Y712968D01*
X780500Y726718D02*
X778468Y730782D01*
X782532D01*
X780500Y726718D01*
Y741968D02*
X778468Y746032D01*
X782532D01*
X780500Y741968D01*
X765500Y750968D02*
X763468Y755032D01*
X767532D01*
X765500Y750968D01*
X746750Y658968D02*
X744718Y663032D01*
X748782D01*
X746750Y658968D01*
X734250D02*
X732218Y663032D01*
X736282D01*
X734250Y658968D01*
X696500Y670718D02*
X694468Y674782D01*
X698532D01*
X696500Y670718D01*
X654000Y735218D02*
X651968Y739282D01*
X656032D01*
X654000Y735218D01*
X694750Y734968D02*
X692718Y739032D01*
X696782D01*
X694750Y734968D01*
X706500Y648968D02*
X704468Y653032D01*
X708532D01*
X706500Y648968D01*
X718750Y658968D02*
X716718Y663032D01*
X720782D01*
X718750Y658968D01*
X762250D02*
X760218Y663032D01*
X764282D01*
X762250Y658968D01*
X770250Y680598D02*
X768218Y684662D01*
X772282D01*
X770250Y680598D01*
X762130Y680848D02*
X760098Y684912D01*
X764162D01*
X762130Y680848D01*
X754880D02*
X752848Y684912D01*
X756912D01*
X754880Y680848D01*
X486250Y895718D02*
X487266Y896734D01*
X488282D01*
X487266Y897750D01*
X488282Y898766D01*
X487266D01*
X486250Y899782D01*
X485234Y898766D01*
X484218D01*
X485234Y897750D01*
X484218Y896734D01*
X485234D01*
X486250Y895718D01*
X428250Y1006718D02*
X426218Y1010782D01*
X430282D01*
X428250Y1006718D01*
X497500D02*
X495468Y1010782D01*
X499532D01*
X497500Y1006718D01*
X511750Y720968D02*
X509718Y725032D01*
X513782D01*
X511750Y720968D01*
Y710968D02*
X509718Y715032D01*
X513782D01*
X511750Y710968D01*
X591658Y800876D02*
X589626Y804940D01*
X593690D01*
X591658Y800876D01*
Y812560D02*
X589626Y816624D01*
X593690D01*
X591658Y812560D01*
X556750Y827718D02*
X554718Y831782D01*
X558782D01*
X556750Y827718D01*
X569408Y786126D02*
X567376Y790190D01*
X571440D01*
X569408Y786126D01*
X602592D02*
X600560Y790190D01*
X604624D01*
X602592Y786126D01*
X581092Y787126D02*
X579060Y791190D01*
X583124D01*
X581092Y787126D01*
X590908D02*
X588876Y791190D01*
X592940D01*
X590908Y787126D01*
X569500Y768310D02*
X567468Y772374D01*
X571532D01*
X569500Y768310D01*
X614000Y772218D02*
X611968Y776282D01*
X616032D01*
X614000Y772218D01*
X654750Y759468D02*
X652718Y763532D01*
X656782D01*
X654750Y759468D01*
Y750468D02*
X652718Y754532D01*
X656782D01*
X654750Y750468D01*
X743750Y776218D02*
X741718Y780282D01*
X745782D01*
X743750Y776218D01*
X744000Y752468D02*
X741968Y756532D01*
X746032D01*
X744000Y752468D01*
X743750Y760718D02*
X744766Y761734D01*
X745782D01*
X744766Y762750D01*
X745782Y763766D01*
X744766D01*
X743750Y764782D01*
X742734Y763766D01*
X741718D01*
X742734Y762750D01*
X741718Y761734D01*
X742734D01*
X743750Y760718D01*
Y767968D02*
X744766Y768984D01*
X745782D01*
X744766Y770000D01*
X745782Y771016D01*
X744766D01*
X743750Y772032D01*
X742734Y771016D01*
X741718D01*
X742734Y770000D01*
X741718Y768984D01*
X742734D01*
X743750Y767968D01*
X771000Y794218D02*
X768968Y798282D01*
X773032D01*
X771000Y794218D01*
Y819618D02*
X768968Y823682D01*
X773032D01*
X771000Y819618D01*
X743750Y834818D02*
X741718Y838882D01*
X745782D01*
X743750Y834818D01*
X716500Y806918D02*
X714468Y810982D01*
X718532D01*
X716500Y806918D01*
Y794218D02*
X714468Y798282D01*
X718532D01*
X716500Y794218D01*
X571500Y663876D02*
X569468Y667940D01*
X573532D01*
X571500Y663876D01*
X556066Y664284D02*
X554034Y668348D01*
X558098D01*
X556066Y664284D01*
X579500Y656600D02*
X577468Y660664D01*
X581532D01*
X579500Y656600D01*
X601500Y656692D02*
X599468Y660756D01*
X603532D01*
X601500Y656692D01*
X590500Y656468D02*
X588468Y660532D01*
X592532D01*
X590500Y656468D01*
X624000Y628468D02*
X621968Y632532D01*
X626032D01*
X624000Y628468D01*
X655000Y644310D02*
X652968Y648374D01*
X657032D01*
X655000Y644310D01*
X667500Y654218D02*
X665468Y658282D01*
X669532D01*
X667500Y654218D01*
X651000Y702718D02*
X648968Y706782D01*
X653032D01*
X651000Y702718D01*
X707250Y711718D02*
X705218Y715782D01*
X709282D01*
X707250Y711718D01*
X717750Y753218D02*
X715718Y757282D01*
X719782D01*
X717750Y753218D01*
X528500Y727718D02*
X526468Y731782D01*
X530532D01*
X528500Y727718D01*
X511750Y736218D02*
X509718Y740282D01*
X513782D01*
X511750Y736218D01*
X540500Y731218D02*
X541516Y732234D01*
X542532D01*
X541516Y733250D01*
X542532Y734266D01*
X541516D01*
X540500Y735282D01*
X539484Y734266D01*
X538468D01*
X539484Y733250D01*
X538468Y732234D01*
X539484D01*
X540500Y731218D01*
X822750Y786718D02*
X820718Y790782D01*
X824782D01*
X822750Y786718D01*
X801500Y728718D02*
X802516Y729734D01*
X803532D01*
X802516Y730750D01*
X803532Y731766D01*
X802516D01*
X801500Y732782D01*
X800484Y731766D01*
X799468D01*
X800484Y730750D01*
X799468Y729734D01*
X800484D01*
X801500Y728718D01*
X807000Y733968D02*
X808016Y734984D01*
X809032D01*
X808016Y736000D01*
X809032Y737016D01*
X808016D01*
X807000Y738032D01*
X805984Y737016D01*
X804968D01*
X805984Y736000D01*
X804968Y734984D01*
X805984D01*
X807000Y733968D01*
X821436Y738640D02*
X822452Y739656D01*
X823468D01*
X822452Y740672D01*
X823468Y741688D01*
X822452D01*
X821436Y742704D01*
X820420Y741688D01*
X819404D01*
X820420Y740672D01*
X819404Y739656D01*
X820420D01*
X821436Y738640D01*
X796000Y747218D02*
X797016Y748234D01*
X798032D01*
X797016Y749250D01*
X798032Y750266D01*
X797016D01*
X796000Y751282D01*
X794984Y750266D01*
X793968D01*
X794984Y749250D01*
X793968Y748234D01*
X794984D01*
X796000Y747218D01*
X801500Y753468D02*
X802516Y754484D01*
X803532D01*
X802516Y755500D01*
X803532Y756516D01*
X802516D01*
X801500Y757532D01*
X800484Y756516D01*
X799468D01*
X800484Y755500D01*
X799468Y754484D01*
X800484D01*
X801500Y753468D01*
X807000Y760218D02*
X808016Y761234D01*
X809032D01*
X808016Y762250D01*
X809032Y763266D01*
X808016D01*
X807000Y764282D01*
X805984Y763266D01*
X804968D01*
X805984Y762250D01*
X804968Y761234D01*
X805984D01*
X807000Y760218D01*
X813500Y766718D02*
X814516Y767734D01*
X815532D01*
X814516Y768750D01*
X815532Y769766D01*
X814516D01*
X813500Y770782D01*
X812484Y769766D01*
X811468D01*
X812484Y768750D01*
X811468Y767734D01*
X812484D01*
X813500Y766718D01*
X820928Y769858D02*
X821944Y770874D01*
X822960D01*
X821944Y771890D01*
X822960Y772906D01*
X821944D01*
X820928Y773922D01*
X819912Y772906D01*
X818896D01*
X819912Y771890D01*
X818896Y770874D01*
X819912D01*
X820928Y769858D01*
X822706Y777986D02*
X823722Y779002D01*
X824738D01*
X823722Y780018D01*
X824738Y781034D01*
X823722D01*
X822706Y782050D01*
X821690Y781034D01*
X820674D01*
X821690Y780018D01*
X820674Y779002D01*
X821690D01*
X822706Y777986D01*
X775250Y754218D02*
X776266Y755234D01*
X777282D01*
X776266Y756250D01*
X777282Y757266D01*
X776266D01*
X775250Y758282D01*
X774234Y757266D01*
X773218D01*
X774234Y756250D01*
X773218Y755234D01*
X774234D01*
X775250Y754218D01*
X783000Y760718D02*
X784016Y761734D01*
X785032D01*
X784016Y762750D01*
X785032Y763766D01*
X784016D01*
X783000Y764782D01*
X781984Y763766D01*
X780968D01*
X781984Y762750D01*
X780968Y761734D01*
X781984D01*
X783000Y760718D01*
X791500Y766718D02*
X792516Y767734D01*
X793532D01*
X792516Y768750D01*
X793532Y769766D01*
X792516D01*
X791500Y770782D01*
X790484Y769766D01*
X789468D01*
X790484Y768750D01*
X789468Y767734D01*
X790484D01*
X791500Y766718D01*
X795250Y775718D02*
X796266Y776734D01*
X797282D01*
X796266Y777750D01*
X797282Y778766D01*
X796266D01*
X795250Y779782D01*
X794234Y778766D01*
X793218D01*
X794234Y777750D01*
X793218Y776734D01*
X794234D01*
X795250Y775718D01*
X795750Y786468D02*
X796766Y787484D01*
X797782D01*
X796766Y788500D01*
X797782Y789516D01*
X796766D01*
X795750Y790532D01*
X794734Y789516D01*
X793718D01*
X794734Y788500D01*
X793718Y787484D01*
X794734D01*
X795750Y786468D01*
Y797218D02*
X796766Y798234D01*
X797782D01*
X796766Y799250D01*
X797782Y800266D01*
X796766D01*
X795750Y801282D01*
X794734Y800266D01*
X793718D01*
X794734Y799250D01*
X793718Y798234D01*
X794734D01*
X795750Y797218D01*
Y807718D02*
X796766Y808734D01*
X797782D01*
X796766Y809750D01*
X797782Y810766D01*
X796766D01*
X795750Y811782D01*
X794734Y810766D01*
X793718D01*
X794734Y809750D01*
X793718Y808734D01*
X794734D01*
X795750Y807718D01*
X795000Y818468D02*
X796016Y819484D01*
X797032D01*
X796016Y820500D01*
X797032Y821516D01*
X796016D01*
X795000Y822532D01*
X793984Y821516D01*
X792968D01*
X793984Y820500D01*
X792968Y819484D01*
X793984D01*
X795000Y818468D01*
X791750Y829218D02*
X792766Y830234D01*
X793782D01*
X792766Y831250D01*
X793782Y832266D01*
X792766D01*
X791750Y833282D01*
X790734Y832266D01*
X789718D01*
X790734Y831250D01*
X789718Y830234D01*
X790734D01*
X791750Y829218D01*
X785500Y836968D02*
X786516Y837984D01*
X787532D01*
X786516Y839000D01*
X787532Y840016D01*
X786516D01*
X785500Y841032D01*
X784484Y840016D01*
X783468D01*
X784484Y839000D01*
X783468Y837984D01*
X784484D01*
X785500Y836968D01*
X776500Y841968D02*
X777516Y842984D01*
X778532D01*
X777516Y844000D01*
X778532Y845016D01*
X777516D01*
X776500Y846032D01*
X775484Y845016D01*
X774468D01*
X775484Y844000D01*
X774468Y842984D01*
X775484D01*
X776500Y841968D01*
X767250Y842468D02*
X768266Y843484D01*
X769282D01*
X768266Y844500D01*
X769282Y845516D01*
X768266D01*
X767250Y846532D01*
X766234Y845516D01*
X765218D01*
X766234Y844500D01*
X765218Y843484D01*
X766234D01*
X767250Y842468D01*
X758750Y841968D02*
X759766Y842984D01*
X760782D01*
X759766Y844000D01*
X760782Y845016D01*
X759766D01*
X758750Y846032D01*
X757734Y845016D01*
X756718D01*
X757734Y844000D01*
X756718Y842984D01*
X757734D01*
X758750Y841968D01*
X751250Y839468D02*
X752266Y840484D01*
X753282D01*
X752266Y841500D01*
X753282Y842516D01*
X752266D01*
X751250Y843532D01*
X750234Y842516D01*
X749218D01*
X750234Y841500D01*
X749218Y840484D01*
X750234D01*
X751250Y839468D01*
X695500Y750468D02*
X693468Y754532D01*
X697532D01*
X695500Y750468D01*
X663194Y732790D02*
X664210Y733806D01*
X665226D01*
X664210Y734822D01*
X665226Y735838D01*
X664210D01*
X663194Y736854D01*
X662178Y735838D01*
X661162D01*
X662178Y734822D01*
X661162Y733806D01*
X662178D01*
X663194Y732790D01*
X671068Y731012D02*
X672084Y732028D01*
X673100D01*
X672084Y733044D01*
X673100Y734060D01*
X672084D01*
X671068Y735076D01*
X670052Y734060D01*
X669036D01*
X670052Y733044D01*
X669036Y732028D01*
X670052D01*
X671068Y731012D01*
X678942Y729234D02*
X679958Y730250D01*
X680974D01*
X679958Y731266D01*
X680974Y732282D01*
X679958D01*
X678942Y733298D01*
X677926Y732282D01*
X676910D01*
X677926Y731266D01*
X676910Y730250D01*
X677926D01*
X678942Y729234D01*
X686562Y727964D02*
X687578Y728980D01*
X688594D01*
X687578Y729996D01*
X688594Y731012D01*
X687578D01*
X686562Y732028D01*
X685546Y731012D01*
X684530D01*
X685546Y729996D01*
X684530Y728980D01*
X685546D01*
X686562Y727964D01*
X659250Y704218D02*
X660266Y705234D01*
X661282D01*
X660266Y706250D01*
X661282Y707266D01*
X660266D01*
X659250Y708282D01*
X658234Y707266D01*
X657218D01*
X658234Y706250D01*
X657218Y705234D01*
X658234D01*
X659250Y704218D01*
X667000Y706218D02*
X668016Y707234D01*
X669032D01*
X668016Y708250D01*
X669032Y709266D01*
X668016D01*
X667000Y710282D01*
X665984Y709266D01*
X664968D01*
X665984Y708250D01*
X664968Y707234D01*
X665984D01*
X667000Y706218D01*
X675000Y707468D02*
X676016Y708484D01*
X677032D01*
X676016Y709500D01*
X677032Y710516D01*
X676016D01*
X675000Y711532D01*
X673984Y710516D01*
X672968D01*
X673984Y709500D01*
X672968Y708484D01*
X673984D01*
X675000Y707468D01*
X683000Y708468D02*
X684016Y709484D01*
X685032D01*
X684016Y710500D01*
X685032Y711516D01*
X684016D01*
X683000Y712532D01*
X681984Y711516D01*
X680968D01*
X681984Y710500D01*
X680968Y709484D01*
X681984D01*
X683000Y708468D01*
X691250Y709718D02*
X692266Y710734D01*
X693282D01*
X692266Y711750D01*
X693282Y712766D01*
X692266D01*
X691250Y713782D01*
X690234Y712766D01*
X689218D01*
X690234Y711750D01*
X689218Y710734D01*
X690234D01*
X691250Y709718D01*
X699000Y710718D02*
X700016Y711734D01*
X701032D01*
X700016Y712750D01*
X701032Y713766D01*
X700016D01*
X699000Y714782D01*
X697984Y713766D01*
X696968D01*
X697984Y712750D01*
X696968Y711734D01*
X697984D01*
X699000Y710718D01*
X789000Y743468D02*
X790016Y744484D01*
X791032D01*
X790016Y745500D01*
X791032Y746516D01*
X790016D01*
X789000Y747532D01*
X787984Y746516D01*
X786968D01*
X787984Y745500D01*
X786968Y744484D01*
X787984D01*
X789000Y743468D01*
X794750Y726718D02*
X795766Y727734D01*
X796782D01*
X795766Y728750D01*
X796782Y729766D01*
X795766D01*
X794750Y730782D01*
X793734Y729766D01*
X792718D01*
X793734Y728750D01*
X792718Y727734D01*
X793734D01*
X794750Y726718D01*
X788000Y726218D02*
X789016Y727234D01*
X790032D01*
X789016Y728250D01*
X790032Y729266D01*
X789016D01*
X788000Y730282D01*
X786984Y729266D01*
X785968D01*
X786984Y728250D01*
X785968Y727234D01*
X786984D01*
X788000Y726218D01*
X736500Y838968D02*
X737516Y839984D01*
X738532D01*
X737516Y841000D01*
X738532Y842016D01*
X737516D01*
X736500Y843032D01*
X735484Y842016D01*
X734468D01*
X735484Y841000D01*
X734468Y839984D01*
X735484D01*
X736500Y838968D01*
X701000Y839218D02*
X702016Y840234D01*
X703032D01*
X702016Y841250D01*
X703032Y842266D01*
X702016D01*
X701000Y843282D01*
X699984Y842266D01*
X698968D01*
X699984Y841250D01*
X698968Y840234D01*
X699984D01*
X701000Y839218D01*
X693500Y832968D02*
X694516Y833984D01*
X695532D01*
X694516Y835000D01*
X695532Y836016D01*
X694516D01*
X693500Y837032D01*
X692484Y836016D01*
X691468D01*
X692484Y835000D01*
X691468Y833984D01*
X692484D01*
X693500Y832968D01*
X688500Y824718D02*
X689516Y825734D01*
X690532D01*
X689516Y826750D01*
X690532Y827766D01*
X689516D01*
X688500Y828782D01*
X687484Y827766D01*
X686468D01*
X687484Y826750D01*
X686468Y825734D01*
X687484D01*
X688500Y824718D01*
X687250Y813968D02*
X688266Y814984D01*
X689282D01*
X688266Y816000D01*
X689282Y817016D01*
X688266D01*
X687250Y818032D01*
X686234Y817016D01*
X685218D01*
X686234Y816000D01*
X685218Y814984D01*
X686234D01*
X687250Y813968D01*
X687000Y803718D02*
X688016Y804734D01*
X689032D01*
X688016Y805750D01*
X689032Y806766D01*
X688016D01*
X687000Y807782D01*
X685984Y806766D01*
X684968D01*
X685984Y805750D01*
X684968Y804734D01*
X685984D01*
X687000Y803718D01*
X687250Y793718D02*
X688266Y794734D01*
X689282D01*
X688266Y795750D01*
X689282Y796766D01*
X688266D01*
X687250Y797782D01*
X686234Y796766D01*
X685218D01*
X686234Y795750D01*
X685218Y794734D01*
X686234D01*
X687250Y793718D01*
X687500Y784218D02*
X688516Y785234D01*
X689532D01*
X688516Y786250D01*
X689532Y787266D01*
X688516D01*
X687500Y788282D01*
X686484Y787266D01*
X685468D01*
X686484Y786250D01*
X685468Y785234D01*
X686484D01*
X687500Y784218D01*
X690000Y775218D02*
X691016Y776234D01*
X692032D01*
X691016Y777250D01*
X692032Y778266D01*
X691016D01*
X690000Y779282D01*
X688984Y778266D01*
X687968D01*
X688984Y777250D01*
X687968Y776234D01*
X688984D01*
X690000Y775218D01*
X696250Y768968D02*
X697266Y769984D01*
X698282D01*
X697266Y771000D01*
X698282Y772016D01*
X697266D01*
X696250Y773032D01*
X695234Y772016D01*
X694218D01*
X695234Y771000D01*
X694218Y769984D01*
X695234D01*
X696250Y768968D01*
X704250Y764718D02*
X705266Y765734D01*
X706282D01*
X705266Y766750D01*
X706282Y767766D01*
X705266D01*
X704250Y768782D01*
X703234Y767766D01*
X702218D01*
X703234Y766750D01*
X702218Y765734D01*
X703234D01*
X704250Y764718D01*
X712000Y760968D02*
X713016Y761984D01*
X714032D01*
X713016Y763000D01*
X714032Y764016D01*
X713016D01*
X712000Y765032D01*
X710984Y764016D01*
X709968D01*
X710984Y763000D01*
X709968Y761984D01*
X710984D01*
X712000Y760968D01*
X547250Y721218D02*
X548266Y722234D01*
X549282D01*
X548266Y723250D01*
X549282Y724266D01*
X548266D01*
X547250Y725282D01*
X546234Y724266D01*
X545218D01*
X546234Y723250D01*
X545218Y722234D01*
X546234D01*
X547250Y721218D01*
X539750D02*
X540766Y722234D01*
X541782D01*
X540766Y723250D01*
X541782Y724266D01*
X540766D01*
X539750Y725282D01*
X538734Y724266D01*
X537718D01*
X538734Y723250D01*
X537718Y722234D01*
X538734D01*
X539750Y721218D01*
X729250Y841968D02*
X730266Y842984D01*
X731282D01*
X730266Y844000D01*
X731282Y845016D01*
X730266D01*
X729250Y846032D01*
X728234Y845016D01*
X727218D01*
X728234Y844000D01*
X727218Y842984D01*
X728234D01*
X729250Y841968D01*
X720000Y842968D02*
X721016Y843984D01*
X722032D01*
X721016Y845000D01*
X722032Y846016D01*
X721016D01*
X720000Y847032D01*
X718984Y846016D01*
X717968D01*
X718984Y845000D01*
X717968Y843984D01*
X718984D01*
X720000Y842968D01*
X710500Y842718D02*
X711516Y843734D01*
X712532D01*
X711516Y844750D01*
X712532Y845766D01*
X711516D01*
X710500Y846782D01*
X709484Y845766D01*
X708468D01*
X709484Y844750D01*
X708468Y843734D01*
X709484D01*
X710500Y842718D01*
X539000Y884218D02*
X540016Y885234D01*
X541032D01*
X540016Y886250D01*
X541032Y887266D01*
X540016D01*
X539000Y888282D01*
X537984Y887266D01*
X536968D01*
X537984Y886250D01*
X536968Y885234D01*
X537984D01*
X539000Y884218D01*
X467750Y689968D02*
X468766Y690984D01*
X469782D01*
X468766Y692000D01*
X469782Y693016D01*
X468766D01*
X467750Y694032D01*
X466734Y693016D01*
X465718D01*
X466734Y692000D01*
X465718Y690984D01*
X466734D01*
X467750Y689968D01*
X474250Y700468D02*
X475266Y701484D01*
X476282D01*
X475266Y702500D01*
X476282Y703516D01*
X475266D01*
X474250Y704532D01*
X473234Y703516D01*
X472218D01*
X473234Y702500D01*
X472218Y701484D01*
X473234D01*
X474250Y700468D01*
X487500Y820468D02*
X488516Y821484D01*
X489532D01*
X488516Y822500D01*
X489532Y823516D01*
X488516D01*
X487500Y824532D01*
X486484Y823516D01*
X485468D01*
X486484Y822500D01*
X485468Y821484D01*
X486484D01*
X487500Y820468D01*
X480500Y695468D02*
X481516Y696484D01*
X482532D01*
X481516Y697500D01*
X482532Y698516D01*
X481516D01*
X480500Y699532D01*
X479484Y698516D01*
X478468D01*
X479484Y697500D01*
X478468Y696484D01*
X479484D01*
X480500Y695468D01*
X492500Y815468D02*
X493516Y816484D01*
X494532D01*
X493516Y817500D01*
X494532Y818516D01*
X493516D01*
X492500Y819532D01*
X491484Y818516D01*
X490468D01*
X491484Y817500D01*
X490468Y816484D01*
X491484D01*
X492500Y815468D01*
X611408Y676060D02*
X609376Y680124D01*
X613440D01*
X611408Y676060D01*
X613750Y638718D02*
X611718Y642782D01*
X615782D01*
X613750Y638718D01*
X567500Y757468D02*
X565468Y761532D01*
X569532D01*
X567500Y757468D01*
X633658Y768126D02*
X631626Y772190D01*
X635690D01*
X633658Y768126D01*
X619250Y762968D02*
X617218Y767032D01*
X621282D01*
X619250Y762968D01*
X482500Y825468D02*
X483516Y826484D01*
X484532D01*
X483516Y827500D01*
X484532Y828516D01*
X483516D01*
X482500Y829532D01*
X481484Y828516D01*
X480468D01*
X481484Y827500D01*
X480468Y826484D01*
X481484D01*
X482500Y825468D01*
X695452Y726694D02*
X696468Y727710D01*
X697484D01*
X696468Y728726D01*
X697484Y729742D01*
X696468D01*
X695452Y730758D01*
X694436Y729742D01*
X693420D01*
X694436Y728726D01*
X693420Y727710D01*
X694436D01*
X695452Y726694D01*
X704596Y726440D02*
X705612Y727456D01*
X706628D01*
X705612Y728472D01*
X706628Y729488D01*
X705612D01*
X704596Y730504D01*
X703580Y729488D01*
X702564D01*
X703580Y728472D01*
X702564Y727456D01*
X703580D01*
X704596Y726440D01*
X508750Y682740D02*
X509766Y683756D01*
X510782D01*
X509766Y684772D01*
X510782Y685788D01*
X509766D01*
X508750Y686804D01*
X507734Y685788D01*
X506718D01*
X507734Y684772D01*
X506718Y683756D01*
X507734D01*
X508750Y682740D01*
X502500Y805468D02*
X503516Y806484D01*
X504532D01*
X503516Y807500D01*
X504532Y808516D01*
X503516D01*
X502500Y809532D01*
X501484Y808516D01*
X500468D01*
X501484Y807500D01*
X500468Y806484D01*
X501484D01*
X502500Y805468D01*
X490750Y687218D02*
X491766Y688234D01*
X492782D01*
X491766Y689250D01*
X492782Y690266D01*
X491766D01*
X490750Y691282D01*
X489734Y690266D01*
X488718D01*
X489734Y689250D01*
X488718Y688234D01*
X489734D01*
X490750Y687218D01*
X497500Y810468D02*
X498516Y811484D01*
X499532D01*
X498516Y812500D01*
X499532Y813516D01*
X498516D01*
X497500Y814532D01*
X496484Y813516D01*
X495468D01*
X496484Y812500D01*
X495468Y811484D01*
X496484D01*
X497500Y810468D01*
X542250Y621718D02*
X543266Y622734D01*
X544282D01*
X543266Y623750D01*
X544282Y624766D01*
X543266D01*
X542250Y625782D01*
X541234Y624766D01*
X540218D01*
X541234Y623750D01*
X540218Y622734D01*
X541234D01*
X542250Y621718D01*
X530000Y606218D02*
X531016Y607234D01*
X532032D01*
X531016Y608250D01*
X532032Y609266D01*
X531016D01*
X530000Y610282D01*
X528984Y609266D01*
X527968D01*
X528984Y608250D01*
X527968Y607234D01*
X528984D01*
X530000Y606218D01*
X453750Y609468D02*
X454766Y610484D01*
X455782D01*
X454766Y611500D01*
X455782Y612516D01*
X454766D01*
X453750Y613532D01*
X452734Y612516D01*
X451718D01*
X452734Y611500D01*
X451718Y610484D01*
X452734D01*
X453750Y609468D01*
X506750Y584218D02*
X504718Y588282D01*
X508782D01*
X506750Y584218D01*
X566500Y583968D02*
X564468Y588032D01*
X568532D01*
X566500Y583968D01*
D134*
X840011Y406020D02*
G03*
X840011Y406020I-2032J0D01*
G01*
Y985980D02*
G03*
X840011Y985980I-2032J0D01*
G01*
X580011Y406020D02*
G03*
X580011Y406020I-2032J0D01*
G01*
Y985980D02*
G03*
X580011Y985980I-2032J0D01*
G01*
X350012D02*
G03*
X350012Y985980I-2032J0D01*
G01*
Y406020D02*
G03*
X350012Y406020I-2032J0D01*
G01*
M02*
