G04 Layer_Physical_Order=2*
G04 Layer_Color=32768*
%FSLAX44Y44*%
%MOMM*%
G71*
G01*
G75*
%ADD42C,0.2540*%
%ADD44C,0.1778*%
%ADD53C,0.1524*%
%ADD63C,0.7620*%
%ADD65C,0.8128*%
%ADD66C,1.4080*%
G04:AMPARAMS|DCode=67|XSize=2.2716mm|YSize=2.2716mm|CornerRadius=0mm|HoleSize=0mm|Usage=FLASHONLY|Rotation=0.000|XOffset=0mm|YOffset=0mm|HoleType=Round|Shape=Relief|Width=0.254mm|Gap=0.1778mm|Entries=4|*
%AMTHD67*
7,0,0,2.2716,1.9160,0.2540,45*
%
%ADD67THD67*%
%ADD68C,3.3020*%
%ADD69C,0.8890*%
%ADD70C,1.0160*%
D42*
X891286Y370840D02*
Y615721D01*
Y776199D02*
Y1021080D01*
X886206Y386080D02*
X891286Y370840D01*
X896366Y386080D01*
X886206Y1005840D02*
X891286Y1021080D01*
X896366Y1005840D01*
X888746Y370840D02*
X893826D01*
X888746Y1021080D02*
X893826D01*
X312420Y1038987D02*
X514120D01*
X672060D02*
X873760D01*
X312420D02*
X327660Y1044067D01*
X312420Y1038987D02*
X327660Y1033907D01*
X858520Y1044067D02*
X873760Y1038987D01*
X858520Y1033907D02*
X873760Y1038987D01*
X312420Y1036447D02*
Y1041527D01*
X873760Y1036447D02*
Y1041527D01*
D44*
Y370840D02*
Y1021080D01*
X312420D02*
X873760D01*
X312420Y370840D02*
Y1021080D01*
Y370840D02*
X873760D01*
D53*
X885192Y628417D02*
X887732Y623339D01*
X892810Y618261D01*
X897888D01*
X900427Y620800D01*
Y625878D01*
X897888Y628417D01*
X895349D01*
X892810Y625878D01*
Y618261D01*
X885192Y643652D02*
Y633496D01*
X892810D01*
X890271Y638574D01*
Y641113D01*
X892810Y643652D01*
X897888D01*
X900427Y641113D01*
Y636035D01*
X897888Y633496D01*
X900427Y648731D02*
X897888D01*
Y651270D01*
X900427D01*
Y648731D01*
X887732Y661427D02*
X885192Y663966D01*
Y669044D01*
X887732Y671583D01*
X897888D01*
X900427Y669044D01*
Y663966D01*
X897888Y661427D01*
X887732D01*
X900427Y686818D02*
Y676662D01*
X890271Y686818D01*
X887732D01*
X885192Y684279D01*
Y679201D01*
X887732Y676662D01*
X900427Y699514D02*
X885192D01*
X892810Y691897D01*
Y702054D01*
X900427Y727445D02*
X895349Y722367D01*
X890271D01*
X885192Y727445D01*
X900427Y735063D02*
X890271D01*
Y737602D01*
X892810Y740141D01*
X900427D01*
X892810D01*
X890271Y742680D01*
X892810Y745220D01*
X900427D01*
Y750298D02*
X890271D01*
Y752837D01*
X892810Y755376D01*
X900427D01*
X892810D01*
X890271Y757915D01*
X892810Y760455D01*
X900427D01*
Y765533D02*
X895349Y770611D01*
X890271D01*
X885192Y765533D01*
X526817Y1045080D02*
X516660D01*
Y1037463D01*
X521739Y1040002D01*
X524278D01*
X526817Y1037463D01*
Y1032385D01*
X524278Y1029846D01*
X519199D01*
X516660Y1032385D01*
X542052Y1045080D02*
X536974Y1042541D01*
X531895Y1037463D01*
Y1032385D01*
X534435Y1029846D01*
X539513D01*
X542052Y1032385D01*
Y1034924D01*
X539513Y1037463D01*
X531895D01*
X547130Y1029846D02*
Y1032385D01*
X549670D01*
Y1029846D01*
X547130D01*
X559826D02*
X564905D01*
X562365D01*
Y1045080D01*
X559826Y1042541D01*
X572522D02*
X575061Y1045080D01*
X580140D01*
X582679Y1042541D01*
Y1040002D01*
X580140Y1037463D01*
X577601D01*
X580140D01*
X582679Y1034924D01*
Y1032385D01*
X580140Y1029846D01*
X575061D01*
X572522Y1032385D01*
X595375Y1029846D02*
Y1045080D01*
X587757Y1037463D01*
X597914D01*
X623306Y1029846D02*
X618227Y1034924D01*
Y1040002D01*
X623306Y1045080D01*
X630923Y1029846D02*
Y1040002D01*
X633462D01*
X636002Y1037463D01*
Y1029846D01*
Y1037463D01*
X638541Y1040002D01*
X641080Y1037463D01*
Y1029846D01*
X646158D02*
Y1040002D01*
X648698D01*
X651237Y1037463D01*
Y1029846D01*
Y1037463D01*
X653776Y1040002D01*
X656315Y1037463D01*
Y1029846D01*
X661393D02*
X666472Y1034924D01*
Y1040002D01*
X661393Y1045080D01*
D63*
X778500Y696500D02*
D03*
X778750Y711000D02*
D03*
X486250Y897750D02*
D03*
X540500Y733250D02*
D03*
X547250Y723250D02*
D03*
X539750D02*
D03*
X539000Y886250D02*
D03*
X467750Y692000D02*
D03*
X474250Y702500D02*
D03*
X487500Y822500D02*
D03*
X480500Y697500D02*
D03*
X492500Y817500D02*
D03*
X482500Y827500D02*
D03*
X508750Y684772D02*
D03*
X502500Y807500D02*
D03*
X490750Y689250D02*
D03*
X497500Y812500D02*
D03*
X542250Y623750D02*
D03*
X530000Y608250D02*
D03*
X453750Y611500D02*
D03*
D65*
X873760Y370840D02*
Y1021080D01*
X312420Y370840D02*
X873760D01*
X312420D02*
Y1021080D01*
X873760D01*
D66*
X360680Y454660D02*
D03*
X335280D02*
D03*
X360680Y480060D02*
D03*
X335280D02*
D03*
X360680Y505460D02*
D03*
Y530860D02*
D03*
X335280D02*
D03*
Y556260D02*
D03*
X360680Y581660D02*
D03*
X335280D02*
D03*
X360680Y607060D02*
D03*
Y632460D02*
D03*
X335280D02*
D03*
X360680Y657860D02*
D03*
X335280D02*
D03*
X360680Y683260D02*
D03*
Y708660D02*
D03*
X335280D02*
D03*
X360680Y734060D02*
D03*
X335280D02*
D03*
Y759460D02*
D03*
X360680Y784860D02*
D03*
X335280D02*
D03*
X360680Y810260D02*
D03*
Y835660D02*
D03*
X335280D02*
D03*
X360680Y861060D02*
D03*
Y886460D02*
D03*
X335280D02*
D03*
X360680Y911860D02*
D03*
X335280D02*
D03*
Y937260D02*
D03*
X411480Y454660D02*
D03*
X386080D02*
D03*
X411480Y480060D02*
D03*
X386080D02*
D03*
X411480Y505460D02*
D03*
Y530860D02*
D03*
X386080D02*
D03*
Y556260D02*
D03*
X411480Y581660D02*
D03*
X386080D02*
D03*
X411480Y607060D02*
D03*
Y632460D02*
D03*
X386080D02*
D03*
X411480Y657860D02*
D03*
X386080D02*
D03*
X411480Y683260D02*
D03*
Y708660D02*
D03*
X386080D02*
D03*
X411480Y734060D02*
D03*
X386080D02*
D03*
Y759460D02*
D03*
X411480Y784860D02*
D03*
X386080D02*
D03*
X411480Y810260D02*
D03*
Y835660D02*
D03*
X386080D02*
D03*
X411480Y861060D02*
D03*
Y886460D02*
D03*
X386080D02*
D03*
X411480Y911860D02*
D03*
X386080D02*
D03*
Y937260D02*
D03*
X759050Y912250D02*
D03*
Y886850D02*
D03*
X733650Y912250D02*
D03*
Y886850D02*
D03*
X708250Y912250D02*
D03*
Y886850D02*
D03*
X682850Y912250D02*
D03*
Y886850D02*
D03*
X657450Y912250D02*
D03*
D67*
X335280Y505460D02*
D03*
X360680Y556260D02*
D03*
X335280Y607060D02*
D03*
Y683260D02*
D03*
X360680Y759460D02*
D03*
X335280Y810260D02*
D03*
Y861060D02*
D03*
X360680Y937260D02*
D03*
X386080Y505460D02*
D03*
X411480Y556260D02*
D03*
X386080Y607060D02*
D03*
Y683260D02*
D03*
X411480Y759460D02*
D03*
X386080Y810260D02*
D03*
Y861060D02*
D03*
X411480Y937260D02*
D03*
X657450Y886850D02*
D03*
D68*
X837979Y406020D02*
D03*
Y985980D02*
D03*
X577980Y406020D02*
D03*
Y985980D02*
D03*
X347980D02*
D03*
Y406020D02*
D03*
D69*
X606250Y464750D02*
D03*
X615000D02*
D03*
X623750D02*
D03*
X726000Y589250D02*
D03*
Y580500D02*
D03*
Y571750D02*
D03*
X726000Y598000D02*
D03*
X717250D02*
D03*
X708500D02*
D03*
X699750D02*
D03*
X691000D02*
D03*
X596000Y477250D02*
D03*
Y486000D02*
D03*
Y494750D02*
D03*
X501000Y545250D02*
D03*
X495500Y494500D02*
D03*
X562250Y898000D02*
D03*
X550500Y923000D02*
D03*
X817000Y680000D02*
D03*
X789250Y692750D02*
D03*
X746750Y661000D02*
D03*
X734250D02*
D03*
X696500Y672750D02*
D03*
X694750Y737000D02*
D03*
X591658Y802908D02*
D03*
X581092Y789158D02*
D03*
X590908D02*
D03*
X571500Y665908D02*
D03*
X528500Y729750D02*
D03*
X611408Y678092D02*
D03*
X613750Y640750D02*
D03*
X633658Y770158D02*
D03*
X619250Y765000D02*
D03*
D70*
X533750Y546250D02*
D03*
X542000D02*
D03*
X540000Y469250D02*
D03*
X532000D02*
D03*
M02*
