G04 Layer_Color=8421504*
%FSLAX44Y44*%
%MOMM*%
G71*
G01*
G75*
%ADD11O,0.2800X0.8500*%
%ADD12O,0.8500X0.2800*%
%ADD13R,0.4500X0.7000*%
%ADD14R,0.6200X0.6200*%
%ADD15R,0.6200X0.6200*%
%ADD16R,0.7000X0.4500*%
%ADD17R,0.7000X0.9000*%
%ADD18R,0.5500X0.5500*%
%ADD19R,0.5500X0.5500*%
G04:AMPARAMS|DCode=20|XSize=0.6mm|YSize=0.75mm|CornerRadius=0.075mm|HoleSize=0mm|Usage=FLASHONLY|Rotation=0.000|XOffset=0mm|YOffset=0mm|HoleType=Round|Shape=RoundedRectangle|*
%AMROUNDEDRECTD20*
21,1,0.6000,0.6000,0,0,0.0*
21,1,0.4500,0.7500,0,0,0.0*
1,1,0.1500,0.2250,-0.3000*
1,1,0.1500,-0.2250,-0.3000*
1,1,0.1500,-0.2250,0.3000*
1,1,0.1500,0.2250,0.3000*
%
%ADD20ROUNDEDRECTD20*%
%ADD21R,1.3000X0.6000*%
%ADD22R,1.4000X1.0500*%
%ADD23R,0.9000X0.7000*%
%ADD24R,0.8500X0.8500*%
%ADD25R,1.3300X0.6500*%
%ADD26R,0.6500X1.3300*%
%ADD27R,0.6500X1.8300*%
%ADD28R,0.8500X0.8500*%
%ADD29R,3.9500X1.5000*%
%ADD30R,4.2500X1.5000*%
%ADD31R,1.3000X1.5500*%
%ADD32R,2.2860X1.7780*%
%ADD34R,1.5500X1.3000*%
%ADD35R,1.0000X1.1000*%
%ADD36R,1.6000X0.8900*%
%ADD37R,0.3000X0.4500*%
%ADD42C,0.2540*%
%ADD44C,0.1778*%
%ADD53C,0.1524*%
%ADD85R,2.2500X2.2500*%
%ADD86R,5.6900X7.4680*%
%ADD87R,2.4750X2.4750*%
%ADD88R,0.5100X0.4600*%
%ADD89R,0.5100X0.3600*%
%ADD90R,0.3600X0.5100*%
D11*
X563750Y745500D02*
D03*
X568750D02*
D03*
X573750D02*
D03*
X578750D02*
D03*
X583750D02*
D03*
X588750D02*
D03*
X593750D02*
D03*
X598750D02*
D03*
Y696000D02*
D03*
X593750D02*
D03*
X588750D02*
D03*
X583750D02*
D03*
X578750D02*
D03*
X573750D02*
D03*
X568750D02*
D03*
X563750D02*
D03*
D12*
X606000Y738250D02*
D03*
Y733250D02*
D03*
Y728250D02*
D03*
Y723250D02*
D03*
Y718250D02*
D03*
Y713250D02*
D03*
Y708250D02*
D03*
Y703250D02*
D03*
X556500D02*
D03*
Y708250D02*
D03*
Y713250D02*
D03*
Y718250D02*
D03*
Y723250D02*
D03*
Y728250D02*
D03*
Y733250D02*
D03*
Y738250D02*
D03*
D13*
X644250Y726250D02*
D03*
X634250D02*
D03*
X644250Y704750D02*
D03*
X634250D02*
D03*
X652500Y685500D02*
D03*
X642500D02*
D03*
X669500Y685500D02*
D03*
X659500D02*
D03*
X686500D02*
D03*
X676500D02*
D03*
D14*
X636250Y715500D02*
D03*
X645250D02*
D03*
X624500Y685500D02*
D03*
X633500D02*
D03*
X644500Y675000D02*
D03*
X653500D02*
D03*
X675500Y696250D02*
D03*
X684500D02*
D03*
X655000Y655000D02*
D03*
X646000D02*
D03*
X636250Y737000D02*
D03*
X645250D02*
D03*
D15*
X624500Y696750D02*
D03*
Y705750D02*
D03*
X667500Y666000D02*
D03*
Y675000D02*
D03*
X635000Y655000D02*
D03*
Y664000D02*
D03*
D16*
X624250Y675700D02*
D03*
Y665800D02*
D03*
X624500Y725700D02*
D03*
Y715800D02*
D03*
X755000Y755500D02*
D03*
Y765500D02*
D03*
X733000Y765500D02*
D03*
Y755500D02*
D03*
D17*
X613750Y663750D02*
D03*
Y650750D02*
D03*
X590500Y668000D02*
D03*
Y681000D02*
D03*
X808000Y705500D02*
D03*
Y692500D02*
D03*
X797000Y692500D02*
D03*
Y705500D02*
D03*
X542250Y598750D02*
D03*
Y585750D02*
D03*
X530000Y598750D02*
D03*
Y585750D02*
D03*
D18*
X624000Y639158D02*
D03*
Y650842D02*
D03*
X601500Y678092D02*
D03*
Y666408D02*
D03*
X579500Y678000D02*
D03*
Y666316D02*
D03*
X563750Y678000D02*
D03*
Y666316D02*
D03*
X617500Y757592D02*
D03*
Y745908D02*
D03*
X576750Y758658D02*
D03*
Y770342D02*
D03*
X595750Y758658D02*
D03*
Y770342D02*
D03*
X606250Y770342D02*
D03*
Y758658D02*
D03*
X557000Y759408D02*
D03*
Y771092D02*
D03*
X583250Y802908D02*
D03*
Y814592D02*
D03*
X499750Y909592D02*
D03*
Y897908D02*
D03*
D19*
X518908Y738250D02*
D03*
X530592D02*
D03*
X518908Y710000D02*
D03*
X530592D02*
D03*
X518908Y720000D02*
D03*
X530592D02*
D03*
X645342Y752500D02*
D03*
X633658D02*
D03*
X645342Y761500D02*
D03*
X633658D02*
D03*
X569408Y780500D02*
D03*
X581092D02*
D03*
X590908D02*
D03*
X602592D02*
D03*
D20*
X556750Y819550D02*
D03*
X573250D02*
D03*
Y808250D02*
D03*
X556750D02*
D03*
D21*
X515000Y932500D02*
D03*
Y913500D02*
D03*
X536000Y923000D02*
D03*
D22*
X480000Y999500D02*
D03*
Y1014000D02*
D03*
X444000D02*
D03*
Y999500D02*
D03*
D23*
X524750Y898000D02*
D03*
X511750D02*
D03*
X552000D02*
D03*
X539000D02*
D03*
X794250Y680000D02*
D03*
X807250D02*
D03*
D24*
X706000Y737000D02*
D03*
Y752500D02*
D03*
X706500Y662000D02*
D03*
Y677500D02*
D03*
D25*
X759100Y796250D02*
D03*
Y808950D02*
D03*
Y821650D02*
D03*
X728400D02*
D03*
Y808950D02*
D03*
Y796250D02*
D03*
D26*
X743750Y824950D02*
D03*
D27*
Y794250D02*
D03*
D28*
X810000Y718500D02*
D03*
X794500D02*
D03*
X519250Y481890D02*
D03*
X534750D02*
D03*
X519250Y533890D02*
D03*
X534750D02*
D03*
X746750Y672000D02*
D03*
X762250D02*
D03*
X734250D02*
D03*
X718750D02*
D03*
D29*
X852750Y788700D02*
D03*
Y733300D02*
D03*
D30*
X851250Y761000D02*
D03*
D31*
X614750Y487500D02*
D03*
Y521500D02*
D03*
D32*
X650250Y529150D02*
D03*
Y503750D02*
D03*
Y478350D02*
D03*
D34*
X700250Y577500D02*
D03*
X666250D02*
D03*
D35*
X501000Y533890D02*
D03*
Y516890D02*
D03*
D36*
X526500Y508250D02*
D03*
D37*
X520000Y498500D02*
D03*
X526500D02*
D03*
X533000D02*
D03*
X520000Y518000D02*
D03*
X526500D02*
D03*
X533000D02*
D03*
D42*
X891286Y370840D02*
Y615721D01*
Y776199D02*
Y1021080D01*
X886206Y386080D02*
X891286Y370840D01*
X896366Y386080D01*
X886206Y1005840D02*
X891286Y1021080D01*
X896366Y1005840D01*
X888746Y370840D02*
X893826D01*
X888746Y1021080D02*
X893826D01*
X312420Y1038987D02*
X514120D01*
X672060D02*
X873760D01*
X312420D02*
X327660Y1044067D01*
X312420Y1038987D02*
X327660Y1033907D01*
X858520Y1044067D02*
X873760Y1038987D01*
X858520Y1033907D02*
X873760Y1038987D01*
X312420Y1036447D02*
Y1041527D01*
X873760Y1036447D02*
Y1041527D01*
D44*
Y370840D02*
Y1021080D01*
X312420D02*
X873760D01*
X312420Y370840D02*
Y1021080D01*
Y370840D02*
X873760D01*
D53*
X885192Y628417D02*
X887732Y623339D01*
X892810Y618261D01*
X897888D01*
X900427Y620800D01*
Y625878D01*
X897888Y628417D01*
X895349D01*
X892810Y625878D01*
Y618261D01*
X885192Y643652D02*
Y633496D01*
X892810D01*
X890271Y638574D01*
Y641113D01*
X892810Y643652D01*
X897888D01*
X900427Y641113D01*
Y636035D01*
X897888Y633496D01*
X900427Y648731D02*
X897888D01*
Y651270D01*
X900427D01*
Y648731D01*
X887732Y661427D02*
X885192Y663966D01*
Y669044D01*
X887732Y671583D01*
X897888D01*
X900427Y669044D01*
Y663966D01*
X897888Y661427D01*
X887732D01*
X900427Y686818D02*
Y676662D01*
X890271Y686818D01*
X887732D01*
X885192Y684279D01*
Y679201D01*
X887732Y676662D01*
X900427Y699514D02*
X885192D01*
X892810Y691897D01*
Y702054D01*
X900427Y727445D02*
X895349Y722367D01*
X890271D01*
X885192Y727445D01*
X900427Y735063D02*
X890271D01*
Y737602D01*
X892810Y740141D01*
X900427D01*
X892810D01*
X890271Y742680D01*
X892810Y745220D01*
X900427D01*
Y750298D02*
X890271D01*
Y752837D01*
X892810Y755376D01*
X900427D01*
X892810D01*
X890271Y757915D01*
X892810Y760455D01*
X900427D01*
Y765533D02*
X895349Y770611D01*
X890271D01*
X885192Y765533D01*
X526817Y1045080D02*
X516660D01*
Y1037463D01*
X521739Y1040002D01*
X524278D01*
X526817Y1037463D01*
Y1032385D01*
X524278Y1029846D01*
X519199D01*
X516660Y1032385D01*
X542052Y1045080D02*
X536974Y1042541D01*
X531895Y1037463D01*
Y1032385D01*
X534435Y1029846D01*
X539513D01*
X542052Y1032385D01*
Y1034924D01*
X539513Y1037463D01*
X531895D01*
X547130Y1029846D02*
Y1032385D01*
X549670D01*
Y1029846D01*
X547130D01*
X559826D02*
X564905D01*
X562365D01*
Y1045080D01*
X559826Y1042541D01*
X572522D02*
X575061Y1045080D01*
X580140D01*
X582679Y1042541D01*
Y1040002D01*
X580140Y1037463D01*
X577601D01*
X580140D01*
X582679Y1034924D01*
Y1032385D01*
X580140Y1029846D01*
X575061D01*
X572522Y1032385D01*
X595375Y1029846D02*
Y1045080D01*
X587757Y1037463D01*
X597914D01*
X623306Y1029846D02*
X618227Y1034924D01*
Y1040002D01*
X623306Y1045080D01*
X630923Y1029846D02*
Y1040002D01*
X633462D01*
X636002Y1037463D01*
Y1029846D01*
Y1037463D01*
X638541Y1040002D01*
X641080Y1037463D01*
Y1029846D01*
X646158D02*
Y1040002D01*
X648698D01*
X651237Y1037463D01*
Y1029846D01*
Y1037463D01*
X653776Y1040002D01*
X656315Y1037463D01*
Y1029846D01*
X661393D02*
X666472Y1034924D01*
Y1040002D01*
X661393Y1045080D01*
D85*
X581250Y720750D02*
D03*
D86*
X737500Y503750D02*
D03*
D87*
X744000Y717500D02*
D03*
D88*
X770250Y744000D02*
D03*
X717750D02*
D03*
Y691000D02*
D03*
X770250D02*
D03*
D89*
Y698750D02*
D03*
Y706250D02*
D03*
Y713750D02*
D03*
Y721250D02*
D03*
Y728750D02*
D03*
Y736250D02*
D03*
X717750D02*
D03*
Y728750D02*
D03*
Y721250D02*
D03*
Y713750D02*
D03*
Y706250D02*
D03*
Y698750D02*
D03*
D90*
X762130Y743750D02*
D03*
X754880D02*
D03*
X747630D02*
D03*
X740370D02*
D03*
X733120D02*
D03*
X725870D02*
D03*
X762130Y691250D02*
D03*
X754880D02*
D03*
X747630D02*
D03*
X740370D02*
D03*
X733120D02*
D03*
X725870D02*
D03*
M02*
