G04 Layer_Color=65535*
%FSLAX44Y44*%
%MOMM*%
G71*
G01*
G75*
%ADD25C,0.2540*%
%ADD26C,0.5080*%
%ADD28C,0.1270*%
%ADD29C,0.1524*%
%ADD36C,0.6000*%
%ADD37C,0.2500*%
%ADD38C,0.1000*%
%ADD39C,0.3048*%
%ADD40C,0.2000*%
%ADD41C,0.2032*%
D25*
X345050Y454750D02*
G03*
X345050Y454750I-9750J0D01*
G01*
X395850D02*
G03*
X395850Y454750I-9750J0D01*
G01*
Y480150D02*
G03*
X395850Y480150I-9750J0D01*
G01*
X345050D02*
G03*
X345050Y480150I-9750J0D01*
G01*
X643890Y628650D02*
Y643885D01*
X648968Y638807D01*
X654047Y643885D01*
Y628650D01*
X659125D02*
X664203D01*
X661664D01*
Y643885D01*
X659125Y641346D01*
X650240Y845815D02*
Y833119D01*
X652779Y830580D01*
X657858D01*
X660397Y833119D01*
Y845815D01*
X665475Y830580D02*
X670553D01*
X668014D01*
Y845815D01*
X665475Y843276D01*
X665054Y873545D02*
X662938Y875661D01*
X658706D01*
X656590Y873545D01*
Y865081D01*
X658706Y862965D01*
X662938D01*
X665054Y865081D01*
X669286Y862965D02*
X673518D01*
X671402D01*
Y875661D01*
X669286Y873545D01*
X662514Y926250D02*
X660398Y928366D01*
X656166D01*
X654050Y926250D01*
Y917786D01*
X656166Y915670D01*
X660398D01*
X662514Y917786D01*
X675210Y915670D02*
X666746D01*
X675210Y924134D01*
Y926250D01*
X673094Y928366D01*
X668862D01*
X666746Y926250D01*
X659974Y712890D02*
X657858Y715006D01*
X653626D01*
X651510Y712890D01*
Y704426D01*
X653626Y702310D01*
X657858D01*
X659974Y704426D01*
X664206Y702310D02*
X668438D01*
X666322D01*
Y710774D01*
X664206D01*
X674786Y702310D02*
Y710774D01*
X681134D01*
X683250Y708658D01*
Y702310D01*
X687482D02*
X691714D01*
X689598D01*
Y715006D01*
X687482Y712890D01*
X440264Y815760D02*
X438148Y817876D01*
X433916D01*
X431800Y815760D01*
Y807296D01*
X433916Y805180D01*
X438148D01*
X440264Y807296D01*
X446612Y805180D02*
X450844D01*
X452960Y807296D01*
Y811528D01*
X450844Y813644D01*
X446612D01*
X444496Y811528D01*
Y807296D01*
X446612Y805180D01*
X457192Y813644D02*
Y807296D01*
X459308Y805180D01*
X465656D01*
Y813644D01*
X472004Y815760D02*
Y813644D01*
X469888D01*
X474120D01*
X472004D01*
Y807296D01*
X474120Y805180D01*
X480468D02*
X484700D01*
X482584D01*
Y817876D01*
X480468Y815760D01*
X440264Y781470D02*
X438148Y783586D01*
X433916D01*
X431800Y781470D01*
Y773006D01*
X433916Y770890D01*
X438148D01*
X440264Y773006D01*
X446612Y770890D02*
X450844D01*
X452960Y773006D01*
Y777238D01*
X450844Y779354D01*
X446612D01*
X444496Y777238D01*
Y773006D01*
X446612Y770890D01*
X457192Y779354D02*
Y773006D01*
X459308Y770890D01*
X465656D01*
Y779354D01*
X472004Y781470D02*
Y779354D01*
X469888D01*
X474120D01*
X472004D01*
Y773006D01*
X474120Y770890D01*
X488932D02*
X480468D01*
X488932Y779354D01*
Y781470D01*
X486815Y783586D01*
X482584D01*
X480468Y781470D01*
X439629Y749085D02*
X437513Y751201D01*
X433281D01*
X431165Y749085D01*
Y740621D01*
X433281Y738505D01*
X437513D01*
X439629Y740621D01*
X445977Y738505D02*
X450209D01*
X452325Y740621D01*
Y744853D01*
X450209Y746969D01*
X445977D01*
X443861Y744853D01*
Y740621D01*
X445977Y738505D01*
X456557Y746969D02*
Y740621D01*
X458673Y738505D01*
X465021D01*
Y746969D01*
X471369Y749085D02*
Y746969D01*
X469253D01*
X473485D01*
X471369D01*
Y740621D01*
X473485Y738505D01*
X479833Y749085D02*
X481949Y751201D01*
X486180D01*
X488297Y749085D01*
Y746969D01*
X486180Y744853D01*
X484064D01*
X486180D01*
X488297Y742737D01*
Y740621D01*
X486180Y738505D01*
X481949D01*
X479833Y740621D01*
X436460Y643464D02*
X434344Y641348D01*
Y637116D01*
X436460Y635000D01*
X444924D01*
X447040Y637116D01*
Y641348D01*
X444924Y643464D01*
X447040Y649812D02*
Y654044D01*
X444924Y656160D01*
X440692D01*
X438576Y654044D01*
Y649812D01*
X440692Y647696D01*
X444924D01*
X447040Y649812D01*
X438576Y660392D02*
X444924D01*
X447040Y662508D01*
Y668856D01*
X438576D01*
X436460Y675204D02*
X438576D01*
Y673088D01*
Y677320D01*
Y675204D01*
X444924D01*
X447040Y677320D01*
Y690015D02*
X434344D01*
X440692Y683668D01*
Y692132D01*
X442804Y620180D02*
X440688Y622296D01*
X436456D01*
X434340Y620180D01*
Y611716D01*
X436456Y609600D01*
X440688D01*
X442804Y611716D01*
X449152Y609600D02*
X453384D01*
X455500Y611716D01*
Y615948D01*
X453384Y618064D01*
X449152D01*
X447036Y615948D01*
Y611716D01*
X449152Y609600D01*
X459732Y618064D02*
Y611716D01*
X461848Y609600D01*
X468196D01*
Y618064D01*
X474544Y620180D02*
Y618064D01*
X472428D01*
X476660D01*
X474544D01*
Y611716D01*
X476660Y609600D01*
X491471Y622296D02*
X483008D01*
Y615948D01*
X487239Y618064D01*
X489356D01*
X491471Y615948D01*
Y611716D01*
X489356Y609600D01*
X485123D01*
X483008Y611716D01*
X442804Y587160D02*
X440688Y589276D01*
X436456D01*
X434340Y587160D01*
Y578696D01*
X436456Y576580D01*
X440688D01*
X442804Y578696D01*
X449152Y576580D02*
X453384D01*
X455500Y578696D01*
Y582928D01*
X453384Y585044D01*
X449152D01*
X447036Y582928D01*
Y578696D01*
X449152Y576580D01*
X459732Y585044D02*
Y578696D01*
X461848Y576580D01*
X468196D01*
Y585044D01*
X474544Y587160D02*
Y585044D01*
X472428D01*
X476660D01*
X474544D01*
Y578696D01*
X476660Y576580D01*
X491471Y589276D02*
X487239Y587160D01*
X483008Y582928D01*
Y578696D01*
X485123Y576580D01*
X489356D01*
X491471Y578696D01*
Y580812D01*
X489356Y582928D01*
X483008D01*
X653624Y804330D02*
X651508Y806446D01*
X647276D01*
X645160Y804330D01*
Y795866D01*
X647276Y793750D01*
X651508D01*
X653624Y795866D01*
X657856Y802214D02*
X662088Y793750D01*
X666320Y802214D01*
X679016D02*
X672668D01*
X670552Y800098D01*
Y795866D01*
X672668Y793750D01*
X679016D01*
X691712Y802214D02*
X685364D01*
X683248Y800098D01*
Y795866D01*
X685364Y793750D01*
X691712D01*
X567055Y561970D02*
Y546735D01*
X574673D01*
X577212Y549274D01*
Y559431D01*
X574673Y561970D01*
X567055D01*
X582290Y546735D02*
X587368D01*
X584829D01*
Y561970D01*
X582290Y559431D01*
X822400Y820035D02*
Y804800D01*
X832557D01*
X837635D02*
X842713D01*
X840174D01*
Y820035D01*
X837635Y817496D01*
X638810Y922340D02*
X626114D01*
Y928688D01*
X628230Y930804D01*
X632462D01*
X634578Y928688D01*
Y922340D01*
Y926572D02*
X638810Y930804D01*
Y935036D02*
Y939268D01*
Y937152D01*
X626114D01*
X628230Y935036D01*
X530860Y880110D02*
Y892806D01*
X537208D01*
X539324Y890690D01*
Y886458D01*
X537208Y884342D01*
X530860D01*
X535092D02*
X539324Y880110D01*
X552020D02*
X543556D01*
X552020Y888574D01*
Y890690D01*
X549904Y892806D01*
X545672D01*
X543556Y890690D01*
X605790Y920115D02*
X593094D01*
Y926463D01*
X595210Y928579D01*
X599442D01*
X601558Y926463D01*
Y920115D01*
Y924347D02*
X605790Y928579D01*
X595210Y932811D02*
X593094Y934927D01*
Y939159D01*
X595210Y941275D01*
X597326D01*
X599442Y939159D01*
Y937043D01*
Y939159D01*
X601558Y941275D01*
X603674D01*
X605790Y939159D01*
Y934927D01*
X603674Y932811D01*
X524510Y858520D02*
Y871216D01*
X530858D01*
X532974Y869100D01*
Y864868D01*
X530858Y862752D01*
X524510D01*
X528742D02*
X532974Y858520D01*
X537206Y871216D02*
X545670D01*
X541438D01*
Y858520D01*
X549902D02*
X554134D01*
X552018D01*
Y871216D01*
X549902Y869100D01*
X659974Y740830D02*
X657858Y742946D01*
X653626D01*
X651510Y740830D01*
Y732366D01*
X653626Y730250D01*
X657858D01*
X659974Y732366D01*
X664206Y730250D02*
X668438D01*
X666322D01*
Y738714D01*
X664206D01*
X674786Y730250D02*
Y738714D01*
X681134D01*
X683250Y736598D01*
Y730250D01*
X695946D02*
X687482D01*
X695946Y738714D01*
Y740830D01*
X693830Y742946D01*
X689598D01*
X687482Y740830D01*
X659974Y773850D02*
X657858Y775966D01*
X653626D01*
X651510Y773850D01*
Y765386D01*
X653626Y763270D01*
X657858D01*
X659974Y765386D01*
X664206Y763270D02*
X668438D01*
X666322D01*
Y771734D01*
X664206D01*
X674786Y763270D02*
Y771734D01*
X681134D01*
X683250Y769618D01*
Y763270D01*
X687482Y773850D02*
X689598Y775966D01*
X693830D01*
X695946Y773850D01*
Y771734D01*
X693830Y769618D01*
X691714D01*
X693830D01*
X695946Y767502D01*
Y765386D01*
X693830Y763270D01*
X689598D01*
X687482Y765386D01*
X647697Y414015D02*
X637540D01*
Y406398D01*
X642618D01*
X637540D01*
Y398780D01*
X662932Y414015D02*
X652775D01*
Y398780D01*
X662932D01*
X652775Y406398D02*
X657853D01*
X668010Y414015D02*
Y398780D01*
X675628D01*
X678167Y401319D01*
Y403858D01*
X675628Y406398D01*
X668010D01*
X675628D01*
X678167Y408937D01*
Y411476D01*
X675628Y414015D01*
X668010D01*
X708637Y398780D02*
X698480D01*
X708637Y408937D01*
Y411476D01*
X706098Y414015D01*
X701020D01*
X698480Y411476D01*
X713715D02*
X716255Y414015D01*
X721333D01*
X723872Y411476D01*
Y401319D01*
X721333Y398780D01*
X716255D01*
X713715Y401319D01*
Y411476D01*
X728950Y398780D02*
X734029D01*
X731490D01*
Y414015D01*
X728950Y411476D01*
X741646Y401319D02*
X744185Y398780D01*
X749264D01*
X751803Y401319D01*
Y411476D01*
X749264Y414015D01*
X744185D01*
X741646Y411476D01*
Y408937D01*
X744185Y406398D01*
X751803D01*
X747395Y601980D02*
X752473D01*
X749934D01*
Y617215D01*
X747395Y614676D01*
X770248D02*
X767708Y617215D01*
X762630D01*
X760091Y614676D01*
Y612137D01*
X762630Y609598D01*
X767708D01*
X770248Y607058D01*
Y604519D01*
X767708Y601980D01*
X762630D01*
X760091Y604519D01*
X790561Y617215D02*
Y601980D01*
X800718D01*
X805796D02*
X810874D01*
X808335D01*
Y612137D01*
X805796D01*
X818492Y617215D02*
X823570D01*
X821031D01*
Y601980D01*
X818492D01*
X823570D01*
X833727D02*
X838805D01*
X841345Y604519D01*
Y609598D01*
X838805Y612137D01*
X833727D01*
X831188Y609598D01*
Y604519D01*
X833727Y601980D01*
X846423D02*
Y612137D01*
X854041D01*
X856580Y609598D01*
Y601980D01*
X784857Y526415D02*
Y512873D01*
X784863Y537210D02*
Y550752D01*
X778092Y543981D02*
X791634D01*
X746765Y481330D02*
X762000D01*
Y488947D01*
X759461Y491487D01*
X756922D01*
X754382Y488947D01*
Y481330D01*
Y488947D01*
X751843Y491487D01*
X749304D01*
X746765Y488947D01*
Y481330D01*
X762000Y496565D02*
X751843D01*
X746765Y501643D01*
X751843Y506722D01*
X762000D01*
X754382D01*
Y496565D01*
X746765Y511800D02*
Y521957D01*
Y516879D01*
X762000D01*
X746765Y527035D02*
Y537192D01*
Y532114D01*
X762000D01*
X746765Y552427D02*
Y542270D01*
X762000D01*
Y552427D01*
X754382Y542270D02*
Y547349D01*
X762000Y557505D02*
X746765D01*
Y565123D01*
X749304Y567662D01*
X754382D01*
X756922Y565123D01*
Y557505D01*
Y562584D02*
X762000Y567662D01*
X746765Y572740D02*
X749304D01*
X754382Y577819D01*
X749304Y582897D01*
X746765D01*
X754382Y577819D02*
X762000D01*
X873760Y1033780D02*
Y1038860D01*
X312420Y1033780D02*
Y1038860D01*
X858520Y1031240D02*
X873760Y1036320D01*
X858520Y1041400D02*
X873760Y1036320D01*
X312420D02*
X327660Y1031240D01*
X312420Y1036320D02*
X327660Y1041400D01*
X672060Y1036320D02*
X873760D01*
X312420D02*
X514120D01*
X885825Y1021080D02*
X890905D01*
X885825Y370840D02*
X890905D01*
X888365Y1021080D02*
X893445Y1005840D01*
X883285D02*
X888365Y1021080D01*
Y370840D02*
X893445Y386080D01*
X883285D02*
X888365Y370840D01*
Y776199D02*
Y1021080D01*
Y370840D02*
Y615721D01*
D26*
X434975Y454660D02*
G03*
X434975Y454660I-2540J0D01*
G01*
D28*
X382270Y372745D02*
X448310D01*
Y417195D01*
X429895Y435610D02*
X448310Y417195D01*
X382270Y435610D02*
X429895D01*
X382270Y372745D02*
Y435610D01*
X459105Y372745D02*
Y435610D01*
X506730D01*
X459105Y372745D02*
Y435610D01*
X506730D02*
X525145Y417195D01*
Y372745D02*
Y417195D01*
X459105Y372745D02*
X525145D01*
X866140Y469900D02*
X873760D01*
X861060Y594360D02*
X873760D01*
X737870Y469900D02*
X866140D01*
X737870D02*
Y520700D01*
Y594360D01*
X861060D01*
X714720Y669370D02*
Y798370D01*
X843720Y669370D02*
Y798370D01*
X714720D02*
X746970D01*
X811470D02*
X843720D01*
X746970D02*
X759670Y785670D01*
X798770D02*
X811470Y798370D01*
X779530Y669370D02*
X795577D01*
X832100D02*
X843720D01*
X714720D02*
X726880D01*
X762250D02*
X779530D01*
X795577D02*
X796730D01*
X370840Y444500D02*
X373380Y441960D01*
Y444500D01*
X370840D02*
X373380D01*
X370840Y441960D02*
Y444500D01*
X421640Y441960D02*
Y444500D01*
X424180D01*
X421640D02*
X424180Y441960D01*
X421640D02*
X424180Y444500D01*
X419100Y441960D02*
X424180Y447040D01*
X368300Y441960D02*
X373380Y447040D01*
X312420Y1021080D02*
X873760D01*
Y370840D02*
Y1021080D01*
X312420Y370840D02*
X873760D01*
X312420D02*
Y1021080D01*
D29*
X662939Y902780D02*
Y910779D01*
X526817Y1042413D02*
X516660D01*
Y1034796D01*
X521739Y1037335D01*
X524278D01*
X526817Y1034796D01*
Y1029718D01*
X524278Y1027178D01*
X519199D01*
X516660Y1029718D01*
X542052Y1042413D02*
X536974Y1039874D01*
X531895Y1034796D01*
Y1029718D01*
X534435Y1027178D01*
X539513D01*
X542052Y1029718D01*
Y1032257D01*
X539513Y1034796D01*
X531895D01*
X547130Y1027178D02*
Y1029718D01*
X549670D01*
Y1027178D01*
X547130D01*
X559826D02*
X564905D01*
X562365D01*
Y1042413D01*
X559826Y1039874D01*
X572522D02*
X575061Y1042413D01*
X580140D01*
X582679Y1039874D01*
Y1037335D01*
X580140Y1034796D01*
X577601D01*
X580140D01*
X582679Y1032257D01*
Y1029718D01*
X580140Y1027178D01*
X575061D01*
X572522Y1029718D01*
X595375Y1027178D02*
Y1042413D01*
X587757Y1034796D01*
X597914D01*
X623306Y1027178D02*
X618227Y1032257D01*
Y1037335D01*
X623306Y1042413D01*
X630923Y1027178D02*
Y1037335D01*
X633462D01*
X636002Y1034796D01*
Y1027178D01*
Y1034796D01*
X638541Y1037335D01*
X641080Y1034796D01*
Y1027178D01*
X646158D02*
Y1037335D01*
X648698D01*
X651237Y1034796D01*
Y1027178D01*
Y1034796D01*
X653776Y1037335D01*
X656315Y1034796D01*
Y1027178D01*
X661393D02*
X666472Y1032257D01*
Y1037335D01*
X661393Y1042413D01*
X882271Y628417D02*
X884811Y623339D01*
X889889Y618261D01*
X894967D01*
X897506Y620800D01*
Y625878D01*
X894967Y628417D01*
X892428D01*
X889889Y625878D01*
Y618261D01*
X882271Y643652D02*
Y633496D01*
X889889D01*
X887350Y638574D01*
Y641113D01*
X889889Y643652D01*
X894967D01*
X897506Y641113D01*
Y636035D01*
X894967Y633496D01*
X897506Y648731D02*
X894967D01*
Y651270D01*
X897506D01*
Y648731D01*
X884811Y661427D02*
X882271Y663966D01*
Y669044D01*
X884811Y671583D01*
X894967D01*
X897506Y669044D01*
Y663966D01*
X894967Y661427D01*
X884811D01*
X897506Y686818D02*
Y676662D01*
X887350Y686818D01*
X884811D01*
X882271Y684279D01*
Y679201D01*
X884811Y676662D01*
X897506Y699514D02*
X882271D01*
X889889Y691897D01*
Y702054D01*
X897506Y727445D02*
X892428Y722367D01*
X887350D01*
X882271Y727445D01*
X897506Y735063D02*
X887350D01*
Y737602D01*
X889889Y740141D01*
X897506D01*
X889889D01*
X887350Y742680D01*
X889889Y745220D01*
X897506D01*
Y750298D02*
X887350D01*
Y752837D01*
X889889Y755376D01*
X897506D01*
X889889D01*
X887350Y757915D01*
X889889Y760455D01*
X897506D01*
Y765533D02*
X892428Y770611D01*
X887350D01*
X882271Y765533D01*
D36*
X635880Y839700D02*
G03*
X635880Y839700I-3000J0D01*
G01*
X628620Y653680D02*
G03*
X628620Y653680I-3000J0D01*
G01*
D37*
X645630Y859350D02*
G03*
X645630Y859350I-1250J0D01*
G01*
X639220Y675130D02*
G03*
X639220Y675130I-1250J0D01*
G01*
X495730Y795050D02*
G03*
X495730Y795050I-1250J0D01*
G01*
Y744250D02*
G03*
X495730Y744250I-1250J0D01*
G01*
X455090Y693450D02*
G03*
X455090Y693450I-1250J0D01*
G01*
Y642650D02*
G03*
X455090Y642650I-1250J0D01*
G01*
X606790Y465250D02*
G03*
X606790Y465250I-1250J0D01*
G01*
X585870Y663930D02*
X635870D01*
X585870Y628930D02*
X635870D01*
Y663930D01*
X585870Y628930D02*
Y663930D01*
D38*
X643800Y699160D02*
G03*
X643800Y699160I-500J0D01*
G01*
X642620Y877730D02*
Y915830D01*
X622300Y877730D02*
X642620D01*
X622300D02*
Y915830D01*
X642620D01*
X622300Y877730D02*
Y915830D01*
X601980Y877730D02*
X622300D01*
X601980D02*
Y915830D01*
X622300D01*
X562450Y896620D02*
X600550D01*
Y876300D02*
Y896620D01*
X562450Y876300D02*
X600550D01*
X562450D02*
Y896620D01*
Y876300D02*
X600550D01*
Y855980D02*
Y876300D01*
X562450Y855980D02*
X600550D01*
X562450D02*
Y876300D01*
D39*
X662938Y880210D02*
Y892710D01*
X622302Y793850D02*
Y806350D01*
X641350Y974090D02*
Y993134D01*
X650872D01*
X654046Y989960D01*
Y983612D01*
X650872Y980438D01*
X641350D01*
X660394Y974090D02*
X666742D01*
X663568D01*
Y986786D01*
X660394D01*
X676264Y974090D02*
Y993134D01*
X685786D01*
X688960Y989960D01*
Y983612D01*
X685786Y980438D01*
X676264D01*
X698482Y974090D02*
X704829D01*
X708003Y977264D01*
Y983612D01*
X704829Y986786D01*
X698482D01*
X695308Y983612D01*
Y977264D01*
X698482Y974090D01*
X733395D02*
X739743D01*
X736569D01*
Y993134D01*
X733395Y989960D01*
X749265Y974090D02*
Y977264D01*
X752439D01*
Y974090D01*
X749265D01*
X765135Y989960D02*
X768309Y993134D01*
X774657D01*
X777831Y989960D01*
Y977264D01*
X774657Y974090D01*
X768309D01*
X765135Y977264D01*
Y989960D01*
D40*
X625960Y896780D02*
X638960D01*
X605640D02*
X618640D01*
X581500Y879960D02*
Y892960D01*
Y859640D02*
Y872640D01*
X611880Y826700D02*
Y849700D01*
X642880Y826700D02*
Y849700D01*
X611880Y826700D02*
X642880D01*
X611880Y849700D02*
X642880D01*
X622300Y760660D02*
Y783660D01*
Y727640D02*
Y750640D01*
X500980Y829050D02*
Y835300D01*
X575980Y829050D02*
Y835300D01*
X500980Y790300D02*
Y796550D01*
X575980Y790300D02*
Y796550D01*
X500980Y835300D02*
X575980D01*
X500980Y790300D02*
X575980D01*
X500980Y778250D02*
Y784500D01*
X575980Y778250D02*
Y784500D01*
X500980Y739500D02*
Y745750D01*
X575980Y739500D02*
Y745750D01*
X500980Y784500D02*
X575980D01*
X500980Y739500D02*
X575980D01*
X460340Y727450D02*
Y733700D01*
X535340Y727450D02*
Y733700D01*
X460340Y688700D02*
Y694950D01*
X535340Y688700D02*
Y694950D01*
X460340Y733700D02*
X535340D01*
X460340Y688700D02*
X535340D01*
X460340Y676650D02*
Y682900D01*
X535340Y676650D02*
Y682900D01*
X460340Y637900D02*
Y644150D01*
X535340Y637900D02*
Y644150D01*
X460340Y682900D02*
X535340D01*
X460340Y637900D02*
X535340D01*
X515620Y605720D02*
Y628720D01*
Y572700D02*
Y595700D01*
X538640Y450150D02*
X559940D01*
Y553150D01*
X538640D02*
X559940D01*
X373380Y441960D02*
Y949960D01*
X322580Y441960D02*
Y949960D01*
Y441960D02*
X373380D01*
X322580Y949960D02*
X373380D01*
X424180Y441960D02*
Y949960D01*
X373380Y441960D02*
Y949960D01*
Y441960D02*
X424180D01*
X373380Y949960D02*
X424180D01*
D41*
X407160Y1008758D02*
X402505D01*
X400177Y1006430D01*
Y997120D01*
X402505Y994792D01*
X407160D01*
X409487Y997120D01*
Y1006430D01*
X407160Y1008758D01*
X414142Y990137D02*
Y1004103D01*
X421125D01*
X423453Y1001775D01*
Y997120D01*
X421125Y994792D01*
X414142D01*
X435091D02*
X430435D01*
X428108Y997120D01*
Y1001775D01*
X430435Y1004103D01*
X435091D01*
X437418Y1001775D01*
Y999448D01*
X428108D01*
X442073Y994792D02*
Y1004103D01*
X449056D01*
X451384Y1001775D01*
Y994792D01*
X400177Y982467D02*
Y968502D01*
Y975485D01*
X409487D01*
Y982467D01*
Y968502D01*
X416470Y977812D02*
X421125D01*
X423453Y975485D01*
Y968502D01*
X416470D01*
X414142Y970830D01*
X416470Y973157D01*
X423453D01*
X428108Y977812D02*
Y968502D01*
Y973157D01*
X430435Y975485D01*
X432763Y977812D01*
X435091D01*
X451384Y982467D02*
Y968502D01*
X444401D01*
X442073Y970830D01*
Y975485D01*
X444401Y977812D01*
X451384D01*
X456039D02*
Y970830D01*
X458367Y968502D01*
X460694Y970830D01*
X463022Y968502D01*
X465349Y970830D01*
Y977812D01*
X472332D02*
X476987D01*
X479315Y975485D01*
Y968502D01*
X472332D01*
X470004Y970830D01*
X472332Y973157D01*
X479315D01*
X483970Y977812D02*
Y968502D01*
Y973157D01*
X486297Y975485D01*
X488625Y977812D01*
X490953D01*
X504918Y968502D02*
X500263D01*
X497935Y970830D01*
Y975485D01*
X500263Y977812D01*
X504918D01*
X507246Y975485D01*
Y973157D01*
X497935D01*
X395179Y432431D02*
X386715D01*
Y426083D01*
X390947Y428199D01*
X393063D01*
X395179Y426083D01*
Y421851D01*
X393063Y419735D01*
X388831D01*
X386715Y421851D01*
X399411Y432431D02*
Y423967D01*
X403643Y419735D01*
X407875Y423967D01*
Y432431D01*
X472649Y430315D02*
X470533Y432431D01*
X466301D01*
X464185Y430315D01*
Y421851D01*
X466301Y419735D01*
X470533D01*
X472649Y421851D01*
Y426083D01*
X468417D01*
X476881Y419735D02*
Y432431D01*
X485345Y419735D01*
Y432431D01*
X489577D02*
Y419735D01*
X495925D01*
X498041Y421851D01*
Y430315D01*
X495925Y432431D01*
X489577D01*
M02*
