G04 Layer_Physical_Order=1*
G04 Layer_Color=255*
%FSLAX44Y44*%
%MOMM*%
G71*
G01*
G75*
%ADD10C,0.3000*%
%ADD11R,2.7000X4.2000*%
%ADD12R,0.8500X0.8500*%
%ADD13R,1.0160X1.5240*%
%ADD14R,1.5000X1.4000*%
%ADD15R,1.4000X1.5000*%
%ADD16R,3.0000X2.6500*%
%ADD17R,0.3000X1.0000*%
%ADD18R,1.2200X2.7200*%
%ADD19R,1.7000X1.3000*%
%ADD20R,0.5100X1.0000*%
%ADD21R,2.4500X2.4500*%
%ADD22R,3.1000X1.1000*%
%ADD23R,8.3800X10.6600*%
%ADD24R,9.0000X3.5000*%
%ADD25C,0.2540*%
%ADD26C,0.5080*%
%ADD27C,0.3810*%
%ADD28C,0.1270*%
%ADD29C,0.1524*%
%ADD30C,6.0000*%
%ADD31C,1.5000*%
%ADD32R,1.5000X1.5000*%
%ADD33C,0.6350*%
%ADD34C,1.0160*%
%ADD35C,0.5080*%
G36*
X581660Y873760D02*
Y848360D01*
X605790Y824230D01*
X618473D01*
X618552Y823834D01*
X619427Y822524D01*
X619230Y822050D01*
Y812050D01*
X619714Y810884D01*
X619760Y810864D01*
Y698500D01*
X623570Y694690D01*
X635000D01*
X637540Y692150D01*
Y669290D01*
X632460Y664210D01*
X604520Y664210D01*
X596900Y656590D01*
X560070D01*
X551180Y647700D01*
Y571500D01*
X546100Y566420D01*
X520700Y566420D01*
X515620Y571500D01*
X515620Y633730D01*
X502920Y646430D01*
Y722630D01*
X542290Y762000D01*
Y855980D01*
X562610Y876300D01*
X579120D01*
X581660Y873760D01*
D02*
G37*
G36*
X872490Y812800D02*
Y533400D01*
X781050Y533400D01*
X764540Y549910D01*
X764540Y595630D01*
X793750Y624840D01*
X793750Y685800D01*
X782320Y697230D01*
X624840D01*
X622300Y699770D01*
X622300Y784860D01*
X626110Y788670D01*
X674370D01*
X708660Y822960D01*
X862330D01*
X872490Y812800D01*
D02*
G37*
G36*
X539750Y856615D02*
Y762635D01*
X500380Y723265D01*
X500380Y645160D01*
X513080Y632460D01*
X513080Y570230D01*
X522605Y560705D01*
X534670Y560705D01*
X540385Y554990D01*
Y447675D01*
X523240Y430530D01*
X449580D01*
X449580Y373380D01*
X384175D01*
X384175Y430530D01*
X367822D01*
X366567Y431602D01*
X362336Y434195D01*
X357752Y436094D01*
X352927Y437252D01*
X347980Y437641D01*
X343033Y437252D01*
X338208Y436094D01*
X333624Y434195D01*
X329393Y431602D01*
X328138Y430530D01*
X318135D01*
X313690Y434975D01*
X313690Y488950D01*
X316865Y492125D01*
X443230Y492125D01*
X447675Y496570D01*
Y843280D01*
X467360Y862965D01*
X533400D01*
X539750Y856615D01*
D02*
G37*
G36*
X619125Y864235D02*
Y851535D01*
X620395Y850265D01*
X630555Y850265D01*
X634365Y846455D01*
X634365Y822375D01*
X634230Y822050D01*
Y812050D01*
X634365Y811725D01*
Y808990D01*
X635000Y808355D01*
X637540D01*
X638175Y807720D01*
Y792480D01*
X637540Y791845D01*
X627380D01*
X626745Y792480D01*
Y807720D01*
X625475Y808990D01*
Y811918D01*
X625530Y812050D01*
Y822050D01*
X625475Y822182D01*
Y822737D01*
X626208Y823834D01*
X626524Y825420D01*
X626208Y827006D01*
X625475Y828103D01*
Y829310D01*
X623570Y831215D01*
X617220D01*
X615315Y833120D01*
Y864235D01*
X615950Y864870D01*
X618490D01*
X619125Y864235D01*
D02*
G37*
G36*
X791160Y684580D02*
X791160Y626060D01*
X762000Y596900D01*
Y595880D01*
X761950Y595630D01*
X761950Y549910D01*
X762000Y549660D01*
Y547370D01*
X777875Y531495D01*
X762000Y515620D01*
Y513130D01*
D01*
Y508250D01*
D01*
X761950Y508000D01*
Y387605D01*
Y387350D01*
X762000Y387100D01*
Y375920D01*
X758190Y372110D01*
X538480D01*
Y431800D01*
X553720Y447040D01*
Y571250D01*
X553770Y571500D01*
Y646480D01*
X561290Y654000D01*
X596900D01*
X597150Y654050D01*
X598170D01*
X605740Y661620D01*
X632460Y661620D01*
X632710Y661670D01*
X633730D01*
X641350Y669290D01*
Y692150D01*
X643840Y694640D01*
X781100D01*
X791160Y684580D01*
D02*
G37*
G36*
X872490Y372110D02*
X768350D01*
X764582Y375878D01*
X764590Y375920D01*
Y387100D01*
X764540Y387350D01*
Y387605D01*
Y508000D01*
D01*
X764590Y508250D01*
Y513130D01*
X781050Y529590D01*
X872490D01*
Y372110D01*
D02*
G37*
%LPC*%
G36*
X594370Y681780D02*
X589270D01*
X588104Y681296D01*
X587620Y680130D01*
Y670130D01*
X588104Y668964D01*
X588324Y668872D01*
Y667436D01*
X587394Y666043D01*
X587029Y664210D01*
X587394Y662377D01*
X588432Y660822D01*
X589987Y659784D01*
X591820Y659419D01*
X593653Y659784D01*
X595208Y660822D01*
X596246Y662377D01*
X596611Y664210D01*
X596246Y666043D01*
X595316Y667436D01*
Y668872D01*
X595536Y668964D01*
X596020Y670130D01*
Y680130D01*
X595536Y681296D01*
X594370Y681780D01*
D02*
G37*
G36*
X794220Y808270D02*
X764220D01*
X763054Y807786D01*
X762570Y806620D01*
Y780120D01*
X763054Y778954D01*
X764220Y778471D01*
X794220D01*
X795386Y778954D01*
X795870Y780120D01*
Y806620D01*
X795386Y807786D01*
X794220Y808270D01*
D02*
G37*
G36*
X343610Y460296D02*
X337974Y454660D01*
X343610Y449024D01*
X344050Y449597D01*
X345062Y452039D01*
X345407Y454660D01*
X345062Y457281D01*
X344050Y459723D01*
X343610Y460296D01*
D02*
G37*
G36*
X418980Y463810D02*
X403980D01*
X402814Y463326D01*
X402330Y462160D01*
Y447160D01*
X402814Y445994D01*
X403980Y445510D01*
X418980D01*
X420146Y445994D01*
X420630Y447160D01*
Y462160D01*
X420146Y463326D01*
X418980Y463810D01*
D02*
G37*
G36*
X394410Y460296D02*
X388774Y454660D01*
X394410Y449024D01*
X394850Y449597D01*
X395862Y452039D01*
X396207Y454660D01*
X395862Y457281D01*
X394850Y459723D01*
X394410Y460296D01*
D02*
G37*
G36*
X377750D02*
X377310Y459723D01*
X376298Y457281D01*
X375953Y454660D01*
X376298Y452039D01*
X377310Y449597D01*
X377750Y449024D01*
X383386Y454660D01*
X377750Y460296D01*
D02*
G37*
G36*
X326950D02*
X326510Y459723D01*
X325498Y457281D01*
X325153Y454660D01*
X325498Y452039D01*
X326510Y449597D01*
X326950Y449024D01*
X332586Y454660D01*
X326950Y460296D01*
D02*
G37*
G36*
X335280Y451966D02*
X329644Y446330D01*
X330217Y445890D01*
X332659Y444878D01*
X335280Y444533D01*
X337901Y444878D01*
X340343Y445890D01*
X340916Y446330D01*
X335280Y451966D01*
D02*
G37*
G36*
X368180Y463810D02*
X353180D01*
X352014Y463326D01*
X351530Y462160D01*
Y447160D01*
X352014Y445994D01*
X353180Y445510D01*
X368180D01*
X369346Y445994D01*
X369830Y447160D01*
Y462160D01*
X369346Y463326D01*
X368180Y463810D01*
D02*
G37*
G36*
X386080Y451966D02*
X380444Y446330D01*
X381017Y445890D01*
X383459Y444878D01*
X386080Y444533D01*
X388701Y444878D01*
X391143Y445890D01*
X391716Y446330D01*
X386080Y451966D01*
D02*
G37*
G36*
X335280Y464787D02*
X332659Y464442D01*
X330217Y463430D01*
X329644Y462990D01*
X335280Y457354D01*
X340916Y462990D01*
X340343Y463430D01*
X337901Y464442D01*
X335280Y464787D01*
D02*
G37*
G36*
Y490187D02*
X332659Y489842D01*
X330217Y488830D01*
X329644Y488390D01*
X335280Y482754D01*
X340916Y488390D01*
X340343Y488830D01*
X337901Y489842D01*
X335280Y490187D01*
D02*
G37*
G36*
X377750Y485696D02*
X377310Y485123D01*
X376298Y482681D01*
X375953Y480060D01*
X376298Y477439D01*
X377310Y474997D01*
X377750Y474424D01*
X383386Y480060D01*
X377750Y485696D01*
D02*
G37*
G36*
X326950D02*
X326510Y485123D01*
X325498Y482681D01*
X325153Y480060D01*
X325498Y477439D01*
X326510Y474997D01*
X326950Y474424D01*
X332586Y480060D01*
X326950Y485696D01*
D02*
G37*
G36*
X386080Y490187D02*
X383459Y489842D01*
X381017Y488830D01*
X380444Y488390D01*
X386080Y482754D01*
X391716Y488390D01*
X391143Y488830D01*
X388701Y489842D01*
X386080Y490187D01*
D02*
G37*
G36*
X394410Y485696D02*
X388774Y480060D01*
X394410Y474424D01*
X394850Y474997D01*
X395862Y477439D01*
X396207Y480060D01*
X395862Y482681D01*
X394850Y485123D01*
X394410Y485696D01*
D02*
G37*
G36*
X386080Y477366D02*
X380444Y471730D01*
X381017Y471290D01*
X383459Y470278D01*
X386080Y469933D01*
X388701Y470278D01*
X391143Y471290D01*
X391716Y471730D01*
X386080Y477366D01*
D02*
G37*
G36*
X335280D02*
X329644Y471730D01*
X330217Y471290D01*
X332659Y470278D01*
X335280Y469933D01*
X337901Y470278D01*
X340343Y471290D01*
X340916Y471730D01*
X335280Y477366D01*
D02*
G37*
G36*
X386080Y464787D02*
X383459Y464442D01*
X381017Y463430D01*
X380444Y462990D01*
X386080Y457354D01*
X391716Y462990D01*
X391143Y463430D01*
X388701Y464442D01*
X386080Y464787D01*
D02*
G37*
G36*
X343610Y485696D02*
X337974Y480060D01*
X343610Y474424D01*
X344050Y474997D01*
X345062Y477439D01*
X345407Y480060D01*
X345062Y482681D01*
X344050Y485123D01*
X343610Y485696D01*
D02*
G37*
G36*
X411480Y489162D02*
X409124Y488852D01*
X406929Y487942D01*
X405044Y486496D01*
X403598Y484611D01*
X402688Y482416D01*
X402378Y480060D01*
X402688Y477704D01*
X403598Y475509D01*
X405044Y473624D01*
X406929Y472178D01*
X409124Y471268D01*
X411480Y470958D01*
X413836Y471268D01*
X416031Y472178D01*
X417916Y473624D01*
X419362Y475509D01*
X420272Y477704D01*
X420582Y480060D01*
X420272Y482416D01*
X419362Y484611D01*
X417916Y486496D01*
X416031Y487942D01*
X413836Y488852D01*
X411480Y489162D01*
D02*
G37*
G36*
X360680D02*
X358324Y488852D01*
X356129Y487942D01*
X354244Y486496D01*
X352798Y484611D01*
X351888Y482416D01*
X351578Y480060D01*
X351888Y477704D01*
X352798Y475509D01*
X354244Y473624D01*
X356129Y472178D01*
X358324Y471268D01*
X360680Y470958D01*
X363036Y471268D01*
X365231Y472178D01*
X367116Y473624D01*
X368562Y475509D01*
X369472Y477704D01*
X369782Y480060D01*
X369472Y482416D01*
X368562Y484611D01*
X367116Y486496D01*
X365231Y487942D01*
X363036Y488852D01*
X360680Y489162D01*
D02*
G37*
G36*
X577980Y438661D02*
X572873Y438259D01*
X567893Y437063D01*
X563161Y435103D01*
X558794Y432427D01*
X554899Y429100D01*
X551573Y425206D01*
X548897Y420839D01*
X546936Y416106D01*
X545741Y411126D01*
X545339Y406020D01*
X545741Y400914D01*
X546936Y395933D01*
X548897Y391202D01*
X551573Y386834D01*
X554899Y382940D01*
X558794Y379613D01*
X563161Y376937D01*
X567893Y374977D01*
X572873Y373781D01*
X577980Y373380D01*
X583086Y373781D01*
X588066Y374977D01*
X592798Y376937D01*
X597165Y379613D01*
X601060Y382940D01*
X604386Y386834D01*
X607062Y391202D01*
X609023Y395933D01*
X610218Y400914D01*
X610620Y406020D01*
X610218Y411126D01*
X609023Y416106D01*
X607062Y420839D01*
X604386Y425206D01*
X601060Y429100D01*
X597165Y432427D01*
X592798Y435103D01*
X588066Y437063D01*
X583086Y438259D01*
X577980Y438661D01*
D02*
G37*
G36*
X837979Y437641D02*
X833032Y437252D01*
X828207Y436094D01*
X823623Y434195D01*
X819392Y431602D01*
X815619Y428380D01*
X812397Y424607D01*
X809804Y420376D01*
X807905Y415792D01*
X806747Y410967D01*
X806358Y406020D01*
X806747Y401073D01*
X807905Y396249D01*
X809804Y391664D01*
X812397Y387433D01*
X815619Y383660D01*
X819392Y380438D01*
X823623Y377845D01*
X828207Y375946D01*
X833032Y374788D01*
X837979Y374399D01*
X842926Y374788D01*
X847751Y375946D01*
X852335Y377845D01*
X856566Y380438D01*
X860339Y383660D01*
X863561Y387433D01*
X866154Y391664D01*
X868053Y396249D01*
X869211Y401073D01*
X869600Y406020D01*
X869211Y410967D01*
X868053Y415792D01*
X866154Y420376D01*
X863561Y424607D01*
X860339Y428380D01*
X856566Y431602D01*
X852335Y434195D01*
X847751Y436094D01*
X842926Y437252D01*
X837979Y437641D01*
D02*
G37*
%LPD*%
D10*
X871003Y985980D02*
G03*
X871003Y985980I-33024J0D01*
G01*
X691105Y843915D02*
G03*
X688975Y844399I-2130J-4445D01*
G01*
X691105Y843915D02*
G03*
X688975Y844399I-2130J-4445D01*
G01*
X381004Y985980D02*
G03*
X330100Y958215I-33024J0D01*
G01*
X365860D02*
G03*
X381004Y985980I-17880J27765D01*
G01*
X611003D02*
G03*
X611003Y985980I-33024J0D01*
G01*
X846710Y1017829D02*
X849326Y1020445D01*
X846313D02*
X850033Y1016725D01*
X869648Y1020445D02*
X873125Y1016968D01*
X838535Y1020445D02*
X840041Y1018940D01*
X840042Y1018939D02*
X841548Y1020445D01*
X861870D02*
X873125Y1009190D01*
X861438Y1009223D02*
X872660Y1020445D01*
X854091D02*
X873125Y1001412D01*
X852365Y1015706D02*
X857104Y1020445D01*
X857241Y1012804D02*
X864882Y1020445D01*
X822979D02*
X826485Y1016939D01*
X817166Y1011620D02*
X825991Y1020445D01*
X831732Y1018408D02*
X833770Y1020445D01*
X807422D02*
X816664Y1011204D01*
X815201Y1020445D02*
X821214Y1014432D01*
X745197Y1020445D02*
X873125Y892517D01*
X737419Y1020445D02*
X873125Y884739D01*
X752975Y1020445D02*
X873125Y900295D01*
X799644Y1020445D02*
X812773Y1007316D01*
X697230Y899462D02*
X818213Y1020445D01*
X869920Y994370D02*
X873125Y997575D01*
X868725Y998034D02*
X873125Y993633D01*
X870962Y987634D02*
X873125Y989797D01*
X864983Y1004990D02*
X873125Y1013132D01*
X867845Y1000073D02*
X873125Y1005353D01*
X870567Y980635D02*
X873125Y978077D01*
X868938Y974486D02*
X873125Y970299D01*
X866431Y969215D02*
X873125Y962521D01*
X870938Y988042D02*
X873125Y985855D01*
X870298Y979192D02*
X873125Y982019D01*
X863203Y964665D02*
X873125Y954743D01*
X859315Y960774D02*
X873125Y946964D01*
X854769Y957542D02*
X873125Y939186D01*
X830757Y1020445D02*
X832634Y1018568D01*
X825989Y955210D02*
X873125Y908074D01*
X835959Y953018D02*
X873125Y915852D01*
X849501Y955032D02*
X873125Y931408D01*
X843358Y953397D02*
X873125Y923630D01*
X784088Y1020445D02*
X807030Y997503D01*
X760753Y1020445D02*
X807209Y973990D01*
X791866Y1020445D02*
X809542Y1002770D01*
X768532Y1020445D02*
X805017Y983960D01*
X776310Y1020445D02*
X805396Y991359D01*
X695968Y913757D02*
X802657Y1020445D01*
X692079Y917646D02*
X794879Y1020445D01*
X697230Y907240D02*
X810435Y1020445D01*
X678357Y919480D02*
X779322Y1020445D01*
X686135Y919480D02*
X787101Y1020445D01*
X631688Y919480D02*
X732653Y1020445D01*
X624840Y920410D02*
X724875Y1020445D01*
X639467Y919480D02*
X740432Y1020445D01*
X610961Y984313D02*
X647094Y1020445D01*
X623344Y926692D02*
X717097Y1020445D01*
X662801Y919480D02*
X763766Y1020445D01*
X670579Y919480D02*
X771544Y1020445D01*
X647245Y919480D02*
X748210Y1020445D01*
X655023Y919480D02*
X755988Y1020445D01*
X624840Y923014D02*
X628374Y919480D01*
X619454Y930581D02*
X709319Y1020445D01*
X688975Y919480D02*
X689610Y920115D01*
X617220Y932815D02*
X624840Y925195D01*
Y919480D02*
Y925195D01*
X697230Y883905D02*
X805551Y992227D01*
X697230Y891684D02*
X812339Y1006793D01*
X689610Y920115D02*
X697230Y912495D01*
X624840Y919480D02*
X688975D01*
X697230Y880110D02*
Y912495D01*
X610514Y991644D02*
X639315Y1020445D01*
X608954Y974527D02*
X654872Y1020445D01*
X613911Y932815D02*
X701541Y1020445D01*
X608837Y997745D02*
X631537Y1020445D01*
X607060Y932815D02*
X617220D01*
X610483Y991818D02*
X682821Y919480D01*
X610918Y983605D02*
X675043Y919480D01*
X609756Y976989D02*
X667265Y919480D01*
X607596Y971370D02*
X659487Y919480D01*
X714084Y1020445D02*
X873125Y861404D01*
X706306Y1020445D02*
X873125Y853626D01*
Y837565D02*
Y1020445D01*
X729641D02*
X873125Y876961D01*
X721863Y1020445D02*
X873125Y869183D01*
X733432Y826770D02*
X873125Y966463D01*
X725654Y826770D02*
X873125Y974241D01*
X741211Y826770D02*
X873125Y958684D01*
X701918Y834147D02*
X823886Y956114D01*
X705807Y830258D02*
X829589Y954040D01*
X698528Y1020445D02*
X873125Y845848D01*
X682972Y1020445D02*
X869488Y833928D01*
X690750Y1020445D02*
X873125Y838070D01*
X667416Y1020445D02*
X861091Y826770D01*
X675194Y1020445D02*
X865600Y830040D01*
X651860Y1020445D02*
X845535Y826770D01*
X659638Y1020445D02*
X853313Y826770D01*
X636303Y1020445D02*
X829978Y826770D01*
X644081Y1020445D02*
X837757Y826770D01*
X818992D02*
X873125Y880903D01*
X811214Y826770D02*
X873125Y888681D01*
X826770Y826770D02*
X873125Y873125D01*
X795658Y826770D02*
X873125Y904237D01*
X803436Y826770D02*
X873125Y896459D01*
X857883Y826770D02*
X873125Y842012D01*
X850105Y826770D02*
X873125Y849790D01*
X862330Y826770D02*
X873125Y837565D01*
X834549Y826770D02*
X873125Y865346D01*
X842327Y826770D02*
X873125Y857568D01*
X756767Y826770D02*
X873125Y943128D01*
X748989Y826770D02*
X873125Y950906D01*
X709295Y826770D02*
X862330D01*
X717876D02*
X844767Y953661D01*
X710098Y826770D02*
X836325Y952998D01*
X780101Y826770D02*
X873125Y919794D01*
X787880Y826770D02*
X873125Y912015D01*
X764545Y826770D02*
X873125Y935350D01*
X772323Y826770D02*
X873125Y927572D01*
X694140Y841925D02*
X814736Y962521D01*
X688836Y844399D02*
X811155Y966718D01*
X698029Y838036D02*
X818969Y958976D01*
X697230Y881737D02*
X752197Y826770D01*
X690880Y873760D02*
X697230Y880110D01*
Y897293D02*
X767753Y826770D01*
X697230Y905071D02*
X775531Y826770D01*
X697230Y889515D02*
X759975Y826770D01*
X694154Y877034D02*
X744418Y826770D01*
X689650Y873760D02*
X736640Y826770D01*
X673280Y844399D02*
X806130Y977249D01*
X665502Y844399D02*
X805020Y983917D01*
X681058Y844399D02*
X808253Y971594D01*
X643890Y861678D02*
X655972Y873760D01*
X650803Y845257D02*
X679306Y873760D01*
X620747Y1020445D02*
X814422Y826770D01*
X628525Y1020445D02*
X822200Y826770D01*
X612969Y1020445D02*
X806644Y826770D01*
X650760Y873760D02*
X680120Y844399D01*
X651661D02*
X688975D01*
X691105Y843915D02*
X692150D01*
X657723Y844399D02*
X687085Y873760D01*
X658538D02*
X687899Y844399D01*
X674094Y873760D02*
X721084Y826770D01*
X666316Y873760D02*
X713306Y826770D01*
X681872Y873760D02*
X728862Y826770D01*
X692150Y843915D02*
X709295Y826770D01*
X646914Y849146D02*
X671528Y873760D01*
X643890Y853900D02*
X663750Y873760D01*
X650240D02*
X690880D01*
X643890Y867410D02*
X650240Y873760D01*
X643890Y852170D02*
Y867410D01*
X646611Y870131D02*
X672342Y844399D01*
X643890Y865073D02*
X664564Y844399D01*
X643890Y857295D02*
X656786Y844399D01*
X643890Y852170D02*
X651661Y844399D01*
X583037Y1018614D02*
X584868Y1020445D01*
X581856D02*
X583817Y1018484D01*
X589230Y1017029D02*
X592646Y1020445D01*
X574078D02*
X575605Y1018918D01*
X575560Y1018915D02*
X577090Y1020445D01*
X603032Y1007496D02*
X615981Y1020445D01*
X599114Y1011356D02*
X608203Y1020445D01*
X606293Y1002979D02*
X623759Y1020445D01*
X589634D02*
X597361Y1012718D01*
X594534Y1014555D02*
X600424Y1020445D01*
X566300D02*
X568988Y1017756D01*
X565368Y1016501D02*
X569312Y1020445D01*
X313055D02*
X873125D01*
X550743D02*
X558524Y1012664D01*
X558522Y1020445D02*
X563370Y1015597D01*
X535187Y1020445D02*
X550839Y1004794D01*
X527409Y1020445D02*
X548008Y999846D01*
X542965Y1020445D02*
X554355Y1009055D01*
X504075Y1020445D02*
X545753Y978766D01*
X519631Y1020445D02*
X545971Y994105D01*
X421522Y958215D02*
X483752Y1020445D01*
X413744Y958215D02*
X475974Y1020445D01*
X511853D02*
X544983Y987315D01*
X380961Y987658D02*
X413749Y1020445D01*
X405966Y958215D02*
X468196Y1020445D01*
X390409Y958215D02*
X452639Y1020445D01*
X382631Y958215D02*
X444861Y1020445D01*
X398187Y958215D02*
X460418Y1020445D01*
X380941Y988015D02*
X410741Y958215D01*
X380565Y980613D02*
X402963Y958215D01*
X379915Y994390D02*
X405970Y1020445D01*
X377838Y1000090D02*
X398192Y1020445D01*
X380305Y979224D02*
X421527Y1020445D01*
X374973Y1005005D02*
X390414Y1020445D01*
X378932Y974468D02*
X395185Y958215D01*
X367075D02*
X429305Y1020445D01*
X374853Y958215D02*
X437083Y1020445D01*
X378741Y997993D02*
X418519Y958215D01*
X365860D02*
X422275D01*
X350019Y1018941D02*
X351523Y1020445D01*
X348511D02*
X350015Y1018941D01*
X356691Y1017834D02*
X359301Y1020445D01*
X340733D02*
X342613Y1018565D01*
X341702Y1018402D02*
X343745Y1020445D01*
X367228Y1012815D02*
X374858Y1020445D01*
X362349Y1015714D02*
X367080Y1020445D01*
X371427Y1009236D02*
X382636Y1020445D01*
X332955D02*
X336468Y1016932D01*
X356289Y1020445D02*
X359993Y1016741D01*
X325177Y1020445D02*
X331199Y1014423D01*
X317398Y1020445D02*
X326651Y1011192D01*
X327029Y1011507D02*
X335967Y1020445D01*
X313055Y1013090D02*
X320410Y1020445D01*
X313055Y1017010D02*
X322763Y1007303D01*
X313055Y1005311D02*
X328189Y1020445D01*
X313055Y961390D02*
Y1020445D01*
Y1009232D02*
X319533Y1002754D01*
X373192Y964651D02*
X379628Y958215D01*
X313055Y997533D02*
X322453Y1006931D01*
X369303Y960763D02*
X371850Y958215D01*
X313055Y985898D02*
X315020Y983933D01*
X314429Y960016D02*
X321145Y966732D01*
X376423Y969199D02*
X387407Y958215D01*
X316230D02*
X330100D01*
X320406D02*
X324724Y962533D01*
X328184Y958215D02*
X328955Y958987D01*
X313055Y989755D02*
X315558Y992258D01*
X313055Y1001454D02*
X317025Y997484D01*
X313055Y974199D02*
X316126Y977269D01*
X313055Y993676D02*
X315394Y991337D01*
X313055Y981977D02*
X315019Y983941D01*
X313055Y966421D02*
X318246Y971611D01*
X313055Y970341D02*
X325181Y958215D01*
X313055Y978120D02*
X317226Y973949D01*
X313055Y961390D02*
X316230Y958215D01*
X565334Y899795D02*
X685984Y1020445D01*
X534380Y892175D02*
X662650Y1020445D01*
X573112Y899795D02*
X693763Y1020445D01*
X496296D02*
X598170Y918571D01*
X605191Y1020445D02*
X798866Y826770D01*
X597412Y1020445D02*
X791087Y826770D01*
X604718Y1005361D02*
X783309Y826770D01*
X542158Y892175D02*
X670428Y1020445D01*
X549936Y892175D02*
X678206Y1020445D01*
X480740D02*
X597557Y903627D01*
X472962Y1020445D02*
X593612Y899795D01*
X488518Y1020445D02*
X598170Y910793D01*
X457406Y1020445D02*
X578055Y899795D01*
X465184Y1020445D02*
X585834Y899795D01*
X441849Y1020445D02*
X562499Y899795D01*
X449627Y1020445D02*
X570277Y899795D01*
X434071Y1020445D02*
X556760Y897756D01*
X434119Y893031D02*
X561534Y1020445D01*
X604664Y966525D02*
X651709Y919480D01*
X601055Y962356D02*
X643930Y919480D01*
X591846Y956008D02*
X615039Y932815D01*
X586105Y953971D02*
X607261Y932815D01*
X598170Y923925D02*
X607060Y932815D01*
X598170Y904240D02*
Y923925D01*
X596793Y958839D02*
X636152Y919480D01*
X580891Y899795D02*
X598170Y917074D01*
X588669Y899795D02*
X598170Y909296D01*
X593725Y899795D02*
X598170Y904240D01*
X579315Y952983D02*
X603271Y929026D01*
X570766Y953754D02*
X599382Y925137D01*
X558800Y899795D02*
X593725D01*
X526602Y892175D02*
X589432Y955005D01*
X551180Y892175D02*
X558800Y899795D01*
X511045Y892175D02*
X572316Y953445D01*
X518824Y892175D02*
X579647Y952998D01*
X495489Y892175D02*
X560981Y957667D01*
X503267Y892175D02*
X566215Y955123D01*
X427990Y933570D02*
X514865Y1020445D01*
X427990Y941348D02*
X507086Y1020445D01*
X427990Y925792D02*
X522643Y1020445D01*
X427990Y949127D02*
X499308Y1020445D01*
X427990Y941348D02*
X507086Y1020445D01*
X427990Y902458D02*
X545977Y1020445D01*
X426293D02*
X552871Y893866D01*
X430230Y896920D02*
X553755Y1020445D01*
X427990Y918014D02*
X530421Y1020445D01*
X427990Y910236D02*
X538199Y1020445D01*
X410737D02*
X539007Y892175D01*
X402958Y1020445D02*
X531228Y892175D01*
X418515Y1020445D02*
X546785Y892175D01*
X425788Y954702D02*
X491530Y1020445D01*
X395180D02*
X523450Y892175D01*
X379624Y1020445D02*
X507894Y892175D01*
X387402Y1020445D02*
X515672Y892175D01*
X364067Y1020445D02*
X492337Y892175D01*
X371846Y1020445D02*
X500116Y892175D01*
X479933D02*
X552604Y964846D01*
X472155Y892175D02*
X549405Y969425D01*
X487711Y892175D02*
X556463Y960927D01*
X464376Y892175D02*
X546931Y974730D01*
X427990Y899160D02*
Y952500D01*
X456598Y892175D02*
X545345Y980922D01*
X441042Y892175D02*
X547459Y998592D01*
X434975Y892175D02*
X551180D01*
X448820D02*
X545044Y988399D01*
X427990Y917632D02*
X453447Y892175D01*
X427990Y940966D02*
X476781Y892175D01*
X427990Y948744D02*
X484559Y892175D01*
X427990Y933188D02*
X469003Y892175D01*
X313055Y962563D02*
X317403Y958215D01*
X422275D02*
X427990Y952500D01*
Y925410D02*
X461225Y892175D01*
X427990Y909854D02*
X445668Y892175D01*
X427990Y902075D02*
X437890Y892175D01*
X427990Y899160D02*
X434975Y892175D01*
D11*
X508635Y395605D02*
D03*
X475615Y395600D02*
D03*
X433705Y395605D02*
D03*
X400685D02*
D03*
D12*
X670690Y906780D02*
D03*
X655190D02*
D03*
D13*
X652780Y886460D02*
D03*
X673100D02*
D03*
X632460Y800100D02*
D03*
X612140D02*
D03*
D14*
X632460Y906780D02*
D03*
Y886780D02*
D03*
X612140Y906780D02*
D03*
Y886780D02*
D03*
D15*
X571500Y886460D02*
D03*
X591500D02*
D03*
X571500Y866140D02*
D03*
X591500D02*
D03*
D16*
X779220Y793370D02*
D03*
X814220Y674370D02*
D03*
X744220D02*
D03*
D17*
X617380Y817050D02*
D03*
X622380D02*
D03*
X627380D02*
D03*
X632380D02*
D03*
X637380D02*
D03*
X617380Y859350D02*
D03*
X622380D02*
D03*
X627380D02*
D03*
X632380D02*
D03*
X637380D02*
D03*
D18*
X608800Y772160D02*
D03*
X635800D02*
D03*
X608800Y739140D02*
D03*
X635800D02*
D03*
X529120Y617220D02*
D03*
X502120D02*
D03*
X529120Y584200D02*
D03*
X502120D02*
D03*
D19*
X635000Y708660D02*
D03*
X609600D02*
D03*
D20*
X629920Y675130D02*
D03*
X617220D02*
D03*
X604520D02*
D03*
X591820D02*
D03*
X629920Y617730D02*
D03*
X617220D02*
D03*
X604520D02*
D03*
X591820D02*
D03*
D21*
X508230Y812800D02*
D03*
X568730D02*
D03*
X508230Y762000D02*
D03*
X568730D02*
D03*
X467590Y711200D02*
D03*
X528090D02*
D03*
X467590Y660400D02*
D03*
X528090D02*
D03*
D22*
X605540Y476250D02*
D03*
Y527050D02*
D03*
D23*
X492740Y501650D02*
D03*
D24*
X825500Y492760D02*
D03*
Y571500D02*
D03*
D25*
X335280Y530860D02*
X347980Y543560D01*
X373380D01*
X386080Y530860D01*
X335280Y556260D02*
X347980Y568960D01*
X373380D01*
X386080Y556260D01*
X335280Y581660D02*
X347980Y594360D01*
X373380D01*
X386080Y581660D01*
X335280Y632460D02*
X347980Y645160D01*
X373380D01*
X386080Y632460D01*
X335280Y657860D02*
X347980Y670560D01*
X373380D01*
X386080Y657860D01*
X335280Y708660D02*
X347980Y721360D01*
X373380D01*
X386080Y708660D01*
X335280Y734060D02*
X347980Y746760D01*
X373380D01*
X386080Y734060D01*
X335280Y759460D02*
X347980Y772160D01*
X373380D01*
X386080Y759460D01*
X335280Y784860D02*
X347980Y797560D01*
X373380D01*
X386080Y784860D01*
X335280Y835660D02*
X347980Y848360D01*
X373380D01*
X386080Y835660D01*
X335280Y886460D02*
X347980Y899160D01*
X373380D01*
X386080Y886460D01*
X335280Y911860D02*
X347980Y924560D01*
X373380D01*
X386080Y911860D01*
X373380Y949960D02*
X386080Y937260D01*
X347980Y949960D02*
X373380D01*
X335280Y937260D02*
X347980Y949960D01*
X632380Y859350D02*
X632460Y859430D01*
Y886780D01*
X627380Y859350D02*
Y871540D01*
X612140Y886780D02*
X627380Y871540D01*
X622380Y859350D02*
Y868600D01*
X617220Y873760D02*
X622380Y868600D01*
X599120Y873760D02*
X617220D01*
X591500Y866140D02*
X599120Y873760D01*
X622380Y817050D02*
Y825420D01*
X637380Y817050D02*
Y825340D01*
X640080Y828040D01*
X659130D01*
X661670Y825500D01*
Y817880D02*
Y825500D01*
X637380Y851695D02*
Y859350D01*
X873760Y1033780D02*
Y1038860D01*
X312420Y1033780D02*
Y1038860D01*
X858520Y1031240D02*
X873760Y1036320D01*
X858520Y1041400D02*
X873760Y1036320D01*
X312420D02*
X327660Y1031240D01*
X312420Y1036320D02*
X327660Y1041400D01*
X672060Y1036320D02*
X873760D01*
X312420D02*
X514120D01*
X885825Y1021080D02*
X890905D01*
X885825Y370840D02*
X890905D01*
X888365Y1021080D02*
X893445Y1005840D01*
X883285D02*
X888365Y1021080D01*
Y370840D02*
X893445Y386080D01*
X883285D02*
X888365Y370840D01*
Y776199D02*
Y1021080D01*
Y370840D02*
Y615721D01*
D26*
X673100Y886460D02*
X685800D01*
X670690Y906780D02*
X683390D01*
X612140D02*
Y923290D01*
D27*
X632460Y886780D02*
X652460D01*
X652780Y886460D01*
X632460Y906780D02*
X655190D01*
X591820Y886780D02*
X612140D01*
X591500Y886460D02*
X591820Y886780D01*
Y664210D02*
Y675130D01*
X649605Y839470D02*
X688975D01*
X637380Y851695D02*
X649605Y839470D01*
X688975D02*
X740410Y788035D01*
Y756285D02*
Y788035D01*
Y756285D02*
X814220Y682475D01*
Y674370D02*
Y682475D01*
X463550Y886460D02*
X571500D01*
X427355Y850265D02*
X463550Y886460D01*
X427355Y474345D02*
Y850265D01*
X421005Y467995D02*
X427355Y474345D01*
X399415Y467995D02*
X421005D01*
X386080Y454660D02*
X399415Y467995D01*
D28*
X312420Y1021080D02*
X873760D01*
Y370840D02*
Y1021080D01*
X312420Y370840D02*
X873760D01*
X312420D02*
Y1021080D01*
D29*
X526817Y1042413D02*
X516660D01*
Y1034796D01*
X521739Y1037335D01*
X524278D01*
X526817Y1034796D01*
Y1029718D01*
X524278Y1027178D01*
X519199D01*
X516660Y1029718D01*
X542052Y1042413D02*
X536974Y1039874D01*
X531895Y1034796D01*
Y1029718D01*
X534435Y1027178D01*
X539513D01*
X542052Y1029718D01*
Y1032257D01*
X539513Y1034796D01*
X531895D01*
X547130Y1027178D02*
Y1029718D01*
X549670D01*
Y1027178D01*
X547130D01*
X559826D02*
X564905D01*
X562365D01*
Y1042413D01*
X559826Y1039874D01*
X572522D02*
X575061Y1042413D01*
X580140D01*
X582679Y1039874D01*
Y1037335D01*
X580140Y1034796D01*
X577601D01*
X580140D01*
X582679Y1032257D01*
Y1029718D01*
X580140Y1027178D01*
X575061D01*
X572522Y1029718D01*
X595375Y1027178D02*
Y1042413D01*
X587757Y1034796D01*
X597914D01*
X623306Y1027178D02*
X618227Y1032257D01*
Y1037335D01*
X623306Y1042413D01*
X630923Y1027178D02*
Y1037335D01*
X633462D01*
X636002Y1034796D01*
Y1027178D01*
Y1034796D01*
X638541Y1037335D01*
X641080Y1034796D01*
Y1027178D01*
X646158D02*
Y1037335D01*
X648698D01*
X651237Y1034796D01*
Y1027178D01*
Y1034796D01*
X653776Y1037335D01*
X656315Y1034796D01*
Y1027178D01*
X661393D02*
X666472Y1032257D01*
Y1037335D01*
X661393Y1042413D01*
X882271Y628417D02*
X884811Y623339D01*
X889889Y618261D01*
X894967D01*
X897506Y620800D01*
Y625878D01*
X894967Y628417D01*
X892428D01*
X889889Y625878D01*
Y618261D01*
X882271Y643652D02*
Y633496D01*
X889889D01*
X887350Y638574D01*
Y641113D01*
X889889Y643652D01*
X894967D01*
X897506Y641113D01*
Y636035D01*
X894967Y633496D01*
X897506Y648731D02*
X894967D01*
Y651270D01*
X897506D01*
Y648731D01*
X884811Y661427D02*
X882271Y663966D01*
Y669044D01*
X884811Y671583D01*
X894967D01*
X897506Y669044D01*
Y663966D01*
X894967Y661427D01*
X884811D01*
X897506Y686818D02*
Y676662D01*
X887350Y686818D01*
X884811D01*
X882271Y684279D01*
Y679201D01*
X884811Y676662D01*
X897506Y699514D02*
X882271D01*
X889889Y691897D01*
Y702054D01*
X897506Y727445D02*
X892428Y722367D01*
X887350D01*
X882271Y727445D01*
X897506Y735063D02*
X887350D01*
Y737602D01*
X889889Y740141D01*
X897506D01*
X889889D01*
X887350Y742680D01*
X889889Y745220D01*
X897506D01*
Y750298D02*
X887350D01*
Y752837D01*
X889889Y755376D01*
X897506D01*
X889889D01*
X887350Y757915D01*
X889889Y760455D01*
X897506D01*
Y765533D02*
X892428Y770611D01*
X887350D01*
X882271Y765533D01*
D30*
X347980Y406020D02*
D03*
Y985980D02*
D03*
X577980D02*
D03*
Y406020D02*
D03*
X837979Y985980D02*
D03*
Y406020D02*
D03*
D31*
X335280Y937260D02*
D03*
X360680D02*
D03*
X335280Y911860D02*
D03*
X360680D02*
D03*
X335280Y886460D02*
D03*
X360680D02*
D03*
X335280Y861060D02*
D03*
X360680D02*
D03*
X335280Y835660D02*
D03*
X360680D02*
D03*
X335280Y810260D02*
D03*
X360680D02*
D03*
X335280Y784860D02*
D03*
X360680D02*
D03*
X335280Y759460D02*
D03*
X360680D02*
D03*
X335280Y734060D02*
D03*
X360680D02*
D03*
X335280Y708660D02*
D03*
X360680D02*
D03*
X335280Y683260D02*
D03*
X360680D02*
D03*
X335280Y657860D02*
D03*
X360680D02*
D03*
X335280Y632460D02*
D03*
X360680D02*
D03*
X335280Y607060D02*
D03*
X360680D02*
D03*
X335280Y581660D02*
D03*
X360680D02*
D03*
X335280Y556260D02*
D03*
X360680D02*
D03*
X335280Y530860D02*
D03*
X360680D02*
D03*
X335280Y505460D02*
D03*
X360680D02*
D03*
X335280Y480060D02*
D03*
X360680D02*
D03*
X335280Y454660D02*
D03*
X386080Y937260D02*
D03*
X411480D02*
D03*
X386080Y911860D02*
D03*
X411480D02*
D03*
X386080Y886460D02*
D03*
X411480D02*
D03*
X386080Y861060D02*
D03*
X411480D02*
D03*
X386080Y835660D02*
D03*
X411480D02*
D03*
X386080Y810260D02*
D03*
X411480D02*
D03*
X386080Y784860D02*
D03*
X411480D02*
D03*
X386080Y759460D02*
D03*
X411480D02*
D03*
X386080Y734060D02*
D03*
X411480D02*
D03*
X386080Y708660D02*
D03*
X411480D02*
D03*
X386080Y683260D02*
D03*
X411480D02*
D03*
X386080Y657860D02*
D03*
X411480D02*
D03*
X386080Y632460D02*
D03*
X411480D02*
D03*
X386080Y607060D02*
D03*
X411480D02*
D03*
X386080Y581660D02*
D03*
X411480D02*
D03*
X386080Y556260D02*
D03*
X411480D02*
D03*
X386080Y530860D02*
D03*
X411480D02*
D03*
X386080Y505460D02*
D03*
X411480D02*
D03*
X386080Y480060D02*
D03*
X411480D02*
D03*
X386080Y454660D02*
D03*
D32*
X360680D02*
D03*
X411480D02*
D03*
D33*
X508635Y412115D02*
D03*
X517525D02*
D03*
X499745D02*
D03*
X475615D02*
D03*
X484505D02*
D03*
X466725D02*
D03*
X591820Y664210D02*
D03*
X624840Y845820D02*
D03*
Y836295D02*
D03*
X503266D02*
D03*
Y845820D02*
D03*
D34*
X535940Y685800D02*
D03*
X509270Y718820D02*
D03*
Y703580D02*
D03*
X521970Y685800D02*
D03*
X509270D02*
D03*
Y652780D02*
D03*
Y668020D02*
D03*
X685800Y886460D02*
D03*
X683390Y906780D02*
D03*
X822960Y457200D02*
D03*
Y518160D02*
D03*
X777240Y457200D02*
D03*
Y411480D02*
D03*
Y396240D02*
D03*
X838200Y457200D02*
D03*
X792480Y381000D02*
D03*
Y396240D02*
D03*
Y426720D02*
D03*
X853440Y441960D02*
D03*
X822960D02*
D03*
X792480Y518160D02*
D03*
X853440Y457200D02*
D03*
X807720Y381000D02*
D03*
X777240Y441960D02*
D03*
X807720D02*
D03*
X792480D02*
D03*
X853440Y518160D02*
D03*
X838200D02*
D03*
X792480Y411480D02*
D03*
X807720Y518160D02*
D03*
X777240Y426720D02*
D03*
X792480Y457200D02*
D03*
X807720D02*
D03*
X631190Y688340D02*
D03*
X617220D02*
D03*
X603250D02*
D03*
X544830Y609600D02*
D03*
Y591820D02*
D03*
Y576580D02*
D03*
X549910Y685800D02*
D03*
Y673100D02*
D03*
Y659130D02*
D03*
X612140Y923290D02*
D03*
X558800Y698500D02*
D03*
Y712470D02*
D03*
Y726440D02*
D03*
Y740410D02*
D03*
X572770Y698500D02*
D03*
Y712470D02*
D03*
Y726440D02*
D03*
Y740410D02*
D03*
X586740Y698500D02*
D03*
Y712470D02*
D03*
Y726440D02*
D03*
Y740410D02*
D03*
X563880Y685800D02*
D03*
X577850D02*
D03*
Y673100D02*
D03*
X563880D02*
D03*
X535940Y731520D02*
D03*
X521970D02*
D03*
X535940Y745490D02*
D03*
X548640Y768350D02*
D03*
Y754380D02*
D03*
X580390Y787400D02*
D03*
Y833120D02*
D03*
X591820Y753110D02*
D03*
Y764540D02*
D03*
Y775970D02*
D03*
Y787400D02*
D03*
Y798830D02*
D03*
Y810260D02*
D03*
Y821690D02*
D03*
X565150Y787400D02*
D03*
X548640D02*
D03*
Y805180D02*
D03*
Y820420D02*
D03*
X563880Y833120D02*
D03*
X548640D02*
D03*
Y848360D02*
D03*
X608330Y815340D02*
D03*
X676910Y683260D02*
D03*
X661670Y817880D02*
D03*
X556260Y861060D02*
D03*
X563880Y848360D02*
D03*
X521970Y638810D02*
D03*
X535940D02*
D03*
X544830Y624840D02*
D03*
D35*
X622380Y825420D02*
D03*
M02*
