M48
;Layer_Color=9474304
;FILE_FORMAT=4:4
METRIC,LZ
;TYPE=PLATED
T1F00S00C0.2000
T2F00S00C0.2540
T3F00S00C0.3000
T4F00S00C0.3810
T5F00S00C0.5080
T6F00S00C0.9000
%
T01
X0052142Y0050825
X0053158
X0057125Y0071075
X0058125
Y0072075
Y0073075
X0059125
Y0072075
Y0071075
X0057125Y0072075
Y0073075
T02
X0079475Y0072875
X008015Y0073075
X00807Y00736
X0081275Y007415
X00821436Y00740672
X00817626Y00746768
X00796Y0074925
X008015Y007555
X00807Y0076225
X008135Y0076875
X00820928Y0077189
X00822706Y00780018
X0079525Y0077775
X0079575Y007885
X007915Y0076875
X00783Y0076275
X0077525Y0075625
X00789Y007455
X00788Y0072825
X0077875Y00711
X007785Y006965
X00699Y0071275
X0069125Y0071175
X00683Y007105
X00675Y007095
X00667Y0070825
X0065925Y0070625
X00663194Y00734822
X00671068Y00733044
X00678942Y00731266
X00686562Y00729996
X00695452Y00728726
X00704596Y00728472
X0070425Y0076675
X00712Y00763
X0069625Y00771
X0069Y0077725
X006875Y0078625
X0074375Y0077
Y0076275
X005405Y0073325
X0053975Y0072325
X0054725
X0050875Y00684772
X0049075Y0068925
X004805Y006975
X0047425Y007025
X0046775Y00692
X0045375Y006115
X0053Y0060825
X0054225Y0062375
X005025Y008075
X004975Y008125
X004925Y008175
X004875Y008225
X004825Y008275
X0048625Y0089775
X00539Y0088625
X006935Y00835
X006885Y0082675
X0068725Y00816
X00687Y0080575
X0068725Y0079575
X00701Y0084125
X007105Y0084475
X0072Y00845
X0072925Y00844
X007365Y00841
X0075125Y008415
X0075875Y00844
X0076725Y008445
X007765Y00844
X007855Y00839
X0079175Y0083125
X00795Y008205
X0079575Y0080975
Y0079925
T03
X00732Y007055
X00744
Y007175
Y007295
X00756
Y007175
Y007055
X00732Y007175
Y007295
T04
X00817Y0068
X00816Y0069275
X00821Y00715
X0082275Y0073335
Y0078875
X007805Y00744
Y0072875
X007655Y00753
X00744Y007545
X0074375Y0077825
X0071775Y0075525
X006955Y007525
X0069475Y00737
X0070725Y0071375
X0070625Y0068825
X006965Y0067275
X007065Y00651
X0071875Y00661
X0073425
X0074675
X0076225
X0076213Y0068288
X0075488
X0077025Y0068263
X0078925Y0069275
X00651Y0070475
X00654Y0073725
X0065475Y007525
Y007615
X00633658Y00770158
X0061925Y00765
X00614Y0077425
X00602592Y00788158
X00590908Y00789158
X00581092
X00569408Y00788158
X005695Y00770342
X005675Y007595
X005285Y0072975
X0051175Y00723
Y00713
Y0073825
X00556066Y00666316
X005715Y00665908
X005795Y00658632
X005905Y006585
X006015Y00658724
X00611408Y00678092
X0061375Y0064075
X00624Y006305
X00655Y00646342
X006675Y0065625
X0066975Y005975
X00661
X0065225
X0064375Y0058575
Y00577
Y0056825
X0062275Y0054525
X00614
X0060525
X0059575Y0053575
Y00527
Y0051825
X00596Y0049475
Y00486
Y0047725
X0060625Y0046475
X00615
X0062375
X004955Y004945
X00501Y0054525
X0050675Y0058625
X005665Y00586
X00691Y00598
X0069975
X007085
X0071725
X00726
X00726Y0058925
Y005805
Y0057175
X007165Y0079625
Y0080895
X0074375Y0083685
X00771Y0082165
Y0079625
X00591658Y00802908
Y00814592
X0055675Y0082975
X0056225Y00898
X005505Y00923
X0049975Y00918
X005005Y009325
X004975Y0100875
X0042825
T05
X00508Y004705
X0050775Y0048175
X0051925Y0047
X00532Y0046925
X0054
X00542Y0054625
X0053375
X005225Y0054575
X0051325
T06
X0041148Y0045466
Y0048006
Y0050546
Y0053086
Y0055626
Y0058166
Y0060706
Y0063246
Y0065786
Y0068326
Y0070866
Y0073406
Y0075946
Y0078486
X0038608
Y0075946
Y0073406
Y0070866
Y0068326
Y0065786
Y0063246
Y0060706
Y0058166
Y0055626
Y0053086
Y0050546
Y0048006
Y0045466
X0036068
Y0048006
Y0050546
Y0053086
Y0055626
Y0058166
Y0060706
Y0063246
Y0065786
Y0068326
Y0070866
Y0073406
Y0075946
Y0078486
X0033528
Y0075946
Y0073406
Y0070866
Y0068326
Y0065786
Y0063246
Y0060706
Y0058166
Y0055626
Y0053086
Y0050546
Y0048006
Y0045466
Y0081026
Y0083566
Y0086106
Y0088646
Y0091186
Y0093726
X0036068
X0038608
Y0091186
Y0088646
Y0086106
Y0083566
Y0081026
X0036068
Y0083566
Y0086106
Y0088646
Y0091186
X0041148
Y0093726
Y0088646
Y0086106
Y0083566
Y0081026
X0065745Y0088685
Y0091225
X0068285
Y0088685
X0070825
Y0091225
X0073365
Y0088685
X0075905
Y0091225
M30
