G04 Layer_Color=65535*
%FSLAX44Y44*%
%MOMM*%
G71*
G01*
G75*
%ADD42C,0.2540*%
%ADD45C,0.1778*%
%ADD49C,0.5080*%
%ADD53C,0.1524*%
%ADD73C,0.1000*%
%ADD74C,0.2500*%
%ADD75C,0.1270*%
%ADD76C,0.0600*%
%ADD77C,0.0800*%
%ADD78C,0.1400*%
%ADD79C,0.0500*%
%ADD80C,0.2000*%
%ADD81C,0.1500*%
%ADD82C,0.2032*%
%ADD83R,0.4500X2.2860*%
%ADD84R,2.2860X0.4500*%
D42*
X345050Y632500D02*
G03*
X345050Y632500I-9750J0D01*
G01*
Y581700D02*
G03*
X345050Y581700I-9750J0D01*
G01*
X395850D02*
G03*
X395850Y581700I-9750J0D01*
G01*
Y632500D02*
G03*
X395850Y632500I-9750J0D01*
G01*
X345080Y454810D02*
G03*
X345080Y454810I-9750J0D01*
G01*
Y480060D02*
G03*
X345080Y480060I-9750J0D01*
G01*
X395830D02*
G03*
X395830Y480060I-9750J0D01*
G01*
Y454810D02*
G03*
X395830Y454810I-9750J0D01*
G01*
X638207Y887000D02*
G03*
X638207Y887000I-707J0D01*
G01*
X640510D02*
G03*
X640510Y887000I-3010J0D01*
G01*
X780000Y689500D02*
G03*
X780000Y689500I-1000J0D01*
G01*
X765450Y786090D02*
G03*
X765450Y786090I-1270J0D01*
G01*
X581901Y823250D02*
G03*
X581837Y822915I-901J0D01*
G01*
X421250Y581750D02*
G03*
X421250Y581750I-9750J0D01*
G01*
Y607000D02*
G03*
X421250Y607000I-9750J0D01*
G01*
Y632500D02*
G03*
X421250Y632500I-9750J0D01*
G01*
Y683250D02*
G03*
X421250Y683250I-9750J0D01*
G01*
Y708750D02*
G03*
X421250Y708750I-9750J0D01*
G01*
Y734000D02*
G03*
X421250Y734000I-9750J0D01*
G01*
X395750D02*
G03*
X395750Y734000I-9750J0D01*
G01*
X345000D02*
G03*
X345000Y734000I-9750J0D01*
G01*
X370500D02*
G03*
X370500Y734000I-9750J0D01*
G01*
Y708750D02*
G03*
X370500Y708750I-9750J0D01*
G01*
Y683250D02*
G03*
X370500Y683250I-9750J0D01*
G01*
Y632500D02*
G03*
X370500Y632500I-9750J0D01*
G01*
Y607000D02*
G03*
X370500Y607000I-9750J0D01*
G01*
Y581750D02*
G03*
X370500Y581750I-9750J0D01*
G01*
X497210Y903748D02*
X502290D01*
X580710Y808748D02*
X585790D01*
X554460Y765248D02*
X559540D01*
X603710Y764502D02*
X608790D01*
X593210Y764498D02*
X598290D01*
X574210D02*
X579290D01*
X596748Y777960D02*
Y783040D01*
X575248Y777960D02*
Y783040D01*
X614960Y751752D02*
X620040D01*
X639502Y758960D02*
Y764040D01*
Y749960D02*
Y755040D01*
X524748Y717460D02*
Y722540D01*
Y707460D02*
Y712540D01*
X524748Y735710D02*
Y740790D01*
X561210Y672160D02*
X566290D01*
X576960D02*
X582040D01*
X598960Y672252D02*
X604040D01*
X621460Y645002D02*
X626540D01*
X312420Y1038987D02*
X514120D01*
X672060D02*
X873760D01*
X312420D02*
X327660Y1044067D01*
X312420Y1038987D02*
X327660Y1033907D01*
X858520Y1044067D02*
X873760Y1038987D01*
X858520Y1033907D02*
X873760Y1038987D01*
X312420Y1036447D02*
Y1041527D01*
X873760Y1036447D02*
Y1041527D01*
X891286Y370840D02*
Y615721D01*
Y776199D02*
Y1021080D01*
X886206Y386080D02*
X891286Y370840D01*
X896366Y386080D01*
X886206Y1005840D02*
X891286Y1021080D01*
X896366Y1005840D01*
X888746Y370840D02*
X893826D01*
X888746Y1021080D02*
X893826D01*
D45*
X498271Y698964D02*
X496578Y700657D01*
X493193D01*
X491500Y698964D01*
Y692193D01*
X493193Y690500D01*
X496578D01*
X498271Y692193D01*
X508428Y698964D02*
X506735Y700657D01*
X503349D01*
X501657Y698964D01*
Y692193D01*
X503349Y690500D01*
X506735D01*
X508428Y692193D01*
X511814Y690500D02*
X515199D01*
X513506D01*
Y700657D01*
X511814Y698964D01*
X520277Y690500D02*
X523663D01*
X521970D01*
Y700657D01*
X520277Y698964D01*
X535513Y690500D02*
X528741D01*
X535513Y697271D01*
Y698964D01*
X533820Y700657D01*
X530434D01*
X528741Y698964D01*
X545669Y700657D02*
X538898D01*
Y695578D01*
X542284Y697271D01*
X543976D01*
X545669Y695578D01*
Y692193D01*
X543976Y690500D01*
X540591D01*
X538898Y692193D01*
X539000Y761657D02*
Y753193D01*
X540693Y751500D01*
X544078D01*
X545771Y753193D01*
Y761657D01*
X549157Y751500D02*
X552542D01*
X550849D01*
Y761657D01*
X549157Y759964D01*
X454000Y509157D02*
Y499000D01*
X460771D01*
X464157D02*
Y509157D01*
X469235D01*
X470928Y507464D01*
Y504078D01*
X469235Y502386D01*
X464157D01*
X481085Y509157D02*
X474314D01*
Y504078D01*
X477699Y505771D01*
X479392D01*
X481085Y504078D01*
Y500693D01*
X479392Y499000D01*
X476006D01*
X474314Y500693D01*
X484470D02*
X486163Y499000D01*
X489548D01*
X491241Y500693D01*
Y507464D01*
X489548Y509157D01*
X486163D01*
X484470Y507464D01*
Y505771D01*
X486163Y504078D01*
X491241D01*
X494627Y499000D02*
X498013D01*
X496320D01*
Y509157D01*
X494627Y507464D01*
X509862Y499000D02*
X503091D01*
X509862Y505771D01*
Y507464D01*
X508169Y509157D01*
X504784D01*
X503091Y507464D01*
X541750Y514407D02*
Y505943D01*
X543443Y504250D01*
X546828D01*
X548521Y505943D01*
Y514407D01*
X558678Y504250D02*
X551907D01*
X558678Y511021D01*
Y512714D01*
X556985Y514407D01*
X553600D01*
X551907Y512714D01*
X537000Y942657D02*
Y934193D01*
X538693Y932500D01*
X542078D01*
X543771Y934193D01*
Y942657D01*
X553928D02*
X547157D01*
Y937578D01*
X550542Y939271D01*
X552235D01*
X553928Y937578D01*
Y934193D01*
X552235Y932500D01*
X548849D01*
X547157Y934193D01*
X423021Y1001714D02*
X421328Y1003407D01*
X417943D01*
X416250Y1001714D01*
Y1000021D01*
X417943Y998328D01*
X421328D01*
X423021Y996636D01*
Y994943D01*
X421328Y993250D01*
X417943D01*
X416250Y994943D01*
X433178Y993250D02*
X426407D01*
X433178Y1000021D01*
Y1001714D01*
X431485Y1003407D01*
X428100D01*
X426407Y1001714D01*
X825000Y678000D02*
X814843D01*
Y683078D01*
X816536Y684771D01*
X819922D01*
X821614Y683078D01*
Y678000D01*
Y681386D02*
X825000Y684771D01*
Y694928D02*
Y688157D01*
X818229Y694928D01*
X816536D01*
X814843Y693235D01*
Y689849D01*
X816536Y688157D01*
X825000Y705085D02*
Y698313D01*
X818229Y705085D01*
X816536D01*
X814843Y703392D01*
Y700006D01*
X816536Y698313D01*
X790000Y688500D02*
X779843D01*
Y693578D01*
X781536Y695271D01*
X784922D01*
X786614Y693578D01*
Y688500D01*
Y691886D02*
X790000Y695271D01*
Y705428D02*
Y698657D01*
X783229Y705428D01*
X781536D01*
X779843Y703735D01*
Y700350D01*
X781536Y698657D01*
X790000Y708813D02*
Y712199D01*
Y710506D01*
X779843D01*
X781536Y708813D01*
X788000Y663500D02*
Y673657D01*
X793078D01*
X794771Y671964D01*
Y668578D01*
X793078Y666886D01*
X788000D01*
X791386D02*
X794771Y663500D01*
X804928D02*
X798157D01*
X804928Y670271D01*
Y671964D01*
X803235Y673657D01*
X799849D01*
X798157Y671964D01*
X808313D02*
X810006Y673657D01*
X813392D01*
X815085Y671964D01*
Y665193D01*
X813392Y663500D01*
X810006D01*
X808313Y665193D01*
Y671964D01*
X507250Y881000D02*
Y891157D01*
X512328D01*
X514021Y889464D01*
Y886078D01*
X512328Y884386D01*
X507250D01*
X510636D02*
X514021Y881000D01*
X517407D02*
X520792D01*
X519100D01*
Y891157D01*
X517407Y889464D01*
X532642Y881000D02*
X525871D01*
X532642Y887771D01*
Y889464D01*
X530949Y891157D01*
X527563D01*
X525871Y889464D01*
X544250Y881000D02*
Y891157D01*
X549328D01*
X551021Y889464D01*
Y886078D01*
X549328Y884386D01*
X544250D01*
X547636D02*
X551021Y881000D01*
X554407D02*
X557792D01*
X556100D01*
Y891157D01*
X554407Y889464D01*
X562871Y881000D02*
X566256D01*
X564563D01*
Y891157D01*
X562871Y889464D01*
X618750Y618500D02*
X608593D01*
Y623578D01*
X610286Y625271D01*
X613672D01*
X615364Y623578D01*
Y618500D01*
Y621886D02*
X618750Y625271D01*
X617057Y628657D02*
X618750Y630350D01*
Y633735D01*
X617057Y635428D01*
X610286D01*
X608593Y633735D01*
Y630350D01*
X610286Y628657D01*
X611979D01*
X613672Y630350D01*
Y635428D01*
X707750Y771657D02*
Y761500D01*
X714521D01*
X717907Y763193D02*
X719600Y761500D01*
X722985D01*
X724678Y763193D01*
Y769964D01*
X722985Y771657D01*
X719600D01*
X717907Y769964D01*
Y768271D01*
X719600Y766578D01*
X724678D01*
X763250Y771407D02*
Y761250D01*
X770021D01*
X773407Y769714D02*
X775099Y771407D01*
X778485D01*
X780178Y769714D01*
Y768021D01*
X778485Y766328D01*
X780178Y764636D01*
Y762943D01*
X778485Y761250D01*
X775099D01*
X773407Y762943D01*
Y764636D01*
X775099Y766328D01*
X773407Y768021D01*
Y769714D01*
X775099Y766328D02*
X778485D01*
X824771Y717714D02*
X823078Y719407D01*
X819693D01*
X818000Y717714D01*
Y710943D01*
X819693Y709250D01*
X823078D01*
X824771Y710943D01*
X828157Y717714D02*
X829849Y719407D01*
X833235D01*
X834928Y717714D01*
Y716021D01*
X833235Y714328D01*
X831542D01*
X833235D01*
X834928Y712636D01*
Y710943D01*
X833235Y709250D01*
X829849D01*
X828157Y710943D01*
X845085Y719407D02*
X841699Y717714D01*
X838313Y714328D01*
Y710943D01*
X840006Y709250D01*
X843392D01*
X845085Y710943D01*
Y712636D01*
X843392Y714328D01*
X838313D01*
X691786Y647771D02*
X690093Y646078D01*
Y642693D01*
X691786Y641000D01*
X698557D01*
X700250Y642693D01*
Y646078D01*
X698557Y647771D01*
X691786Y651157D02*
X690093Y652850D01*
Y656235D01*
X691786Y657928D01*
X693479D01*
X695172Y656235D01*
Y654542D01*
Y656235D01*
X696864Y657928D01*
X698557D01*
X700250Y656235D01*
Y652850D01*
X698557Y651157D01*
X690093Y668085D02*
Y661313D01*
X695172D01*
X693479Y664699D01*
Y666392D01*
X695172Y668085D01*
X698557D01*
X700250Y666392D01*
Y663006D01*
X698557Y661313D01*
X753771Y663464D02*
X752078Y665157D01*
X748693D01*
X747000Y663464D01*
Y656693D01*
X748693Y655000D01*
X752078D01*
X753771Y656693D01*
X757157Y663464D02*
X758849Y665157D01*
X762235D01*
X763928Y663464D01*
Y661771D01*
X762235Y660078D01*
X760542D01*
X762235D01*
X763928Y658386D01*
Y656693D01*
X762235Y655000D01*
X758849D01*
X757157Y656693D01*
X772392Y655000D02*
Y665157D01*
X767314Y660078D01*
X774085D01*
X720021Y662964D02*
X718328Y664657D01*
X714943D01*
X713250Y662964D01*
Y656193D01*
X714943Y654500D01*
X718328D01*
X720021Y656193D01*
X723407Y662964D02*
X725099Y664657D01*
X728485D01*
X730178Y662964D01*
Y661271D01*
X728485Y659578D01*
X726792D01*
X728485D01*
X730178Y657886D01*
Y656193D01*
X728485Y654500D01*
X725099D01*
X723407Y656193D01*
X733564Y662964D02*
X735256Y664657D01*
X738642D01*
X740335Y662964D01*
Y661271D01*
X738642Y659578D01*
X736949D01*
X738642D01*
X740335Y657886D01*
Y656193D01*
X738642Y654500D01*
X735256D01*
X733564Y656193D01*
X617771Y581964D02*
X616078Y583657D01*
X612693D01*
X611000Y581964D01*
Y575193D01*
X612693Y573500D01*
X616078D01*
X617771Y575193D01*
X621157Y581964D02*
X622850Y583657D01*
X626235D01*
X627928Y581964D01*
Y580271D01*
X626235Y578578D01*
X624542D01*
X626235D01*
X627928Y576886D01*
Y575193D01*
X626235Y573500D01*
X622850D01*
X621157Y575193D01*
X638085Y573500D02*
X631313D01*
X638085Y580271D01*
Y581964D01*
X636392Y583657D01*
X633006D01*
X631313Y581964D01*
X584771Y509714D02*
X583078Y511407D01*
X579693D01*
X578000Y509714D01*
Y502943D01*
X579693Y501250D01*
X583078D01*
X584771Y502943D01*
X588157Y509714D02*
X589850Y511407D01*
X593235D01*
X594928Y509714D01*
Y508021D01*
X593235Y506328D01*
X591542D01*
X593235D01*
X594928Y504636D01*
Y502943D01*
X593235Y501250D01*
X589850D01*
X588157Y502943D01*
X598313Y501250D02*
X601699D01*
X600006D01*
Y511407D01*
X598313Y509714D01*
X474271Y912714D02*
X472578Y914407D01*
X469193D01*
X467500Y912714D01*
Y905943D01*
X469193Y904250D01*
X472578D01*
X474271Y905943D01*
X477657Y912714D02*
X479350Y914407D01*
X482735D01*
X484428Y912714D01*
Y911021D01*
X482735Y909328D01*
X481042D01*
X482735D01*
X484428Y907636D01*
Y905943D01*
X482735Y904250D01*
X479350D01*
X477657Y905943D01*
X487813Y912714D02*
X489506Y914407D01*
X492892D01*
X494585Y912714D01*
Y905943D01*
X492892Y904250D01*
X489506D01*
X487813Y905943D01*
Y912714D01*
X631036Y626521D02*
X629343Y624828D01*
Y621443D01*
X631036Y619750D01*
X637807D01*
X639500Y621443D01*
Y624828D01*
X637807Y626521D01*
X639500Y636678D02*
Y629907D01*
X632729Y636678D01*
X631036D01*
X629343Y634985D01*
Y631600D01*
X631036Y629907D01*
X629343Y640063D02*
Y646835D01*
X631036D01*
X637807Y640063D01*
X639500D01*
X848521Y813157D02*
X845136D01*
X846828D01*
Y804693D01*
X845136Y803000D01*
X843443D01*
X841750Y804693D01*
X851907Y803000D02*
X855292D01*
X853599D01*
Y813157D01*
X851907Y811464D01*
X732250Y573407D02*
Y563250D01*
X739021D01*
X742407Y573407D02*
X749178D01*
X745792D01*
Y563250D01*
X752563D02*
X755949D01*
X754256D01*
Y573407D01*
X752563Y571714D01*
X767798Y573407D02*
X761027D01*
Y568328D01*
X764413Y570021D01*
X766106D01*
X767798Y568328D01*
Y564943D01*
X766106Y563250D01*
X762720D01*
X761027Y564943D01*
X771184Y571714D02*
X772877Y573407D01*
X776263D01*
X777955Y571714D01*
Y570021D01*
X776263Y568328D01*
X777955Y566636D01*
Y564943D01*
X776263Y563250D01*
X772877D01*
X771184Y564943D01*
Y566636D01*
X772877Y568328D01*
X771184Y570021D01*
Y571714D01*
X772877Y568328D02*
X776263D01*
X781341Y573407D02*
X788112D01*
Y571714D01*
X781341Y564943D01*
Y563250D01*
X791498Y568328D02*
X798269D01*
X801654Y571714D02*
X803347Y573407D01*
X806733D01*
X808425Y571714D01*
Y570021D01*
X806733Y568328D01*
X805040D01*
X806733D01*
X808425Y566636D01*
Y564943D01*
X806733Y563250D01*
X803347D01*
X801654Y564943D01*
X811811Y563250D02*
Y564943D01*
X813504D01*
Y563250D01*
X811811D01*
X827046Y573407D02*
X823661Y571714D01*
X820275Y568328D01*
Y564943D01*
X821968Y563250D01*
X825353D01*
X827046Y564943D01*
Y566636D01*
X825353Y568328D01*
X820275D01*
X790500Y464907D02*
Y456443D01*
X792193Y454750D01*
X795578D01*
X797271Y456443D01*
Y464907D01*
X807428D02*
X804042Y463214D01*
X800657Y459828D01*
Y456443D01*
X802349Y454750D01*
X805735D01*
X807428Y456443D01*
Y458136D01*
X805735Y459828D01*
X800657D01*
X659271Y867714D02*
X657578Y869407D01*
X654193D01*
X652500Y867714D01*
Y860943D01*
X654193Y859250D01*
X657578D01*
X659271Y860943D01*
X669428Y867714D02*
X667735Y869407D01*
X664350D01*
X662657Y867714D01*
Y860943D01*
X664350Y859250D01*
X667735D01*
X669428Y860943D01*
X682970Y869407D02*
Y859250D01*
X688048D01*
X689741Y860943D01*
Y867714D01*
X688048Y869407D01*
X682970D01*
X699898D02*
X693127D01*
Y859250D01*
X699898D01*
X693127Y864328D02*
X696513D01*
X703284Y869407D02*
Y859250D01*
X708362D01*
X710055Y860943D01*
Y862636D01*
X708362Y864328D01*
X703284D01*
X708362D01*
X710055Y866021D01*
Y867714D01*
X708362Y869407D01*
X703284D01*
X713440D02*
Y860943D01*
X715133Y859250D01*
X718519D01*
X720211Y860943D01*
Y869407D01*
X730368Y867714D02*
X728675Y869407D01*
X725290D01*
X723597Y867714D01*
Y860943D01*
X725290Y859250D01*
X728675D01*
X730368Y860943D01*
Y864328D01*
X726983D01*
X740525Y867714D02*
X738832Y869407D01*
X735447D01*
X733754Y867714D01*
Y860943D01*
X735447Y859250D01*
X738832D01*
X740525Y860943D01*
Y864328D01*
X737139D01*
X750682Y869407D02*
X743911D01*
Y859250D01*
X750682D01*
X743911Y864328D02*
X747296D01*
X754067Y859250D02*
Y869407D01*
X759146D01*
X760838Y867714D01*
Y864328D01*
X759146Y862636D01*
X754067D01*
X757453D02*
X760838Y859250D01*
X627000Y912750D02*
Y922907D01*
X632078D01*
X633771Y921214D01*
Y917828D01*
X632078Y916136D01*
X627000D01*
X637157Y912750D02*
X640542D01*
X638849D01*
Y922907D01*
X637157Y921214D01*
X559500Y584500D02*
X549343D01*
Y589578D01*
X551036Y591271D01*
X554422D01*
X556115Y589578D01*
Y584500D01*
Y587886D02*
X559500Y591271D01*
Y601428D02*
Y594657D01*
X552729Y601428D01*
X551036D01*
X549343Y599735D01*
Y596349D01*
X551036Y594657D01*
X523250Y585750D02*
X513093D01*
Y590828D01*
X514786Y592521D01*
X518172D01*
X519865Y590828D01*
Y585750D01*
Y589136D02*
X523250Y592521D01*
Y595907D02*
Y599292D01*
Y597599D01*
X513093D01*
X514786Y595907D01*
X594000Y634750D02*
X583843D01*
Y639828D01*
X585536Y641521D01*
X588922D01*
X590614Y639828D01*
Y634750D01*
Y638136D02*
X594000Y641521D01*
Y644907D02*
Y648292D01*
Y646600D01*
X583843D01*
X585536Y644907D01*
Y653371D02*
X583843Y655063D01*
Y658449D01*
X585536Y660142D01*
X592307D01*
X594000Y658449D01*
Y655063D01*
X592307Y653371D01*
X585536D01*
X550021Y485714D02*
X548328Y487407D01*
X544943D01*
X543250Y485714D01*
Y478943D01*
X544943Y477250D01*
X548328D01*
X550021Y478943D01*
X553407Y477250D02*
X556792D01*
X555099D01*
Y487407D01*
X553407Y485714D01*
X550021Y537714D02*
X548328Y539407D01*
X544943D01*
X543250Y537714D01*
Y530943D01*
X544943Y529250D01*
X548328D01*
X550021Y530943D01*
X560178Y529250D02*
X553407D01*
X560178Y536021D01*
Y537714D01*
X558485Y539407D01*
X555099D01*
X553407Y537714D01*
X522521Y752964D02*
X520828Y754657D01*
X517443D01*
X515750Y752964D01*
Y746193D01*
X517443Y744500D01*
X520828D01*
X522521Y746193D01*
X525907Y752964D02*
X527599Y754657D01*
X530985D01*
X532678Y752964D01*
Y751271D01*
X530985Y749578D01*
X529292D01*
X530985D01*
X532678Y747886D01*
Y746193D01*
X530985Y744500D01*
X527599D01*
X525907Y746193D01*
X502521Y726964D02*
X500828Y728657D01*
X497443D01*
X495750Y726964D01*
Y720193D01*
X497443Y718500D01*
X500828D01*
X502521Y720193D01*
X510985Y718500D02*
Y728657D01*
X505907Y723578D01*
X512678D01*
X502521Y712464D02*
X500828Y714157D01*
X497443D01*
X495750Y712464D01*
Y705693D01*
X497443Y704000D01*
X500828D01*
X502521Y705693D01*
X512678Y714157D02*
X505907D01*
Y709078D01*
X509292Y710771D01*
X510985D01*
X512678Y709078D01*
Y705693D01*
X510985Y704000D01*
X507599D01*
X505907Y705693D01*
X549286Y670771D02*
X547593Y669078D01*
Y665693D01*
X549286Y664000D01*
X556057D01*
X557750Y665693D01*
Y669078D01*
X556057Y670771D01*
X547593Y680928D02*
X549286Y677542D01*
X552672Y674157D01*
X556057D01*
X557750Y675850D01*
Y679235D01*
X556057Y680928D01*
X554364D01*
X552672Y679235D01*
Y674157D01*
X571786Y654271D02*
X570093Y652578D01*
Y649193D01*
X571786Y647500D01*
X578557D01*
X580250Y649193D01*
Y652578D01*
X578557Y654271D01*
X570093Y657657D02*
Y664428D01*
X571786D01*
X578557Y657657D01*
X580250D01*
X599036Y650021D02*
X597343Y648328D01*
Y644943D01*
X599036Y643250D01*
X605807D01*
X607500Y644943D01*
Y648328D01*
X605807Y650021D01*
X599036Y653407D02*
X597343Y655099D01*
Y658485D01*
X599036Y660178D01*
X600729D01*
X602422Y658485D01*
X604114Y660178D01*
X605807D01*
X607500Y658485D01*
Y655099D01*
X605807Y653407D01*
X604114D01*
X602422Y655099D01*
X600729Y653407D01*
X599036D01*
X602422Y655099D02*
Y658485D01*
X573771Y795714D02*
X572078Y797407D01*
X568693D01*
X567000Y795714D01*
Y788943D01*
X568693Y787250D01*
X572078D01*
X573771Y788943D01*
X577157D02*
X578849Y787250D01*
X582235D01*
X583928Y788943D01*
Y795714D01*
X582235Y797407D01*
X578849D01*
X577157Y795714D01*
Y794021D01*
X578849Y792328D01*
X583928D01*
X646521Y812964D02*
X644828Y814657D01*
X641443D01*
X639750Y812964D01*
Y806193D01*
X641443Y804500D01*
X644828D01*
X646521Y806193D01*
X649907Y804500D02*
X653292D01*
X651600D01*
Y814657D01*
X649907Y812964D01*
X658371D02*
X660063Y814657D01*
X663449D01*
X665142Y812964D01*
Y806193D01*
X663449Y804500D01*
X660063D01*
X658371Y806193D01*
Y812964D01*
X614271Y790464D02*
X612578Y792157D01*
X609193D01*
X607500Y790464D01*
Y783693D01*
X609193Y782000D01*
X612578D01*
X614271Y783693D01*
X617657Y782000D02*
X621042D01*
X619350D01*
Y792157D01*
X617657Y790464D01*
X626121Y782000D02*
X629506D01*
X627813D01*
Y792157D01*
X626121Y790464D01*
X646771Y798464D02*
X645078Y800157D01*
X641693D01*
X640000Y798464D01*
Y791693D01*
X641693Y790000D01*
X645078D01*
X646771Y791693D01*
X650157Y790000D02*
X653542D01*
X651850D01*
Y800157D01*
X650157Y798464D01*
X665392Y790000D02*
X658621D01*
X665392Y796771D01*
Y798464D01*
X663699Y800157D01*
X660313D01*
X658621Y798464D01*
X538771Y795714D02*
X537078Y797407D01*
X533693D01*
X532000Y795714D01*
Y788943D01*
X533693Y787250D01*
X537078D01*
X538771Y788943D01*
X542157Y787250D02*
X545542D01*
X543849D01*
Y797407D01*
X542157Y795714D01*
X550621D02*
X552313Y797407D01*
X555699D01*
X557392Y795714D01*
Y794021D01*
X555699Y792328D01*
X554006D01*
X555699D01*
X557392Y790636D01*
Y788943D01*
X555699Y787250D01*
X552313D01*
X550621Y788943D01*
X598286Y806271D02*
X596593Y804578D01*
Y801193D01*
X598286Y799500D01*
X605057D01*
X606750Y801193D01*
Y804578D01*
X605057Y806271D01*
X606750Y809657D02*
Y813042D01*
Y811349D01*
X596593D01*
X598286Y809657D01*
X606750Y823199D02*
X596593D01*
X601672Y818121D01*
Y824892D01*
X533021Y775714D02*
X531328Y777407D01*
X527943D01*
X526250Y775714D01*
Y768943D01*
X527943Y767250D01*
X531328D01*
X533021Y768943D01*
X536407Y767250D02*
X539792D01*
X538100D01*
Y777407D01*
X536407Y775714D01*
X551642Y777407D02*
X544871D01*
Y772328D01*
X548256Y774021D01*
X549949D01*
X551642Y772328D01*
Y768943D01*
X549949Y767250D01*
X546563D01*
X544871Y768943D01*
X647021Y784214D02*
X645328Y785907D01*
X641943D01*
X640250Y784214D01*
Y777443D01*
X641943Y775750D01*
X645328D01*
X647021Y777443D01*
X650407Y775750D02*
X653792D01*
X652100D01*
Y785907D01*
X650407Y784214D01*
X665642Y785907D02*
X662256Y784214D01*
X658871Y780828D01*
Y777443D01*
X660563Y775750D01*
X663949D01*
X665642Y777443D01*
Y779136D01*
X663949Y780828D01*
X658871D01*
X658771Y767964D02*
X657078Y769657D01*
X653693D01*
X652000Y767964D01*
Y761193D01*
X653693Y759500D01*
X657078D01*
X658771Y761193D01*
X662157Y759500D02*
X665542D01*
X663849D01*
Y769657D01*
X662157Y767964D01*
X670621Y769657D02*
X677392D01*
Y767964D01*
X670621Y761193D01*
Y759500D01*
X658771Y752964D02*
X657078Y754657D01*
X653693D01*
X652000Y752964D01*
Y746193D01*
X653693Y744500D01*
X657078D01*
X658771Y746193D01*
X662157Y744500D02*
X665542D01*
X663849D01*
Y754657D01*
X662157Y752964D01*
X670621D02*
X672313Y754657D01*
X675699D01*
X677392Y752964D01*
Y751271D01*
X675699Y749578D01*
X677392Y747886D01*
Y746193D01*
X675699Y744500D01*
X672313D01*
X670621Y746193D01*
Y747886D01*
X672313Y749578D01*
X670621Y751271D01*
Y752964D01*
X672313Y749578D02*
X675699D01*
X491250Y522250D02*
X481093D01*
Y527328D01*
X482786Y529021D01*
X486172D01*
X487864Y527328D01*
Y522250D01*
Y525636D02*
X491250Y529021D01*
Y532407D02*
Y535792D01*
Y534100D01*
X481093D01*
X482786Y532407D01*
X481093Y547642D02*
Y540871D01*
X486172D01*
X484479Y544256D01*
Y545949D01*
X486172Y547642D01*
X489557D01*
X491250Y545949D01*
Y542564D01*
X489557Y540871D01*
X531750Y812907D02*
Y804443D01*
X533443Y802750D01*
X536828D01*
X538521Y804443D01*
Y812907D01*
X541907D02*
X548678D01*
Y811214D01*
X541907Y804443D01*
Y802750D01*
X788750Y634500D02*
Y644657D01*
X793828D01*
X795521Y642964D01*
Y639578D01*
X793828Y637886D01*
X788750D01*
X792136D02*
X795521Y634500D01*
X805678Y644657D02*
X798907D01*
Y639578D01*
X802292D01*
X798907D01*
Y634500D01*
X815835Y644657D02*
X809063D01*
Y639578D01*
X812449D01*
X809063D01*
Y634500D01*
X819220D02*
Y644657D01*
X822606Y641271D01*
X825991Y644657D01*
Y634500D01*
X836148Y644657D02*
X832763Y642964D01*
X829377Y639578D01*
Y636193D01*
X831070Y634500D01*
X834455D01*
X836148Y636193D01*
Y637886D01*
X834455Y639578D01*
X829377D01*
X844612Y634500D02*
Y644657D01*
X839534Y639578D01*
X846305D01*
X849690Y642964D02*
X851383Y644657D01*
X854769D01*
X856461Y642964D01*
Y636193D01*
X854769Y634500D01*
X851383D01*
X849690Y636193D01*
Y642964D01*
X859847D02*
X861540Y644657D01*
X864925D01*
X866618Y642964D01*
Y641271D01*
X864925Y639578D01*
X863233D01*
X864925D01*
X866618Y637886D01*
Y636193D01*
X864925Y634500D01*
X861540D01*
X859847Y636193D01*
X777500Y751907D02*
Y743443D01*
X779193Y741750D01*
X782578D01*
X784271Y743443D01*
Y751907D01*
X787657Y750214D02*
X789350Y751907D01*
X792735D01*
X794428Y750214D01*
Y748521D01*
X792735Y746828D01*
X791042D01*
X792735D01*
X794428Y745136D01*
Y743443D01*
X792735Y741750D01*
X789350D01*
X787657Y743443D01*
X690286Y750271D02*
X688593Y748578D01*
Y745193D01*
X690286Y743500D01*
X697057D01*
X698750Y745193D01*
Y748578D01*
X697057Y750271D01*
X698750Y760428D02*
Y753657D01*
X691979Y760428D01*
X690286D01*
X688593Y758735D01*
Y755350D01*
X690286Y753657D01*
X697057Y763813D02*
X698750Y765506D01*
Y768892D01*
X697057Y770585D01*
X690286D01*
X688593Y768892D01*
Y765506D01*
X690286Y763813D01*
X691979D01*
X693672Y765506D01*
Y770585D01*
X770750Y832407D02*
Y822250D01*
X775828D01*
X777521Y823943D01*
Y825636D01*
X775828Y827328D01*
X770750D01*
X775828D01*
X777521Y829021D01*
Y830714D01*
X775828Y832407D01*
X770750D01*
X780907Y830714D02*
X782599Y832407D01*
X785985D01*
X787678Y830714D01*
Y829021D01*
X785985Y827328D01*
X784292D01*
X785985D01*
X787678Y825636D01*
Y823943D01*
X785985Y822250D01*
X782599D01*
X780907Y823943D01*
X791063Y832407D02*
X797835D01*
Y830714D01*
X791063Y823943D01*
Y822250D01*
X807991Y832407D02*
X804606Y830714D01*
X801220Y827328D01*
Y823943D01*
X802913Y822250D01*
X806299D01*
X807991Y823943D01*
Y825636D01*
X806299Y827328D01*
X801220D01*
X811377Y830714D02*
X813070Y832407D01*
X816455D01*
X818148Y830714D01*
Y823943D01*
X816455Y822250D01*
X813070D01*
X811377Y823943D01*
Y830714D01*
X720250Y847157D02*
Y838693D01*
X721943Y837000D01*
X725328D01*
X727021Y838693D01*
Y847157D01*
X735485Y837000D02*
Y847157D01*
X730407Y842078D01*
X737178D01*
X438250Y977250D02*
Y987407D01*
X443328D01*
X445021Y985714D01*
Y982328D01*
X443328Y980636D01*
X438250D01*
X441636D02*
X445021Y977250D01*
X455178Y987407D02*
X448407D01*
Y977250D01*
X455178D01*
X448407Y982328D02*
X451792D01*
X465335Y985714D02*
X463642Y987407D01*
X460256D01*
X458563Y985714D01*
Y984021D01*
X460256Y982328D01*
X463642D01*
X465335Y980636D01*
Y978943D01*
X463642Y977250D01*
X460256D01*
X458563Y978943D01*
X475491Y987407D02*
X468720D01*
Y977250D01*
X475491D01*
X468720Y982328D02*
X472106D01*
X478877Y987407D02*
X485648D01*
X482262D01*
Y977250D01*
X544578Y829000D02*
Y839157D01*
X539500Y834078D01*
X546271D01*
X549657Y837464D02*
X551349Y839157D01*
X554735D01*
X556428Y837464D01*
Y830693D01*
X554735Y829000D01*
X551349D01*
X549657Y830693D01*
Y837464D01*
X559813Y829000D02*
Y839157D01*
X563199Y835771D01*
X566585Y839157D01*
Y829000D01*
X569970Y839157D02*
Y829000D01*
Y834078D01*
X576741D01*
Y839157D01*
Y829000D01*
X580127Y835771D02*
X586898D01*
X580127Y829000D01*
X586898D01*
X312420Y370840D02*
X873760D01*
X312420D02*
Y1021080D01*
X873760D01*
Y370840D02*
Y1021080D01*
D49*
X434790Y453750D02*
G03*
X434790Y453750I-2540J0D01*
G01*
D53*
X774000Y684500D02*
Y684500D01*
Y684500D02*
X780500Y678000D01*
Y651000D02*
Y678000D01*
Y651000D02*
X786000Y645500D01*
X702501Y669749D02*
X710500D01*
X726501Y668001D02*
Y676000D01*
X754499Y668000D02*
Y675999D01*
X527001Y529891D02*
Y537890D01*
Y477891D02*
Y485890D01*
X802251Y714501D02*
Y722500D01*
X702000Y744751D02*
X709999D01*
X568500Y773500D02*
X568500D01*
X557250Y784750D02*
X568500Y773500D01*
X568500D02*
X572000Y770000D01*
X621500Y758250D02*
X638500Y775250D01*
X610500Y768000D02*
X625500D01*
X636750Y779250D01*
Y787000D01*
X638750Y789000D01*
X599250Y772000D02*
Y772000D01*
X603250Y776000D01*
X628750D01*
X633500Y780750D01*
Y799000D01*
X638000Y803500D01*
X526817Y1045080D02*
X516660D01*
Y1037463D01*
X521739Y1040002D01*
X524278D01*
X526817Y1037463D01*
Y1032385D01*
X524278Y1029846D01*
X519199D01*
X516660Y1032385D01*
X542052Y1045080D02*
X536974Y1042541D01*
X531895Y1037463D01*
Y1032385D01*
X534435Y1029846D01*
X539513D01*
X542052Y1032385D01*
Y1034924D01*
X539513Y1037463D01*
X531895D01*
X547130Y1029846D02*
Y1032385D01*
X549670D01*
Y1029846D01*
X547130D01*
X559826D02*
X564905D01*
X562365D01*
Y1045080D01*
X559826Y1042541D01*
X572522D02*
X575061Y1045080D01*
X580140D01*
X582679Y1042541D01*
Y1040002D01*
X580140Y1037463D01*
X577601D01*
X580140D01*
X582679Y1034924D01*
Y1032385D01*
X580140Y1029846D01*
X575061D01*
X572522Y1032385D01*
X595375Y1029846D02*
Y1045080D01*
X587757Y1037463D01*
X597914D01*
X623306Y1029846D02*
X618227Y1034924D01*
Y1040002D01*
X623306Y1045080D01*
X630923Y1029846D02*
Y1040002D01*
X633462D01*
X636002Y1037463D01*
Y1029846D01*
Y1037463D01*
X638541Y1040002D01*
X641080Y1037463D01*
Y1029846D01*
X646158D02*
Y1040002D01*
X648698D01*
X651237Y1037463D01*
Y1029846D01*
Y1037463D01*
X653776Y1040002D01*
X656315Y1037463D01*
Y1029846D01*
X661393D02*
X666472Y1034924D01*
Y1040002D01*
X661393Y1045080D01*
X885192Y628417D02*
X887732Y623339D01*
X892810Y618261D01*
X897888D01*
X900427Y620800D01*
Y625878D01*
X897888Y628417D01*
X895349D01*
X892810Y625878D01*
Y618261D01*
X885192Y643652D02*
Y633496D01*
X892810D01*
X890271Y638574D01*
Y641113D01*
X892810Y643652D01*
X897888D01*
X900427Y641113D01*
Y636035D01*
X897888Y633496D01*
X900427Y648731D02*
X897888D01*
Y651270D01*
X900427D01*
Y648731D01*
X887732Y661427D02*
X885192Y663966D01*
Y669044D01*
X887732Y671583D01*
X897888D01*
X900427Y669044D01*
Y663966D01*
X897888Y661427D01*
X887732D01*
X900427Y686818D02*
Y676662D01*
X890271Y686818D01*
X887732D01*
X885192Y684279D01*
Y679201D01*
X887732Y676662D01*
X900427Y699514D02*
X885192D01*
X892810Y691897D01*
Y702054D01*
X900427Y727445D02*
X895349Y722367D01*
X890271D01*
X885192Y727445D01*
X900427Y735063D02*
X890271D01*
Y737602D01*
X892810Y740141D01*
X900427D01*
X892810D01*
X890271Y742680D01*
X892810Y745220D01*
X900427D01*
Y750298D02*
X890271D01*
Y752837D01*
X892810Y755376D01*
X900427D01*
X892810D01*
X890271Y757915D01*
X892810Y760455D01*
X900427D01*
Y765533D02*
X895349Y770611D01*
X890271D01*
X885192Y765533D01*
D73*
X538700Y522450D02*
G03*
X538700Y522450I-500J0D01*
G01*
D74*
X651500Y543150D02*
G03*
X651500Y543150I-1250J0D01*
G01*
X516250Y941000D02*
G03*
X516250Y941000I-1250J0D01*
G01*
X548750Y746500D02*
G03*
X548750Y746500I-1250J0D01*
G01*
D75*
X370840Y444500D02*
X373380Y441960D01*
Y444500D01*
X370840D02*
X373380D01*
X370840Y441960D02*
Y444500D01*
X421640Y441960D02*
Y444500D01*
X424180D01*
X421640D02*
X424180Y441960D01*
X421640D02*
X424180Y444500D01*
X419100Y441960D02*
X424180Y447040D01*
X368300Y441960D02*
X373380Y447040D01*
X825850Y799100D02*
X872840D01*
X825850Y749570D02*
Y799100D01*
Y722900D02*
X833470D01*
X825850Y729250D02*
Y749570D01*
Y722900D02*
Y729250D01*
Y722900D02*
X829660D01*
X872840D01*
D76*
X774000Y686500D02*
Y687500D01*
X775000D01*
X774000D02*
X775000Y686500D01*
X773000D02*
X775000D01*
X773000D02*
X775000Y688500D01*
X710500Y588930D02*
X715000D01*
Y566070D02*
Y588930D01*
X710500Y566070D02*
X715000D01*
X626180Y472750D02*
Y477250D01*
X603320Y472750D02*
X626180D01*
X603320D02*
Y477250D01*
X719730Y782280D02*
Y834350D01*
X767990D01*
Y782280D02*
Y834350D01*
X719730Y782280D02*
X767990D01*
X728500Y768500D02*
X737500D01*
X728500Y752500D02*
Y768500D01*
Y752500D02*
X737500D01*
Y768500D01*
X750500Y752500D02*
X759500D01*
Y768500D01*
X750500D02*
X759500D01*
X750500Y752500D02*
Y768500D01*
X488670Y992780D02*
Y1020720D01*
X435330D02*
X488670D01*
X435330Y992780D02*
Y1020720D01*
Y992780D02*
X488670D01*
X455650Y1006750D02*
X468350D01*
X462000Y1013100D02*
X464540Y1010560D01*
X459460D02*
X462000Y1013100D01*
Y1000400D02*
Y1013100D01*
X576219Y813875D02*
X578250D01*
X570125D02*
X572156D01*
X576219D01*
X568500Y815500D02*
X570125Y813875D01*
X568500Y815500D02*
Y825250D01*
X551750Y802500D02*
Y825250D01*
Y802500D02*
X578250D01*
Y825250D01*
X551750D02*
X578250D01*
X631170Y731920D02*
Y742080D01*
Y731920D02*
X650220D01*
Y742080D01*
X631170D02*
X650220D01*
X619674Y712114D02*
Y729386D01*
X629326D01*
Y712114D02*
Y729386D01*
X619674Y712114D02*
X629326D01*
X660080Y649920D02*
Y660080D01*
X641030D02*
X660080D01*
X641030Y649920D02*
Y660080D01*
Y649920D02*
X660080D01*
X629920D02*
X640080D01*
Y668970D01*
X629920D02*
X640080D01*
X629920Y649920D02*
Y668970D01*
X662420Y660920D02*
X672580D01*
Y679970D01*
X662420D02*
X672580D01*
X662420Y660920D02*
Y679970D01*
X689500Y681000D02*
Y690000D01*
X673500D02*
X689500D01*
X673500Y681000D02*
Y690000D01*
Y681000D02*
X689500D01*
X670420Y691170D02*
Y701330D01*
Y691170D02*
X689470D01*
Y701330D01*
X670420D02*
X689470D01*
X672500Y681000D02*
Y690000D01*
X656500D02*
X672500D01*
X656500Y681000D02*
Y690000D01*
Y681000D02*
X672500D01*
X639420Y669920D02*
Y680080D01*
Y669920D02*
X658470D01*
Y680080D01*
X639420D02*
X658470D01*
X619424Y662114D02*
Y679386D01*
X629076D01*
Y662114D02*
Y679386D01*
X619424Y662114D02*
X629076D01*
X655500Y681000D02*
Y690000D01*
X639500D02*
X655500D01*
X639500Y681000D02*
Y690000D01*
Y681000D02*
X655500D01*
X619420Y680420D02*
Y690580D01*
Y680420D02*
X638470D01*
Y690580D01*
X619420D02*
X638470D01*
X647250Y700250D02*
Y709250D01*
X631250D02*
X647250D01*
X631250Y700250D02*
Y709250D01*
Y700250D02*
X647250D01*
X619420Y691670D02*
X629580D01*
Y710720D01*
X619420D02*
X629580D01*
X619420Y691670D02*
Y710720D01*
X631170Y710420D02*
Y720580D01*
Y710420D02*
X650220D01*
Y720580D01*
X631170D02*
X650220D01*
X647250Y721750D02*
Y730750D01*
X631250D02*
X647250D01*
X631250Y721750D02*
Y730750D01*
Y721750D02*
X647250D01*
D77*
X775000Y686500D02*
Y748500D01*
X713000D02*
X775000D01*
X713000Y686500D02*
Y748500D01*
Y686500D02*
X775000D01*
D78*
X538200Y515400D02*
Y518750D01*
Y497750D02*
Y501100D01*
X514800Y515400D02*
Y518750D01*
Y497750D02*
Y501100D01*
D79*
X710500Y566070D02*
Y588930D01*
X656000Y566070D02*
X710500D01*
X656000D02*
Y588930D01*
X710500D01*
X603320Y477250D02*
X626180D01*
X603320D02*
Y531750D01*
X626180D01*
Y477250D02*
Y531750D01*
D80*
X678000Y584000D02*
X688500D01*
X678000Y571000D02*
X688500D01*
X672750Y450250D02*
X690250D01*
X672750D02*
Y557000D01*
X690500D01*
X621250Y499250D02*
Y509750D01*
X608250Y499250D02*
Y509750D01*
X771750Y874150D02*
Y924950D01*
X644750Y874150D02*
Y924950D01*
X771750D01*
X644750Y874150D02*
X771750D01*
X532500Y908000D02*
Y916000D01*
X522500Y908000D02*
X532500D01*
Y930000D02*
Y938000D01*
X522500D02*
X532500D01*
X424180Y441960D02*
Y949960D01*
X373380Y441960D02*
Y949960D01*
Y441960D02*
X424180D01*
X373380Y949960D02*
X424180D01*
X373380Y441960D02*
Y949960D01*
X322580Y441960D02*
Y949960D01*
Y441960D02*
X373380D01*
X322580Y949960D02*
X373380D01*
D81*
X554000Y743400D02*
Y748000D01*
X558600D01*
X603900D02*
X608500D01*
Y743400D02*
Y748000D01*
Y693500D02*
Y698100D01*
X603900Y693500D02*
X608500D01*
X554000D02*
Y698100D01*
Y693500D02*
X558600D01*
D82*
X415765Y428788D02*
X411110D01*
X408782Y426460D01*
Y417150D01*
X411110Y414823D01*
X415765D01*
X418092Y417150D01*
Y426460D01*
X415765Y428788D01*
X422747Y410167D02*
Y424133D01*
X429730D01*
X432058Y421805D01*
Y417150D01*
X429730Y414823D01*
X422747D01*
X443696D02*
X439040D01*
X436713Y417150D01*
Y421805D01*
X439040Y424133D01*
X443696D01*
X446023Y421805D01*
Y419478D01*
X436713D01*
X450678Y414823D02*
Y424133D01*
X457661D01*
X459989Y421805D01*
Y414823D01*
X408782Y402497D02*
Y388532D01*
Y395515D01*
X418092D01*
Y402497D01*
Y388532D01*
X425075Y397842D02*
X429730D01*
X432058Y395515D01*
Y388532D01*
X425075D01*
X422747Y390860D01*
X425075Y393187D01*
X432058D01*
X436713Y397842D02*
Y388532D01*
Y393187D01*
X439040Y395515D01*
X441368Y397842D01*
X443696D01*
X459989Y402497D02*
Y388532D01*
X453006D01*
X450678Y390860D01*
Y395515D01*
X453006Y397842D01*
X459989D01*
X464644D02*
Y390860D01*
X466972Y388532D01*
X469299Y390860D01*
X471627Y388532D01*
X473954Y390860D01*
Y397842D01*
X480937D02*
X485592D01*
X487920Y395515D01*
Y388532D01*
X480937D01*
X478609Y390860D01*
X480937Y393187D01*
X487920D01*
X492575Y397842D02*
Y388532D01*
Y393187D01*
X494902Y395515D01*
X497230Y397842D01*
X499558D01*
X513523Y388532D02*
X508868D01*
X506540Y390860D01*
Y395515D01*
X508868Y397842D01*
X513523D01*
X515851Y395515D01*
Y393187D01*
X506540D01*
X620250Y412223D02*
Y397750D01*
X629899D01*
X634723D02*
X639548D01*
X637136D01*
Y407399D01*
X634723D01*
X646784Y397750D02*
Y407399D01*
X654021D01*
X656433Y404987D01*
Y397750D01*
X661258D02*
Y412223D01*
Y402575D02*
X668494Y407399D01*
X661258Y402575D02*
X668494Y397750D01*
X675731Y412223D02*
Y397750D01*
X682968D01*
X685380Y400162D01*
Y402575D01*
X682968Y404987D01*
X675731D01*
X682968D01*
X685380Y407399D01*
Y409811D01*
X682968Y412223D01*
X675731D01*
X697441Y397750D02*
X692617D01*
X690204Y400162D01*
Y404987D01*
X692617Y407399D01*
X697441D01*
X699853Y404987D01*
Y402575D01*
X690204D01*
X704678Y407399D02*
Y397750D01*
Y402575D01*
X707090Y404987D01*
X709502Y407399D01*
X711914D01*
X719151D02*
Y397750D01*
Y402575D01*
X721563Y404987D01*
X723976Y407399D01*
X726388D01*
X733624D02*
Y400162D01*
X736037Y397750D01*
X743273D01*
Y395338D01*
X740861Y392926D01*
X738449D01*
X743273Y397750D02*
Y407399D01*
X762571Y397750D02*
X767395D01*
X764983D01*
Y412223D01*
X762571Y409811D01*
X774632Y397750D02*
Y400162D01*
X777044D01*
Y397750D01*
X774632D01*
X786693Y409811D02*
X789105Y412223D01*
X793930D01*
X796342Y409811D01*
Y400162D01*
X793930Y397750D01*
X789105D01*
X786693Y400162D01*
Y409811D01*
D83*
X712750Y577502D02*
D03*
D84*
X614747Y475000D02*
D03*
M02*
