G04 Layer_Physical_Order=3*
G04 Layer_Color=128*
%FSLAX44Y44*%
%MOMM*%
G71*
G01*
G75*
%ADD42C,0.2540*%
%ADD45C,0.1778*%
%ADD53C,0.1524*%
%ADD63C,0.3810*%
%ADD65C,0.8128*%
%ADD66C,2.7940*%
G04:AMPARAMS|DCode=67|XSize=2.2716mm|YSize=2.2716mm|CornerRadius=0mm|HoleSize=0mm|Usage=FLASHONLY|Rotation=0.000|XOffset=0mm|YOffset=0mm|HoleType=Round|Shape=Relief|Width=0.254mm|Gap=0.1778mm|Entries=4|*
%AMTHD67*
7,0,0,2.2716,1.9160,0.2540,45*
%
%ADD67THD67*%
%ADD68C,0.9000*%
%ADD69C,0.2540*%
%ADD70C,0.5080*%
%ADD71C,0.3000*%
%ADD72C,0.2000*%
D42*
X468750Y519500D02*
X484500Y503750D01*
X414750Y519500D02*
X468750D01*
X312420D02*
X414750D01*
X635000Y490750D02*
X682250D01*
Y370840D02*
Y490750D01*
X484500Y503750D02*
X622000D01*
X635000Y490750D02*
Y503500D01*
X634750Y503750D02*
X635000Y503500D01*
X622000Y503750D02*
X634750D01*
X635000Y503500D02*
Y516000D01*
X635000Y516000D01*
X682250D01*
Y648750D01*
Y650500D01*
X686000Y654250D01*
Y674250D01*
X695500Y683750D01*
X741000D01*
X750500Y693250D01*
X765250D01*
X774250Y702250D01*
X873260D01*
X312420Y1038987D02*
X514120D01*
X672060D02*
X873760D01*
X312420D02*
X327660Y1044067D01*
X312420Y1038987D02*
X327660Y1033907D01*
X858520Y1044067D02*
X873760Y1038987D01*
X858520Y1033907D02*
X873760Y1038987D01*
X312420Y1036447D02*
Y1041527D01*
X873760Y1036447D02*
Y1041527D01*
X891286Y370840D02*
Y615721D01*
Y776199D02*
Y1021080D01*
X886206Y386080D02*
X891286Y370840D01*
X896366Y386080D01*
X886206Y1005840D02*
X891286Y1021080D01*
X896366Y1005840D01*
X888746Y370840D02*
X893826D01*
X888746Y1021080D02*
X893826D01*
D45*
X312420Y370840D02*
X873760D01*
X312420D02*
Y1021080D01*
X873760D01*
Y370840D02*
Y1021080D01*
D53*
X526817Y1045080D02*
X516660D01*
Y1037463D01*
X521739Y1040002D01*
X524278D01*
X526817Y1037463D01*
Y1032385D01*
X524278Y1029846D01*
X519199D01*
X516660Y1032385D01*
X542052Y1045080D02*
X536974Y1042541D01*
X531895Y1037463D01*
Y1032385D01*
X534435Y1029846D01*
X539513D01*
X542052Y1032385D01*
Y1034924D01*
X539513Y1037463D01*
X531895D01*
X547130Y1029846D02*
Y1032385D01*
X549670D01*
Y1029846D01*
X547130D01*
X559826D02*
X564905D01*
X562365D01*
Y1045080D01*
X559826Y1042541D01*
X572522D02*
X575061Y1045080D01*
X580140D01*
X582679Y1042541D01*
Y1040002D01*
X580140Y1037463D01*
X577601D01*
X580140D01*
X582679Y1034924D01*
Y1032385D01*
X580140Y1029846D01*
X575061D01*
X572522Y1032385D01*
X595375Y1029846D02*
Y1045080D01*
X587757Y1037463D01*
X597914D01*
X623306Y1029846D02*
X618227Y1034924D01*
Y1040002D01*
X623306Y1045080D01*
X630923Y1029846D02*
Y1040002D01*
X633462D01*
X636002Y1037463D01*
Y1029846D01*
Y1037463D01*
X638541Y1040002D01*
X641080Y1037463D01*
Y1029846D01*
X646158D02*
Y1040002D01*
X648698D01*
X651237Y1037463D01*
Y1029846D01*
Y1037463D01*
X653776Y1040002D01*
X656315Y1037463D01*
Y1029846D01*
X661393D02*
X666472Y1034924D01*
Y1040002D01*
X661393Y1045080D01*
X885192Y628417D02*
X887732Y623339D01*
X892810Y618261D01*
X897888D01*
X900427Y620800D01*
Y625878D01*
X897888Y628417D01*
X895349D01*
X892810Y625878D01*
Y618261D01*
X885192Y643652D02*
Y633496D01*
X892810D01*
X890271Y638574D01*
Y641113D01*
X892810Y643652D01*
X897888D01*
X900427Y641113D01*
Y636035D01*
X897888Y633496D01*
X900427Y648731D02*
X897888D01*
Y651270D01*
X900427D01*
Y648731D01*
X887732Y661427D02*
X885192Y663966D01*
Y669044D01*
X887732Y671583D01*
X897888D01*
X900427Y669044D01*
Y663966D01*
X897888Y661427D01*
X887732D01*
X900427Y686818D02*
Y676662D01*
X890271Y686818D01*
X887732D01*
X885192Y684279D01*
Y679201D01*
X887732Y676662D01*
X900427Y699514D02*
X885192D01*
X892810Y691897D01*
Y702054D01*
X900427Y727445D02*
X895349Y722367D01*
X890271D01*
X885192Y727445D01*
X900427Y735063D02*
X890271D01*
Y737602D01*
X892810Y740141D01*
X900427D01*
X892810D01*
X890271Y742680D01*
X892810Y745220D01*
X900427D01*
Y750298D02*
X890271D01*
Y752837D01*
X892810Y755376D01*
X900427D01*
X892810D01*
X890271Y757915D01*
X892810Y760455D01*
X900427D01*
Y765533D02*
X895349Y770611D01*
X890271D01*
X885192Y765533D01*
D63*
X566500Y586000D02*
D03*
X506750Y586250D02*
D03*
X567500Y759500D02*
D03*
X695500Y752500D02*
D03*
X822750Y788750D02*
D03*
X511750Y738250D02*
D03*
X717750Y755250D02*
D03*
X707250Y713750D02*
D03*
X651000Y704750D02*
D03*
X667500Y656250D02*
D03*
X655000Y646342D02*
D03*
X624000Y630500D02*
D03*
X590500Y658500D02*
D03*
X601500Y658724D02*
D03*
X579500Y658632D02*
D03*
X556066Y666316D02*
D03*
X716500Y796250D02*
D03*
Y808950D02*
D03*
X743750Y836850D02*
D03*
X771000Y821650D02*
D03*
Y796250D02*
D03*
X744000Y754500D02*
D03*
X743750Y778250D02*
D03*
X654750Y752500D02*
D03*
Y761500D02*
D03*
X614000Y774250D02*
D03*
X569500Y770342D02*
D03*
X602592Y788158D02*
D03*
X569408D02*
D03*
X556750Y829750D02*
D03*
X591658Y814592D02*
D03*
X511750Y713000D02*
D03*
Y723000D02*
D03*
X497500Y1008750D02*
D03*
X428250D02*
D03*
X754880Y682880D02*
D03*
X762130D02*
D03*
X770250Y682630D02*
D03*
X762250Y661000D02*
D03*
X718750D02*
D03*
X706500Y651000D02*
D03*
X654000Y737250D02*
D03*
X765500Y753000D02*
D03*
X780500Y744000D02*
D03*
Y728750D02*
D03*
X821000Y715000D02*
D03*
X816000Y692750D02*
D03*
X500500Y932500D02*
D03*
X499750Y918000D02*
D03*
X595750Y518250D02*
D03*
Y527000D02*
D03*
Y535750D02*
D03*
X669750Y597500D02*
D03*
X661000D02*
D03*
X652250D02*
D03*
X622750Y545250D02*
D03*
X614000D02*
D03*
X605250D02*
D03*
X643750Y585750D02*
D03*
Y577000D02*
D03*
Y568250D02*
D03*
X706250Y688250D02*
D03*
X822750Y733350D02*
D03*
D65*
X312420Y1021080D02*
X873760D01*
X312420Y370840D02*
Y1021080D01*
Y370840D02*
X873760D01*
Y1021080D01*
D66*
X347980Y406020D02*
D03*
Y985980D02*
D03*
X577980D02*
D03*
Y406020D02*
D03*
X837979Y985980D02*
D03*
Y406020D02*
D03*
D67*
X657450Y912250D02*
D03*
X386080Y480060D02*
D03*
Y454660D02*
D03*
X335280Y480060D02*
D03*
Y454660D02*
D03*
D68*
X657450Y886850D02*
D03*
X682850D02*
D03*
Y912250D02*
D03*
X708250Y886850D02*
D03*
Y912250D02*
D03*
X733650Y886850D02*
D03*
Y912250D02*
D03*
X759050Y886850D02*
D03*
Y912250D02*
D03*
X386080Y937260D02*
D03*
X411480D02*
D03*
X386080Y911860D02*
D03*
X411480D02*
D03*
X386080Y886460D02*
D03*
X411480D02*
D03*
X386080Y861060D02*
D03*
X411480D02*
D03*
X386080Y835660D02*
D03*
X411480D02*
D03*
X386080Y810260D02*
D03*
X411480D02*
D03*
X386080Y784860D02*
D03*
X411480D02*
D03*
X386080Y759460D02*
D03*
X411480D02*
D03*
X386080Y734060D02*
D03*
X411480D02*
D03*
X386080Y708660D02*
D03*
X411480D02*
D03*
X386080Y683260D02*
D03*
X411480D02*
D03*
X386080Y657860D02*
D03*
X411480D02*
D03*
X386080Y632460D02*
D03*
X411480D02*
D03*
X386080Y607060D02*
D03*
X411480D02*
D03*
X386080Y581660D02*
D03*
X411480D02*
D03*
X386080Y556260D02*
D03*
X411480D02*
D03*
X386080Y530860D02*
D03*
X411480D02*
D03*
X386080Y505460D02*
D03*
X411480D02*
D03*
Y480060D02*
D03*
Y454660D02*
D03*
X335280Y937260D02*
D03*
X360680D02*
D03*
X335280Y911860D02*
D03*
X360680D02*
D03*
X335280Y886460D02*
D03*
X360680D02*
D03*
X335280Y861060D02*
D03*
X360680D02*
D03*
X335280Y835660D02*
D03*
X360680D02*
D03*
X335280Y810260D02*
D03*
X360680D02*
D03*
X335280Y784860D02*
D03*
X360680D02*
D03*
X335280Y759460D02*
D03*
X360680D02*
D03*
X335280Y734060D02*
D03*
X360680D02*
D03*
X335280Y708660D02*
D03*
X360680D02*
D03*
X335280Y683260D02*
D03*
X360680D02*
D03*
X335280Y657860D02*
D03*
X360680D02*
D03*
X335280Y632460D02*
D03*
X360680D02*
D03*
X335280Y607060D02*
D03*
X360680D02*
D03*
X335280Y581660D02*
D03*
X360680D02*
D03*
X335280Y556260D02*
D03*
X360680D02*
D03*
X335280Y530860D02*
D03*
X360680D02*
D03*
X335280Y505460D02*
D03*
X360680D02*
D03*
Y480060D02*
D03*
Y454660D02*
D03*
D69*
X453750Y611500D02*
D03*
X530000Y608250D02*
D03*
X542250Y623750D02*
D03*
X497500Y812500D02*
D03*
X490750Y689250D02*
D03*
X502500Y807500D02*
D03*
X508750Y684772D02*
D03*
X704596Y728472D02*
D03*
X695452Y728726D02*
D03*
X482500Y827500D02*
D03*
X492500Y817500D02*
D03*
X480500Y697500D02*
D03*
X487500Y822500D02*
D03*
X474250Y702500D02*
D03*
X467750Y692000D02*
D03*
X539000Y886250D02*
D03*
X710500Y844750D02*
D03*
X720000Y845000D02*
D03*
X729250Y844000D02*
D03*
X539750Y723250D02*
D03*
X547250D02*
D03*
X712000Y763000D02*
D03*
X704250Y766750D02*
D03*
X696250Y771000D02*
D03*
X690000Y777250D02*
D03*
X687500Y786250D02*
D03*
X687250Y795750D02*
D03*
X687000Y805750D02*
D03*
X687250Y816000D02*
D03*
X688500Y826750D02*
D03*
X693500Y835000D02*
D03*
X701000Y841250D02*
D03*
X736500Y841000D02*
D03*
X788000Y728250D02*
D03*
X794750Y728750D02*
D03*
X789000Y745500D02*
D03*
X699000Y712750D02*
D03*
X691250Y711750D02*
D03*
X683000Y710500D02*
D03*
X675000Y709500D02*
D03*
X667000Y708250D02*
D03*
X659250Y706250D02*
D03*
X686562Y729996D02*
D03*
X678942Y731266D02*
D03*
X671068Y733044D02*
D03*
X663194Y734822D02*
D03*
X751250Y841500D02*
D03*
X758750Y844000D02*
D03*
X767250Y844500D02*
D03*
X776500Y844000D02*
D03*
X785500Y839000D02*
D03*
X791750Y831250D02*
D03*
X795000Y820500D02*
D03*
X795750Y809750D02*
D03*
Y799250D02*
D03*
Y788500D02*
D03*
X795250Y777750D02*
D03*
X791500Y768750D02*
D03*
X783000Y762750D02*
D03*
X775250Y756250D02*
D03*
X822706Y780018D02*
D03*
X820928Y771890D02*
D03*
X813500Y768750D02*
D03*
X807000Y762250D02*
D03*
X801500Y755500D02*
D03*
X796000Y749250D02*
D03*
X821436Y740672D02*
D03*
X807000Y736000D02*
D03*
X801500Y730750D02*
D03*
X540500Y733250D02*
D03*
X743750Y770000D02*
D03*
Y762750D02*
D03*
X486250Y897750D02*
D03*
X778750Y711000D02*
D03*
X778500Y696500D02*
D03*
X817626Y746768D02*
D03*
X812750Y741500D02*
D03*
D70*
X508000Y470500D02*
D03*
X507750Y481750D02*
D03*
X522500Y545750D02*
D03*
X519250Y470000D02*
D03*
X513250Y545750D02*
D03*
D71*
X744000Y717500D02*
D03*
Y705500D02*
D03*
Y729500D02*
D03*
X756000D02*
D03*
Y717500D02*
D03*
Y705500D02*
D03*
X732000D02*
D03*
Y717500D02*
D03*
Y729500D02*
D03*
D72*
X521420Y508250D02*
D03*
X531580D02*
D03*
X581250Y720750D02*
D03*
Y730750D02*
D03*
X591250D02*
D03*
Y720750D02*
D03*
Y710750D02*
D03*
X581250D02*
D03*
X571250D02*
D03*
Y720750D02*
D03*
Y730750D02*
D03*
M02*
