G04 Layer_Color=8388736*
%FSLAX44Y44*%
%MOMM*%
G71*
G01*
G75*
%ADD42C,0.2540*%
%ADD45C,0.1778*%
%ADD53C,0.1524*%
%ADD91R,0.5300X0.6800*%
%ADD92R,0.6800X0.5300*%
%ADD93R,0.6800X0.6300*%
%ADD94R,4.0050X4.0050*%
%ADD95R,0.9516X0.9516*%
%ADD96R,0.9516X0.9516*%
%ADD97R,0.8016X1.0016*%
%ADD98R,0.4016X0.5516*%
%ADD99R,1.7016X0.9916*%
%ADD100R,1.1016X1.2016*%
%ADD101R,1.6516X1.4016*%
%ADD102R,8.9916X10.7696*%
%ADD103R,2.3876X1.8796*%
%ADD104R,1.4016X1.6516*%
%ADD105R,1.0016X0.8016*%
%ADD106R,4.3500X1.6000*%
%ADD107R,4.0500X1.6000*%
%ADD108R,0.7516X1.9316*%
%ADD109R,1.4316X0.7516*%
%ADD110R,0.7516X1.4316*%
%ADD111R,0.8016X0.5516*%
%ADD112R,0.6516X0.6516*%
%ADD113R,1.5000X1.1500*%
%ADD114R,1.4016X0.7016*%
G04:AMPARAMS|DCode=115|XSize=0.7016mm|YSize=0.8516mm|CornerRadius=0.1258mm|HoleSize=0mm|Usage=FLASHONLY|Rotation=0.000|XOffset=0mm|YOffset=0mm|HoleType=Round|Shape=RoundedRectangle|*
%AMROUNDEDRECTD115*
21,1,0.7016,0.6000,0,0,0.0*
21,1,0.4500,0.8516,0,0,0.0*
1,1,0.2516,0.2250,-0.3000*
1,1,0.2516,-0.2250,-0.3000*
1,1,0.2516,-0.2250,0.3000*
1,1,0.2516,0.2250,0.3000*
%
%ADD115ROUNDEDRECTD115*%
%ADD116R,0.6516X0.6516*%
%ADD117R,0.7800X0.7800*%
%ADD118R,0.7800X0.7800*%
%ADD119R,0.5516X0.8016*%
%ADD120O,0.9516X0.3816*%
%ADD121O,0.3816X0.9516*%
%ADD122R,3.5516X3.5516*%
%ADD123C,6.1016*%
%ADD124R,1.6016X1.6016*%
%ADD125C,1.6016*%
%ADD126R,1.6016X1.6016*%
%ADD127C,0.6516*%
%ADD128C,0.4826*%
%ADD129C,0.5516*%
D42*
X312420Y1038987D02*
X514120D01*
X672060D02*
X873760D01*
X312420D02*
X327660Y1044067D01*
X312420Y1038987D02*
X327660Y1033907D01*
X858520Y1044067D02*
X873760Y1038987D01*
X858520Y1033907D02*
X873760Y1038987D01*
X312420Y1036447D02*
Y1041527D01*
X873760Y1036447D02*
Y1041527D01*
X891286Y370840D02*
Y615721D01*
Y776199D02*
Y1021080D01*
X886206Y386080D02*
X891286Y370840D01*
X896366Y386080D01*
X886206Y1005840D02*
X891286Y1021080D01*
X896366Y1005840D01*
X888746Y370840D02*
X893826D01*
X888746Y1021080D02*
X893826D01*
D45*
X312420Y370840D02*
X873760D01*
X312420D02*
Y1021080D01*
X873760D01*
Y370840D02*
Y1021080D01*
D53*
X526817Y1045080D02*
X516660D01*
Y1037463D01*
X521739Y1040002D01*
X524278D01*
X526817Y1037463D01*
Y1032385D01*
X524278Y1029846D01*
X519199D01*
X516660Y1032385D01*
X542052Y1045080D02*
X536974Y1042541D01*
X531895Y1037463D01*
Y1032385D01*
X534435Y1029846D01*
X539513D01*
X542052Y1032385D01*
Y1034924D01*
X539513Y1037463D01*
X531895D01*
X547130Y1029846D02*
Y1032385D01*
X549670D01*
Y1029846D01*
X547130D01*
X559826D02*
X564905D01*
X562365D01*
Y1045080D01*
X559826Y1042541D01*
X572522D02*
X575061Y1045080D01*
X580140D01*
X582679Y1042541D01*
Y1040002D01*
X580140Y1037463D01*
X577601D01*
X580140D01*
X582679Y1034924D01*
Y1032385D01*
X580140Y1029846D01*
X575061D01*
X572522Y1032385D01*
X595375Y1029846D02*
Y1045080D01*
X587757Y1037463D01*
X597914D01*
X623306Y1029846D02*
X618227Y1034924D01*
Y1040002D01*
X623306Y1045080D01*
X630923Y1029846D02*
Y1040002D01*
X633462D01*
X636002Y1037463D01*
Y1029846D01*
Y1037463D01*
X638541Y1040002D01*
X641080Y1037463D01*
Y1029846D01*
X646158D02*
Y1040002D01*
X648698D01*
X651237Y1037463D01*
Y1029846D01*
Y1037463D01*
X653776Y1040002D01*
X656315Y1037463D01*
Y1029846D01*
X661393D02*
X666472Y1034924D01*
Y1040002D01*
X661393Y1045080D01*
X885192Y628417D02*
X887732Y623339D01*
X892810Y618261D01*
X897888D01*
X900427Y620800D01*
Y625878D01*
X897888Y628417D01*
X895349D01*
X892810Y625878D01*
Y618261D01*
X885192Y643652D02*
Y633496D01*
X892810D01*
X890271Y638574D01*
Y641113D01*
X892810Y643652D01*
X897888D01*
X900427Y641113D01*
Y636035D01*
X897888Y633496D01*
X900427Y648731D02*
X897888D01*
Y651270D01*
X900427D01*
Y648731D01*
X887732Y661427D02*
X885192Y663966D01*
Y669044D01*
X887732Y671583D01*
X897888D01*
X900427Y669044D01*
Y663966D01*
X897888Y661427D01*
X887732D01*
X900427Y686818D02*
Y676662D01*
X890271Y686818D01*
X887732D01*
X885192Y684279D01*
Y679201D01*
X887732Y676662D01*
X900427Y699514D02*
X885192D01*
X892810Y691897D01*
Y702054D01*
X900427Y727445D02*
X895349Y722367D01*
X890271D01*
X885192Y727445D01*
X900427Y735063D02*
X890271D01*
Y737602D01*
X892810Y740141D01*
X900427D01*
X892810D01*
X890271Y742680D01*
X892810Y745220D01*
X900427D01*
Y750298D02*
X890271D01*
Y752837D01*
X892810Y755376D01*
X900427D01*
X892810D01*
X890271Y757915D01*
X892810Y760455D01*
X900427D01*
Y765533D02*
X895349Y770611D01*
X890271D01*
X885192Y765533D01*
D91*
X725870Y691250D02*
D03*
X733120D02*
D03*
X740370D02*
D03*
X747630D02*
D03*
X754880D02*
D03*
X762130D02*
D03*
X725870Y743750D02*
D03*
X733120D02*
D03*
X740370D02*
D03*
X747630D02*
D03*
X754880D02*
D03*
X762130D02*
D03*
D92*
X717750Y698750D02*
D03*
Y706250D02*
D03*
Y713750D02*
D03*
Y721250D02*
D03*
Y728750D02*
D03*
Y736250D02*
D03*
X770250D02*
D03*
Y728750D02*
D03*
Y721250D02*
D03*
Y713750D02*
D03*
Y706250D02*
D03*
Y698750D02*
D03*
D93*
Y691000D02*
D03*
X717750D02*
D03*
Y744000D02*
D03*
X770250D02*
D03*
D94*
X744000Y717500D02*
D03*
D95*
X706500Y677500D02*
D03*
Y662000D02*
D03*
X706000Y752500D02*
D03*
Y737000D02*
D03*
D96*
X718750Y672000D02*
D03*
X734250D02*
D03*
X762250D02*
D03*
X746750D02*
D03*
X534750Y533890D02*
D03*
X519250D02*
D03*
X534750Y481890D02*
D03*
X519250D02*
D03*
X794500Y718500D02*
D03*
X810000D02*
D03*
D97*
X530000Y585750D02*
D03*
Y598750D02*
D03*
X542250Y585750D02*
D03*
Y598750D02*
D03*
X797000Y705500D02*
D03*
Y692500D02*
D03*
X808000Y692500D02*
D03*
Y705500D02*
D03*
X590500Y681000D02*
D03*
Y668000D02*
D03*
X613750Y650750D02*
D03*
Y663750D02*
D03*
D98*
X533000Y518000D02*
D03*
X526500D02*
D03*
X520000D02*
D03*
X533000Y498500D02*
D03*
X526500D02*
D03*
X520000D02*
D03*
D99*
X526500Y508250D02*
D03*
D100*
X501000Y516890D02*
D03*
Y533890D02*
D03*
D101*
X666250Y577500D02*
D03*
X700250D02*
D03*
D102*
X737500Y503750D02*
D03*
D103*
X650250Y478350D02*
D03*
Y503750D02*
D03*
Y529150D02*
D03*
D104*
X614750Y521500D02*
D03*
Y487500D02*
D03*
D105*
X807250Y680000D02*
D03*
X794250D02*
D03*
X539000Y898000D02*
D03*
X552000D02*
D03*
X511750D02*
D03*
X524750D02*
D03*
D106*
X851250Y761000D02*
D03*
D107*
X852750Y733300D02*
D03*
Y788700D02*
D03*
D108*
X743750Y794250D02*
D03*
D109*
X728400Y796250D02*
D03*
Y808950D02*
D03*
Y821650D02*
D03*
X759100D02*
D03*
Y808950D02*
D03*
Y796250D02*
D03*
D110*
X743750Y824950D02*
D03*
D111*
X733000Y755500D02*
D03*
Y765500D02*
D03*
X755000Y765500D02*
D03*
Y755500D02*
D03*
X624500Y715800D02*
D03*
Y725700D02*
D03*
X624250Y665800D02*
D03*
Y675700D02*
D03*
D112*
X499750Y897908D02*
D03*
Y909592D02*
D03*
X583250Y814592D02*
D03*
Y802908D02*
D03*
X557000Y771092D02*
D03*
Y759408D02*
D03*
X606250Y758658D02*
D03*
Y770342D02*
D03*
X595750Y770342D02*
D03*
Y758658D02*
D03*
X576750Y770342D02*
D03*
Y758658D02*
D03*
X617500Y745908D02*
D03*
Y757592D02*
D03*
X563750Y666316D02*
D03*
Y678000D02*
D03*
X579500Y666316D02*
D03*
Y678000D02*
D03*
X601500Y666408D02*
D03*
Y678092D02*
D03*
X624000Y650842D02*
D03*
Y639158D02*
D03*
D113*
X444000Y999500D02*
D03*
Y1014000D02*
D03*
X480000D02*
D03*
Y999500D02*
D03*
D114*
X536000Y923000D02*
D03*
X515000Y913500D02*
D03*
Y932500D02*
D03*
D115*
X556750Y808250D02*
D03*
X573250D02*
D03*
Y819550D02*
D03*
X556750D02*
D03*
D116*
X602592Y780500D02*
D03*
X590908D02*
D03*
X581092D02*
D03*
X569408D02*
D03*
X633658Y761500D02*
D03*
X645342D02*
D03*
X633658Y752500D02*
D03*
X645342D02*
D03*
X530592Y720000D02*
D03*
X518908D02*
D03*
X530592Y710000D02*
D03*
X518908D02*
D03*
X530592Y738250D02*
D03*
X518908D02*
D03*
D117*
X645250Y737000D02*
D03*
X636250D02*
D03*
X646000Y655000D02*
D03*
X655000D02*
D03*
X684500Y696250D02*
D03*
X675500D02*
D03*
X653500Y675000D02*
D03*
X644500D02*
D03*
X633500Y685500D02*
D03*
X624500D02*
D03*
X645250Y715500D02*
D03*
X636250D02*
D03*
D118*
X635000Y664000D02*
D03*
Y655000D02*
D03*
X667500Y675000D02*
D03*
Y666000D02*
D03*
X624500Y705750D02*
D03*
Y696750D02*
D03*
D119*
X676500Y685500D02*
D03*
X686500D02*
D03*
X659500D02*
D03*
X669500D02*
D03*
X642500Y685500D02*
D03*
X652500D02*
D03*
X634250Y704750D02*
D03*
X644250D02*
D03*
X634250Y726250D02*
D03*
X644250D02*
D03*
D120*
X556500Y738250D02*
D03*
Y733250D02*
D03*
Y728250D02*
D03*
Y723250D02*
D03*
Y718250D02*
D03*
Y713250D02*
D03*
Y708250D02*
D03*
Y703250D02*
D03*
X606000D02*
D03*
Y708250D02*
D03*
Y713250D02*
D03*
Y718250D02*
D03*
Y723250D02*
D03*
Y728250D02*
D03*
Y733250D02*
D03*
Y738250D02*
D03*
D121*
X563750Y696000D02*
D03*
X568750D02*
D03*
X573750D02*
D03*
X578750D02*
D03*
X583750D02*
D03*
X588750D02*
D03*
X593750D02*
D03*
X598750D02*
D03*
Y745500D02*
D03*
X593750D02*
D03*
X588750D02*
D03*
X583750D02*
D03*
X578750D02*
D03*
X573750D02*
D03*
X568750D02*
D03*
X563750D02*
D03*
D122*
X581250Y720750D02*
D03*
D123*
X347980Y406020D02*
D03*
Y985980D02*
D03*
X577980D02*
D03*
Y406020D02*
D03*
X837979Y985980D02*
D03*
Y406020D02*
D03*
D124*
X657450Y886850D02*
D03*
D125*
Y912250D02*
D03*
X682850Y886850D02*
D03*
Y912250D02*
D03*
X708250Y886850D02*
D03*
Y912250D02*
D03*
X733650Y886850D02*
D03*
Y912250D02*
D03*
X759050Y886850D02*
D03*
Y912250D02*
D03*
X386080Y937260D02*
D03*
X411480D02*
D03*
X386080Y911860D02*
D03*
X411480D02*
D03*
X386080Y886460D02*
D03*
X411480D02*
D03*
X386080Y861060D02*
D03*
X411480D02*
D03*
X386080Y835660D02*
D03*
X411480D02*
D03*
X386080Y810260D02*
D03*
X411480D02*
D03*
X386080Y784860D02*
D03*
X411480D02*
D03*
X386080Y759460D02*
D03*
X411480D02*
D03*
X386080Y734060D02*
D03*
X411480D02*
D03*
X386080Y708660D02*
D03*
X411480D02*
D03*
X386080Y683260D02*
D03*
X411480D02*
D03*
X386080Y657860D02*
D03*
X411480D02*
D03*
X386080Y632460D02*
D03*
X411480D02*
D03*
X386080Y607060D02*
D03*
X411480D02*
D03*
X386080Y581660D02*
D03*
X411480D02*
D03*
X386080Y556260D02*
D03*
X411480D02*
D03*
X386080Y530860D02*
D03*
X411480D02*
D03*
X386080Y505460D02*
D03*
X411480D02*
D03*
X386080Y480060D02*
D03*
X411480D02*
D03*
X386080Y454660D02*
D03*
X335280Y937260D02*
D03*
X360680D02*
D03*
X335280Y911860D02*
D03*
X360680D02*
D03*
X335280Y886460D02*
D03*
X360680D02*
D03*
X335280Y861060D02*
D03*
X360680D02*
D03*
X335280Y835660D02*
D03*
X360680D02*
D03*
X335280Y810260D02*
D03*
X360680D02*
D03*
X335280Y784860D02*
D03*
X360680D02*
D03*
X335280Y759460D02*
D03*
X360680D02*
D03*
X335280Y734060D02*
D03*
X360680D02*
D03*
X335280Y708660D02*
D03*
X360680D02*
D03*
X335280Y683260D02*
D03*
X360680D02*
D03*
X335280Y657860D02*
D03*
X360680D02*
D03*
X335280Y632460D02*
D03*
X360680D02*
D03*
X335280Y607060D02*
D03*
X360680D02*
D03*
X335280Y581660D02*
D03*
X360680D02*
D03*
X335280Y556260D02*
D03*
X360680D02*
D03*
X335280Y530860D02*
D03*
X360680D02*
D03*
X335280Y505460D02*
D03*
X360680D02*
D03*
X335280Y480060D02*
D03*
X360680D02*
D03*
X335280Y454660D02*
D03*
D126*
X411480D02*
D03*
X360680D02*
D03*
D127*
X744000Y717500D02*
D03*
Y705500D02*
D03*
Y729500D02*
D03*
X756000D02*
D03*
Y717500D02*
D03*
Y705500D02*
D03*
X732000D02*
D03*
Y717500D02*
D03*
Y729500D02*
D03*
D128*
X521420Y508250D02*
D03*
X531580D02*
D03*
D129*
X581250Y720750D02*
D03*
Y730750D02*
D03*
X591250D02*
D03*
Y720750D02*
D03*
Y710750D02*
D03*
X581250D02*
D03*
X571250D02*
D03*
Y720750D02*
D03*
Y730750D02*
D03*
M02*
