M48
;Layer_Color=9474304
;FILE_FORMAT=4:4
METRIC,LZ
;TYPE=PLATED
T1F00S00C0.3048
T2F00S00C0.3810
T3F00S00C0.6350
T4F00S00C0.9000
%
T01
X0062238Y0082542
T02
X00466725Y00412115
X00475615
X00484505
X00499745
X00508635
X00517525
X0059182Y0066421
X0062484Y00836295
Y0084582
X00503266
Y00836295
T03
X0077724Y0039624
X0079248
Y00381
X0080772
Y0044196
X0082296
Y004572
X008382
X0085344
Y0044196
X0080772Y004572
Y0051816
X0082296
X008382
X0085344
X0079248
Y004572
X0077724
Y0044196
X0079248
Y0042672
Y0041148
X0077724
Y0042672
X0067691Y0068326
X0063119Y0068834
X0061722
X0060325
X0058674Y006985
X0057277
X005588
Y0071247
Y0072644
Y0074041
X0057277
Y0072644
Y0071247
X0058674
Y0072644
Y0074041
X0059182Y0075311
Y0076454
Y0077597
Y007874
X0058039
X0056515
X0054864
Y0076835
Y0075438
X0053594Y0074549
Y0073152
X0052197
X0050927Y0071882
Y0070358
Y006858
X0052197
X0053594
X0054991
Y006731
Y0065913
X0056388Y006731
Y006858
X0057785
Y006731
X0050927Y0066802
Y0065278
X0052197Y0063881
X0053594
X0054483Y0062484
Y006096
Y0059182
Y0057658
X0054864Y0080518
Y0082042
Y0083312
X0056388
Y0084836
X0054864
X0055626Y0086106
X0058039Y0083312
X0059182Y0082169
Y0081026
Y0079883
X0060833Y0081534
X0066167Y0081788
X006858Y0088646
X0068339Y0090678
X0061214Y0092329
T04
X0041148Y0045466
Y0048006
Y0050546
Y0053086
Y0055626
Y0058166
Y0060706
Y0063246
Y0065786
Y0068326
Y0070866
Y0073406
Y0075946
Y0078486
X0038608
X0036068
X0033528
Y0075946
X0036068
Y0073406
X0033528
Y0070866
X0036068
Y0068326
X0033528
Y0065786
X0036068
Y0063246
X0033528
Y0060706
X0036068
Y0058166
X0033528
Y0055626
X0036068
Y0053086
X0033528
Y0050546
X0036068
Y0048006
X0033528
Y0045466
X0036068
X0038608
Y0048006
Y0050546
Y0053086
Y0055626
Y0058166
Y0060706
Y0063246
Y0065786
Y0068326
Y0070866
Y0073406
Y0075946
Y0081026
X0036068
Y0083566
Y0086106
Y0088646
Y0091186
Y0093726
X0033528
Y0091186
Y0088646
Y0086106
Y0083566
Y0081026
X0038608Y0083566
Y0086106
Y0088646
Y0091186
Y0093726
X0041148
Y0091186
Y0088646
Y0086106
Y0083566
Y0081026
M30
